G04 #@! TF.GenerationSoftware,KiCad,Pcbnew,5.0.0-rc2-unknown-68f6e3a~65~ubuntu16.04.1*
G04 #@! TF.CreationDate,2018-07-23T09:18:11+01:00*
G04 #@! TF.ProjectId,jerboa_panel,6A6572626F615F70616E656C2E6B6963,rev?*
G04 #@! TF.SameCoordinates,Original*
G04 #@! TF.FileFunction,Legend,Top*
G04 #@! TF.FilePolarity,Positive*
%FSLAX46Y46*%
G04 Gerber Fmt 4.6, Leading zero omitted, Abs format (unit mm)*
G04 Created by KiCad (PCBNEW 5.0.0-rc2-unknown-68f6e3a~65~ubuntu16.04.1) date Mon Jul 23 09:18:11 2018*
%MOMM*%
%LPD*%
G01*
G04 APERTURE LIST*
%ADD10C,0.300000*%
%ADD11C,0.150000*%
%ADD12C,0.125000*%
G04 APERTURE END LIST*
D10*
X59028571Y-34907142D02*
X60171428Y-34907142D01*
X73228571Y-34807142D02*
X74371428Y-34807142D01*
X74371428Y-41707142D02*
X73228571Y-41707142D01*
X73800000Y-42278571D02*
X73800000Y-41135714D01*
X60171428Y-41507142D02*
X59028571Y-41507142D01*
X59600000Y-42078571D02*
X59600000Y-40935714D01*
X36171428Y-41507142D02*
X35028571Y-41507142D01*
X35600000Y-42078571D02*
X35600000Y-40935714D01*
X50371428Y-41707142D02*
X49228571Y-41707142D01*
X49800000Y-42278571D02*
X49800000Y-41135714D01*
X49228571Y-34807142D02*
X50371428Y-34807142D01*
X35028571Y-34907142D02*
X36171428Y-34907142D01*
D11*
G04 #@! TO.C,J2*
X56830000Y-53790000D02*
X59370000Y-53790000D01*
X56830000Y-61410000D02*
X56830000Y-53790000D01*
X59370000Y-61410000D02*
X56830000Y-61410000D01*
X59370000Y-53790000D02*
X59370000Y-61410000D01*
G04 #@! TO.C,C35*
X57725000Y-69275000D02*
X57725000Y-69525000D01*
X57725000Y-69525000D02*
X57075000Y-69525000D01*
X57075000Y-69525000D02*
X57075000Y-69275000D01*
X57075000Y-69275000D02*
X57725000Y-69275000D01*
G04 #@! TO.C,U3*
X59125000Y-63150000D02*
X59125000Y-63150000D01*
X59125000Y-63150000D02*
X59125000Y-64450000D01*
X59125000Y-64450000D02*
X58875000Y-64450000D01*
X58875000Y-64450000D02*
X58875000Y-63400000D01*
X58875000Y-63400000D02*
X59125000Y-63150000D01*
G04 #@! TO.C,AE1*
X71400000Y-26900000D02*
X69000000Y-26900000D01*
X69000000Y-26900000D02*
X69000000Y-35500000D01*
X69000000Y-35500000D02*
X71400000Y-35500000D01*
X71400000Y-35500000D02*
X71400000Y-26900000D01*
D10*
X69800000Y-33700000D02*
X69800000Y-31700000D01*
X69600000Y-31700000D02*
X69600000Y-33700000D01*
X69400000Y-33700000D02*
X69400000Y-31700000D01*
X70000000Y-33700000D02*
X70000000Y-31700000D01*
X70000000Y-33700000D02*
X69400000Y-33700000D01*
X70000000Y-31700000D02*
X69400000Y-31700000D01*
D11*
G04 #@! TO.C,IC2*
X62500000Y-44650000D02*
X62500000Y-38550000D01*
X62500000Y-38550000D02*
X71300000Y-38550000D01*
X71300000Y-38550000D02*
X71300000Y-45250000D01*
X71300000Y-45250000D02*
X63100000Y-45250000D01*
X63100000Y-45250000D02*
X62500000Y-44650000D01*
G04 #@! TO.C,C34*
X73475000Y-67925000D02*
X73475000Y-67675000D01*
X73475000Y-67675000D02*
X74125000Y-67675000D01*
X74125000Y-67675000D02*
X74125000Y-67925000D01*
X74125000Y-67925000D02*
X73475000Y-67925000D01*
G04 #@! TO.C,L14*
X59575000Y-69725000D02*
X59575000Y-69075000D01*
X59825000Y-69725000D02*
X59575000Y-69725000D01*
X59825000Y-69075000D02*
X59825000Y-69725000D01*
X59575000Y-69075000D02*
X59825000Y-69075000D01*
G04 #@! TO.C,D1*
X58225000Y-52375000D02*
X58225000Y-53025000D01*
X57975000Y-52700000D02*
X58225000Y-53025000D01*
X57975000Y-52700000D02*
X58225000Y-52375000D01*
G04 #@! TO.C,L13*
X73225000Y-69975000D02*
X73225000Y-70625000D01*
X72975000Y-69975000D02*
X73225000Y-69975000D01*
X72975000Y-70625000D02*
X72975000Y-69975000D01*
X73225000Y-70625000D02*
X72975000Y-70625000D01*
G04 #@! TO.C,U1*
X66455905Y-58847128D02*
X66055905Y-58847128D01*
X66455905Y-58447128D02*
X66455905Y-58847128D01*
X66455905Y-53747128D02*
X66055905Y-53747128D01*
X66455905Y-54147128D02*
X66455905Y-53747128D01*
X61355905Y-53747128D02*
X61755905Y-53747128D01*
X61355905Y-54147128D02*
X61355905Y-53747128D01*
X61755905Y-58847128D02*
X61355905Y-58447128D01*
G04 #@! TO.C,J1*
X72530000Y-40740000D02*
X72530000Y-35660000D01*
X72530000Y-35660000D02*
X75070000Y-35660000D01*
X75070000Y-35660000D02*
X75070000Y-40740000D01*
X75070000Y-40740000D02*
X72530000Y-40740000D01*
G04 #@! TO.C,L4*
X62575000Y-67775000D02*
X63225000Y-67775000D01*
X62575000Y-68025000D02*
X62575000Y-67775000D01*
X63225000Y-68025000D02*
X62575000Y-68025000D01*
X63225000Y-67775000D02*
X63225000Y-68025000D01*
G04 #@! TO.C,U2*
X70800000Y-51900000D02*
X70050000Y-50900000D01*
X68800000Y-51900000D02*
X70800000Y-51900000D01*
X68800000Y-50900000D02*
X68800000Y-51900000D01*
X70050000Y-50900000D02*
X68800000Y-50900000D01*
G04 #@! TO.C,J3*
X60870000Y-40740000D02*
X58330000Y-40740000D01*
X60870000Y-35660000D02*
X60870000Y-40740000D01*
X58330000Y-35660000D02*
X60870000Y-35660000D01*
X58330000Y-40740000D02*
X58330000Y-35660000D01*
G04 #@! TO.C,J4*
X72170000Y-53790000D02*
X72170000Y-58870000D01*
X72170000Y-58870000D02*
X69630000Y-58870000D01*
X69630000Y-58870000D02*
X69630000Y-53790000D01*
X69630000Y-53790000D02*
X72170000Y-53790000D01*
G04 #@! TO.C,Y1*
X64550000Y-65000000D02*
X64250000Y-64750000D01*
X64250000Y-63400000D02*
X64250000Y-64750000D01*
X65150000Y-63400000D02*
X64250000Y-63400000D01*
X65150000Y-65000000D02*
X65150000Y-63400000D01*
X64550000Y-65000000D02*
X65150000Y-65000000D01*
G04 #@! TO.C,IC4*
X66550000Y-66650000D02*
X68250000Y-66650000D01*
X65950000Y-68150000D02*
X68250000Y-68150000D01*
X66550000Y-66650000D02*
G75*
G03X65950000Y-66650000I-300000J0D01*
G01*
G04 #@! TO.C,IC3*
X71100000Y-64000000D02*
X70450000Y-64000000D01*
X71100000Y-63350000D02*
X71100000Y-64000000D01*
X71100000Y-59900000D02*
X70450000Y-59900000D01*
X71100000Y-60550000D02*
X71100000Y-59900000D01*
X67000000Y-59900000D02*
X67650000Y-59900000D01*
X67000000Y-60550000D02*
X67000000Y-59900000D01*
X67650000Y-64000000D02*
X67000000Y-63350000D01*
G04 #@! TO.C,IC1*
X61000000Y-42500000D02*
X61000000Y-44500000D01*
X59000000Y-44500000D02*
X59000000Y-42500000D01*
G04 #@! TO.C,L1*
X58400000Y-42800000D02*
X58400000Y-42400000D01*
X57400000Y-42800000D02*
X58400000Y-42800000D01*
X57400000Y-42400000D02*
X57400000Y-42800000D01*
X58400000Y-42400000D02*
X57400000Y-42400000D01*
G04 #@! TO.C,L2*
X70225000Y-65725000D02*
X69975000Y-65725000D01*
X69975000Y-65725000D02*
X69975000Y-65075000D01*
X69975000Y-65075000D02*
X70225000Y-65075000D01*
X70225000Y-65075000D02*
X70225000Y-65725000D01*
G04 #@! TO.C,J1*
X51070000Y-40740000D02*
X48530000Y-40740000D01*
X51070000Y-35660000D02*
X51070000Y-40740000D01*
X48530000Y-35660000D02*
X51070000Y-35660000D01*
X48530000Y-40740000D02*
X48530000Y-35660000D01*
G04 #@! TO.C,U1*
X37755905Y-58847128D02*
X37355905Y-58447128D01*
X37355905Y-54147128D02*
X37355905Y-53747128D01*
X37355905Y-53747128D02*
X37755905Y-53747128D01*
X42455905Y-54147128D02*
X42455905Y-53747128D01*
X42455905Y-53747128D02*
X42055905Y-53747128D01*
X42455905Y-58447128D02*
X42455905Y-58847128D01*
X42455905Y-58847128D02*
X42055905Y-58847128D01*
D10*
G04 #@! TO.C,AE1*
X46000000Y-31700000D02*
X45400000Y-31700000D01*
X46000000Y-33700000D02*
X45400000Y-33700000D01*
X46000000Y-33700000D02*
X46000000Y-31700000D01*
X45400000Y-33700000D02*
X45400000Y-31700000D01*
X45600000Y-31700000D02*
X45600000Y-33700000D01*
X45800000Y-33700000D02*
X45800000Y-31700000D01*
D11*
X47400000Y-35500000D02*
X47400000Y-26900000D01*
X45000000Y-35500000D02*
X47400000Y-35500000D01*
X45000000Y-26900000D02*
X45000000Y-35500000D01*
X47400000Y-26900000D02*
X45000000Y-26900000D01*
G04 #@! TO.C,C34*
X50125000Y-67925000D02*
X49475000Y-67925000D01*
X50125000Y-67675000D02*
X50125000Y-67925000D01*
X49475000Y-67675000D02*
X50125000Y-67675000D01*
X49475000Y-67925000D02*
X49475000Y-67675000D01*
G04 #@! TO.C,C35*
X33075000Y-69275000D02*
X33725000Y-69275000D01*
X33075000Y-69525000D02*
X33075000Y-69275000D01*
X33725000Y-69525000D02*
X33075000Y-69525000D01*
X33725000Y-69275000D02*
X33725000Y-69525000D01*
G04 #@! TO.C,D1*
X33975000Y-52700000D02*
X34225000Y-52375000D01*
X33975000Y-52700000D02*
X34225000Y-53025000D01*
X34225000Y-52375000D02*
X34225000Y-53025000D01*
G04 #@! TO.C,IC2*
X39100000Y-45250000D02*
X38500000Y-44650000D01*
X47300000Y-45250000D02*
X39100000Y-45250000D01*
X47300000Y-38550000D02*
X47300000Y-45250000D01*
X38500000Y-38550000D02*
X47300000Y-38550000D01*
X38500000Y-44650000D02*
X38500000Y-38550000D01*
G04 #@! TO.C,IC3*
X43650000Y-64000000D02*
X43000000Y-63350000D01*
X43000000Y-60550000D02*
X43000000Y-59900000D01*
X43000000Y-59900000D02*
X43650000Y-59900000D01*
X47100000Y-60550000D02*
X47100000Y-59900000D01*
X47100000Y-59900000D02*
X46450000Y-59900000D01*
X47100000Y-63350000D02*
X47100000Y-64000000D01*
X47100000Y-64000000D02*
X46450000Y-64000000D01*
G04 #@! TO.C,IC4*
X42550000Y-66650000D02*
G75*
G03X41950000Y-66650000I-300000J0D01*
G01*
X41950000Y-68150000D02*
X44250000Y-68150000D01*
X42550000Y-66650000D02*
X44250000Y-66650000D01*
G04 #@! TO.C,J2*
X35370000Y-53790000D02*
X35370000Y-61410000D01*
X35370000Y-61410000D02*
X32830000Y-61410000D01*
X32830000Y-61410000D02*
X32830000Y-53790000D01*
X32830000Y-53790000D02*
X35370000Y-53790000D01*
G04 #@! TO.C,J3*
X34330000Y-40740000D02*
X34330000Y-35660000D01*
X34330000Y-35660000D02*
X36870000Y-35660000D01*
X36870000Y-35660000D02*
X36870000Y-40740000D01*
X36870000Y-40740000D02*
X34330000Y-40740000D01*
G04 #@! TO.C,J4*
X45630000Y-53790000D02*
X48170000Y-53790000D01*
X45630000Y-58870000D02*
X45630000Y-53790000D01*
X48170000Y-58870000D02*
X45630000Y-58870000D01*
X48170000Y-53790000D02*
X48170000Y-58870000D01*
G04 #@! TO.C,L2*
X46225000Y-65075000D02*
X46225000Y-65725000D01*
X45975000Y-65075000D02*
X46225000Y-65075000D01*
X45975000Y-65725000D02*
X45975000Y-65075000D01*
X46225000Y-65725000D02*
X45975000Y-65725000D01*
G04 #@! TO.C,L4*
X39225000Y-67775000D02*
X39225000Y-68025000D01*
X39225000Y-68025000D02*
X38575000Y-68025000D01*
X38575000Y-68025000D02*
X38575000Y-67775000D01*
X38575000Y-67775000D02*
X39225000Y-67775000D01*
G04 #@! TO.C,L13*
X49225000Y-70625000D02*
X48975000Y-70625000D01*
X48975000Y-70625000D02*
X48975000Y-69975000D01*
X48975000Y-69975000D02*
X49225000Y-69975000D01*
X49225000Y-69975000D02*
X49225000Y-70625000D01*
G04 #@! TO.C,L14*
X35575000Y-69075000D02*
X35825000Y-69075000D01*
X35825000Y-69075000D02*
X35825000Y-69725000D01*
X35825000Y-69725000D02*
X35575000Y-69725000D01*
X35575000Y-69725000D02*
X35575000Y-69075000D01*
G04 #@! TO.C,IC1*
X35000000Y-44500000D02*
X35000000Y-42500000D01*
X37000000Y-42500000D02*
X37000000Y-44500000D01*
G04 #@! TO.C,L1*
X34400000Y-42400000D02*
X33400000Y-42400000D01*
X33400000Y-42400000D02*
X33400000Y-42800000D01*
X33400000Y-42800000D02*
X34400000Y-42800000D01*
X34400000Y-42800000D02*
X34400000Y-42400000D01*
G04 #@! TO.C,U2*
X46050000Y-50900000D02*
X44800000Y-50900000D01*
X44800000Y-50900000D02*
X44800000Y-51900000D01*
X44800000Y-51900000D02*
X46800000Y-51900000D01*
X46800000Y-51900000D02*
X46050000Y-50900000D01*
G04 #@! TO.C,U3*
X34875000Y-63400000D02*
X35125000Y-63150000D01*
X34875000Y-64450000D02*
X34875000Y-63400000D01*
X35125000Y-64450000D02*
X34875000Y-64450000D01*
X35125000Y-63150000D02*
X35125000Y-64450000D01*
X35125000Y-63150000D02*
X35125000Y-63150000D01*
G04 #@! TO.C,Y1*
X40550000Y-65000000D02*
X41150000Y-65000000D01*
X41150000Y-65000000D02*
X41150000Y-63400000D01*
X41150000Y-63400000D02*
X40250000Y-63400000D01*
X40250000Y-63400000D02*
X40250000Y-64750000D01*
X40550000Y-65000000D02*
X40250000Y-64750000D01*
G04 #@! TO.C,P3*
D12*
X71383333Y-73557142D02*
X71383333Y-73200000D01*
X71526190Y-73628571D02*
X71026190Y-73378571D01*
X71526190Y-73128571D01*
X71526190Y-72878571D02*
X71026190Y-72878571D01*
X71526190Y-72450000D01*
X71026190Y-72450000D01*
X71026190Y-72200000D02*
X71026190Y-71771428D01*
X71526190Y-71985714D02*
X71026190Y-71985714D01*
G04 #@! TO.C,P2*
X60583333Y-73557142D02*
X60583333Y-73200000D01*
X60726190Y-73628571D02*
X60226190Y-73378571D01*
X60726190Y-73128571D01*
X60726190Y-72878571D02*
X60226190Y-72878571D01*
X60726190Y-72450000D01*
X60226190Y-72450000D01*
X60226190Y-72200000D02*
X60226190Y-71771428D01*
X60726190Y-71985714D02*
X60226190Y-71985714D01*
X36583333Y-73557142D02*
X36583333Y-73200000D01*
X36726190Y-73628571D02*
X36226190Y-73378571D01*
X36726190Y-73128571D01*
X36726190Y-72878571D02*
X36226190Y-72878571D01*
X36726190Y-72450000D01*
X36226190Y-72450000D01*
X36226190Y-72200000D02*
X36226190Y-71771428D01*
X36726190Y-71985714D02*
X36226190Y-71985714D01*
G04 #@! TO.C,P3*
X47383333Y-73557142D02*
X47383333Y-73200000D01*
X47526190Y-73628571D02*
X47026190Y-73378571D01*
X47526190Y-73128571D01*
X47526190Y-72878571D02*
X47026190Y-72878571D01*
X47526190Y-72450000D01*
X47026190Y-72450000D01*
X47026190Y-72200000D02*
X47026190Y-71771428D01*
X47526190Y-71985714D02*
X47026190Y-71985714D01*
G04 #@! TD*
M02*
