M48
;DRILL file {KiCad 5.0.0-rc2-unknown-68f6e3a~65~ubuntu16.04.1} date Mon Jul 23 09:18:21 2018
;FORMAT={-:-/ absolute / inch / decimal}
FMAT,2
INCH,TZ
T1C0.0157
T2C0.0197
T3C0.0394
T4C0.0394
T5C0.1083
%
G90
G05
M72
T1
X1.2717Y-1.5591
X1.2877Y-2.6205
X1.2953Y-2.5591
X1.3004Y-1.9606
X1.3189Y-2.8268
X1.3189Y-2.8976
X1.3543Y-2.8622
X1.3819Y-2.465
X1.3858Y-1.815
X1.3898Y-2.8268
X1.3898Y-2.8976
X1.3937Y-2.4094
X1.4492Y-1.878
X1.462Y-2.3872
X1.5157Y-1.5591
X1.5157Y-1.6496
X1.5157Y-1.7402
X1.5315Y-1.9134
X1.5433Y-2.5994
X1.5534Y-2.0001
X1.563Y-2.7717
X1.5728Y-2.4409
X1.6024Y-1.5591
X1.6024Y-1.6496
X1.6024Y-1.7402
X1.6472Y-1.9803
X1.6713Y-1.9449
X1.6772Y-2.3189
X1.6811Y-2.1142
X1.689Y-1.5591
X1.689Y-1.6496
X1.689Y-1.7402
X1.6929Y-2.5197
X1.6969Y-2.6535
X1.7114Y-1.9273
X1.7213Y-2.2126
X1.7362Y-2.3071
X1.7441Y-2.4094
X1.7441Y-2.4685
X1.7652Y-2.2756
X1.7657Y-2.2184
X1.7736Y-2.439
X1.7756Y-1.5591
X1.7756Y-1.6496
X1.7756Y-1.7402
X1.8031Y-2.4094
X1.8031Y-2.4685
X1.811Y-2.7402
X1.8272Y-1.9022
X1.8504Y-2.3622
X1.8622Y-1.5591
X1.8622Y-1.6496
X1.8622Y-1.7402
X1.8783Y-2.0115
X1.9094Y-2.8268
X1.9094Y-2.8976
X1.9449Y-2.8622
X1.9803Y-2.8268
X1.9803Y-2.8976
X1.9843Y-2.4409
X1.9843Y-2.4882
X1.9843Y-2.5354
X1.9843Y-2.5827
X2.2165Y-1.5591
X2.2326Y-2.6205
X2.2402Y-2.5591
X2.2453Y-1.9606
X2.2638Y-2.8268
X2.2638Y-2.8976
X2.2992Y-2.8622
X2.3268Y-2.465
X2.3307Y-1.815
X2.3346Y-2.8268
X2.3346Y-2.8976
X2.3386Y-2.4094
X2.3941Y-1.878
X2.4069Y-2.3872
X2.4606Y-1.5591
X2.4606Y-1.6496
X2.4606Y-1.7402
X2.4764Y-1.9134
X2.4882Y-2.5994
X2.4983Y-2.0001
X2.5079Y-2.7717
X2.5177Y-2.4409
X2.5472Y-1.5591
X2.5472Y-1.6496
X2.5472Y-1.7402
X2.5921Y-1.9803
X2.6161Y-1.9449
X2.622Y-2.3189
X2.626Y-2.1142
X2.6339Y-1.5591
X2.6339Y-1.6496
X2.6339Y-1.7402
X2.6378Y-2.5197
X2.6417Y-2.6535
X2.6563Y-1.9273
X2.6662Y-2.2126
X2.6811Y-2.3071
X2.689Y-2.4094
X2.689Y-2.4685
X2.71Y-2.2756
X2.7106Y-2.2184
X2.7185Y-2.439
X2.7205Y-1.5591
X2.7205Y-1.6496
X2.7205Y-1.7402
X2.748Y-2.4094
X2.748Y-2.4685
X2.7559Y-2.7402
X2.7721Y-1.9022
X2.7953Y-2.3622
X2.8071Y-1.5591
X2.8071Y-1.6496
X2.8071Y-1.7402
X2.8232Y-2.0115
X2.8543Y-2.8268
X2.8543Y-2.8976
X2.8898Y-2.8622
X2.9252Y-2.8268
X2.9252Y-2.8976
X2.9291Y-2.4409
X2.9291Y-2.4882
X2.9291Y-2.5354
X2.9291Y-2.5827
X2.4668Y-2.1672
X2.4668Y-2.2656
X2.5652Y-2.1672
X2.5652Y-2.2656
X1.5219Y-2.1672
X1.5219Y-2.2656
X1.6203Y-2.1672
X1.6203Y-2.2656
T2
X2.5945Y-2.874
X1.6496Y-2.874
T3
X1.9606Y-1.4539
X1.9606Y-1.5539
X2.7913Y-2.1677
X2.7913Y-2.2677
X2.3465Y-1.4539
X2.3465Y-1.5539
X1.4016Y-1.4539
X1.4016Y-1.5539
X2.2874Y-2.1677
X2.2874Y-2.2677
X2.2874Y-2.3677
X2.9055Y-1.4539
X2.9055Y-1.5539
X1.8465Y-2.1677
X1.8465Y-2.2677
X1.3425Y-2.1677
X1.3425Y-2.2677
X1.3425Y-2.3677
T4
X2.274Y-1.9243
X2.274Y-2.0043
X2.474Y-1.9643
X1.3291Y-1.9243
X1.3291Y-2.0043
X1.5291Y-1.9643
T5
X1.622Y-1.2598
X2.5669Y-1.2598
T0
M30
