G04 #@! TF.GenerationSoftware,KiCad,Pcbnew,5.0.0-rc2-unknown-68f6e3a~65~ubuntu16.04.1*
G04 #@! TF.CreationDate,2018-07-23T09:18:11+01:00*
G04 #@! TF.ProjectId,jerboa_panel,6A6572626F615F70616E656C2E6B6963,rev?*
G04 #@! TF.SameCoordinates,Original*
G04 #@! TF.FileFunction,Soldermask,Top*
G04 #@! TF.FilePolarity,Negative*
%FSLAX46Y46*%
G04 Gerber Fmt 4.6, Leading zero omitted, Abs format (unit mm)*
G04 Created by KiCad (PCBNEW 5.0.0-rc2-unknown-68f6e3a~65~ubuntu16.04.1) date Mon Jul 23 09:18:11 2018*
%MOMM*%
%LPD*%
G01*
G04 APERTURE LIST*
%ADD10R,0.620000X0.620000*%
%ADD11C,1.900000*%
%ADD12R,1.900000X1.900000*%
%ADD13R,1.000000X0.950000*%
%ADD14R,0.950000X0.400000*%
%ADD15R,2.000000X1.000000*%
%ADD16R,0.700000X1.800000*%
%ADD17R,0.950000X1.000000*%
%ADD18C,1.000000*%
%ADD19C,0.787000*%
%ADD20R,2.000000X2.000000*%
%ADD21R,0.600000X0.300000*%
%ADD22R,0.300000X0.600000*%
%ADD23R,3.000000X3.000000*%
%ADD24R,0.690000X0.990000*%
%ADD25C,2.750000*%
%ADD26R,0.800000X1.000000*%
%ADD27R,0.300000X0.300000*%
%ADD28R,0.250000X0.299000*%
%ADD29R,2.602000X2.602000*%
%ADD30R,0.750000X0.300000*%
%ADD31R,0.300000X0.750000*%
%ADD32R,0.400000X0.500000*%
%ADD33R,1.600000X1.000000*%
%ADD34R,1.600000X0.800000*%
%ADD35C,2.000000*%
G04 APERTURE END LIST*
D10*
G04 #@! TO.C,C20*
X69950000Y-66800000D03*
X69050000Y-66800000D03*
G04 #@! TD*
D11*
G04 #@! TO.C,J2*
X58100000Y-60140000D03*
X58100000Y-57600000D03*
D12*
X58100000Y-55060000D03*
G04 #@! TD*
D13*
G04 #@! TO.C,C35*
X57400000Y-68600000D03*
X57400000Y-70200000D03*
G04 #@! TD*
D14*
G04 #@! TO.C,U3*
X57900000Y-63150000D03*
X57900000Y-63800000D03*
X57900000Y-64450000D03*
X60100000Y-64450000D03*
X60100000Y-63150000D03*
G04 #@! TD*
D15*
G04 #@! TO.C,AE1*
X70200000Y-27700000D03*
X70200000Y-34700000D03*
G04 #@! TD*
D10*
G04 #@! TO.C,C14*
X65800000Y-61950000D03*
X65800000Y-61050000D03*
G04 #@! TD*
G04 #@! TO.C,C2*
X67900000Y-50750000D03*
X67900000Y-49850000D03*
G04 #@! TD*
G04 #@! TO.C,C31*
X73450000Y-65600000D03*
X72550000Y-65600000D03*
G04 #@! TD*
G04 #@! TO.C,C3*
X56400000Y-64100000D03*
X56400000Y-63200000D03*
G04 #@! TD*
G04 #@! TO.C,C10*
X61550000Y-59800000D03*
X62450000Y-59800000D03*
G04 #@! TD*
D16*
G04 #@! TO.C,IC2*
X62500000Y-46650000D03*
X63600000Y-46650000D03*
X64700000Y-46650000D03*
X65800000Y-46650000D03*
X66900000Y-46650000D03*
X68000000Y-46650000D03*
X69100000Y-46650000D03*
X70200000Y-46650000D03*
X71300000Y-46650000D03*
X71300000Y-37150000D03*
X70200000Y-37150000D03*
X69100000Y-37150000D03*
X68000000Y-37150000D03*
X66900000Y-37150000D03*
X65800000Y-37150000D03*
X64700000Y-37150000D03*
X63600000Y-37150000D03*
X62500000Y-37150000D03*
G04 #@! TD*
D10*
G04 #@! TO.C,D3*
X70050000Y-70500000D03*
X70950000Y-70500000D03*
G04 #@! TD*
D13*
G04 #@! TO.C,C34*
X73800000Y-68600000D03*
X73800000Y-67000000D03*
G04 #@! TD*
D10*
G04 #@! TO.C,C33*
X72400000Y-68950000D03*
X72400000Y-68050000D03*
G04 #@! TD*
G04 #@! TO.C,C1*
X60000000Y-46100000D03*
X60900000Y-46100000D03*
G04 #@! TD*
D17*
G04 #@! TO.C,L14*
X60500000Y-69400000D03*
X58900000Y-69400000D03*
G04 #@! TD*
D10*
G04 #@! TO.C,C32*
X71450000Y-66800000D03*
X72350000Y-66800000D03*
G04 #@! TD*
D17*
G04 #@! TO.C,D1*
X58900000Y-52700000D03*
X57300000Y-52700000D03*
G04 #@! TD*
D10*
G04 #@! TO.C,C4*
X62350000Y-65600000D03*
X61450000Y-65600000D03*
G04 #@! TD*
G04 #@! TO.C,C16*
X69500000Y-48400000D03*
X68600000Y-48400000D03*
G04 #@! TD*
D17*
G04 #@! TO.C,L13*
X72300000Y-70300000D03*
X73900000Y-70300000D03*
G04 #@! TD*
D10*
G04 #@! TO.C,C13*
X61450000Y-64400000D03*
X62350000Y-64400000D03*
G04 #@! TD*
G04 #@! TO.C,C21*
X64250000Y-67000000D03*
X65150000Y-67000000D03*
G04 #@! TD*
D18*
G04 #@! TO.C,P1*
X57760000Y-50908128D03*
X57760000Y-48876128D03*
X62840000Y-49892128D03*
D19*
X59030000Y-50527128D03*
X59030000Y-49257128D03*
X60300000Y-50527128D03*
X60300000Y-49257128D03*
X61570000Y-50527128D03*
X61570000Y-49257128D03*
G04 #@! TD*
D10*
G04 #@! TO.C,C19*
X73450000Y-64400000D03*
X72550000Y-64400000D03*
G04 #@! TD*
G04 #@! TO.C,C11*
X57350000Y-46100000D03*
X58250000Y-46100000D03*
G04 #@! TD*
G04 #@! TO.C,C27*
X59650000Y-65800000D03*
X60550000Y-65800000D03*
G04 #@! TD*
G04 #@! TO.C,C18*
X73450000Y-63200000D03*
X72550000Y-63200000D03*
G04 #@! TD*
G04 #@! TO.C,C23*
X65150000Y-68200000D03*
X64250000Y-68200000D03*
G04 #@! TD*
G04 #@! TO.C,C29*
X68800000Y-69950000D03*
X68800000Y-69050000D03*
G04 #@! TD*
G04 #@! TO.C,C5*
X65750000Y-51500000D03*
X66650000Y-51500000D03*
G04 #@! TD*
D20*
G04 #@! TO.C,U1*
X63905905Y-56297128D03*
D21*
X61555905Y-58047128D03*
X61555905Y-57547128D03*
X61555905Y-57047128D03*
X61555905Y-56547128D03*
X61555905Y-56047128D03*
X61555905Y-55547128D03*
X61555905Y-55047128D03*
X61555905Y-54547128D03*
D22*
X62155905Y-53947128D03*
X62655905Y-53947128D03*
X63155905Y-53947128D03*
X63655905Y-53947128D03*
X64155905Y-53947128D03*
X64655905Y-53947128D03*
X65155905Y-53947128D03*
X65655905Y-53947128D03*
D21*
X66255905Y-54547128D03*
X66255905Y-55047128D03*
X66255905Y-55547128D03*
X66255905Y-56047128D03*
X66255905Y-56547128D03*
X66255905Y-57047128D03*
X66255905Y-57547128D03*
X66255905Y-58047128D03*
D22*
X65655905Y-58647128D03*
X65155905Y-58647128D03*
X64655905Y-58647128D03*
X64155905Y-58647128D03*
X63655905Y-58647128D03*
X63155905Y-58647128D03*
X62655905Y-58647128D03*
X62155905Y-58647128D03*
G04 #@! TD*
D10*
G04 #@! TO.C,C12*
X57400000Y-37450000D03*
X57400000Y-38350000D03*
G04 #@! TD*
G04 #@! TO.C,D2*
X62750000Y-70100000D03*
X61850000Y-70100000D03*
G04 #@! TD*
G04 #@! TO.C,C25*
X61500000Y-67050000D03*
X61500000Y-67950000D03*
G04 #@! TD*
G04 #@! TO.C,C9*
X64000000Y-60750000D03*
X64000000Y-59850000D03*
G04 #@! TD*
G04 #@! TO.C,C6*
X60300000Y-59350000D03*
X60300000Y-60250000D03*
G04 #@! TD*
G04 #@! TO.C,C8*
X66650000Y-52700000D03*
X65750000Y-52700000D03*
G04 #@! TD*
D12*
G04 #@! TO.C,J1*
X73800000Y-39470000D03*
D11*
X73800000Y-36930000D03*
G04 #@! TD*
D10*
G04 #@! TO.C,C17*
X73450000Y-62000000D03*
X72550000Y-62000000D03*
G04 #@! TD*
G04 #@! TO.C,L6*
X64250000Y-69400000D03*
X65150000Y-69400000D03*
G04 #@! TD*
G04 #@! TO.C,C26*
X64700000Y-71550000D03*
X64700000Y-70650000D03*
G04 #@! TD*
G04 #@! TO.C,R9*
X67950000Y-65300000D03*
X67050000Y-65300000D03*
G04 #@! TD*
D13*
G04 #@! TO.C,L4*
X62900000Y-68700000D03*
X62900000Y-67100000D03*
G04 #@! TD*
D10*
G04 #@! TO.C,C28*
X67050000Y-71200000D03*
X66150000Y-71200000D03*
G04 #@! TD*
G04 #@! TO.C,R1*
X56300000Y-43950000D03*
X56300000Y-44850000D03*
G04 #@! TD*
D23*
G04 #@! TO.C,P3*
X73400000Y-72700000D03*
X69400000Y-72700000D03*
G04 #@! TD*
G04 #@! TO.C,P2*
X62400000Y-72700000D03*
X58400000Y-72700000D03*
G04 #@! TD*
D24*
G04 #@! TO.C,U2*
X70750000Y-52695000D03*
X69800000Y-52695000D03*
X68850000Y-52695000D03*
X68850000Y-50105000D03*
X69800000Y-50105000D03*
X70750000Y-50105000D03*
G04 #@! TD*
D10*
G04 #@! TO.C,R4*
X71700000Y-49400000D03*
X71700000Y-50300000D03*
G04 #@! TD*
G04 #@! TO.C,R3*
X67900000Y-52850000D03*
X67900000Y-51950000D03*
G04 #@! TD*
D11*
G04 #@! TO.C,J3*
X59600000Y-36930000D03*
D12*
X59600000Y-39470000D03*
G04 #@! TD*
D10*
G04 #@! TO.C,R6*
X60300000Y-52850000D03*
X60300000Y-53750000D03*
G04 #@! TD*
D25*
G04 #@! TO.C,X1*
X65200000Y-32000000D03*
G04 #@! TD*
D12*
G04 #@! TO.C,J4*
X70900000Y-55060000D03*
D11*
X70900000Y-57600000D03*
G04 #@! TD*
D10*
G04 #@! TO.C,R8*
X60400000Y-57200000D03*
X60400000Y-58100000D03*
G04 #@! TD*
D26*
G04 #@! TO.C,Y1*
X63650000Y-64900000D03*
X63650000Y-63500000D03*
X65750000Y-64900000D03*
X65750000Y-63500000D03*
G04 #@! TD*
D27*
G04 #@! TO.C,IC4*
X66150000Y-66850000D03*
X66150000Y-67400000D03*
X66150000Y-67950000D03*
X68050000Y-67950000D03*
X68050000Y-67400000D03*
X68050000Y-66850000D03*
D28*
X66675000Y-66851000D03*
X66675000Y-67400000D03*
X66675000Y-67949000D03*
X67100000Y-66851000D03*
X67100000Y-67400000D03*
X67100000Y-67949000D03*
X67525000Y-66851000D03*
X67525000Y-67400000D03*
X67525000Y-67949000D03*
G04 #@! TD*
D29*
G04 #@! TO.C,IC3*
X69050000Y-61950000D03*
D30*
X67050000Y-62950000D03*
X67050000Y-62450000D03*
X67050000Y-61950000D03*
X67050000Y-61450000D03*
X67050000Y-60950000D03*
D31*
X68050000Y-59950000D03*
X68550000Y-59950000D03*
X69050000Y-59950000D03*
X69550000Y-59950000D03*
X70050000Y-59950000D03*
D30*
X71050000Y-60950000D03*
X71050000Y-61450000D03*
X71050000Y-61950000D03*
X71050000Y-62450000D03*
X71050000Y-62950000D03*
D31*
X70050000Y-63950000D03*
X69550000Y-63950000D03*
X69050000Y-63950000D03*
X68550000Y-63950000D03*
X68050000Y-63950000D03*
G04 #@! TD*
D10*
G04 #@! TO.C,C30*
X57700000Y-67200000D03*
X57700000Y-66300000D03*
G04 #@! TD*
D32*
G04 #@! TO.C,IC1*
X60650000Y-44400000D03*
X60000000Y-44400000D03*
X59350000Y-44400000D03*
X59350000Y-42600000D03*
X60000000Y-42600000D03*
X60650000Y-42600000D03*
D33*
X60000000Y-43500000D03*
G04 #@! TD*
D10*
G04 #@! TO.C,C7*
X62800000Y-61950000D03*
X62800000Y-61050000D03*
G04 #@! TD*
D34*
G04 #@! TO.C,L1*
X57900000Y-43500000D03*
X57900000Y-41700000D03*
G04 #@! TD*
D10*
G04 #@! TO.C,L11*
X67600000Y-69050000D03*
X67600000Y-69950000D03*
G04 #@! TD*
D17*
G04 #@! TO.C,L2*
X70900000Y-65400000D03*
X69300000Y-65400000D03*
G04 #@! TD*
D10*
G04 #@! TO.C,L12*
X70150000Y-68600000D03*
X71050000Y-68600000D03*
G04 #@! TD*
D35*
G04 #@! TO.C,TP1*
X65900000Y-73000000D03*
G04 #@! TD*
D10*
G04 #@! TO.C,L10*
X58900000Y-67950000D03*
X58900000Y-67050000D03*
G04 #@! TD*
G04 #@! TO.C,L7*
X60300000Y-67050000D03*
X60300000Y-67950000D03*
G04 #@! TD*
G04 #@! TO.C,R2*
X57400000Y-40450000D03*
X57400000Y-39550000D03*
G04 #@! TD*
G04 #@! TO.C,L3*
X66400000Y-69950000D03*
X66400000Y-69050000D03*
G04 #@! TD*
G04 #@! TO.C,R7*
X60300000Y-55100000D03*
X60300000Y-56000000D03*
G04 #@! TD*
G04 #@! TO.C,C30*
X33700000Y-66300000D03*
X33700000Y-67200000D03*
G04 #@! TD*
D11*
G04 #@! TO.C,J1*
X49800000Y-36930000D03*
D12*
X49800000Y-39470000D03*
G04 #@! TD*
D10*
G04 #@! TO.C,R8*
X36400000Y-58100000D03*
X36400000Y-57200000D03*
G04 #@! TD*
D22*
G04 #@! TO.C,U1*
X38155905Y-58647128D03*
X38655905Y-58647128D03*
X39155905Y-58647128D03*
X39655905Y-58647128D03*
X40155905Y-58647128D03*
X40655905Y-58647128D03*
X41155905Y-58647128D03*
X41655905Y-58647128D03*
D21*
X42255905Y-58047128D03*
X42255905Y-57547128D03*
X42255905Y-57047128D03*
X42255905Y-56547128D03*
X42255905Y-56047128D03*
X42255905Y-55547128D03*
X42255905Y-55047128D03*
X42255905Y-54547128D03*
D22*
X41655905Y-53947128D03*
X41155905Y-53947128D03*
X40655905Y-53947128D03*
X40155905Y-53947128D03*
X39655905Y-53947128D03*
X39155905Y-53947128D03*
X38655905Y-53947128D03*
X38155905Y-53947128D03*
D21*
X37555905Y-54547128D03*
X37555905Y-55047128D03*
X37555905Y-55547128D03*
X37555905Y-56047128D03*
X37555905Y-56547128D03*
X37555905Y-57047128D03*
X37555905Y-57547128D03*
X37555905Y-58047128D03*
D20*
X39905905Y-56297128D03*
G04 #@! TD*
D15*
G04 #@! TO.C,AE1*
X46200000Y-34700000D03*
X46200000Y-27700000D03*
G04 #@! TD*
D10*
G04 #@! TO.C,C1*
X36900000Y-46100000D03*
X36000000Y-46100000D03*
G04 #@! TD*
G04 #@! TO.C,C2*
X43900000Y-49850000D03*
X43900000Y-50750000D03*
G04 #@! TD*
G04 #@! TO.C,C3*
X32400000Y-63200000D03*
X32400000Y-64100000D03*
G04 #@! TD*
G04 #@! TO.C,C4*
X37450000Y-65600000D03*
X38350000Y-65600000D03*
G04 #@! TD*
G04 #@! TO.C,C5*
X42650000Y-51500000D03*
X41750000Y-51500000D03*
G04 #@! TD*
G04 #@! TO.C,C6*
X36300000Y-60250000D03*
X36300000Y-59350000D03*
G04 #@! TD*
G04 #@! TO.C,C7*
X38800000Y-61050000D03*
X38800000Y-61950000D03*
G04 #@! TD*
G04 #@! TO.C,C8*
X41750000Y-52700000D03*
X42650000Y-52700000D03*
G04 #@! TD*
G04 #@! TO.C,C9*
X40000000Y-59850000D03*
X40000000Y-60750000D03*
G04 #@! TD*
G04 #@! TO.C,C10*
X38450000Y-59800000D03*
X37550000Y-59800000D03*
G04 #@! TD*
G04 #@! TO.C,C11*
X34250000Y-46100000D03*
X33350000Y-46100000D03*
G04 #@! TD*
G04 #@! TO.C,C12*
X33400000Y-38350000D03*
X33400000Y-37450000D03*
G04 #@! TD*
G04 #@! TO.C,C13*
X38350000Y-64400000D03*
X37450000Y-64400000D03*
G04 #@! TD*
G04 #@! TO.C,C14*
X41800000Y-61050000D03*
X41800000Y-61950000D03*
G04 #@! TD*
G04 #@! TO.C,C16*
X44600000Y-48400000D03*
X45500000Y-48400000D03*
G04 #@! TD*
G04 #@! TO.C,C17*
X48550000Y-62000000D03*
X49450000Y-62000000D03*
G04 #@! TD*
G04 #@! TO.C,C18*
X48550000Y-63200000D03*
X49450000Y-63200000D03*
G04 #@! TD*
G04 #@! TO.C,C19*
X48550000Y-64400000D03*
X49450000Y-64400000D03*
G04 #@! TD*
G04 #@! TO.C,C20*
X45050000Y-66800000D03*
X45950000Y-66800000D03*
G04 #@! TD*
G04 #@! TO.C,C21*
X41150000Y-67000000D03*
X40250000Y-67000000D03*
G04 #@! TD*
G04 #@! TO.C,C23*
X40250000Y-68200000D03*
X41150000Y-68200000D03*
G04 #@! TD*
G04 #@! TO.C,C25*
X37500000Y-67950000D03*
X37500000Y-67050000D03*
G04 #@! TD*
G04 #@! TO.C,C26*
X40700000Y-70650000D03*
X40700000Y-71550000D03*
G04 #@! TD*
G04 #@! TO.C,C27*
X36550000Y-65800000D03*
X35650000Y-65800000D03*
G04 #@! TD*
G04 #@! TO.C,C28*
X42150000Y-71200000D03*
X43050000Y-71200000D03*
G04 #@! TD*
G04 #@! TO.C,C29*
X44800000Y-69050000D03*
X44800000Y-69950000D03*
G04 #@! TD*
G04 #@! TO.C,C31*
X48550000Y-65600000D03*
X49450000Y-65600000D03*
G04 #@! TD*
G04 #@! TO.C,C32*
X48350000Y-66800000D03*
X47450000Y-66800000D03*
G04 #@! TD*
G04 #@! TO.C,C33*
X48400000Y-68050000D03*
X48400000Y-68950000D03*
G04 #@! TD*
D13*
G04 #@! TO.C,C34*
X49800000Y-67000000D03*
X49800000Y-68600000D03*
G04 #@! TD*
G04 #@! TO.C,C35*
X33400000Y-70200000D03*
X33400000Y-68600000D03*
G04 #@! TD*
D17*
G04 #@! TO.C,D1*
X33300000Y-52700000D03*
X34900000Y-52700000D03*
G04 #@! TD*
D10*
G04 #@! TO.C,D2*
X37850000Y-70100000D03*
X38750000Y-70100000D03*
G04 #@! TD*
G04 #@! TO.C,D3*
X46950000Y-70500000D03*
X46050000Y-70500000D03*
G04 #@! TD*
D16*
G04 #@! TO.C,IC2*
X38500000Y-37150000D03*
X39600000Y-37150000D03*
X40700000Y-37150000D03*
X41800000Y-37150000D03*
X42900000Y-37150000D03*
X44000000Y-37150000D03*
X45100000Y-37150000D03*
X46200000Y-37150000D03*
X47300000Y-37150000D03*
X47300000Y-46650000D03*
X46200000Y-46650000D03*
X45100000Y-46650000D03*
X44000000Y-46650000D03*
X42900000Y-46650000D03*
X41800000Y-46650000D03*
X40700000Y-46650000D03*
X39600000Y-46650000D03*
X38500000Y-46650000D03*
G04 #@! TD*
D31*
G04 #@! TO.C,IC3*
X44050000Y-63950000D03*
X44550000Y-63950000D03*
X45050000Y-63950000D03*
X45550000Y-63950000D03*
X46050000Y-63950000D03*
D30*
X47050000Y-62950000D03*
X47050000Y-62450000D03*
X47050000Y-61950000D03*
X47050000Y-61450000D03*
X47050000Y-60950000D03*
D31*
X46050000Y-59950000D03*
X45550000Y-59950000D03*
X45050000Y-59950000D03*
X44550000Y-59950000D03*
X44050000Y-59950000D03*
D30*
X43050000Y-60950000D03*
X43050000Y-61450000D03*
X43050000Y-61950000D03*
X43050000Y-62450000D03*
X43050000Y-62950000D03*
D29*
X45050000Y-61950000D03*
G04 #@! TD*
D28*
G04 #@! TO.C,IC4*
X43525000Y-67949000D03*
X43525000Y-67400000D03*
X43525000Y-66851000D03*
X43100000Y-67949000D03*
X43100000Y-67400000D03*
X43100000Y-66851000D03*
X42675000Y-67949000D03*
X42675000Y-67400000D03*
X42675000Y-66851000D03*
D27*
X44050000Y-66850000D03*
X44050000Y-67400000D03*
X44050000Y-67950000D03*
X42150000Y-67950000D03*
X42150000Y-67400000D03*
X42150000Y-66850000D03*
G04 #@! TD*
D12*
G04 #@! TO.C,J2*
X34100000Y-55060000D03*
D11*
X34100000Y-57600000D03*
X34100000Y-60140000D03*
G04 #@! TD*
D12*
G04 #@! TO.C,J3*
X35600000Y-39470000D03*
D11*
X35600000Y-36930000D03*
G04 #@! TD*
G04 #@! TO.C,J4*
X46900000Y-57600000D03*
D12*
X46900000Y-55060000D03*
G04 #@! TD*
D17*
G04 #@! TO.C,L2*
X45300000Y-65400000D03*
X46900000Y-65400000D03*
G04 #@! TD*
D10*
G04 #@! TO.C,L3*
X42400000Y-69050000D03*
X42400000Y-69950000D03*
G04 #@! TD*
D13*
G04 #@! TO.C,L4*
X38900000Y-67100000D03*
X38900000Y-68700000D03*
G04 #@! TD*
D10*
G04 #@! TO.C,L6*
X41150000Y-69400000D03*
X40250000Y-69400000D03*
G04 #@! TD*
G04 #@! TO.C,L7*
X36300000Y-67950000D03*
X36300000Y-67050000D03*
G04 #@! TD*
G04 #@! TO.C,L10*
X34900000Y-67050000D03*
X34900000Y-67950000D03*
G04 #@! TD*
G04 #@! TO.C,L11*
X43600000Y-69950000D03*
X43600000Y-69050000D03*
G04 #@! TD*
G04 #@! TO.C,L12*
X47050000Y-68600000D03*
X46150000Y-68600000D03*
G04 #@! TD*
D17*
G04 #@! TO.C,L13*
X49900000Y-70300000D03*
X48300000Y-70300000D03*
G04 #@! TD*
G04 #@! TO.C,L14*
X34900000Y-69400000D03*
X36500000Y-69400000D03*
G04 #@! TD*
D19*
G04 #@! TO.C,P1*
X37570000Y-49257128D03*
X37570000Y-50527128D03*
X36300000Y-49257128D03*
X36300000Y-50527128D03*
X35030000Y-49257128D03*
X35030000Y-50527128D03*
D18*
X38840000Y-49892128D03*
X33760000Y-48876128D03*
X33760000Y-50908128D03*
G04 #@! TD*
D23*
G04 #@! TO.C,P2*
X34400000Y-72700000D03*
X38400000Y-72700000D03*
G04 #@! TD*
G04 #@! TO.C,P3*
X45400000Y-72700000D03*
X49400000Y-72700000D03*
G04 #@! TD*
D10*
G04 #@! TO.C,R1*
X32300000Y-44850000D03*
X32300000Y-43950000D03*
G04 #@! TD*
G04 #@! TO.C,R2*
X33400000Y-39550000D03*
X33400000Y-40450000D03*
G04 #@! TD*
G04 #@! TO.C,R7*
X36300000Y-56000000D03*
X36300000Y-55100000D03*
G04 #@! TD*
G04 #@! TO.C,R9*
X43050000Y-65300000D03*
X43950000Y-65300000D03*
G04 #@! TD*
D35*
G04 #@! TO.C,TP1*
X41900000Y-73000000D03*
G04 #@! TD*
D25*
G04 #@! TO.C,X1*
X41200000Y-32000000D03*
G04 #@! TD*
D10*
G04 #@! TO.C,R6*
X36300000Y-53750000D03*
X36300000Y-52850000D03*
G04 #@! TD*
D33*
G04 #@! TO.C,IC1*
X36000000Y-43500000D03*
D32*
X36650000Y-42600000D03*
X36000000Y-42600000D03*
X35350000Y-42600000D03*
X35350000Y-44400000D03*
X36000000Y-44400000D03*
X36650000Y-44400000D03*
G04 #@! TD*
D34*
G04 #@! TO.C,L1*
X33900000Y-41700000D03*
X33900000Y-43500000D03*
G04 #@! TD*
D10*
G04 #@! TO.C,R3*
X43900000Y-51950000D03*
X43900000Y-52850000D03*
G04 #@! TD*
G04 #@! TO.C,R4*
X47700000Y-50300000D03*
X47700000Y-49400000D03*
G04 #@! TD*
D24*
G04 #@! TO.C,U2*
X46750000Y-50105000D03*
X45800000Y-50105000D03*
X44850000Y-50105000D03*
X44850000Y-52695000D03*
X45800000Y-52695000D03*
X46750000Y-52695000D03*
G04 #@! TD*
D14*
G04 #@! TO.C,U3*
X36100000Y-63150000D03*
X36100000Y-64450000D03*
X33900000Y-64450000D03*
X33900000Y-63800000D03*
X33900000Y-63150000D03*
G04 #@! TD*
D26*
G04 #@! TO.C,Y1*
X41750000Y-63500000D03*
X41750000Y-64900000D03*
X39650000Y-63500000D03*
X39650000Y-64900000D03*
G04 #@! TD*
M02*
