G04 #@! TF.GenerationSoftware,KiCad,Pcbnew,5.0.0-rc2-unknown-68f6e3a~65~ubuntu16.04.1*
G04 #@! TF.CreationDate,2018-07-23T09:18:11+01:00*
G04 #@! TF.ProjectId,jerboa_panel,6A6572626F615F70616E656C2E6B6963,rev?*
G04 #@! TF.SameCoordinates,Original*
G04 #@! TF.FileFunction,Profile,NP*
%FSLAX46Y46*%
G04 Gerber Fmt 4.6, Leading zero omitted, Abs format (unit mm)*
G04 Created by KiCad (PCBNEW 5.0.0-rc2-unknown-68f6e3a~65~ubuntu16.04.1) date Mon Jul 23 09:18:11 2018*
%MOMM*%
%LPD*%
G01*
G04 APERTURE LIST*
%ADD10C,0.010000*%
G04 APERTURE END LIST*
D10*
X51450000Y-37000000D02*
X51450000Y-35200000D01*
X51450000Y-41200000D02*
X51450000Y-38000000D01*
X51450000Y-62500000D02*
X51450000Y-61700000D01*
X51450000Y-72000000D02*
X51450000Y-63500000D01*
X51450000Y-74450000D02*
X51450000Y-73000000D01*
X54700000Y-37000000D02*
X54700000Y-35450000D01*
X54700000Y-62500000D02*
X54700000Y-38000000D01*
X54700000Y-72000000D02*
X54700000Y-63500000D01*
X54700000Y-74450000D02*
X54700000Y-73000000D01*
X54700000Y-73000000D02*
X51450000Y-73000000D01*
X51450000Y-72000000D02*
X54700000Y-72000000D01*
X54700000Y-63500000D02*
X51450000Y-63500000D01*
X51450000Y-62500000D02*
X54700000Y-62500000D01*
X54700000Y-38000000D02*
X51450000Y-38000000D01*
X51450000Y-37000000D02*
X54700000Y-37000000D01*
X75450000Y-35200000D02*
X71700000Y-31450000D01*
X71700000Y-31450000D02*
X71700000Y-26700000D01*
X58700000Y-31450000D02*
X58700000Y-26700000D01*
X54700000Y-35450000D02*
X58700000Y-31450000D01*
X71700000Y-26700000D02*
X58700000Y-26700000D01*
X73700000Y-59950000D02*
X73700000Y-42950000D01*
X54700000Y-74450000D02*
X75450000Y-74450000D01*
X75450000Y-74450000D02*
X75450000Y-61700000D01*
X75450000Y-61700000D02*
X73700000Y-59950000D01*
X73700000Y-42950000D02*
X75450000Y-41200000D01*
X75450000Y-41200000D02*
X75450000Y-35200000D01*
X49700000Y-59950000D02*
X49700000Y-42950000D01*
X47700000Y-26700000D02*
X34700000Y-26700000D01*
X30700000Y-35450000D02*
X34700000Y-31450000D01*
X34700000Y-31450000D02*
X34700000Y-26700000D01*
X47700000Y-31450000D02*
X47700000Y-26700000D01*
X51450000Y-35200000D02*
X47700000Y-31450000D01*
X49700000Y-42950000D02*
X51450000Y-41200000D01*
X51450000Y-61700000D02*
X49700000Y-59950000D01*
X30700000Y-74450000D02*
X51450000Y-74450000D01*
X30700000Y-35450000D02*
X30700000Y-74450000D01*
M02*
