G04 #@! TF.GenerationSoftware,KiCad,Pcbnew,5.0.0-rc2-unknown-68f6e3a~65~ubuntu16.04.1*
G04 #@! TF.CreationDate,2018-07-23T09:18:11+01:00*
G04 #@! TF.ProjectId,jerboa_panel,6A6572626F615F70616E656C2E6B6963,rev?*
G04 #@! TF.SameCoordinates,Original*
G04 #@! TF.FileFunction,Copper,L2,Bot,Signal*
G04 #@! TF.FilePolarity,Positive*
%FSLAX46Y46*%
G04 Gerber Fmt 4.6, Leading zero omitted, Abs format (unit mm)*
G04 Created by KiCad (PCBNEW 5.0.0-rc2-unknown-68f6e3a~65~ubuntu16.04.1) date Mon Jul 23 09:18:11 2018*
%MOMM*%
%LPD*%
G01*
G04 APERTURE LIST*
G04 #@! TA.AperFunction,ComponentPad*
%ADD10C,1.900000*%
G04 #@! TD*
G04 #@! TA.AperFunction,ComponentPad*
%ADD11R,1.900000X1.900000*%
G04 #@! TD*
G04 #@! TA.AperFunction,ViaPad*
%ADD12C,0.600000*%
G04 #@! TD*
G04 #@! TA.AperFunction,ComponentPad*
%ADD13C,2.000000*%
G04 #@! TD*
G04 #@! TA.AperFunction,ViaPad*
%ADD14C,0.800000*%
G04 #@! TD*
G04 #@! TA.AperFunction,Conductor*
%ADD15C,0.320000*%
G04 #@! TD*
G04 #@! TA.AperFunction,Conductor*
%ADD16C,0.200000*%
G04 #@! TD*
G04 #@! TA.AperFunction,Conductor*
%ADD17C,0.500000*%
G04 #@! TD*
G04 #@! TA.AperFunction,Conductor*
%ADD18C,0.254000*%
G04 #@! TD*
G04 APERTURE END LIST*
D10*
G04 #@! TO.P,J2,3*
G04 #@! TO.N,/I2C_SDA*
X58100000Y-60140000D03*
G04 #@! TO.P,J2,2*
G04 #@! TO.N,/I2C_SCL*
X58100000Y-57600000D03*
D11*
G04 #@! TO.P,J2,1*
G04 #@! TO.N,/WSPR_ENABLE*
X58100000Y-55060000D03*
G04 #@! TD*
D12*
G04 #@! TO.N,GND*
G04 #@! TO.C,U1*
X65155905Y-55047128D03*
X62655905Y-55047128D03*
X65155905Y-57547128D03*
X62655905Y-57547128D03*
G04 #@! TD*
D11*
G04 #@! TO.P,J1,1*
G04 #@! TO.N,3v3*
X73800000Y-39470000D03*
D10*
G04 #@! TO.P,J1,2*
G04 #@! TO.N,GND*
X73800000Y-36930000D03*
G04 #@! TD*
G04 #@! TO.P,J3,2*
G04 #@! TO.N,GND*
X59600000Y-36930000D03*
D11*
G04 #@! TO.P,J3,1*
G04 #@! TO.N,Net-(C12-Pad1)*
X59600000Y-39470000D03*
G04 #@! TD*
G04 #@! TO.P,J4,1*
G04 #@! TO.N,/SOLAR_CELL_VOLTAGE*
X70900000Y-55060000D03*
D10*
G04 #@! TO.P,J4,2*
G04 #@! TO.N,/BATT_V*
X70900000Y-57600000D03*
G04 #@! TD*
D13*
G04 #@! TO.P,TP1,1*
G04 #@! TO.N,GND*
X65900000Y-73000000D03*
G04 #@! TD*
D10*
G04 #@! TO.P,J1,2*
G04 #@! TO.N,GND*
X49800000Y-36930000D03*
D11*
G04 #@! TO.P,J1,1*
G04 #@! TO.N,3v3*
X49800000Y-39470000D03*
G04 #@! TD*
D12*
G04 #@! TO.N,GND*
G04 #@! TO.C,U1*
X38655905Y-57547128D03*
X41155905Y-57547128D03*
X38655905Y-55047128D03*
X41155905Y-55047128D03*
G04 #@! TD*
D11*
G04 #@! TO.P,J2,1*
G04 #@! TO.N,/WSPR_ENABLE*
X34100000Y-55060000D03*
D10*
G04 #@! TO.P,J2,2*
G04 #@! TO.N,/I2C_SCL*
X34100000Y-57600000D03*
G04 #@! TO.P,J2,3*
G04 #@! TO.N,/I2C_SDA*
X34100000Y-60140000D03*
G04 #@! TD*
D11*
G04 #@! TO.P,J3,1*
G04 #@! TO.N,Net-(C12-Pad1)*
X35600000Y-39470000D03*
D10*
G04 #@! TO.P,J3,2*
G04 #@! TO.N,GND*
X35600000Y-36930000D03*
G04 #@! TD*
G04 #@! TO.P,J4,2*
G04 #@! TO.N,/BATT_V*
X46900000Y-57600000D03*
D11*
G04 #@! TO.P,J4,1*
G04 #@! TO.N,/SOLAR_CELL_VOLTAGE*
X46900000Y-55060000D03*
G04 #@! TD*
D13*
G04 #@! TO.P,TP1,1*
G04 #@! TO.N,GND*
X41900000Y-73000000D03*
G04 #@! TD*
D14*
G04 #@! TO.N,3v3*
X41839999Y-50300000D03*
X35400000Y-61200000D03*
X38900000Y-48600000D03*
X35100000Y-62610010D03*
X59400000Y-61200000D03*
X62900000Y-48600000D03*
X59100000Y-62610010D03*
X65839999Y-50300000D03*
G04 #@! TO.N,GND*
X45050000Y-61950000D03*
X44300000Y-61200000D03*
X45800000Y-62700000D03*
X45800000Y-61200000D03*
X44300000Y-62700000D03*
X43000000Y-64000000D03*
X32900000Y-65000000D03*
X50400000Y-65600000D03*
X50400000Y-64400000D03*
X50400000Y-63200000D03*
X50400000Y-62000000D03*
X39700000Y-70400000D03*
X43100000Y-67400000D03*
X46000000Y-69600000D03*
X39949989Y-62000000D03*
X37135025Y-60635025D03*
X33029989Y-49800000D03*
X46410330Y-48315129D03*
X47708903Y-51091097D03*
X42700000Y-53700000D03*
X39200000Y-66024998D03*
X49400000Y-72700000D03*
X50300000Y-73600000D03*
X48500000Y-73600000D03*
X48500000Y-71800000D03*
X50300000Y-71800000D03*
X34400000Y-72700000D03*
X33500000Y-73600000D03*
X35300000Y-73600000D03*
X35300000Y-71800000D03*
X33500000Y-71800000D03*
X32708594Y-66560000D03*
X35200000Y-46100000D03*
X32300000Y-39600000D03*
X47300000Y-41900000D03*
X38500000Y-41900000D03*
X47300000Y-39600000D03*
X47300000Y-44200000D03*
X45100000Y-41900000D03*
X42900000Y-41900000D03*
X40700000Y-41900000D03*
X45100000Y-44200000D03*
X42900000Y-44200000D03*
X40700000Y-44200000D03*
X38500000Y-44200000D03*
X45100000Y-39600000D03*
X42900000Y-39600000D03*
X40700000Y-39600000D03*
X38500000Y-39600000D03*
X72500000Y-73600000D03*
X72500000Y-71800000D03*
X74300000Y-71800000D03*
X69800000Y-62700000D03*
X69800000Y-61200000D03*
X56900000Y-65000000D03*
X68300000Y-62700000D03*
X69050000Y-61950000D03*
X68300000Y-61200000D03*
X67000000Y-64000000D03*
X63700000Y-70400000D03*
X67100000Y-67400000D03*
X70000000Y-69600000D03*
X56708594Y-66560000D03*
X59200000Y-46100000D03*
X56300000Y-39600000D03*
X74400000Y-65600000D03*
X74400000Y-64400000D03*
X74400000Y-63200000D03*
X74400000Y-62000000D03*
X71300000Y-41900000D03*
X62500000Y-41900000D03*
X71300000Y-39600000D03*
X63200000Y-66024998D03*
X63949989Y-62000000D03*
X61135025Y-60635025D03*
X62500000Y-44200000D03*
X69100000Y-39600000D03*
X66900000Y-39600000D03*
X64700000Y-39600000D03*
X62500000Y-39600000D03*
X57029989Y-49800000D03*
X70410330Y-48315129D03*
X71708903Y-51091097D03*
X66700000Y-53700000D03*
X71300000Y-44200000D03*
X69100000Y-41900000D03*
X66900000Y-41900000D03*
X64700000Y-41900000D03*
X69100000Y-44200000D03*
X66900000Y-44200000D03*
X64700000Y-44200000D03*
X73400000Y-72700000D03*
X74300000Y-73600000D03*
X58400000Y-72700000D03*
X57500000Y-73600000D03*
X59300000Y-73600000D03*
X59300000Y-71800000D03*
X57500000Y-71800000D03*
G04 #@! TO.N,/MCU_nIRQ_TO_RADIO*
X42600000Y-58900000D03*
X47000000Y-60000000D03*
X66600000Y-58900000D03*
X71000000Y-60000000D03*
G04 #@! TO.N,/MCU_MISO*
X44835196Y-57800550D03*
X44849896Y-56347128D03*
X68835196Y-57800550D03*
X68849896Y-56347128D03*
G04 #@! TO.N,/MCU_MOSI*
X43722048Y-56199990D03*
X44100000Y-58599999D03*
X68100000Y-58599999D03*
X67722048Y-56199990D03*
G04 #@! TO.N,/GPS_~RESET*
X43469762Y-48952169D03*
X39455905Y-50803535D03*
X67469762Y-48952169D03*
X63455905Y-50803535D03*
G04 #@! TO.N,3v3_switched*
X42450000Y-49400000D03*
X36810000Y-47700000D03*
X60810000Y-47700000D03*
X66450000Y-49400000D03*
G04 #@! TD*
D15*
G04 #@! TO.N,3v3*
X41839999Y-50300000D02*
X40572126Y-49032127D01*
X40139999Y-48600000D02*
X41839999Y-50300000D01*
X38900000Y-48600000D02*
X40139999Y-48600000D01*
X35100000Y-61500000D02*
X35400000Y-61200000D01*
X35100000Y-62610010D02*
X35100000Y-61500000D01*
X59100000Y-61500000D02*
X59400000Y-61200000D01*
X59100000Y-62610010D02*
X59100000Y-61500000D01*
X65839999Y-50300000D02*
X64572126Y-49032127D01*
X64139999Y-48600000D02*
X65839999Y-50300000D01*
X62900000Y-48600000D02*
X64139999Y-48600000D01*
D16*
G04 #@! TO.N,GND*
X45050000Y-61950000D02*
X46074998Y-60925002D01*
D17*
X35600000Y-36960000D02*
X32740000Y-36960000D01*
X35600000Y-36960000D02*
X37960000Y-36960000D01*
X35600000Y-36960000D02*
X35960000Y-36960000D01*
X35600000Y-36960000D02*
X36060000Y-36960000D01*
X36060000Y-36960000D02*
X36500000Y-37400000D01*
X36500000Y-37400000D02*
X37100000Y-37400000D01*
X35600000Y-36960000D02*
X35240000Y-36960000D01*
X35240000Y-36960000D02*
X34800000Y-37400000D01*
X34800000Y-37400000D02*
X34100000Y-37400000D01*
X48456498Y-36930000D02*
X48426498Y-36900000D01*
X49800000Y-36930000D02*
X48456498Y-36930000D01*
X48426498Y-36900000D02*
X46500000Y-36900000D01*
X49800000Y-36930000D02*
X49370000Y-36930000D01*
X49370000Y-36930000D02*
X48900000Y-37400000D01*
X48900000Y-37400000D02*
X48400000Y-37400000D01*
X49800000Y-36930000D02*
X49800000Y-37000000D01*
X49800000Y-37000000D02*
X49000000Y-37800000D01*
X49000000Y-37800000D02*
X48500000Y-37800000D01*
D15*
X32308595Y-66160001D02*
X32308595Y-66058595D01*
X32708594Y-66560000D02*
X32308595Y-66160001D01*
X32308595Y-66058595D02*
X31200000Y-64950000D01*
X31200000Y-64950000D02*
X31200000Y-48950000D01*
X31200000Y-48950000D02*
X31200000Y-48450000D01*
X31200000Y-48450000D02*
X31450000Y-48200000D01*
X45100000Y-41900000D02*
X42900000Y-41900000D01*
X42900000Y-41900000D02*
X42900000Y-44200000D01*
X40700000Y-44200000D02*
X38500000Y-44200000D01*
X47300000Y-39600000D02*
X45100000Y-39600000D01*
X45100000Y-39600000D02*
X42900000Y-39600000D01*
X40700000Y-39600000D02*
X38500000Y-39600000D01*
D16*
X69050000Y-61950000D02*
X70074998Y-60925002D01*
D17*
X59600000Y-36960000D02*
X56740000Y-36960000D01*
X59600000Y-36960000D02*
X61960000Y-36960000D01*
X59600000Y-36960000D02*
X59960000Y-36960000D01*
X72900000Y-37400000D02*
X72400000Y-37400000D01*
X73800000Y-36930000D02*
X73800000Y-37000000D01*
X73800000Y-37000000D02*
X73000000Y-37800000D01*
X73000000Y-37800000D02*
X72500000Y-37800000D01*
D15*
X56308595Y-66160001D02*
X56308595Y-66058595D01*
X56708594Y-66560000D02*
X56308595Y-66160001D01*
X56308595Y-66058595D02*
X55200000Y-64950000D01*
X55200000Y-64950000D02*
X55200000Y-48950000D01*
X55200000Y-48950000D02*
X55200000Y-48450000D01*
X55200000Y-48450000D02*
X55450000Y-48200000D01*
D17*
X59600000Y-36960000D02*
X60060000Y-36960000D01*
X60060000Y-36960000D02*
X60500000Y-37400000D01*
X60500000Y-37400000D02*
X61100000Y-37400000D01*
X59600000Y-36960000D02*
X59240000Y-36960000D01*
X59240000Y-36960000D02*
X58800000Y-37400000D01*
X58800000Y-37400000D02*
X58100000Y-37400000D01*
X72456498Y-36930000D02*
X72426498Y-36900000D01*
X73800000Y-36930000D02*
X72456498Y-36930000D01*
X72426498Y-36900000D02*
X70500000Y-36900000D01*
X73800000Y-36930000D02*
X73370000Y-36930000D01*
X73370000Y-36930000D02*
X72900000Y-37400000D01*
D15*
X64700000Y-44200000D02*
X62500000Y-44200000D01*
X71300000Y-39600000D02*
X69100000Y-39600000D01*
X69100000Y-39600000D02*
X66900000Y-39600000D01*
X64700000Y-39600000D02*
X62500000Y-39600000D01*
X69100000Y-41900000D02*
X66900000Y-41900000D01*
X66900000Y-41900000D02*
X66900000Y-44200000D01*
D16*
G04 #@! TO.N,/MCU_nIRQ_TO_RADIO*
X42999999Y-59299999D02*
X42600000Y-58900000D01*
X47000000Y-60000000D02*
X46299999Y-59299999D01*
X46299999Y-59299999D02*
X42999999Y-59299999D01*
X66999999Y-59299999D02*
X66600000Y-58900000D01*
X71000000Y-60000000D02*
X70299999Y-59299999D01*
X70299999Y-59299999D02*
X66999999Y-59299999D01*
G04 #@! TO.N,/MCU_MISO*
X44835196Y-56361828D02*
X44849896Y-56347128D01*
X44835196Y-57800550D02*
X44835196Y-56361828D01*
X68835196Y-57800550D02*
X68835196Y-56361828D01*
X68835196Y-56361828D02*
X68849896Y-56347128D01*
G04 #@! TO.N,/MCU_MOSI*
X44100000Y-58000000D02*
X44100000Y-58599999D01*
X44135195Y-57964805D02*
X44100000Y-58000000D01*
X43722048Y-56199990D02*
X44135195Y-56613137D01*
X44135195Y-56613137D02*
X44135195Y-57964805D01*
X68100000Y-58000000D02*
X68100000Y-58599999D01*
X68135195Y-57964805D02*
X68100000Y-58000000D01*
X67722048Y-56199990D02*
X68135195Y-56613137D01*
X68135195Y-56613137D02*
X68135195Y-57964805D01*
G04 #@! TO.N,/GPS_~RESET*
X43469762Y-49517854D02*
X43469762Y-48952169D01*
X43469762Y-49706239D02*
X43469762Y-49517854D01*
X42176000Y-51000001D02*
X43469762Y-49706239D01*
X40218056Y-51000001D02*
X42176000Y-51000001D01*
X40021590Y-50803535D02*
X40218056Y-51000001D01*
X39455905Y-50803535D02*
X40021590Y-50803535D01*
X67469762Y-49517854D02*
X67469762Y-48952169D01*
X67469762Y-49706239D02*
X67469762Y-49517854D01*
X66176000Y-51000001D02*
X67469762Y-49706239D01*
X64218056Y-51000001D02*
X66176000Y-51000001D01*
X64021590Y-50803535D02*
X64218056Y-51000001D01*
X63455905Y-50803535D02*
X64021590Y-50803535D01*
D15*
G04 #@! TO.N,3v3_switched*
X41083589Y-48033589D02*
X41300000Y-48250000D01*
X42450000Y-49400000D02*
X41300000Y-48250000D01*
X41300000Y-48250000D02*
X41197776Y-48147776D01*
X40750000Y-47700000D02*
X41083589Y-48033589D01*
X36810000Y-47700000D02*
X40750000Y-47700000D01*
X65083589Y-48033589D02*
X65300000Y-48250000D01*
X66450000Y-49400000D02*
X65300000Y-48250000D01*
X65300000Y-48250000D02*
X65197776Y-48147776D01*
X64750000Y-47700000D02*
X65083589Y-48033589D01*
X60810000Y-47700000D02*
X64750000Y-47700000D01*
G04 #@! TD*
D18*
G04 #@! TO.N,GND*
G36*
X34003812Y-36677398D02*
X34028648Y-37307461D01*
X34221981Y-37774208D01*
X34483648Y-37866744D01*
X34435083Y-37915309D01*
X34402235Y-37921843D01*
X34192191Y-38062191D01*
X34051843Y-38272235D01*
X34002560Y-38520000D01*
X34002560Y-40420000D01*
X34051843Y-40667765D01*
X34192191Y-40877809D01*
X34402235Y-41018157D01*
X34650000Y-41067440D01*
X36550000Y-41067440D01*
X36797765Y-41018157D01*
X37007809Y-40877809D01*
X37148157Y-40667765D01*
X37197440Y-40420000D01*
X37197440Y-38520000D01*
X37148157Y-38272235D01*
X37007809Y-38062191D01*
X36797765Y-37921843D01*
X36764917Y-37915309D01*
X36716352Y-37866744D01*
X36978019Y-37774208D01*
X37196188Y-37182602D01*
X37171352Y-36552539D01*
X37117674Y-36422949D01*
X48297646Y-36422949D01*
X48203812Y-36677398D01*
X48228648Y-37307461D01*
X48421981Y-37774208D01*
X48683648Y-37866744D01*
X48635083Y-37915309D01*
X48602235Y-37921843D01*
X48392191Y-38062191D01*
X48251843Y-38272235D01*
X48202560Y-38520000D01*
X48202560Y-40420000D01*
X48251843Y-40667765D01*
X48392191Y-40877809D01*
X48602235Y-41018157D01*
X48850000Y-41067440D01*
X50677463Y-41067440D01*
X49292022Y-42452882D01*
X49238587Y-42488586D01*
X49202882Y-42542022D01*
X49202881Y-42542023D01*
X49097134Y-42700284D01*
X49047463Y-42950000D01*
X49060001Y-43013034D01*
X49060000Y-59886971D01*
X49047463Y-59950000D01*
X49060000Y-60013029D01*
X49060000Y-60013032D01*
X49097133Y-60199714D01*
X49238586Y-60411414D01*
X49292024Y-60447120D01*
X50810001Y-61965098D01*
X50810000Y-73810000D01*
X43343262Y-73810000D01*
X43545908Y-73264539D01*
X43521856Y-72614540D01*
X43319387Y-72125736D01*
X43052532Y-72027073D01*
X42079605Y-73000000D01*
X42093748Y-73014143D01*
X41914143Y-73193748D01*
X41900000Y-73179605D01*
X41885858Y-73193748D01*
X41706253Y-73014143D01*
X41720395Y-73000000D01*
X40747468Y-72027073D01*
X40480613Y-72125736D01*
X40254092Y-72735461D01*
X40278144Y-73385460D01*
X40453994Y-73810000D01*
X31340000Y-73810000D01*
X31340000Y-71847468D01*
X40927073Y-71847468D01*
X41900000Y-72820395D01*
X42872927Y-71847468D01*
X42774264Y-71580613D01*
X42164539Y-71354092D01*
X41514540Y-71378144D01*
X41025736Y-71580613D01*
X40927073Y-71847468D01*
X31340000Y-71847468D01*
X31340000Y-54110000D01*
X32502560Y-54110000D01*
X32502560Y-56010000D01*
X32551843Y-56257765D01*
X32692191Y-56467809D01*
X32871111Y-56587361D01*
X32756302Y-56702170D01*
X32515000Y-57284724D01*
X32515000Y-57915276D01*
X32756302Y-58497830D01*
X33128472Y-58870000D01*
X32756302Y-59242170D01*
X32515000Y-59824724D01*
X32515000Y-60455276D01*
X32756302Y-61037830D01*
X33202170Y-61483698D01*
X33784724Y-61725000D01*
X34305001Y-61725000D01*
X34305001Y-61941298D01*
X34222569Y-62023730D01*
X34065000Y-62404136D01*
X34065000Y-62815884D01*
X34222569Y-63196290D01*
X34513720Y-63487441D01*
X34894126Y-63645010D01*
X35305874Y-63645010D01*
X35686280Y-63487441D01*
X35977431Y-63196290D01*
X36135000Y-62815884D01*
X36135000Y-62404136D01*
X35995751Y-62067960D01*
X36277431Y-61786280D01*
X36435000Y-61405874D01*
X36435000Y-60994126D01*
X36277431Y-60613720D01*
X35986280Y-60322569D01*
X35685000Y-60197775D01*
X35685000Y-59824724D01*
X35443698Y-59242170D01*
X35071528Y-58870000D01*
X35247402Y-58694126D01*
X41565000Y-58694126D01*
X41565000Y-59105874D01*
X41722569Y-59486280D01*
X42013720Y-59777431D01*
X42394126Y-59935000D01*
X42627381Y-59935000D01*
X42713216Y-59992353D01*
X42927611Y-60034999D01*
X42927614Y-60034999D01*
X42999998Y-60049397D01*
X43072382Y-60034999D01*
X45965000Y-60034999D01*
X45965000Y-60205874D01*
X46122569Y-60586280D01*
X46413720Y-60877431D01*
X46794126Y-61035000D01*
X47205874Y-61035000D01*
X47586280Y-60877431D01*
X47877431Y-60586280D01*
X48035000Y-60205874D01*
X48035000Y-59794126D01*
X47877431Y-59413720D01*
X47586280Y-59122569D01*
X47476139Y-59076947D01*
X47797830Y-58943698D01*
X48243698Y-58497830D01*
X48485000Y-57915276D01*
X48485000Y-57284724D01*
X48243698Y-56702170D01*
X48128889Y-56587361D01*
X48307809Y-56467809D01*
X48448157Y-56257765D01*
X48497440Y-56010000D01*
X48497440Y-54110000D01*
X48448157Y-53862235D01*
X48307809Y-53652191D01*
X48097765Y-53511843D01*
X47850000Y-53462560D01*
X45950000Y-53462560D01*
X45702235Y-53511843D01*
X45492191Y-53652191D01*
X45351843Y-53862235D01*
X45302560Y-54110000D01*
X45302560Y-55414352D01*
X45055770Y-55312128D01*
X44644022Y-55312128D01*
X44399275Y-55413506D01*
X44308328Y-55322559D01*
X43927922Y-55164990D01*
X43516174Y-55164990D01*
X43135768Y-55322559D01*
X42844617Y-55613710D01*
X42687048Y-55994116D01*
X42687048Y-56405864D01*
X42844617Y-56786270D01*
X43135768Y-57077421D01*
X43400195Y-57186950D01*
X43400196Y-57750672D01*
X43378986Y-57857302D01*
X43222569Y-58013719D01*
X43209348Y-58045637D01*
X43186280Y-58022569D01*
X42805874Y-57865000D01*
X42394126Y-57865000D01*
X42013720Y-58022569D01*
X41722569Y-58313720D01*
X41565000Y-58694126D01*
X35247402Y-58694126D01*
X35443698Y-58497830D01*
X35685000Y-57915276D01*
X35685000Y-57284724D01*
X35443698Y-56702170D01*
X35328889Y-56587361D01*
X35507809Y-56467809D01*
X35648157Y-56257765D01*
X35697440Y-56010000D01*
X35697440Y-54110000D01*
X35648157Y-53862235D01*
X35507809Y-53652191D01*
X35297765Y-53511843D01*
X35050000Y-53462560D01*
X33150000Y-53462560D01*
X32902235Y-53511843D01*
X32692191Y-53652191D01*
X32551843Y-53862235D01*
X32502560Y-54110000D01*
X31340000Y-54110000D01*
X31340000Y-48650362D01*
X32625000Y-48650362D01*
X32625000Y-49101894D01*
X32797793Y-49519054D01*
X33117074Y-49838335D01*
X33246942Y-49892128D01*
X33117074Y-49945921D01*
X32797793Y-50265202D01*
X32625000Y-50682362D01*
X32625000Y-51133894D01*
X32797793Y-51551054D01*
X33117074Y-51870335D01*
X33534234Y-52043128D01*
X33985766Y-52043128D01*
X34402926Y-51870335D01*
X34722207Y-51551054D01*
X34895000Y-51133894D01*
X34895000Y-50682362D01*
X34722207Y-50265202D01*
X34402926Y-49945921D01*
X34273058Y-49892128D01*
X34402926Y-49838335D01*
X34722207Y-49519054D01*
X34895000Y-49101894D01*
X34895000Y-48650362D01*
X34722207Y-48233202D01*
X34402926Y-47913921D01*
X33985766Y-47741128D01*
X33534234Y-47741128D01*
X33117074Y-47913921D01*
X32797793Y-48233202D01*
X32625000Y-48650362D01*
X31340000Y-48650362D01*
X31340000Y-47494126D01*
X35775000Y-47494126D01*
X35775000Y-47905874D01*
X35932569Y-48286280D01*
X36223720Y-48577431D01*
X36604126Y-48735000D01*
X37015874Y-48735000D01*
X37396280Y-48577431D01*
X37478711Y-48495000D01*
X37865000Y-48495000D01*
X37865000Y-48805874D01*
X37998595Y-49128400D01*
X37877793Y-49249202D01*
X37705000Y-49666362D01*
X37705000Y-50117894D01*
X37877793Y-50535054D01*
X38197074Y-50854335D01*
X38420905Y-50947049D01*
X38420905Y-51009409D01*
X38578474Y-51389815D01*
X38869625Y-51680966D01*
X39250031Y-51838535D01*
X39661779Y-51838535D01*
X39987627Y-51703565D01*
X40145668Y-51735001D01*
X40145672Y-51735001D01*
X40218056Y-51749399D01*
X40290440Y-51735001D01*
X42103616Y-51735001D01*
X42176000Y-51749399D01*
X42248384Y-51735001D01*
X42248388Y-51735001D01*
X42462783Y-51692355D01*
X42705905Y-51529906D01*
X42746911Y-51468536D01*
X43938300Y-50277148D01*
X43999667Y-50236144D01*
X44162116Y-49993022D01*
X44204762Y-49778627D01*
X44204762Y-49778626D01*
X44219161Y-49706239D01*
X44212565Y-49673077D01*
X44347193Y-49538449D01*
X44504762Y-49158043D01*
X44504762Y-48746295D01*
X44347193Y-48365889D01*
X44056042Y-48074738D01*
X43675636Y-47917169D01*
X43263888Y-47917169D01*
X42883482Y-48074738D01*
X42593220Y-48365000D01*
X42539299Y-48365000D01*
X41367514Y-47193215D01*
X41323162Y-47126838D01*
X41060193Y-46951127D01*
X40828296Y-46905000D01*
X40828291Y-46905000D01*
X40750000Y-46889427D01*
X40671709Y-46905000D01*
X37478711Y-46905000D01*
X37396280Y-46822569D01*
X37015874Y-46665000D01*
X36604126Y-46665000D01*
X36223720Y-46822569D01*
X35932569Y-47113720D01*
X35775000Y-47494126D01*
X31340000Y-47494126D01*
X31340000Y-36422949D01*
X34097646Y-36422949D01*
X34003812Y-36677398D01*
X34003812Y-36677398D01*
G37*
X34003812Y-36677398D02*
X34028648Y-37307461D01*
X34221981Y-37774208D01*
X34483648Y-37866744D01*
X34435083Y-37915309D01*
X34402235Y-37921843D01*
X34192191Y-38062191D01*
X34051843Y-38272235D01*
X34002560Y-38520000D01*
X34002560Y-40420000D01*
X34051843Y-40667765D01*
X34192191Y-40877809D01*
X34402235Y-41018157D01*
X34650000Y-41067440D01*
X36550000Y-41067440D01*
X36797765Y-41018157D01*
X37007809Y-40877809D01*
X37148157Y-40667765D01*
X37197440Y-40420000D01*
X37197440Y-38520000D01*
X37148157Y-38272235D01*
X37007809Y-38062191D01*
X36797765Y-37921843D01*
X36764917Y-37915309D01*
X36716352Y-37866744D01*
X36978019Y-37774208D01*
X37196188Y-37182602D01*
X37171352Y-36552539D01*
X37117674Y-36422949D01*
X48297646Y-36422949D01*
X48203812Y-36677398D01*
X48228648Y-37307461D01*
X48421981Y-37774208D01*
X48683648Y-37866744D01*
X48635083Y-37915309D01*
X48602235Y-37921843D01*
X48392191Y-38062191D01*
X48251843Y-38272235D01*
X48202560Y-38520000D01*
X48202560Y-40420000D01*
X48251843Y-40667765D01*
X48392191Y-40877809D01*
X48602235Y-41018157D01*
X48850000Y-41067440D01*
X50677463Y-41067440D01*
X49292022Y-42452882D01*
X49238587Y-42488586D01*
X49202882Y-42542022D01*
X49202881Y-42542023D01*
X49097134Y-42700284D01*
X49047463Y-42950000D01*
X49060001Y-43013034D01*
X49060000Y-59886971D01*
X49047463Y-59950000D01*
X49060000Y-60013029D01*
X49060000Y-60013032D01*
X49097133Y-60199714D01*
X49238586Y-60411414D01*
X49292024Y-60447120D01*
X50810001Y-61965098D01*
X50810000Y-73810000D01*
X43343262Y-73810000D01*
X43545908Y-73264539D01*
X43521856Y-72614540D01*
X43319387Y-72125736D01*
X43052532Y-72027073D01*
X42079605Y-73000000D01*
X42093748Y-73014143D01*
X41914143Y-73193748D01*
X41900000Y-73179605D01*
X41885858Y-73193748D01*
X41706253Y-73014143D01*
X41720395Y-73000000D01*
X40747468Y-72027073D01*
X40480613Y-72125736D01*
X40254092Y-72735461D01*
X40278144Y-73385460D01*
X40453994Y-73810000D01*
X31340000Y-73810000D01*
X31340000Y-71847468D01*
X40927073Y-71847468D01*
X41900000Y-72820395D01*
X42872927Y-71847468D01*
X42774264Y-71580613D01*
X42164539Y-71354092D01*
X41514540Y-71378144D01*
X41025736Y-71580613D01*
X40927073Y-71847468D01*
X31340000Y-71847468D01*
X31340000Y-54110000D01*
X32502560Y-54110000D01*
X32502560Y-56010000D01*
X32551843Y-56257765D01*
X32692191Y-56467809D01*
X32871111Y-56587361D01*
X32756302Y-56702170D01*
X32515000Y-57284724D01*
X32515000Y-57915276D01*
X32756302Y-58497830D01*
X33128472Y-58870000D01*
X32756302Y-59242170D01*
X32515000Y-59824724D01*
X32515000Y-60455276D01*
X32756302Y-61037830D01*
X33202170Y-61483698D01*
X33784724Y-61725000D01*
X34305001Y-61725000D01*
X34305001Y-61941298D01*
X34222569Y-62023730D01*
X34065000Y-62404136D01*
X34065000Y-62815884D01*
X34222569Y-63196290D01*
X34513720Y-63487441D01*
X34894126Y-63645010D01*
X35305874Y-63645010D01*
X35686280Y-63487441D01*
X35977431Y-63196290D01*
X36135000Y-62815884D01*
X36135000Y-62404136D01*
X35995751Y-62067960D01*
X36277431Y-61786280D01*
X36435000Y-61405874D01*
X36435000Y-60994126D01*
X36277431Y-60613720D01*
X35986280Y-60322569D01*
X35685000Y-60197775D01*
X35685000Y-59824724D01*
X35443698Y-59242170D01*
X35071528Y-58870000D01*
X35247402Y-58694126D01*
X41565000Y-58694126D01*
X41565000Y-59105874D01*
X41722569Y-59486280D01*
X42013720Y-59777431D01*
X42394126Y-59935000D01*
X42627381Y-59935000D01*
X42713216Y-59992353D01*
X42927611Y-60034999D01*
X42927614Y-60034999D01*
X42999998Y-60049397D01*
X43072382Y-60034999D01*
X45965000Y-60034999D01*
X45965000Y-60205874D01*
X46122569Y-60586280D01*
X46413720Y-60877431D01*
X46794126Y-61035000D01*
X47205874Y-61035000D01*
X47586280Y-60877431D01*
X47877431Y-60586280D01*
X48035000Y-60205874D01*
X48035000Y-59794126D01*
X47877431Y-59413720D01*
X47586280Y-59122569D01*
X47476139Y-59076947D01*
X47797830Y-58943698D01*
X48243698Y-58497830D01*
X48485000Y-57915276D01*
X48485000Y-57284724D01*
X48243698Y-56702170D01*
X48128889Y-56587361D01*
X48307809Y-56467809D01*
X48448157Y-56257765D01*
X48497440Y-56010000D01*
X48497440Y-54110000D01*
X48448157Y-53862235D01*
X48307809Y-53652191D01*
X48097765Y-53511843D01*
X47850000Y-53462560D01*
X45950000Y-53462560D01*
X45702235Y-53511843D01*
X45492191Y-53652191D01*
X45351843Y-53862235D01*
X45302560Y-54110000D01*
X45302560Y-55414352D01*
X45055770Y-55312128D01*
X44644022Y-55312128D01*
X44399275Y-55413506D01*
X44308328Y-55322559D01*
X43927922Y-55164990D01*
X43516174Y-55164990D01*
X43135768Y-55322559D01*
X42844617Y-55613710D01*
X42687048Y-55994116D01*
X42687048Y-56405864D01*
X42844617Y-56786270D01*
X43135768Y-57077421D01*
X43400195Y-57186950D01*
X43400196Y-57750672D01*
X43378986Y-57857302D01*
X43222569Y-58013719D01*
X43209348Y-58045637D01*
X43186280Y-58022569D01*
X42805874Y-57865000D01*
X42394126Y-57865000D01*
X42013720Y-58022569D01*
X41722569Y-58313720D01*
X41565000Y-58694126D01*
X35247402Y-58694126D01*
X35443698Y-58497830D01*
X35685000Y-57915276D01*
X35685000Y-57284724D01*
X35443698Y-56702170D01*
X35328889Y-56587361D01*
X35507809Y-56467809D01*
X35648157Y-56257765D01*
X35697440Y-56010000D01*
X35697440Y-54110000D01*
X35648157Y-53862235D01*
X35507809Y-53652191D01*
X35297765Y-53511843D01*
X35050000Y-53462560D01*
X33150000Y-53462560D01*
X32902235Y-53511843D01*
X32692191Y-53652191D01*
X32551843Y-53862235D01*
X32502560Y-54110000D01*
X31340000Y-54110000D01*
X31340000Y-48650362D01*
X32625000Y-48650362D01*
X32625000Y-49101894D01*
X32797793Y-49519054D01*
X33117074Y-49838335D01*
X33246942Y-49892128D01*
X33117074Y-49945921D01*
X32797793Y-50265202D01*
X32625000Y-50682362D01*
X32625000Y-51133894D01*
X32797793Y-51551054D01*
X33117074Y-51870335D01*
X33534234Y-52043128D01*
X33985766Y-52043128D01*
X34402926Y-51870335D01*
X34722207Y-51551054D01*
X34895000Y-51133894D01*
X34895000Y-50682362D01*
X34722207Y-50265202D01*
X34402926Y-49945921D01*
X34273058Y-49892128D01*
X34402926Y-49838335D01*
X34722207Y-49519054D01*
X34895000Y-49101894D01*
X34895000Y-48650362D01*
X34722207Y-48233202D01*
X34402926Y-47913921D01*
X33985766Y-47741128D01*
X33534234Y-47741128D01*
X33117074Y-47913921D01*
X32797793Y-48233202D01*
X32625000Y-48650362D01*
X31340000Y-48650362D01*
X31340000Y-47494126D01*
X35775000Y-47494126D01*
X35775000Y-47905874D01*
X35932569Y-48286280D01*
X36223720Y-48577431D01*
X36604126Y-48735000D01*
X37015874Y-48735000D01*
X37396280Y-48577431D01*
X37478711Y-48495000D01*
X37865000Y-48495000D01*
X37865000Y-48805874D01*
X37998595Y-49128400D01*
X37877793Y-49249202D01*
X37705000Y-49666362D01*
X37705000Y-50117894D01*
X37877793Y-50535054D01*
X38197074Y-50854335D01*
X38420905Y-50947049D01*
X38420905Y-51009409D01*
X38578474Y-51389815D01*
X38869625Y-51680966D01*
X39250031Y-51838535D01*
X39661779Y-51838535D01*
X39987627Y-51703565D01*
X40145668Y-51735001D01*
X40145672Y-51735001D01*
X40218056Y-51749399D01*
X40290440Y-51735001D01*
X42103616Y-51735001D01*
X42176000Y-51749399D01*
X42248384Y-51735001D01*
X42248388Y-51735001D01*
X42462783Y-51692355D01*
X42705905Y-51529906D01*
X42746911Y-51468536D01*
X43938300Y-50277148D01*
X43999667Y-50236144D01*
X44162116Y-49993022D01*
X44204762Y-49778627D01*
X44204762Y-49778626D01*
X44219161Y-49706239D01*
X44212565Y-49673077D01*
X44347193Y-49538449D01*
X44504762Y-49158043D01*
X44504762Y-48746295D01*
X44347193Y-48365889D01*
X44056042Y-48074738D01*
X43675636Y-47917169D01*
X43263888Y-47917169D01*
X42883482Y-48074738D01*
X42593220Y-48365000D01*
X42539299Y-48365000D01*
X41367514Y-47193215D01*
X41323162Y-47126838D01*
X41060193Y-46951127D01*
X40828296Y-46905000D01*
X40828291Y-46905000D01*
X40750000Y-46889427D01*
X40671709Y-46905000D01*
X37478711Y-46905000D01*
X37396280Y-46822569D01*
X37015874Y-46665000D01*
X36604126Y-46665000D01*
X36223720Y-46822569D01*
X35932569Y-47113720D01*
X35775000Y-47494126D01*
X31340000Y-47494126D01*
X31340000Y-36422949D01*
X34097646Y-36422949D01*
X34003812Y-36677398D01*
G36*
X35793748Y-36915858D02*
X35779605Y-36930000D01*
X35793748Y-36944143D01*
X35614143Y-37123748D01*
X35600000Y-37109605D01*
X35585858Y-37123748D01*
X35406253Y-36944143D01*
X35420395Y-36930000D01*
X35406253Y-36915858D01*
X35585858Y-36736253D01*
X35600000Y-36750395D01*
X35614143Y-36736253D01*
X35793748Y-36915858D01*
X35793748Y-36915858D01*
G37*
X35793748Y-36915858D02*
X35779605Y-36930000D01*
X35793748Y-36944143D01*
X35614143Y-37123748D01*
X35600000Y-37109605D01*
X35585858Y-37123748D01*
X35406253Y-36944143D01*
X35420395Y-36930000D01*
X35406253Y-36915858D01*
X35585858Y-36736253D01*
X35600000Y-36750395D01*
X35614143Y-36736253D01*
X35793748Y-36915858D01*
G36*
X49993748Y-36915858D02*
X49979605Y-36930000D01*
X49993748Y-36944143D01*
X49814143Y-37123748D01*
X49800000Y-37109605D01*
X49785858Y-37123748D01*
X49606253Y-36944143D01*
X49620395Y-36930000D01*
X49606253Y-36915858D01*
X49785858Y-36736253D01*
X49800000Y-36750395D01*
X49814143Y-36736253D01*
X49993748Y-36915858D01*
X49993748Y-36915858D01*
G37*
X49993748Y-36915858D02*
X49979605Y-36930000D01*
X49993748Y-36944143D01*
X49814143Y-37123748D01*
X49800000Y-37109605D01*
X49785858Y-37123748D01*
X49606253Y-36944143D01*
X49620395Y-36930000D01*
X49606253Y-36915858D01*
X49785858Y-36736253D01*
X49800000Y-36750395D01*
X49814143Y-36736253D01*
X49993748Y-36915858D01*
G36*
X58003812Y-36677398D02*
X58028648Y-37307461D01*
X58221981Y-37774208D01*
X58483648Y-37866744D01*
X58435083Y-37915309D01*
X58402235Y-37921843D01*
X58192191Y-38062191D01*
X58051843Y-38272235D01*
X58002560Y-38520000D01*
X58002560Y-40420000D01*
X58051843Y-40667765D01*
X58192191Y-40877809D01*
X58402235Y-41018157D01*
X58650000Y-41067440D01*
X60550000Y-41067440D01*
X60797765Y-41018157D01*
X61007809Y-40877809D01*
X61148157Y-40667765D01*
X61197440Y-40420000D01*
X61197440Y-38520000D01*
X61148157Y-38272235D01*
X61007809Y-38062191D01*
X60797765Y-37921843D01*
X60764917Y-37915309D01*
X60716352Y-37866744D01*
X60978019Y-37774208D01*
X61196188Y-37182602D01*
X61171352Y-36552539D01*
X61117674Y-36422949D01*
X72297646Y-36422949D01*
X72203812Y-36677398D01*
X72228648Y-37307461D01*
X72421981Y-37774208D01*
X72683648Y-37866744D01*
X72635083Y-37915309D01*
X72602235Y-37921843D01*
X72392191Y-38062191D01*
X72251843Y-38272235D01*
X72202560Y-38520000D01*
X72202560Y-40420000D01*
X72251843Y-40667765D01*
X72392191Y-40877809D01*
X72602235Y-41018157D01*
X72850000Y-41067440D01*
X74677463Y-41067440D01*
X73292022Y-42452882D01*
X73238587Y-42488586D01*
X73202882Y-42542022D01*
X73202881Y-42542023D01*
X73097134Y-42700284D01*
X73047463Y-42950000D01*
X73060001Y-43013034D01*
X73060000Y-59886971D01*
X73047463Y-59950000D01*
X73060000Y-60013029D01*
X73060000Y-60013032D01*
X73097133Y-60199714D01*
X73238586Y-60411414D01*
X73292024Y-60447120D01*
X74810001Y-61965098D01*
X74810000Y-73810000D01*
X67343262Y-73810000D01*
X67545908Y-73264539D01*
X67521856Y-72614540D01*
X67319387Y-72125736D01*
X67052532Y-72027073D01*
X66079605Y-73000000D01*
X66093748Y-73014143D01*
X65914143Y-73193748D01*
X65900000Y-73179605D01*
X65885858Y-73193748D01*
X65706253Y-73014143D01*
X65720395Y-73000000D01*
X64747468Y-72027073D01*
X64480613Y-72125736D01*
X64254092Y-72735461D01*
X64278144Y-73385460D01*
X64453994Y-73810000D01*
X55340000Y-73810000D01*
X55340000Y-71847468D01*
X64927073Y-71847468D01*
X65900000Y-72820395D01*
X66872927Y-71847468D01*
X66774264Y-71580613D01*
X66164539Y-71354092D01*
X65514540Y-71378144D01*
X65025736Y-71580613D01*
X64927073Y-71847468D01*
X55340000Y-71847468D01*
X55340000Y-54110000D01*
X56502560Y-54110000D01*
X56502560Y-56010000D01*
X56551843Y-56257765D01*
X56692191Y-56467809D01*
X56871111Y-56587361D01*
X56756302Y-56702170D01*
X56515000Y-57284724D01*
X56515000Y-57915276D01*
X56756302Y-58497830D01*
X57128472Y-58870000D01*
X56756302Y-59242170D01*
X56515000Y-59824724D01*
X56515000Y-60455276D01*
X56756302Y-61037830D01*
X57202170Y-61483698D01*
X57784724Y-61725000D01*
X58305001Y-61725000D01*
X58305001Y-61941298D01*
X58222569Y-62023730D01*
X58065000Y-62404136D01*
X58065000Y-62815884D01*
X58222569Y-63196290D01*
X58513720Y-63487441D01*
X58894126Y-63645010D01*
X59305874Y-63645010D01*
X59686280Y-63487441D01*
X59977431Y-63196290D01*
X60135000Y-62815884D01*
X60135000Y-62404136D01*
X59995751Y-62067960D01*
X60277431Y-61786280D01*
X60435000Y-61405874D01*
X60435000Y-60994126D01*
X60277431Y-60613720D01*
X59986280Y-60322569D01*
X59685000Y-60197775D01*
X59685000Y-59824724D01*
X59443698Y-59242170D01*
X59071528Y-58870000D01*
X59247402Y-58694126D01*
X65565000Y-58694126D01*
X65565000Y-59105874D01*
X65722569Y-59486280D01*
X66013720Y-59777431D01*
X66394126Y-59935000D01*
X66627381Y-59935000D01*
X66713216Y-59992353D01*
X66927611Y-60034999D01*
X66927614Y-60034999D01*
X66999998Y-60049397D01*
X67072382Y-60034999D01*
X69965000Y-60034999D01*
X69965000Y-60205874D01*
X70122569Y-60586280D01*
X70413720Y-60877431D01*
X70794126Y-61035000D01*
X71205874Y-61035000D01*
X71586280Y-60877431D01*
X71877431Y-60586280D01*
X72035000Y-60205874D01*
X72035000Y-59794126D01*
X71877431Y-59413720D01*
X71586280Y-59122569D01*
X71476139Y-59076947D01*
X71797830Y-58943698D01*
X72243698Y-58497830D01*
X72485000Y-57915276D01*
X72485000Y-57284724D01*
X72243698Y-56702170D01*
X72128889Y-56587361D01*
X72307809Y-56467809D01*
X72448157Y-56257765D01*
X72497440Y-56010000D01*
X72497440Y-54110000D01*
X72448157Y-53862235D01*
X72307809Y-53652191D01*
X72097765Y-53511843D01*
X71850000Y-53462560D01*
X69950000Y-53462560D01*
X69702235Y-53511843D01*
X69492191Y-53652191D01*
X69351843Y-53862235D01*
X69302560Y-54110000D01*
X69302560Y-55414352D01*
X69055770Y-55312128D01*
X68644022Y-55312128D01*
X68399275Y-55413506D01*
X68308328Y-55322559D01*
X67927922Y-55164990D01*
X67516174Y-55164990D01*
X67135768Y-55322559D01*
X66844617Y-55613710D01*
X66687048Y-55994116D01*
X66687048Y-56405864D01*
X66844617Y-56786270D01*
X67135768Y-57077421D01*
X67400195Y-57186950D01*
X67400196Y-57750672D01*
X67378986Y-57857302D01*
X67222569Y-58013719D01*
X67209348Y-58045637D01*
X67186280Y-58022569D01*
X66805874Y-57865000D01*
X66394126Y-57865000D01*
X66013720Y-58022569D01*
X65722569Y-58313720D01*
X65565000Y-58694126D01*
X59247402Y-58694126D01*
X59443698Y-58497830D01*
X59685000Y-57915276D01*
X59685000Y-57284724D01*
X59443698Y-56702170D01*
X59328889Y-56587361D01*
X59507809Y-56467809D01*
X59648157Y-56257765D01*
X59697440Y-56010000D01*
X59697440Y-54110000D01*
X59648157Y-53862235D01*
X59507809Y-53652191D01*
X59297765Y-53511843D01*
X59050000Y-53462560D01*
X57150000Y-53462560D01*
X56902235Y-53511843D01*
X56692191Y-53652191D01*
X56551843Y-53862235D01*
X56502560Y-54110000D01*
X55340000Y-54110000D01*
X55340000Y-48650362D01*
X56625000Y-48650362D01*
X56625000Y-49101894D01*
X56797793Y-49519054D01*
X57117074Y-49838335D01*
X57246942Y-49892128D01*
X57117074Y-49945921D01*
X56797793Y-50265202D01*
X56625000Y-50682362D01*
X56625000Y-51133894D01*
X56797793Y-51551054D01*
X57117074Y-51870335D01*
X57534234Y-52043128D01*
X57985766Y-52043128D01*
X58402926Y-51870335D01*
X58722207Y-51551054D01*
X58895000Y-51133894D01*
X58895000Y-50682362D01*
X58722207Y-50265202D01*
X58402926Y-49945921D01*
X58273058Y-49892128D01*
X58402926Y-49838335D01*
X58722207Y-49519054D01*
X58895000Y-49101894D01*
X58895000Y-48650362D01*
X58722207Y-48233202D01*
X58402926Y-47913921D01*
X57985766Y-47741128D01*
X57534234Y-47741128D01*
X57117074Y-47913921D01*
X56797793Y-48233202D01*
X56625000Y-48650362D01*
X55340000Y-48650362D01*
X55340000Y-47494126D01*
X59775000Y-47494126D01*
X59775000Y-47905874D01*
X59932569Y-48286280D01*
X60223720Y-48577431D01*
X60604126Y-48735000D01*
X61015874Y-48735000D01*
X61396280Y-48577431D01*
X61478711Y-48495000D01*
X61865000Y-48495000D01*
X61865000Y-48805874D01*
X61998595Y-49128400D01*
X61877793Y-49249202D01*
X61705000Y-49666362D01*
X61705000Y-50117894D01*
X61877793Y-50535054D01*
X62197074Y-50854335D01*
X62420905Y-50947049D01*
X62420905Y-51009409D01*
X62578474Y-51389815D01*
X62869625Y-51680966D01*
X63250031Y-51838535D01*
X63661779Y-51838535D01*
X63987627Y-51703565D01*
X64145668Y-51735001D01*
X64145672Y-51735001D01*
X64218056Y-51749399D01*
X64290440Y-51735001D01*
X66103616Y-51735001D01*
X66176000Y-51749399D01*
X66248384Y-51735001D01*
X66248388Y-51735001D01*
X66462783Y-51692355D01*
X66705905Y-51529906D01*
X66746911Y-51468536D01*
X67938300Y-50277148D01*
X67999667Y-50236144D01*
X68162116Y-49993022D01*
X68204762Y-49778627D01*
X68204762Y-49778626D01*
X68219161Y-49706239D01*
X68212565Y-49673077D01*
X68347193Y-49538449D01*
X68504762Y-49158043D01*
X68504762Y-48746295D01*
X68347193Y-48365889D01*
X68056042Y-48074738D01*
X67675636Y-47917169D01*
X67263888Y-47917169D01*
X66883482Y-48074738D01*
X66593220Y-48365000D01*
X66539299Y-48365000D01*
X65367514Y-47193215D01*
X65323162Y-47126838D01*
X65060193Y-46951127D01*
X64828296Y-46905000D01*
X64828291Y-46905000D01*
X64750000Y-46889427D01*
X64671709Y-46905000D01*
X61478711Y-46905000D01*
X61396280Y-46822569D01*
X61015874Y-46665000D01*
X60604126Y-46665000D01*
X60223720Y-46822569D01*
X59932569Y-47113720D01*
X59775000Y-47494126D01*
X55340000Y-47494126D01*
X55340000Y-36422949D01*
X58097646Y-36422949D01*
X58003812Y-36677398D01*
X58003812Y-36677398D01*
G37*
X58003812Y-36677398D02*
X58028648Y-37307461D01*
X58221981Y-37774208D01*
X58483648Y-37866744D01*
X58435083Y-37915309D01*
X58402235Y-37921843D01*
X58192191Y-38062191D01*
X58051843Y-38272235D01*
X58002560Y-38520000D01*
X58002560Y-40420000D01*
X58051843Y-40667765D01*
X58192191Y-40877809D01*
X58402235Y-41018157D01*
X58650000Y-41067440D01*
X60550000Y-41067440D01*
X60797765Y-41018157D01*
X61007809Y-40877809D01*
X61148157Y-40667765D01*
X61197440Y-40420000D01*
X61197440Y-38520000D01*
X61148157Y-38272235D01*
X61007809Y-38062191D01*
X60797765Y-37921843D01*
X60764917Y-37915309D01*
X60716352Y-37866744D01*
X60978019Y-37774208D01*
X61196188Y-37182602D01*
X61171352Y-36552539D01*
X61117674Y-36422949D01*
X72297646Y-36422949D01*
X72203812Y-36677398D01*
X72228648Y-37307461D01*
X72421981Y-37774208D01*
X72683648Y-37866744D01*
X72635083Y-37915309D01*
X72602235Y-37921843D01*
X72392191Y-38062191D01*
X72251843Y-38272235D01*
X72202560Y-38520000D01*
X72202560Y-40420000D01*
X72251843Y-40667765D01*
X72392191Y-40877809D01*
X72602235Y-41018157D01*
X72850000Y-41067440D01*
X74677463Y-41067440D01*
X73292022Y-42452882D01*
X73238587Y-42488586D01*
X73202882Y-42542022D01*
X73202881Y-42542023D01*
X73097134Y-42700284D01*
X73047463Y-42950000D01*
X73060001Y-43013034D01*
X73060000Y-59886971D01*
X73047463Y-59950000D01*
X73060000Y-60013029D01*
X73060000Y-60013032D01*
X73097133Y-60199714D01*
X73238586Y-60411414D01*
X73292024Y-60447120D01*
X74810001Y-61965098D01*
X74810000Y-73810000D01*
X67343262Y-73810000D01*
X67545908Y-73264539D01*
X67521856Y-72614540D01*
X67319387Y-72125736D01*
X67052532Y-72027073D01*
X66079605Y-73000000D01*
X66093748Y-73014143D01*
X65914143Y-73193748D01*
X65900000Y-73179605D01*
X65885858Y-73193748D01*
X65706253Y-73014143D01*
X65720395Y-73000000D01*
X64747468Y-72027073D01*
X64480613Y-72125736D01*
X64254092Y-72735461D01*
X64278144Y-73385460D01*
X64453994Y-73810000D01*
X55340000Y-73810000D01*
X55340000Y-71847468D01*
X64927073Y-71847468D01*
X65900000Y-72820395D01*
X66872927Y-71847468D01*
X66774264Y-71580613D01*
X66164539Y-71354092D01*
X65514540Y-71378144D01*
X65025736Y-71580613D01*
X64927073Y-71847468D01*
X55340000Y-71847468D01*
X55340000Y-54110000D01*
X56502560Y-54110000D01*
X56502560Y-56010000D01*
X56551843Y-56257765D01*
X56692191Y-56467809D01*
X56871111Y-56587361D01*
X56756302Y-56702170D01*
X56515000Y-57284724D01*
X56515000Y-57915276D01*
X56756302Y-58497830D01*
X57128472Y-58870000D01*
X56756302Y-59242170D01*
X56515000Y-59824724D01*
X56515000Y-60455276D01*
X56756302Y-61037830D01*
X57202170Y-61483698D01*
X57784724Y-61725000D01*
X58305001Y-61725000D01*
X58305001Y-61941298D01*
X58222569Y-62023730D01*
X58065000Y-62404136D01*
X58065000Y-62815884D01*
X58222569Y-63196290D01*
X58513720Y-63487441D01*
X58894126Y-63645010D01*
X59305874Y-63645010D01*
X59686280Y-63487441D01*
X59977431Y-63196290D01*
X60135000Y-62815884D01*
X60135000Y-62404136D01*
X59995751Y-62067960D01*
X60277431Y-61786280D01*
X60435000Y-61405874D01*
X60435000Y-60994126D01*
X60277431Y-60613720D01*
X59986280Y-60322569D01*
X59685000Y-60197775D01*
X59685000Y-59824724D01*
X59443698Y-59242170D01*
X59071528Y-58870000D01*
X59247402Y-58694126D01*
X65565000Y-58694126D01*
X65565000Y-59105874D01*
X65722569Y-59486280D01*
X66013720Y-59777431D01*
X66394126Y-59935000D01*
X66627381Y-59935000D01*
X66713216Y-59992353D01*
X66927611Y-60034999D01*
X66927614Y-60034999D01*
X66999998Y-60049397D01*
X67072382Y-60034999D01*
X69965000Y-60034999D01*
X69965000Y-60205874D01*
X70122569Y-60586280D01*
X70413720Y-60877431D01*
X70794126Y-61035000D01*
X71205874Y-61035000D01*
X71586280Y-60877431D01*
X71877431Y-60586280D01*
X72035000Y-60205874D01*
X72035000Y-59794126D01*
X71877431Y-59413720D01*
X71586280Y-59122569D01*
X71476139Y-59076947D01*
X71797830Y-58943698D01*
X72243698Y-58497830D01*
X72485000Y-57915276D01*
X72485000Y-57284724D01*
X72243698Y-56702170D01*
X72128889Y-56587361D01*
X72307809Y-56467809D01*
X72448157Y-56257765D01*
X72497440Y-56010000D01*
X72497440Y-54110000D01*
X72448157Y-53862235D01*
X72307809Y-53652191D01*
X72097765Y-53511843D01*
X71850000Y-53462560D01*
X69950000Y-53462560D01*
X69702235Y-53511843D01*
X69492191Y-53652191D01*
X69351843Y-53862235D01*
X69302560Y-54110000D01*
X69302560Y-55414352D01*
X69055770Y-55312128D01*
X68644022Y-55312128D01*
X68399275Y-55413506D01*
X68308328Y-55322559D01*
X67927922Y-55164990D01*
X67516174Y-55164990D01*
X67135768Y-55322559D01*
X66844617Y-55613710D01*
X66687048Y-55994116D01*
X66687048Y-56405864D01*
X66844617Y-56786270D01*
X67135768Y-57077421D01*
X67400195Y-57186950D01*
X67400196Y-57750672D01*
X67378986Y-57857302D01*
X67222569Y-58013719D01*
X67209348Y-58045637D01*
X67186280Y-58022569D01*
X66805874Y-57865000D01*
X66394126Y-57865000D01*
X66013720Y-58022569D01*
X65722569Y-58313720D01*
X65565000Y-58694126D01*
X59247402Y-58694126D01*
X59443698Y-58497830D01*
X59685000Y-57915276D01*
X59685000Y-57284724D01*
X59443698Y-56702170D01*
X59328889Y-56587361D01*
X59507809Y-56467809D01*
X59648157Y-56257765D01*
X59697440Y-56010000D01*
X59697440Y-54110000D01*
X59648157Y-53862235D01*
X59507809Y-53652191D01*
X59297765Y-53511843D01*
X59050000Y-53462560D01*
X57150000Y-53462560D01*
X56902235Y-53511843D01*
X56692191Y-53652191D01*
X56551843Y-53862235D01*
X56502560Y-54110000D01*
X55340000Y-54110000D01*
X55340000Y-48650362D01*
X56625000Y-48650362D01*
X56625000Y-49101894D01*
X56797793Y-49519054D01*
X57117074Y-49838335D01*
X57246942Y-49892128D01*
X57117074Y-49945921D01*
X56797793Y-50265202D01*
X56625000Y-50682362D01*
X56625000Y-51133894D01*
X56797793Y-51551054D01*
X57117074Y-51870335D01*
X57534234Y-52043128D01*
X57985766Y-52043128D01*
X58402926Y-51870335D01*
X58722207Y-51551054D01*
X58895000Y-51133894D01*
X58895000Y-50682362D01*
X58722207Y-50265202D01*
X58402926Y-49945921D01*
X58273058Y-49892128D01*
X58402926Y-49838335D01*
X58722207Y-49519054D01*
X58895000Y-49101894D01*
X58895000Y-48650362D01*
X58722207Y-48233202D01*
X58402926Y-47913921D01*
X57985766Y-47741128D01*
X57534234Y-47741128D01*
X57117074Y-47913921D01*
X56797793Y-48233202D01*
X56625000Y-48650362D01*
X55340000Y-48650362D01*
X55340000Y-47494126D01*
X59775000Y-47494126D01*
X59775000Y-47905874D01*
X59932569Y-48286280D01*
X60223720Y-48577431D01*
X60604126Y-48735000D01*
X61015874Y-48735000D01*
X61396280Y-48577431D01*
X61478711Y-48495000D01*
X61865000Y-48495000D01*
X61865000Y-48805874D01*
X61998595Y-49128400D01*
X61877793Y-49249202D01*
X61705000Y-49666362D01*
X61705000Y-50117894D01*
X61877793Y-50535054D01*
X62197074Y-50854335D01*
X62420905Y-50947049D01*
X62420905Y-51009409D01*
X62578474Y-51389815D01*
X62869625Y-51680966D01*
X63250031Y-51838535D01*
X63661779Y-51838535D01*
X63987627Y-51703565D01*
X64145668Y-51735001D01*
X64145672Y-51735001D01*
X64218056Y-51749399D01*
X64290440Y-51735001D01*
X66103616Y-51735001D01*
X66176000Y-51749399D01*
X66248384Y-51735001D01*
X66248388Y-51735001D01*
X66462783Y-51692355D01*
X66705905Y-51529906D01*
X66746911Y-51468536D01*
X67938300Y-50277148D01*
X67999667Y-50236144D01*
X68162116Y-49993022D01*
X68204762Y-49778627D01*
X68204762Y-49778626D01*
X68219161Y-49706239D01*
X68212565Y-49673077D01*
X68347193Y-49538449D01*
X68504762Y-49158043D01*
X68504762Y-48746295D01*
X68347193Y-48365889D01*
X68056042Y-48074738D01*
X67675636Y-47917169D01*
X67263888Y-47917169D01*
X66883482Y-48074738D01*
X66593220Y-48365000D01*
X66539299Y-48365000D01*
X65367514Y-47193215D01*
X65323162Y-47126838D01*
X65060193Y-46951127D01*
X64828296Y-46905000D01*
X64828291Y-46905000D01*
X64750000Y-46889427D01*
X64671709Y-46905000D01*
X61478711Y-46905000D01*
X61396280Y-46822569D01*
X61015874Y-46665000D01*
X60604126Y-46665000D01*
X60223720Y-46822569D01*
X59932569Y-47113720D01*
X59775000Y-47494126D01*
X55340000Y-47494126D01*
X55340000Y-36422949D01*
X58097646Y-36422949D01*
X58003812Y-36677398D01*
G36*
X59793748Y-36915858D02*
X59779605Y-36930000D01*
X59793748Y-36944143D01*
X59614143Y-37123748D01*
X59600000Y-37109605D01*
X59585858Y-37123748D01*
X59406253Y-36944143D01*
X59420395Y-36930000D01*
X59406253Y-36915858D01*
X59585858Y-36736253D01*
X59600000Y-36750395D01*
X59614143Y-36736253D01*
X59793748Y-36915858D01*
X59793748Y-36915858D01*
G37*
X59793748Y-36915858D02*
X59779605Y-36930000D01*
X59793748Y-36944143D01*
X59614143Y-37123748D01*
X59600000Y-37109605D01*
X59585858Y-37123748D01*
X59406253Y-36944143D01*
X59420395Y-36930000D01*
X59406253Y-36915858D01*
X59585858Y-36736253D01*
X59600000Y-36750395D01*
X59614143Y-36736253D01*
X59793748Y-36915858D01*
G36*
X73993748Y-36915858D02*
X73979605Y-36930000D01*
X73993748Y-36944143D01*
X73814143Y-37123748D01*
X73800000Y-37109605D01*
X73785858Y-37123748D01*
X73606253Y-36944143D01*
X73620395Y-36930000D01*
X73606253Y-36915858D01*
X73785858Y-36736253D01*
X73800000Y-36750395D01*
X73814143Y-36736253D01*
X73993748Y-36915858D01*
X73993748Y-36915858D01*
G37*
X73993748Y-36915858D02*
X73979605Y-36930000D01*
X73993748Y-36944143D01*
X73814143Y-37123748D01*
X73800000Y-37109605D01*
X73785858Y-37123748D01*
X73606253Y-36944143D01*
X73620395Y-36930000D01*
X73606253Y-36915858D01*
X73785858Y-36736253D01*
X73800000Y-36750395D01*
X73814143Y-36736253D01*
X73993748Y-36915858D01*
G04 #@! TD*
M02*
