G04 #@! TF.GenerationSoftware,KiCad,Pcbnew,5.0.0-rc2-unknown-68f6e3a~65~ubuntu16.04.1*
G04 #@! TF.CreationDate,2018-07-23T09:18:11+01:00*
G04 #@! TF.ProjectId,jerboa_panel,6A6572626F615F70616E656C2E6B6963,rev?*
G04 #@! TF.SameCoordinates,Original*
G04 #@! TF.FileFunction,Legend,Bot*
G04 #@! TF.FilePolarity,Positive*
%FSLAX46Y46*%
G04 Gerber Fmt 4.6, Leading zero omitted, Abs format (unit mm)*
G04 Created by KiCad (PCBNEW 5.0.0-rc2-unknown-68f6e3a~65~ubuntu16.04.1) date Mon Jul 23 09:18:11 2018*
%MOMM*%
%LPD*%
G01*
G04 APERTURE LIST*
%ADD10C,0.150000*%
%ADD11C,0.300000*%
%ADD12C,0.200000*%
%ADD13C,0.100000*%
G04 APERTURE END LIST*
D10*
X62814285Y-73361904D02*
X62147619Y-73361904D01*
X63195238Y-73600000D02*
X62480952Y-73838095D01*
X62480952Y-73219047D01*
X63147619Y-72933333D02*
X63147619Y-72314285D01*
X62766666Y-72647619D01*
X62766666Y-72504761D01*
X62719047Y-72409523D01*
X62671428Y-72361904D01*
X62576190Y-72314285D01*
X62338095Y-72314285D01*
X62242857Y-72361904D01*
X62195238Y-72409523D01*
X62147619Y-72504761D01*
X62147619Y-72790476D01*
X62195238Y-72885714D01*
X62242857Y-72933333D01*
X62814285Y-71457142D02*
X62147619Y-71457142D01*
X63195238Y-71695238D02*
X62480952Y-71933333D01*
X62480952Y-71314285D01*
X62147619Y-70933333D02*
X63147619Y-70933333D01*
X62433333Y-70600000D01*
X63147619Y-70266666D01*
X62147619Y-70266666D01*
X62147619Y-69790476D02*
X63147619Y-69790476D01*
X62671428Y-69790476D02*
X62671428Y-69219047D01*
X62147619Y-69219047D02*
X63147619Y-69219047D01*
X62814285Y-68838095D02*
X62814285Y-68314285D01*
X62147619Y-68838095D01*
X62147619Y-68314285D01*
X72247619Y-37452380D02*
X71628571Y-37452380D01*
X71961904Y-37833333D01*
X71819047Y-37833333D01*
X71723809Y-37880952D01*
X71676190Y-37928571D01*
X71628571Y-38023809D01*
X71628571Y-38261904D01*
X71676190Y-38357142D01*
X71723809Y-38404761D01*
X71819047Y-38452380D01*
X72104761Y-38452380D01*
X72200000Y-38404761D01*
X72247619Y-38357142D01*
X71342857Y-37452380D02*
X71009523Y-38452380D01*
X70676190Y-37452380D01*
X70438095Y-37452380D02*
X69819047Y-37452380D01*
X70152380Y-37833333D01*
X70009523Y-37833333D01*
X69914285Y-37880952D01*
X69866666Y-37928571D01*
X69819047Y-38023809D01*
X69819047Y-38261904D01*
X69866666Y-38357142D01*
X69914285Y-38404761D01*
X70009523Y-38452380D01*
X70295238Y-38452380D01*
X70390476Y-38404761D01*
X70438095Y-38357142D01*
X68438095Y-37452380D02*
X68247619Y-37452380D01*
X68152380Y-37500000D01*
X68057142Y-37595238D01*
X68009523Y-37785714D01*
X68009523Y-38119047D01*
X68057142Y-38309523D01*
X68152380Y-38404761D01*
X68247619Y-38452380D01*
X68438095Y-38452380D01*
X68533333Y-38404761D01*
X68628571Y-38309523D01*
X68676190Y-38119047D01*
X68676190Y-37785714D01*
X68628571Y-37595238D01*
X68533333Y-37500000D01*
X68438095Y-37452380D01*
X67580952Y-37452380D02*
X67580952Y-38261904D01*
X67533333Y-38357142D01*
X67485714Y-38404761D01*
X67390476Y-38452380D01*
X67200000Y-38452380D01*
X67104761Y-38404761D01*
X67057142Y-38357142D01*
X67009523Y-38261904D01*
X67009523Y-37452380D01*
X66676190Y-37452380D02*
X66104761Y-37452380D01*
X66390476Y-38452380D02*
X66390476Y-37452380D01*
D11*
X74371428Y-41707142D02*
X73228571Y-41707142D01*
X73800000Y-42278571D02*
X73800000Y-41135714D01*
X74371428Y-34807142D02*
X73228571Y-34807142D01*
X60171428Y-41807142D02*
X59028571Y-41807142D01*
X59600000Y-42378571D02*
X59600000Y-41235714D01*
X60171428Y-34907142D02*
X59028571Y-34907142D01*
D10*
X63595238Y-37452380D02*
X63261904Y-38452380D01*
X62928571Y-37452380D01*
X62595238Y-38452380D02*
X62595238Y-37452380D01*
X62119047Y-38452380D02*
X62119047Y-37452380D01*
X61547619Y-38452380D01*
X61547619Y-37452380D01*
X68247619Y-73266666D02*
X68247619Y-73838095D01*
X68247619Y-73552380D02*
X69247619Y-73552380D01*
X69104761Y-73647619D01*
X69009523Y-73742857D01*
X68961904Y-73838095D01*
X68914285Y-72409523D02*
X68247619Y-72409523D01*
X69295238Y-72647619D02*
X68580952Y-72885714D01*
X68580952Y-72266666D01*
X68914285Y-71457142D02*
X68247619Y-71457142D01*
X69295238Y-71695238D02*
X68580952Y-71933333D01*
X68580952Y-71314285D01*
X68247619Y-70933333D02*
X69247619Y-70933333D01*
X68533333Y-70600000D01*
X69247619Y-70266666D01*
X68247619Y-70266666D01*
X68247619Y-69790476D02*
X69247619Y-69790476D01*
X68771428Y-69790476D02*
X68771428Y-69219047D01*
X68247619Y-69219047D02*
X69247619Y-69219047D01*
X68914285Y-68838095D02*
X68914285Y-68314285D01*
X68247619Y-68838095D01*
X68247619Y-68314285D01*
X55447619Y-60842857D02*
X56447619Y-60842857D01*
X55447619Y-60414285D02*
X55971428Y-60414285D01*
X56066666Y-60461904D01*
X56114285Y-60557142D01*
X56114285Y-60700000D01*
X56066666Y-60795238D01*
X56019047Y-60842857D01*
X56114285Y-60080952D02*
X56114285Y-59700000D01*
X56447619Y-59938095D02*
X55590476Y-59938095D01*
X55495238Y-59890476D01*
X55447619Y-59795238D01*
X55447619Y-59700000D01*
X56114285Y-59509523D02*
X56114285Y-59128571D01*
X56447619Y-59366666D02*
X55590476Y-59366666D01*
X55495238Y-59319047D01*
X55447619Y-59223809D01*
X55447619Y-59128571D01*
X56114285Y-58795238D02*
X55114285Y-58795238D01*
X56066666Y-58795238D02*
X56114285Y-58700000D01*
X56114285Y-58509523D01*
X56066666Y-58414285D01*
X56019047Y-58366666D01*
X55923809Y-58319047D01*
X55638095Y-58319047D01*
X55542857Y-58366666D01*
X55495238Y-58414285D01*
X55447619Y-58509523D01*
X55447619Y-58700000D01*
X55495238Y-58795238D01*
X55542857Y-57890476D02*
X55495238Y-57842857D01*
X55447619Y-57890476D01*
X55495238Y-57938095D01*
X55542857Y-57890476D01*
X55447619Y-57890476D01*
X56066666Y-57890476D02*
X56019047Y-57842857D01*
X55971428Y-57890476D01*
X56019047Y-57938095D01*
X56066666Y-57890476D01*
X55971428Y-57890476D01*
X56495238Y-56700000D02*
X55209523Y-57557142D01*
X56495238Y-55652380D02*
X55209523Y-56509523D01*
X56114285Y-55414285D02*
X55447619Y-55223809D01*
X55923809Y-55033333D01*
X55447619Y-54842857D01*
X56114285Y-54652380D01*
X56114285Y-54366666D02*
X55447619Y-54176190D01*
X55923809Y-53985714D01*
X55447619Y-53795238D01*
X56114285Y-53604761D01*
X56114285Y-53319047D02*
X55447619Y-53128571D01*
X55923809Y-52938095D01*
X55447619Y-52747619D01*
X56114285Y-52557142D01*
X55542857Y-52176190D02*
X55495238Y-52128571D01*
X55447619Y-52176190D01*
X55495238Y-52223809D01*
X55542857Y-52176190D01*
X55447619Y-52176190D01*
X55495238Y-51271428D02*
X55447619Y-51366666D01*
X55447619Y-51557142D01*
X55495238Y-51652380D01*
X55542857Y-51700000D01*
X55638095Y-51747619D01*
X55923809Y-51747619D01*
X56019047Y-51700000D01*
X56066666Y-51652380D01*
X56114285Y-51557142D01*
X56114285Y-51366666D01*
X56066666Y-51271428D01*
X56114285Y-50414285D02*
X55447619Y-50414285D01*
X56114285Y-50842857D02*
X55590476Y-50842857D01*
X55495238Y-50795238D01*
X55447619Y-50700000D01*
X55447619Y-50557142D01*
X55495238Y-50461904D01*
X55542857Y-50414285D01*
X55495238Y-49985714D02*
X55447619Y-49890476D01*
X55447619Y-49700000D01*
X55495238Y-49604761D01*
X55590476Y-49557142D01*
X55638095Y-49557142D01*
X55733333Y-49604761D01*
X55780952Y-49700000D01*
X55780952Y-49842857D01*
X55828571Y-49938095D01*
X55923809Y-49985714D01*
X55971428Y-49985714D01*
X56066666Y-49938095D01*
X56114285Y-49842857D01*
X56114285Y-49700000D01*
X56066666Y-49604761D01*
X56114285Y-49271428D02*
X56114285Y-48890476D01*
X55447619Y-49128571D02*
X56304761Y-49128571D01*
X56400000Y-49080952D01*
X56447619Y-48985714D01*
X56447619Y-48890476D01*
X55542857Y-48557142D02*
X55495238Y-48509523D01*
X55447619Y-48557142D01*
X55495238Y-48604761D01*
X55542857Y-48557142D01*
X55447619Y-48557142D01*
X55495238Y-47652380D02*
X55447619Y-47747619D01*
X55447619Y-47938095D01*
X55495238Y-48033333D01*
X55542857Y-48080952D01*
X55638095Y-48128571D01*
X55923809Y-48128571D01*
X56019047Y-48080952D01*
X56066666Y-48033333D01*
X56114285Y-47938095D01*
X56114285Y-47747619D01*
X56066666Y-47652380D01*
X55447619Y-47080952D02*
X55495238Y-47176190D01*
X55542857Y-47223809D01*
X55638095Y-47271428D01*
X55923809Y-47271428D01*
X56019047Y-47223809D01*
X56066666Y-47176190D01*
X56114285Y-47080952D01*
X56114285Y-46938095D01*
X56066666Y-46842857D01*
X56019047Y-46795238D01*
X55923809Y-46747619D01*
X55638095Y-46747619D01*
X55542857Y-46795238D01*
X55495238Y-46842857D01*
X55447619Y-46938095D01*
X55447619Y-47080952D01*
X55542857Y-46319047D02*
X55495238Y-46271428D01*
X55447619Y-46319047D01*
X55495238Y-46366666D01*
X55542857Y-46319047D01*
X55447619Y-46319047D01*
X56114285Y-45414285D02*
X55447619Y-45414285D01*
X56114285Y-45842857D02*
X55590476Y-45842857D01*
X55495238Y-45795238D01*
X55447619Y-45700000D01*
X55447619Y-45557142D01*
X55495238Y-45461904D01*
X55542857Y-45414285D01*
X55447619Y-44938095D02*
X56447619Y-44938095D01*
X55828571Y-44842857D02*
X55447619Y-44557142D01*
X56114285Y-44557142D02*
X55733333Y-44938095D01*
X56495238Y-43414285D02*
X55209523Y-44271428D01*
X61238095Y-54928571D02*
X60904761Y-54928571D01*
X60761904Y-55452380D02*
X61238095Y-55452380D01*
X61238095Y-54452380D01*
X60761904Y-54452380D01*
X60333333Y-55452380D02*
X60333333Y-54452380D01*
X59761904Y-55452380D01*
X59761904Y-54452380D01*
X61990476Y-58004761D02*
X61847619Y-58052380D01*
X61609523Y-58052380D01*
X61514285Y-58004761D01*
X61466666Y-57957142D01*
X61419047Y-57861904D01*
X61419047Y-57766666D01*
X61466666Y-57671428D01*
X61514285Y-57623809D01*
X61609523Y-57576190D01*
X61800000Y-57528571D01*
X61895238Y-57480952D01*
X61942857Y-57433333D01*
X61990476Y-57338095D01*
X61990476Y-57242857D01*
X61942857Y-57147619D01*
X61895238Y-57100000D01*
X61800000Y-57052380D01*
X61561904Y-57052380D01*
X61419047Y-57100000D01*
X60419047Y-57957142D02*
X60466666Y-58004761D01*
X60609523Y-58052380D01*
X60704761Y-58052380D01*
X60847619Y-58004761D01*
X60942857Y-57909523D01*
X60990476Y-57814285D01*
X61038095Y-57623809D01*
X61038095Y-57480952D01*
X60990476Y-57290476D01*
X60942857Y-57195238D01*
X60847619Y-57100000D01*
X60704761Y-57052380D01*
X60609523Y-57052380D01*
X60466666Y-57100000D01*
X60419047Y-57147619D01*
X59514285Y-58052380D02*
X59990476Y-58052380D01*
X59990476Y-57052380D01*
X62014285Y-60104761D02*
X61871428Y-60152380D01*
X61633333Y-60152380D01*
X61538095Y-60104761D01*
X61490476Y-60057142D01*
X61442857Y-59961904D01*
X61442857Y-59866666D01*
X61490476Y-59771428D01*
X61538095Y-59723809D01*
X61633333Y-59676190D01*
X61823809Y-59628571D01*
X61919047Y-59580952D01*
X61966666Y-59533333D01*
X62014285Y-59438095D01*
X62014285Y-59342857D01*
X61966666Y-59247619D01*
X61919047Y-59200000D01*
X61823809Y-59152380D01*
X61585714Y-59152380D01*
X61442857Y-59200000D01*
X61014285Y-60152380D02*
X61014285Y-59152380D01*
X60776190Y-59152380D01*
X60633333Y-59200000D01*
X60538095Y-59295238D01*
X60490476Y-59390476D01*
X60442857Y-59580952D01*
X60442857Y-59723809D01*
X60490476Y-59914285D01*
X60538095Y-60009523D01*
X60633333Y-60104761D01*
X60776190Y-60152380D01*
X61014285Y-60152380D01*
X60061904Y-59866666D02*
X59585714Y-59866666D01*
X60157142Y-60152380D02*
X59823809Y-59152380D01*
X59490476Y-60152380D01*
X73447619Y-61423809D02*
X72447619Y-61090476D01*
X73447619Y-60757142D01*
X72971428Y-60090476D02*
X72923809Y-59947619D01*
X72876190Y-59900000D01*
X72780952Y-59852380D01*
X72638095Y-59852380D01*
X72542857Y-59900000D01*
X72495238Y-59947619D01*
X72447619Y-60042857D01*
X72447619Y-60423809D01*
X73447619Y-60423809D01*
X73447619Y-60090476D01*
X73400000Y-59995238D01*
X73352380Y-59947619D01*
X73257142Y-59900000D01*
X73161904Y-59900000D01*
X73066666Y-59947619D01*
X73019047Y-59995238D01*
X72971428Y-60090476D01*
X72971428Y-60423809D01*
X72733333Y-59471428D02*
X72733333Y-58995238D01*
X72447619Y-59566666D02*
X73447619Y-59233333D01*
X72447619Y-58900000D01*
X73447619Y-58709523D02*
X73447619Y-58138095D01*
X72447619Y-58423809D02*
X73447619Y-58423809D01*
X73447619Y-57947619D02*
X73447619Y-57376190D01*
X72447619Y-57661904D02*
X73447619Y-57661904D01*
X73447619Y-56066666D02*
X72447619Y-55733333D01*
X73447619Y-55400000D01*
X72495238Y-55114285D02*
X72447619Y-54971428D01*
X72447619Y-54733333D01*
X72495238Y-54638095D01*
X72542857Y-54590476D01*
X72638095Y-54542857D01*
X72733333Y-54542857D01*
X72828571Y-54590476D01*
X72876190Y-54638095D01*
X72923809Y-54733333D01*
X72971428Y-54923809D01*
X73019047Y-55019047D01*
X73066666Y-55066666D01*
X73161904Y-55114285D01*
X73257142Y-55114285D01*
X73352380Y-55066666D01*
X73400000Y-55019047D01*
X73447619Y-54923809D01*
X73447619Y-54685714D01*
X73400000Y-54542857D01*
X73447619Y-53923809D02*
X73447619Y-53733333D01*
X73400000Y-53638095D01*
X73304761Y-53542857D01*
X73114285Y-53495238D01*
X72780952Y-53495238D01*
X72590476Y-53542857D01*
X72495238Y-53638095D01*
X72447619Y-53733333D01*
X72447619Y-53923809D01*
X72495238Y-54019047D01*
X72590476Y-54114285D01*
X72780952Y-54161904D01*
X73114285Y-54161904D01*
X73304761Y-54114285D01*
X73400000Y-54019047D01*
X73447619Y-53923809D01*
X72447619Y-52590476D02*
X72447619Y-53066666D01*
X73447619Y-53066666D01*
X72733333Y-52304761D02*
X72733333Y-51828571D01*
X72447619Y-52400000D02*
X73447619Y-52066666D01*
X72447619Y-51733333D01*
X72447619Y-50828571D02*
X72923809Y-51161904D01*
X72447619Y-51400000D02*
X73447619Y-51400000D01*
X73447619Y-51019047D01*
X73400000Y-50923809D01*
X73352380Y-50876190D01*
X73257142Y-50828571D01*
X73114285Y-50828571D01*
X73019047Y-50876190D01*
X72971428Y-50923809D01*
X72923809Y-51019047D01*
X72923809Y-51400000D01*
D12*
X67500000Y-73900000D02*
X67500000Y-67800000D01*
X67500000Y-67800000D02*
X75100000Y-67800000D01*
X64200000Y-67800000D02*
X55100000Y-67800000D01*
X64200000Y-73900000D02*
X64200000Y-67800000D01*
D11*
X68128571Y-27578571D02*
X68128571Y-28650000D01*
X68200000Y-28864285D01*
X68342857Y-29007142D01*
X68557142Y-29078571D01*
X68700000Y-29078571D01*
X66842857Y-29007142D02*
X66985714Y-29078571D01*
X67271428Y-29078571D01*
X67414285Y-29007142D01*
X67485714Y-28864285D01*
X67485714Y-28292857D01*
X67414285Y-28150000D01*
X67271428Y-28078571D01*
X66985714Y-28078571D01*
X66842857Y-28150000D01*
X66771428Y-28292857D01*
X66771428Y-28435714D01*
X67485714Y-28578571D01*
X66128571Y-29078571D02*
X66128571Y-28078571D01*
X66128571Y-28364285D02*
X66057142Y-28221428D01*
X65985714Y-28150000D01*
X65842857Y-28078571D01*
X65700000Y-28078571D01*
X65200000Y-29078571D02*
X65200000Y-27578571D01*
X65200000Y-28150000D02*
X65057142Y-28078571D01*
X64771428Y-28078571D01*
X64628571Y-28150000D01*
X64557142Y-28221428D01*
X64485714Y-28364285D01*
X64485714Y-28792857D01*
X64557142Y-28935714D01*
X64628571Y-29007142D01*
X64771428Y-29078571D01*
X65057142Y-29078571D01*
X65200000Y-29007142D01*
X63628571Y-29078571D02*
X63771428Y-29007142D01*
X63842857Y-28935714D01*
X63914285Y-28792857D01*
X63914285Y-28364285D01*
X63842857Y-28221428D01*
X63771428Y-28150000D01*
X63628571Y-28078571D01*
X63414285Y-28078571D01*
X63271428Y-28150000D01*
X63200000Y-28221428D01*
X63128571Y-28364285D01*
X63128571Y-28792857D01*
X63200000Y-28935714D01*
X63271428Y-29007142D01*
X63414285Y-29078571D01*
X63628571Y-29078571D01*
X61842857Y-29078571D02*
X61842857Y-28292857D01*
X61914285Y-28150000D01*
X62057142Y-28078571D01*
X62342857Y-28078571D01*
X62485714Y-28150000D01*
X61842857Y-29007142D02*
X61985714Y-29078571D01*
X62342857Y-29078571D01*
X62485714Y-29007142D01*
X62557142Y-28864285D01*
X62557142Y-28721428D01*
X62485714Y-28578571D01*
X62342857Y-28507142D01*
X61985714Y-28507142D01*
X61842857Y-28435714D01*
X44128571Y-27578571D02*
X44128571Y-28650000D01*
X44200000Y-28864285D01*
X44342857Y-29007142D01*
X44557142Y-29078571D01*
X44700000Y-29078571D01*
X42842857Y-29007142D02*
X42985714Y-29078571D01*
X43271428Y-29078571D01*
X43414285Y-29007142D01*
X43485714Y-28864285D01*
X43485714Y-28292857D01*
X43414285Y-28150000D01*
X43271428Y-28078571D01*
X42985714Y-28078571D01*
X42842857Y-28150000D01*
X42771428Y-28292857D01*
X42771428Y-28435714D01*
X43485714Y-28578571D01*
X42128571Y-29078571D02*
X42128571Y-28078571D01*
X42128571Y-28364285D02*
X42057142Y-28221428D01*
X41985714Y-28150000D01*
X41842857Y-28078571D01*
X41700000Y-28078571D01*
X41200000Y-29078571D02*
X41200000Y-27578571D01*
X41200000Y-28150000D02*
X41057142Y-28078571D01*
X40771428Y-28078571D01*
X40628571Y-28150000D01*
X40557142Y-28221428D01*
X40485714Y-28364285D01*
X40485714Y-28792857D01*
X40557142Y-28935714D01*
X40628571Y-29007142D01*
X40771428Y-29078571D01*
X41057142Y-29078571D01*
X41200000Y-29007142D01*
X39628571Y-29078571D02*
X39771428Y-29007142D01*
X39842857Y-28935714D01*
X39914285Y-28792857D01*
X39914285Y-28364285D01*
X39842857Y-28221428D01*
X39771428Y-28150000D01*
X39628571Y-28078571D01*
X39414285Y-28078571D01*
X39271428Y-28150000D01*
X39200000Y-28221428D01*
X39128571Y-28364285D01*
X39128571Y-28792857D01*
X39200000Y-28935714D01*
X39271428Y-29007142D01*
X39414285Y-29078571D01*
X39628571Y-29078571D01*
X37842857Y-29078571D02*
X37842857Y-28292857D01*
X37914285Y-28150000D01*
X38057142Y-28078571D01*
X38342857Y-28078571D01*
X38485714Y-28150000D01*
X37842857Y-29007142D02*
X37985714Y-29078571D01*
X38342857Y-29078571D01*
X38485714Y-29007142D01*
X38557142Y-28864285D01*
X38557142Y-28721428D01*
X38485714Y-28578571D01*
X38342857Y-28507142D01*
X37985714Y-28507142D01*
X37842857Y-28435714D01*
D10*
X31447619Y-60842857D02*
X32447619Y-60842857D01*
X31447619Y-60414285D02*
X31971428Y-60414285D01*
X32066666Y-60461904D01*
X32114285Y-60557142D01*
X32114285Y-60700000D01*
X32066666Y-60795238D01*
X32019047Y-60842857D01*
X32114285Y-60080952D02*
X32114285Y-59700000D01*
X32447619Y-59938095D02*
X31590476Y-59938095D01*
X31495238Y-59890476D01*
X31447619Y-59795238D01*
X31447619Y-59700000D01*
X32114285Y-59509523D02*
X32114285Y-59128571D01*
X32447619Y-59366666D02*
X31590476Y-59366666D01*
X31495238Y-59319047D01*
X31447619Y-59223809D01*
X31447619Y-59128571D01*
X32114285Y-58795238D02*
X31114285Y-58795238D01*
X32066666Y-58795238D02*
X32114285Y-58700000D01*
X32114285Y-58509523D01*
X32066666Y-58414285D01*
X32019047Y-58366666D01*
X31923809Y-58319047D01*
X31638095Y-58319047D01*
X31542857Y-58366666D01*
X31495238Y-58414285D01*
X31447619Y-58509523D01*
X31447619Y-58700000D01*
X31495238Y-58795238D01*
X31542857Y-57890476D02*
X31495238Y-57842857D01*
X31447619Y-57890476D01*
X31495238Y-57938095D01*
X31542857Y-57890476D01*
X31447619Y-57890476D01*
X32066666Y-57890476D02*
X32019047Y-57842857D01*
X31971428Y-57890476D01*
X32019047Y-57938095D01*
X32066666Y-57890476D01*
X31971428Y-57890476D01*
X32495238Y-56700000D02*
X31209523Y-57557142D01*
X32495238Y-55652380D02*
X31209523Y-56509523D01*
X32114285Y-55414285D02*
X31447619Y-55223809D01*
X31923809Y-55033333D01*
X31447619Y-54842857D01*
X32114285Y-54652380D01*
X32114285Y-54366666D02*
X31447619Y-54176190D01*
X31923809Y-53985714D01*
X31447619Y-53795238D01*
X32114285Y-53604761D01*
X32114285Y-53319047D02*
X31447619Y-53128571D01*
X31923809Y-52938095D01*
X31447619Y-52747619D01*
X32114285Y-52557142D01*
X31542857Y-52176190D02*
X31495238Y-52128571D01*
X31447619Y-52176190D01*
X31495238Y-52223809D01*
X31542857Y-52176190D01*
X31447619Y-52176190D01*
X31495238Y-51271428D02*
X31447619Y-51366666D01*
X31447619Y-51557142D01*
X31495238Y-51652380D01*
X31542857Y-51700000D01*
X31638095Y-51747619D01*
X31923809Y-51747619D01*
X32019047Y-51700000D01*
X32066666Y-51652380D01*
X32114285Y-51557142D01*
X32114285Y-51366666D01*
X32066666Y-51271428D01*
X32114285Y-50414285D02*
X31447619Y-50414285D01*
X32114285Y-50842857D02*
X31590476Y-50842857D01*
X31495238Y-50795238D01*
X31447619Y-50700000D01*
X31447619Y-50557142D01*
X31495238Y-50461904D01*
X31542857Y-50414285D01*
X31495238Y-49985714D02*
X31447619Y-49890476D01*
X31447619Y-49700000D01*
X31495238Y-49604761D01*
X31590476Y-49557142D01*
X31638095Y-49557142D01*
X31733333Y-49604761D01*
X31780952Y-49700000D01*
X31780952Y-49842857D01*
X31828571Y-49938095D01*
X31923809Y-49985714D01*
X31971428Y-49985714D01*
X32066666Y-49938095D01*
X32114285Y-49842857D01*
X32114285Y-49700000D01*
X32066666Y-49604761D01*
X32114285Y-49271428D02*
X32114285Y-48890476D01*
X31447619Y-49128571D02*
X32304761Y-49128571D01*
X32400000Y-49080952D01*
X32447619Y-48985714D01*
X32447619Y-48890476D01*
X31542857Y-48557142D02*
X31495238Y-48509523D01*
X31447619Y-48557142D01*
X31495238Y-48604761D01*
X31542857Y-48557142D01*
X31447619Y-48557142D01*
X31495238Y-47652380D02*
X31447619Y-47747619D01*
X31447619Y-47938095D01*
X31495238Y-48033333D01*
X31542857Y-48080952D01*
X31638095Y-48128571D01*
X31923809Y-48128571D01*
X32019047Y-48080952D01*
X32066666Y-48033333D01*
X32114285Y-47938095D01*
X32114285Y-47747619D01*
X32066666Y-47652380D01*
X31447619Y-47080952D02*
X31495238Y-47176190D01*
X31542857Y-47223809D01*
X31638095Y-47271428D01*
X31923809Y-47271428D01*
X32019047Y-47223809D01*
X32066666Y-47176190D01*
X32114285Y-47080952D01*
X32114285Y-46938095D01*
X32066666Y-46842857D01*
X32019047Y-46795238D01*
X31923809Y-46747619D01*
X31638095Y-46747619D01*
X31542857Y-46795238D01*
X31495238Y-46842857D01*
X31447619Y-46938095D01*
X31447619Y-47080952D01*
X31542857Y-46319047D02*
X31495238Y-46271428D01*
X31447619Y-46319047D01*
X31495238Y-46366666D01*
X31542857Y-46319047D01*
X31447619Y-46319047D01*
X32114285Y-45414285D02*
X31447619Y-45414285D01*
X32114285Y-45842857D02*
X31590476Y-45842857D01*
X31495238Y-45795238D01*
X31447619Y-45700000D01*
X31447619Y-45557142D01*
X31495238Y-45461904D01*
X31542857Y-45414285D01*
X31447619Y-44938095D02*
X32447619Y-44938095D01*
X31828571Y-44842857D02*
X31447619Y-44557142D01*
X32114285Y-44557142D02*
X31733333Y-44938095D01*
X32495238Y-43414285D02*
X31209523Y-44271428D01*
D12*
X40200000Y-73900000D02*
X40200000Y-67800000D01*
X40200000Y-67800000D02*
X31100000Y-67800000D01*
X43500000Y-67800000D02*
X51100000Y-67800000D01*
X43500000Y-73900000D02*
X43500000Y-67800000D01*
D10*
X49447619Y-56066666D02*
X48447619Y-55733333D01*
X49447619Y-55400000D01*
X48495238Y-55114285D02*
X48447619Y-54971428D01*
X48447619Y-54733333D01*
X48495238Y-54638095D01*
X48542857Y-54590476D01*
X48638095Y-54542857D01*
X48733333Y-54542857D01*
X48828571Y-54590476D01*
X48876190Y-54638095D01*
X48923809Y-54733333D01*
X48971428Y-54923809D01*
X49019047Y-55019047D01*
X49066666Y-55066666D01*
X49161904Y-55114285D01*
X49257142Y-55114285D01*
X49352380Y-55066666D01*
X49400000Y-55019047D01*
X49447619Y-54923809D01*
X49447619Y-54685714D01*
X49400000Y-54542857D01*
X49447619Y-53923809D02*
X49447619Y-53733333D01*
X49400000Y-53638095D01*
X49304761Y-53542857D01*
X49114285Y-53495238D01*
X48780952Y-53495238D01*
X48590476Y-53542857D01*
X48495238Y-53638095D01*
X48447619Y-53733333D01*
X48447619Y-53923809D01*
X48495238Y-54019047D01*
X48590476Y-54114285D01*
X48780952Y-54161904D01*
X49114285Y-54161904D01*
X49304761Y-54114285D01*
X49400000Y-54019047D01*
X49447619Y-53923809D01*
X48447619Y-52590476D02*
X48447619Y-53066666D01*
X49447619Y-53066666D01*
X48733333Y-52304761D02*
X48733333Y-51828571D01*
X48447619Y-52400000D02*
X49447619Y-52066666D01*
X48447619Y-51733333D01*
X48447619Y-50828571D02*
X48923809Y-51161904D01*
X48447619Y-51400000D02*
X49447619Y-51400000D01*
X49447619Y-51019047D01*
X49400000Y-50923809D01*
X49352380Y-50876190D01*
X49257142Y-50828571D01*
X49114285Y-50828571D01*
X49019047Y-50876190D01*
X48971428Y-50923809D01*
X48923809Y-51019047D01*
X48923809Y-51400000D01*
X49447619Y-61423809D02*
X48447619Y-61090476D01*
X49447619Y-60757142D01*
X48971428Y-60090476D02*
X48923809Y-59947619D01*
X48876190Y-59900000D01*
X48780952Y-59852380D01*
X48638095Y-59852380D01*
X48542857Y-59900000D01*
X48495238Y-59947619D01*
X48447619Y-60042857D01*
X48447619Y-60423809D01*
X49447619Y-60423809D01*
X49447619Y-60090476D01*
X49400000Y-59995238D01*
X49352380Y-59947619D01*
X49257142Y-59900000D01*
X49161904Y-59900000D01*
X49066666Y-59947619D01*
X49019047Y-59995238D01*
X48971428Y-60090476D01*
X48971428Y-60423809D01*
X48733333Y-59471428D02*
X48733333Y-58995238D01*
X48447619Y-59566666D02*
X49447619Y-59233333D01*
X48447619Y-58900000D01*
X49447619Y-58709523D02*
X49447619Y-58138095D01*
X48447619Y-58423809D02*
X49447619Y-58423809D01*
X49447619Y-57947619D02*
X49447619Y-57376190D01*
X48447619Y-57661904D02*
X49447619Y-57661904D01*
X38014285Y-60104761D02*
X37871428Y-60152380D01*
X37633333Y-60152380D01*
X37538095Y-60104761D01*
X37490476Y-60057142D01*
X37442857Y-59961904D01*
X37442857Y-59866666D01*
X37490476Y-59771428D01*
X37538095Y-59723809D01*
X37633333Y-59676190D01*
X37823809Y-59628571D01*
X37919047Y-59580952D01*
X37966666Y-59533333D01*
X38014285Y-59438095D01*
X38014285Y-59342857D01*
X37966666Y-59247619D01*
X37919047Y-59200000D01*
X37823809Y-59152380D01*
X37585714Y-59152380D01*
X37442857Y-59200000D01*
X37014285Y-60152380D02*
X37014285Y-59152380D01*
X36776190Y-59152380D01*
X36633333Y-59200000D01*
X36538095Y-59295238D01*
X36490476Y-59390476D01*
X36442857Y-59580952D01*
X36442857Y-59723809D01*
X36490476Y-59914285D01*
X36538095Y-60009523D01*
X36633333Y-60104761D01*
X36776190Y-60152380D01*
X37014285Y-60152380D01*
X36061904Y-59866666D02*
X35585714Y-59866666D01*
X36157142Y-60152380D02*
X35823809Y-59152380D01*
X35490476Y-60152380D01*
X37990476Y-58004761D02*
X37847619Y-58052380D01*
X37609523Y-58052380D01*
X37514285Y-58004761D01*
X37466666Y-57957142D01*
X37419047Y-57861904D01*
X37419047Y-57766666D01*
X37466666Y-57671428D01*
X37514285Y-57623809D01*
X37609523Y-57576190D01*
X37800000Y-57528571D01*
X37895238Y-57480952D01*
X37942857Y-57433333D01*
X37990476Y-57338095D01*
X37990476Y-57242857D01*
X37942857Y-57147619D01*
X37895238Y-57100000D01*
X37800000Y-57052380D01*
X37561904Y-57052380D01*
X37419047Y-57100000D01*
X36419047Y-57957142D02*
X36466666Y-58004761D01*
X36609523Y-58052380D01*
X36704761Y-58052380D01*
X36847619Y-58004761D01*
X36942857Y-57909523D01*
X36990476Y-57814285D01*
X37038095Y-57623809D01*
X37038095Y-57480952D01*
X36990476Y-57290476D01*
X36942857Y-57195238D01*
X36847619Y-57100000D01*
X36704761Y-57052380D01*
X36609523Y-57052380D01*
X36466666Y-57100000D01*
X36419047Y-57147619D01*
X35514285Y-58052380D02*
X35990476Y-58052380D01*
X35990476Y-57052380D01*
X37238095Y-54928571D02*
X36904761Y-54928571D01*
X36761904Y-55452380D02*
X37238095Y-55452380D01*
X37238095Y-54452380D01*
X36761904Y-54452380D01*
X36333333Y-55452380D02*
X36333333Y-54452380D01*
X35761904Y-55452380D01*
X35761904Y-54452380D01*
X44247619Y-73266666D02*
X44247619Y-73838095D01*
X44247619Y-73552380D02*
X45247619Y-73552380D01*
X45104761Y-73647619D01*
X45009523Y-73742857D01*
X44961904Y-73838095D01*
X44914285Y-72409523D02*
X44247619Y-72409523D01*
X45295238Y-72647619D02*
X44580952Y-72885714D01*
X44580952Y-72266666D01*
X44914285Y-71457142D02*
X44247619Y-71457142D01*
X45295238Y-71695238D02*
X44580952Y-71933333D01*
X44580952Y-71314285D01*
X44247619Y-70933333D02*
X45247619Y-70933333D01*
X44533333Y-70600000D01*
X45247619Y-70266666D01*
X44247619Y-70266666D01*
X44247619Y-69790476D02*
X45247619Y-69790476D01*
X44771428Y-69790476D02*
X44771428Y-69219047D01*
X44247619Y-69219047D02*
X45247619Y-69219047D01*
X44914285Y-68838095D02*
X44914285Y-68314285D01*
X44247619Y-68838095D01*
X44247619Y-68314285D01*
X39595238Y-37452380D02*
X39261904Y-38452380D01*
X38928571Y-37452380D01*
X38595238Y-38452380D02*
X38595238Y-37452380D01*
X38119047Y-38452380D02*
X38119047Y-37452380D01*
X37547619Y-38452380D01*
X37547619Y-37452380D01*
D11*
X36171428Y-34907142D02*
X35028571Y-34907142D01*
X36171428Y-41807142D02*
X35028571Y-41807142D01*
X35600000Y-42378571D02*
X35600000Y-41235714D01*
X50371428Y-34807142D02*
X49228571Y-34807142D01*
X50371428Y-41707142D02*
X49228571Y-41707142D01*
X49800000Y-42278571D02*
X49800000Y-41135714D01*
D10*
X48247619Y-37452380D02*
X47628571Y-37452380D01*
X47961904Y-37833333D01*
X47819047Y-37833333D01*
X47723809Y-37880952D01*
X47676190Y-37928571D01*
X47628571Y-38023809D01*
X47628571Y-38261904D01*
X47676190Y-38357142D01*
X47723809Y-38404761D01*
X47819047Y-38452380D01*
X48104761Y-38452380D01*
X48200000Y-38404761D01*
X48247619Y-38357142D01*
X47342857Y-37452380D02*
X47009523Y-38452380D01*
X46676190Y-37452380D01*
X46438095Y-37452380D02*
X45819047Y-37452380D01*
X46152380Y-37833333D01*
X46009523Y-37833333D01*
X45914285Y-37880952D01*
X45866666Y-37928571D01*
X45819047Y-38023809D01*
X45819047Y-38261904D01*
X45866666Y-38357142D01*
X45914285Y-38404761D01*
X46009523Y-38452380D01*
X46295238Y-38452380D01*
X46390476Y-38404761D01*
X46438095Y-38357142D01*
X44438095Y-37452380D02*
X44247619Y-37452380D01*
X44152380Y-37500000D01*
X44057142Y-37595238D01*
X44009523Y-37785714D01*
X44009523Y-38119047D01*
X44057142Y-38309523D01*
X44152380Y-38404761D01*
X44247619Y-38452380D01*
X44438095Y-38452380D01*
X44533333Y-38404761D01*
X44628571Y-38309523D01*
X44676190Y-38119047D01*
X44676190Y-37785714D01*
X44628571Y-37595238D01*
X44533333Y-37500000D01*
X44438095Y-37452380D01*
X43580952Y-37452380D02*
X43580952Y-38261904D01*
X43533333Y-38357142D01*
X43485714Y-38404761D01*
X43390476Y-38452380D01*
X43199999Y-38452380D01*
X43104761Y-38404761D01*
X43057142Y-38357142D01*
X43009523Y-38261904D01*
X43009523Y-37452380D01*
X42676190Y-37452380D02*
X42104761Y-37452380D01*
X42390476Y-38452380D02*
X42390476Y-37452380D01*
X38814285Y-73361904D02*
X38147619Y-73361904D01*
X39195238Y-73600000D02*
X38480952Y-73838095D01*
X38480952Y-73219047D01*
X39147619Y-72933333D02*
X39147619Y-72314285D01*
X38766666Y-72647619D01*
X38766666Y-72504761D01*
X38719047Y-72409523D01*
X38671428Y-72361904D01*
X38576190Y-72314285D01*
X38338095Y-72314285D01*
X38242857Y-72361904D01*
X38195238Y-72409523D01*
X38147619Y-72504761D01*
X38147619Y-72790476D01*
X38195238Y-72885714D01*
X38242857Y-72933333D01*
X38814285Y-71457142D02*
X38147619Y-71457142D01*
X39195238Y-71695238D02*
X38480952Y-71933333D01*
X38480952Y-71314285D01*
X38147619Y-70933333D02*
X39147619Y-70933333D01*
X38433333Y-70600000D01*
X39147619Y-70266666D01*
X38147619Y-70266666D01*
X38147619Y-69790476D02*
X39147619Y-69790476D01*
X38671428Y-69790476D02*
X38671428Y-69219047D01*
X38147619Y-69219047D02*
X39147619Y-69219047D01*
X38814285Y-68838095D02*
X38814285Y-68314285D01*
X38147619Y-68838095D01*
X38147619Y-68314285D01*
D13*
G04 #@! TO.C,X2*
G36*
X63723625Y-50864241D02*
X63723663Y-51559253D01*
X63723793Y-52193510D01*
X63724039Y-52769757D01*
X63724428Y-53290740D01*
X63724983Y-53759203D01*
X63725731Y-54177892D01*
X63726696Y-54549551D01*
X63727904Y-54876927D01*
X63729379Y-55162763D01*
X63731146Y-55409806D01*
X63733231Y-55620800D01*
X63735659Y-55798490D01*
X63738454Y-55945621D01*
X63741643Y-56064940D01*
X63745249Y-56159190D01*
X63749298Y-56231116D01*
X63753816Y-56283465D01*
X63758826Y-56318981D01*
X63764355Y-56340409D01*
X63770427Y-56350495D01*
X63773760Y-56352159D01*
X63824448Y-56340192D01*
X63907360Y-56299442D01*
X63996010Y-56244333D01*
X64246784Y-56072680D01*
X64429181Y-55947222D01*
X64429181Y-46580250D01*
X64604087Y-46580250D01*
X64778992Y-46580250D01*
X64795407Y-46725886D01*
X64812951Y-46821745D01*
X64837923Y-46892640D01*
X64848713Y-46908448D01*
X64895944Y-46926529D01*
X64989923Y-46942489D01*
X65113898Y-46953776D01*
X65162276Y-46956190D01*
X65300848Y-46959850D01*
X65403223Y-46952980D01*
X65475137Y-46927401D01*
X65522326Y-46874938D01*
X65550525Y-46787412D01*
X65565471Y-46656647D01*
X65572900Y-46474464D01*
X65575463Y-46367137D01*
X65578893Y-46144011D01*
X65574609Y-45976382D01*
X65557817Y-45856315D01*
X65523721Y-45775873D01*
X65467528Y-45727122D01*
X65384443Y-45702125D01*
X65269672Y-45692947D01*
X65167378Y-45691683D01*
X65007081Y-45701515D01*
X64900313Y-45734603D01*
X64840030Y-45795149D01*
X64819188Y-45887352D01*
X64819000Y-45899425D01*
X64819000Y-46008750D01*
X64644375Y-46008750D01*
X64469750Y-46008750D01*
X64469750Y-45862735D01*
X64484059Y-45701846D01*
X64530763Y-45579152D01*
X64615531Y-45490746D01*
X64744034Y-45432720D01*
X64921939Y-45401166D01*
X65152375Y-45392167D01*
X65393899Y-45402090D01*
X65581167Y-45434067D01*
X65721317Y-45493922D01*
X65821484Y-45587476D01*
X65888804Y-45720553D01*
X65930412Y-45898975D01*
X65946917Y-46040500D01*
X65953117Y-46193161D01*
X65949195Y-46369736D01*
X65936724Y-46554149D01*
X65917279Y-46730325D01*
X65892434Y-46882190D01*
X65863763Y-46993668D01*
X65850444Y-47025585D01*
X65781140Y-47124213D01*
X65685142Y-47194898D01*
X65554323Y-47240186D01*
X65380556Y-47262620D01*
X65155715Y-47264746D01*
X65093726Y-47262537D01*
X64888136Y-47246964D01*
X64739360Y-47219625D01*
X64665101Y-47192577D01*
X64568132Y-47125563D01*
X64502543Y-47028731D01*
X64462187Y-46890146D01*
X64446157Y-46767460D01*
X64429181Y-46580250D01*
X64429181Y-55947222D01*
X64430715Y-55946166D01*
X64430715Y-47723250D01*
X64605538Y-47723250D01*
X64780360Y-47723250D01*
X64791847Y-48440514D01*
X64795721Y-48671682D01*
X64799588Y-48847732D01*
X64804376Y-48977038D01*
X64811016Y-49067976D01*
X64820437Y-49128921D01*
X64833568Y-49168247D01*
X64851339Y-49194329D01*
X64874680Y-49215542D01*
X64878184Y-49218389D01*
X64963034Y-49256875D01*
X65087249Y-49278610D01*
X65228944Y-49283597D01*
X65366234Y-49271837D01*
X65477235Y-49243331D01*
X65521921Y-49218345D01*
X65546087Y-49197174D01*
X65564542Y-49172306D01*
X65578208Y-49135366D01*
X65588005Y-49077979D01*
X65594854Y-48991771D01*
X65599676Y-48868367D01*
X65603391Y-48699391D01*
X65606922Y-48476468D01*
X65607454Y-48440470D01*
X65618032Y-47723250D01*
X65790016Y-47723250D01*
X65962000Y-47723250D01*
X65962000Y-48369791D01*
X65960068Y-48664346D01*
X65952845Y-48902315D01*
X65938195Y-49090532D01*
X65913980Y-49235833D01*
X65878064Y-49345052D01*
X65828308Y-49425025D01*
X65762577Y-49482586D01*
X65678732Y-49524571D01*
X65592031Y-49553003D01*
X65458256Y-49577014D01*
X65291481Y-49587071D01*
X65111478Y-49584080D01*
X64938018Y-49568946D01*
X64790871Y-49542575D01*
X64701725Y-49512233D01*
X64630475Y-49473568D01*
X64574337Y-49430595D01*
X64531363Y-49375532D01*
X64499606Y-49300598D01*
X64477118Y-49198012D01*
X64461952Y-49059992D01*
X64452161Y-48878756D01*
X64445798Y-48646523D01*
X64442784Y-48477500D01*
X64430715Y-47723250D01*
X64430715Y-55946166D01*
X64438000Y-55941156D01*
X64438000Y-52644500D01*
X64438000Y-52501625D01*
X64438000Y-52358750D01*
X64463058Y-52358750D01*
X64463058Y-51339276D01*
X64468289Y-51183491D01*
X64490650Y-51064420D01*
X64537837Y-50975951D01*
X64617544Y-50911968D01*
X64737467Y-50866357D01*
X64905300Y-50833004D01*
X65128740Y-50805795D01*
X65135311Y-50805119D01*
X65283663Y-50787442D01*
X65410453Y-50767731D01*
X65501252Y-50748526D01*
X65540124Y-50733899D01*
X65568776Y-50676480D01*
X65579609Y-50583808D01*
X65572918Y-50481490D01*
X65548998Y-50395134D01*
X65535950Y-50372505D01*
X65504997Y-50342000D01*
X65457206Y-50323423D01*
X65378176Y-50314002D01*
X65253507Y-50310962D01*
X65215953Y-50310875D01*
X65055486Y-50316619D01*
X64948285Y-50337254D01*
X64884873Y-50377879D01*
X64855776Y-50443595D01*
X64850750Y-50507443D01*
X64845307Y-50549512D01*
X64818688Y-50571423D01*
X64755458Y-50579655D01*
X64676125Y-50580750D01*
X64501500Y-50580750D01*
X64501500Y-50468605D01*
X64514642Y-50359209D01*
X64546419Y-50249017D01*
X64547983Y-50245212D01*
X64594123Y-50165516D01*
X64662189Y-50107258D01*
X64761199Y-50067536D01*
X64900171Y-50043448D01*
X65088121Y-50032090D01*
X65215875Y-50030217D01*
X65448794Y-50035497D01*
X65626243Y-50057158D01*
X65755330Y-50100801D01*
X65843163Y-50172028D01*
X65896850Y-50276440D01*
X65923500Y-50419639D01*
X65930250Y-50593169D01*
X65925312Y-50728955D01*
X65905722Y-50835219D01*
X65864316Y-50916554D01*
X65793931Y-50977554D01*
X65687403Y-51022813D01*
X65537567Y-51056924D01*
X65337262Y-51084481D01*
X65131624Y-51105289D01*
X65014219Y-51121359D01*
X64916756Y-51143899D01*
X64864587Y-51165689D01*
X64827380Y-51226281D01*
X64810577Y-51322196D01*
X64814217Y-51428611D01*
X64838345Y-51520701D01*
X64863919Y-51560025D01*
X64926066Y-51590238D01*
X65031942Y-51612244D01*
X65162129Y-51624525D01*
X65297209Y-51625561D01*
X65417763Y-51613836D01*
X65454000Y-51606165D01*
X65527540Y-51579324D01*
X65567990Y-51533557D01*
X65594455Y-51446944D01*
X65595036Y-51444363D01*
X65624946Y-51311000D01*
X65797078Y-51311000D01*
X65969211Y-51311000D01*
X65947030Y-51458911D01*
X65912671Y-51623091D01*
X65860367Y-51736697D01*
X65779163Y-51812266D01*
X65658099Y-51862340D01*
X65577182Y-51882162D01*
X65461069Y-51896734D01*
X65308771Y-51902066D01*
X65138858Y-51899048D01*
X64969900Y-51888566D01*
X64820467Y-51871509D01*
X64709130Y-51848764D01*
X64681983Y-51839368D01*
X64583213Y-51778471D01*
X64516603Y-51686646D01*
X64478049Y-51554513D01*
X64463443Y-51372695D01*
X64463058Y-51339276D01*
X64463058Y-52358750D01*
X65200000Y-52358750D01*
X65962000Y-52358750D01*
X65962000Y-53279500D01*
X65962000Y-54200250D01*
X65787375Y-54200250D01*
X65612750Y-54200250D01*
X65612750Y-53819250D01*
X65612750Y-53438250D01*
X65104750Y-53438250D01*
X64596750Y-53438250D01*
X64596750Y-53295375D01*
X64596750Y-53152500D01*
X65104750Y-53152500D01*
X65612750Y-53152500D01*
X65612750Y-52898500D01*
X65612750Y-52644500D01*
X65025375Y-52644500D01*
X64438000Y-52644500D01*
X64438000Y-55941156D01*
X64508618Y-55892583D01*
X64776220Y-55707752D01*
X65044298Y-55521897D01*
X65307558Y-55338728D01*
X65560710Y-55161954D01*
X65798461Y-54995285D01*
X66015518Y-54842431D01*
X66206589Y-54707103D01*
X66366382Y-54593009D01*
X66489604Y-54503860D01*
X66570963Y-54443365D01*
X66604938Y-54415504D01*
X66612718Y-54404012D01*
X66619738Y-54386137D01*
X66626038Y-54358744D01*
X66631655Y-54318697D01*
X66636630Y-54262861D01*
X66641000Y-54188099D01*
X66644805Y-54091276D01*
X66648084Y-53969257D01*
X66650875Y-53818907D01*
X66653217Y-53637088D01*
X66655148Y-53420667D01*
X66656709Y-53166506D01*
X66657937Y-52871471D01*
X66658872Y-52532427D01*
X66659551Y-52146236D01*
X66660015Y-51709765D01*
X66660302Y-51219877D01*
X66660450Y-50673436D01*
X66660499Y-50067308D01*
X66660500Y-49928424D01*
X66660291Y-49222948D01*
X66659660Y-48580167D01*
X66658599Y-47999276D01*
X66657105Y-47479470D01*
X66655170Y-47019946D01*
X66652789Y-46619898D01*
X66649955Y-46278523D01*
X66646663Y-45995017D01*
X66642907Y-45768574D01*
X66638680Y-45598391D01*
X66633977Y-45483663D01*
X66628792Y-45423586D01*
X66626932Y-45415504D01*
X66604630Y-45369428D01*
X66554584Y-45274207D01*
X66480181Y-45136038D01*
X66384812Y-44961120D01*
X66271863Y-44755651D01*
X66144725Y-44525830D01*
X66006785Y-44277855D01*
X65922066Y-44126188D01*
X65756984Y-43831811D01*
X65619554Y-43588594D01*
X65506959Y-43391982D01*
X65416383Y-43237422D01*
X65345010Y-43120360D01*
X65290023Y-43036243D01*
X65248606Y-42980517D01*
X65217943Y-42948628D01*
X65195218Y-42936022D01*
X65185698Y-42935563D01*
X65161086Y-42951980D01*
X65121836Y-42998453D01*
X65065729Y-43078554D01*
X64990548Y-43195855D01*
X64894074Y-43353929D01*
X64774089Y-43556348D01*
X64628376Y-43806684D01*
X64454717Y-44108511D01*
X64422125Y-44165427D01*
X63723625Y-45385979D01*
X63723625Y-50864241D01*
X63723625Y-50864241D01*
G37*
X63723625Y-50864241D02*
X63723663Y-51559253D01*
X63723793Y-52193510D01*
X63724039Y-52769757D01*
X63724428Y-53290740D01*
X63724983Y-53759203D01*
X63725731Y-54177892D01*
X63726696Y-54549551D01*
X63727904Y-54876927D01*
X63729379Y-55162763D01*
X63731146Y-55409806D01*
X63733231Y-55620800D01*
X63735659Y-55798490D01*
X63738454Y-55945621D01*
X63741643Y-56064940D01*
X63745249Y-56159190D01*
X63749298Y-56231116D01*
X63753816Y-56283465D01*
X63758826Y-56318981D01*
X63764355Y-56340409D01*
X63770427Y-56350495D01*
X63773760Y-56352159D01*
X63824448Y-56340192D01*
X63907360Y-56299442D01*
X63996010Y-56244333D01*
X64246784Y-56072680D01*
X64429181Y-55947222D01*
X64429181Y-46580250D01*
X64604087Y-46580250D01*
X64778992Y-46580250D01*
X64795407Y-46725886D01*
X64812951Y-46821745D01*
X64837923Y-46892640D01*
X64848713Y-46908448D01*
X64895944Y-46926529D01*
X64989923Y-46942489D01*
X65113898Y-46953776D01*
X65162276Y-46956190D01*
X65300848Y-46959850D01*
X65403223Y-46952980D01*
X65475137Y-46927401D01*
X65522326Y-46874938D01*
X65550525Y-46787412D01*
X65565471Y-46656647D01*
X65572900Y-46474464D01*
X65575463Y-46367137D01*
X65578893Y-46144011D01*
X65574609Y-45976382D01*
X65557817Y-45856315D01*
X65523721Y-45775873D01*
X65467528Y-45727122D01*
X65384443Y-45702125D01*
X65269672Y-45692947D01*
X65167378Y-45691683D01*
X65007081Y-45701515D01*
X64900313Y-45734603D01*
X64840030Y-45795149D01*
X64819188Y-45887352D01*
X64819000Y-45899425D01*
X64819000Y-46008750D01*
X64644375Y-46008750D01*
X64469750Y-46008750D01*
X64469750Y-45862735D01*
X64484059Y-45701846D01*
X64530763Y-45579152D01*
X64615531Y-45490746D01*
X64744034Y-45432720D01*
X64921939Y-45401166D01*
X65152375Y-45392167D01*
X65393899Y-45402090D01*
X65581167Y-45434067D01*
X65721317Y-45493922D01*
X65821484Y-45587476D01*
X65888804Y-45720553D01*
X65930412Y-45898975D01*
X65946917Y-46040500D01*
X65953117Y-46193161D01*
X65949195Y-46369736D01*
X65936724Y-46554149D01*
X65917279Y-46730325D01*
X65892434Y-46882190D01*
X65863763Y-46993668D01*
X65850444Y-47025585D01*
X65781140Y-47124213D01*
X65685142Y-47194898D01*
X65554323Y-47240186D01*
X65380556Y-47262620D01*
X65155715Y-47264746D01*
X65093726Y-47262537D01*
X64888136Y-47246964D01*
X64739360Y-47219625D01*
X64665101Y-47192577D01*
X64568132Y-47125563D01*
X64502543Y-47028731D01*
X64462187Y-46890146D01*
X64446157Y-46767460D01*
X64429181Y-46580250D01*
X64429181Y-55947222D01*
X64430715Y-55946166D01*
X64430715Y-47723250D01*
X64605538Y-47723250D01*
X64780360Y-47723250D01*
X64791847Y-48440514D01*
X64795721Y-48671682D01*
X64799588Y-48847732D01*
X64804376Y-48977038D01*
X64811016Y-49067976D01*
X64820437Y-49128921D01*
X64833568Y-49168247D01*
X64851339Y-49194329D01*
X64874680Y-49215542D01*
X64878184Y-49218389D01*
X64963034Y-49256875D01*
X65087249Y-49278610D01*
X65228944Y-49283597D01*
X65366234Y-49271837D01*
X65477235Y-49243331D01*
X65521921Y-49218345D01*
X65546087Y-49197174D01*
X65564542Y-49172306D01*
X65578208Y-49135366D01*
X65588005Y-49077979D01*
X65594854Y-48991771D01*
X65599676Y-48868367D01*
X65603391Y-48699391D01*
X65606922Y-48476468D01*
X65607454Y-48440470D01*
X65618032Y-47723250D01*
X65790016Y-47723250D01*
X65962000Y-47723250D01*
X65962000Y-48369791D01*
X65960068Y-48664346D01*
X65952845Y-48902315D01*
X65938195Y-49090532D01*
X65913980Y-49235833D01*
X65878064Y-49345052D01*
X65828308Y-49425025D01*
X65762577Y-49482586D01*
X65678732Y-49524571D01*
X65592031Y-49553003D01*
X65458256Y-49577014D01*
X65291481Y-49587071D01*
X65111478Y-49584080D01*
X64938018Y-49568946D01*
X64790871Y-49542575D01*
X64701725Y-49512233D01*
X64630475Y-49473568D01*
X64574337Y-49430595D01*
X64531363Y-49375532D01*
X64499606Y-49300598D01*
X64477118Y-49198012D01*
X64461952Y-49059992D01*
X64452161Y-48878756D01*
X64445798Y-48646523D01*
X64442784Y-48477500D01*
X64430715Y-47723250D01*
X64430715Y-55946166D01*
X64438000Y-55941156D01*
X64438000Y-52644500D01*
X64438000Y-52501625D01*
X64438000Y-52358750D01*
X64463058Y-52358750D01*
X64463058Y-51339276D01*
X64468289Y-51183491D01*
X64490650Y-51064420D01*
X64537837Y-50975951D01*
X64617544Y-50911968D01*
X64737467Y-50866357D01*
X64905300Y-50833004D01*
X65128740Y-50805795D01*
X65135311Y-50805119D01*
X65283663Y-50787442D01*
X65410453Y-50767731D01*
X65501252Y-50748526D01*
X65540124Y-50733899D01*
X65568776Y-50676480D01*
X65579609Y-50583808D01*
X65572918Y-50481490D01*
X65548998Y-50395134D01*
X65535950Y-50372505D01*
X65504997Y-50342000D01*
X65457206Y-50323423D01*
X65378176Y-50314002D01*
X65253507Y-50310962D01*
X65215953Y-50310875D01*
X65055486Y-50316619D01*
X64948285Y-50337254D01*
X64884873Y-50377879D01*
X64855776Y-50443595D01*
X64850750Y-50507443D01*
X64845307Y-50549512D01*
X64818688Y-50571423D01*
X64755458Y-50579655D01*
X64676125Y-50580750D01*
X64501500Y-50580750D01*
X64501500Y-50468605D01*
X64514642Y-50359209D01*
X64546419Y-50249017D01*
X64547983Y-50245212D01*
X64594123Y-50165516D01*
X64662189Y-50107258D01*
X64761199Y-50067536D01*
X64900171Y-50043448D01*
X65088121Y-50032090D01*
X65215875Y-50030217D01*
X65448794Y-50035497D01*
X65626243Y-50057158D01*
X65755330Y-50100801D01*
X65843163Y-50172028D01*
X65896850Y-50276440D01*
X65923500Y-50419639D01*
X65930250Y-50593169D01*
X65925312Y-50728955D01*
X65905722Y-50835219D01*
X65864316Y-50916554D01*
X65793931Y-50977554D01*
X65687403Y-51022813D01*
X65537567Y-51056924D01*
X65337262Y-51084481D01*
X65131624Y-51105289D01*
X65014219Y-51121359D01*
X64916756Y-51143899D01*
X64864587Y-51165689D01*
X64827380Y-51226281D01*
X64810577Y-51322196D01*
X64814217Y-51428611D01*
X64838345Y-51520701D01*
X64863919Y-51560025D01*
X64926066Y-51590238D01*
X65031942Y-51612244D01*
X65162129Y-51624525D01*
X65297209Y-51625561D01*
X65417763Y-51613836D01*
X65454000Y-51606165D01*
X65527540Y-51579324D01*
X65567990Y-51533557D01*
X65594455Y-51446944D01*
X65595036Y-51444363D01*
X65624946Y-51311000D01*
X65797078Y-51311000D01*
X65969211Y-51311000D01*
X65947030Y-51458911D01*
X65912671Y-51623091D01*
X65860367Y-51736697D01*
X65779163Y-51812266D01*
X65658099Y-51862340D01*
X65577182Y-51882162D01*
X65461069Y-51896734D01*
X65308771Y-51902066D01*
X65138858Y-51899048D01*
X64969900Y-51888566D01*
X64820467Y-51871509D01*
X64709130Y-51848764D01*
X64681983Y-51839368D01*
X64583213Y-51778471D01*
X64516603Y-51686646D01*
X64478049Y-51554513D01*
X64463443Y-51372695D01*
X64463058Y-51339276D01*
X64463058Y-52358750D01*
X65200000Y-52358750D01*
X65962000Y-52358750D01*
X65962000Y-53279500D01*
X65962000Y-54200250D01*
X65787375Y-54200250D01*
X65612750Y-54200250D01*
X65612750Y-53819250D01*
X65612750Y-53438250D01*
X65104750Y-53438250D01*
X64596750Y-53438250D01*
X64596750Y-53295375D01*
X64596750Y-53152500D01*
X65104750Y-53152500D01*
X65612750Y-53152500D01*
X65612750Y-52898500D01*
X65612750Y-52644500D01*
X65025375Y-52644500D01*
X64438000Y-52644500D01*
X64438000Y-55941156D01*
X64508618Y-55892583D01*
X64776220Y-55707752D01*
X65044298Y-55521897D01*
X65307558Y-55338728D01*
X65560710Y-55161954D01*
X65798461Y-54995285D01*
X66015518Y-54842431D01*
X66206589Y-54707103D01*
X66366382Y-54593009D01*
X66489604Y-54503860D01*
X66570963Y-54443365D01*
X66604938Y-54415504D01*
X66612718Y-54404012D01*
X66619738Y-54386137D01*
X66626038Y-54358744D01*
X66631655Y-54318697D01*
X66636630Y-54262861D01*
X66641000Y-54188099D01*
X66644805Y-54091276D01*
X66648084Y-53969257D01*
X66650875Y-53818907D01*
X66653217Y-53637088D01*
X66655148Y-53420667D01*
X66656709Y-53166506D01*
X66657937Y-52871471D01*
X66658872Y-52532427D01*
X66659551Y-52146236D01*
X66660015Y-51709765D01*
X66660302Y-51219877D01*
X66660450Y-50673436D01*
X66660499Y-50067308D01*
X66660500Y-49928424D01*
X66660291Y-49222948D01*
X66659660Y-48580167D01*
X66658599Y-47999276D01*
X66657105Y-47479470D01*
X66655170Y-47019946D01*
X66652789Y-46619898D01*
X66649955Y-46278523D01*
X66646663Y-45995017D01*
X66642907Y-45768574D01*
X66638680Y-45598391D01*
X66633977Y-45483663D01*
X66628792Y-45423586D01*
X66626932Y-45415504D01*
X66604630Y-45369428D01*
X66554584Y-45274207D01*
X66480181Y-45136038D01*
X66384812Y-44961120D01*
X66271863Y-44755651D01*
X66144725Y-44525830D01*
X66006785Y-44277855D01*
X65922066Y-44126188D01*
X65756984Y-43831811D01*
X65619554Y-43588594D01*
X65506959Y-43391982D01*
X65416383Y-43237422D01*
X65345010Y-43120360D01*
X65290023Y-43036243D01*
X65248606Y-42980517D01*
X65217943Y-42948628D01*
X65195218Y-42936022D01*
X65185698Y-42935563D01*
X65161086Y-42951980D01*
X65121836Y-42998453D01*
X65065729Y-43078554D01*
X64990548Y-43195855D01*
X64894074Y-43353929D01*
X64774089Y-43556348D01*
X64628376Y-43806684D01*
X64454717Y-44108511D01*
X64422125Y-44165427D01*
X63723625Y-45385979D01*
X63723625Y-50864241D01*
G36*
X63707750Y-57315267D02*
X63708817Y-57440265D01*
X63714488Y-57514664D01*
X63728470Y-57551355D01*
X63754469Y-57563233D01*
X63779188Y-57563765D01*
X63828890Y-57545441D01*
X63919278Y-57496179D01*
X64039683Y-57422391D01*
X64179440Y-57330490D01*
X64263375Y-57272668D01*
X64393762Y-57181501D01*
X64566005Y-57061315D01*
X64769790Y-56919292D01*
X64994803Y-56762617D01*
X65230731Y-56598471D01*
X65467261Y-56434038D01*
X65565125Y-56366046D01*
X65780518Y-56215675D01*
X65983238Y-56072715D01*
X66166311Y-55942193D01*
X66322767Y-55829135D01*
X66445632Y-55738567D01*
X66527933Y-55675517D01*
X66557313Y-55650790D01*
X66609356Y-55597922D01*
X66640107Y-55549144D01*
X66655152Y-55485749D01*
X66660078Y-55389031D01*
X66660500Y-55305271D01*
X66659397Y-55181064D01*
X66653574Y-55107341D01*
X66639266Y-55071093D01*
X66612705Y-55059312D01*
X66589063Y-55058579D01*
X66551209Y-55076401D01*
X66467459Y-55126741D01*
X66343793Y-55205491D01*
X66186190Y-55308548D01*
X66000630Y-55431806D01*
X65793091Y-55571158D01*
X65569554Y-55722500D01*
X65335997Y-55881725D01*
X65098401Y-56044729D01*
X64862744Y-56207405D01*
X64635006Y-56365648D01*
X64421166Y-56515354D01*
X64227204Y-56652415D01*
X64059099Y-56772726D01*
X63922831Y-56872183D01*
X63824379Y-56946679D01*
X63769722Y-56992108D01*
X63763313Y-56998783D01*
X63732682Y-57052660D01*
X63715203Y-57133900D01*
X63708212Y-57257668D01*
X63707750Y-57315267D01*
X63707750Y-57315267D01*
G37*
X63707750Y-57315267D02*
X63708817Y-57440265D01*
X63714488Y-57514664D01*
X63728470Y-57551355D01*
X63754469Y-57563233D01*
X63779188Y-57563765D01*
X63828890Y-57545441D01*
X63919278Y-57496179D01*
X64039683Y-57422391D01*
X64179440Y-57330490D01*
X64263375Y-57272668D01*
X64393762Y-57181501D01*
X64566005Y-57061315D01*
X64769790Y-56919292D01*
X64994803Y-56762617D01*
X65230731Y-56598471D01*
X65467261Y-56434038D01*
X65565125Y-56366046D01*
X65780518Y-56215675D01*
X65983238Y-56072715D01*
X66166311Y-55942193D01*
X66322767Y-55829135D01*
X66445632Y-55738567D01*
X66527933Y-55675517D01*
X66557313Y-55650790D01*
X66609356Y-55597922D01*
X66640107Y-55549144D01*
X66655152Y-55485749D01*
X66660078Y-55389031D01*
X66660500Y-55305271D01*
X66659397Y-55181064D01*
X66653574Y-55107341D01*
X66639266Y-55071093D01*
X66612705Y-55059312D01*
X66589063Y-55058579D01*
X66551209Y-55076401D01*
X66467459Y-55126741D01*
X66343793Y-55205491D01*
X66186190Y-55308548D01*
X66000630Y-55431806D01*
X65793091Y-55571158D01*
X65569554Y-55722500D01*
X65335997Y-55881725D01*
X65098401Y-56044729D01*
X64862744Y-56207405D01*
X64635006Y-56365648D01*
X64421166Y-56515354D01*
X64227204Y-56652415D01*
X64059099Y-56772726D01*
X63922831Y-56872183D01*
X63824379Y-56946679D01*
X63769722Y-56992108D01*
X63763313Y-56998783D01*
X63732682Y-57052660D01*
X63715203Y-57133900D01*
X63708212Y-57257668D01*
X63707750Y-57315267D01*
G36*
X63707750Y-58437431D02*
X63709358Y-58549021D01*
X63717435Y-58611275D01*
X63736866Y-58638336D01*
X63772535Y-58644348D01*
X63779188Y-58644314D01*
X63819536Y-58626293D01*
X63907218Y-58574618D01*
X64037704Y-58492277D01*
X64206468Y-58382257D01*
X64408980Y-58247546D01*
X64640713Y-58091133D01*
X64897137Y-57916003D01*
X65173725Y-57725146D01*
X65200000Y-57706919D01*
X65462368Y-57524298D01*
X65710085Y-57350837D01*
X65938002Y-57190213D01*
X66140970Y-57046104D01*
X66313840Y-56922187D01*
X66451462Y-56822140D01*
X66548688Y-56749641D01*
X66600367Y-56708367D01*
X66606318Y-56702508D01*
X66639570Y-56632205D01*
X66656566Y-56533439D01*
X66658014Y-56425448D01*
X66644619Y-56327466D01*
X66617087Y-56258731D01*
X66589277Y-56238219D01*
X66555002Y-56254014D01*
X66474689Y-56302228D01*
X66354277Y-56378799D01*
X66199705Y-56479667D01*
X66016913Y-56600774D01*
X65811840Y-56738058D01*
X65590423Y-56887459D01*
X65358604Y-57044918D01*
X65122320Y-57206374D01*
X64887511Y-57367767D01*
X64660115Y-57525037D01*
X64446073Y-57674124D01*
X64251322Y-57810968D01*
X64081802Y-57931508D01*
X63943453Y-58031685D01*
X63842212Y-58107438D01*
X63784020Y-58154708D01*
X63779188Y-58159271D01*
X63738764Y-58210068D01*
X63716919Y-58274515D01*
X63708517Y-58372611D01*
X63707750Y-58437431D01*
X63707750Y-58437431D01*
G37*
X63707750Y-58437431D02*
X63709358Y-58549021D01*
X63717435Y-58611275D01*
X63736866Y-58638336D01*
X63772535Y-58644348D01*
X63779188Y-58644314D01*
X63819536Y-58626293D01*
X63907218Y-58574618D01*
X64037704Y-58492277D01*
X64206468Y-58382257D01*
X64408980Y-58247546D01*
X64640713Y-58091133D01*
X64897137Y-57916003D01*
X65173725Y-57725146D01*
X65200000Y-57706919D01*
X65462368Y-57524298D01*
X65710085Y-57350837D01*
X65938002Y-57190213D01*
X66140970Y-57046104D01*
X66313840Y-56922187D01*
X66451462Y-56822140D01*
X66548688Y-56749641D01*
X66600367Y-56708367D01*
X66606318Y-56702508D01*
X66639570Y-56632205D01*
X66656566Y-56533439D01*
X66658014Y-56425448D01*
X66644619Y-56327466D01*
X66617087Y-56258731D01*
X66589277Y-56238219D01*
X66555002Y-56254014D01*
X66474689Y-56302228D01*
X66354277Y-56378799D01*
X66199705Y-56479667D01*
X66016913Y-56600774D01*
X65811840Y-56738058D01*
X65590423Y-56887459D01*
X65358604Y-57044918D01*
X65122320Y-57206374D01*
X64887511Y-57367767D01*
X64660115Y-57525037D01*
X64446073Y-57674124D01*
X64251322Y-57810968D01*
X64081802Y-57931508D01*
X63943453Y-58031685D01*
X63842212Y-58107438D01*
X63784020Y-58154708D01*
X63779188Y-58159271D01*
X63738764Y-58210068D01*
X63716919Y-58274515D01*
X63708517Y-58372611D01*
X63707750Y-58437431D01*
G36*
X63707750Y-59551618D02*
X63711393Y-59639393D01*
X63727982Y-59680421D01*
X63766006Y-59691297D01*
X63779188Y-59691266D01*
X63819457Y-59673133D01*
X63906421Y-59621737D01*
X64034927Y-59540479D01*
X64199822Y-59432759D01*
X64395954Y-59301977D01*
X64618169Y-59151533D01*
X64861315Y-58984826D01*
X65090364Y-58826079D01*
X65346173Y-58647829D01*
X65591263Y-58476889D01*
X65819626Y-58317461D01*
X66025254Y-58173745D01*
X66202142Y-58049942D01*
X66344282Y-57950252D01*
X66445666Y-57878877D01*
X66496854Y-57842499D01*
X66663605Y-57722374D01*
X66654116Y-57540874D01*
X66646264Y-57437885D01*
X66632086Y-57383364D01*
X66604902Y-57362284D01*
X66573456Y-57359375D01*
X66531146Y-57377297D01*
X66443394Y-57428280D01*
X66316194Y-57508149D01*
X66155541Y-57612729D01*
X65967429Y-57737846D01*
X65757854Y-57879324D01*
X65532808Y-58032989D01*
X65298288Y-58194666D01*
X65060287Y-58360179D01*
X64824801Y-58525354D01*
X64597822Y-58686016D01*
X64385347Y-58837991D01*
X64193370Y-58977103D01*
X64027885Y-59099177D01*
X63894886Y-59200039D01*
X63800369Y-59275513D01*
X63750327Y-59321425D01*
X63744491Y-59329601D01*
X63721222Y-59412849D01*
X63708537Y-59520822D01*
X63707750Y-59551618D01*
X63707750Y-59551618D01*
G37*
X63707750Y-59551618D02*
X63711393Y-59639393D01*
X63727982Y-59680421D01*
X63766006Y-59691297D01*
X63779188Y-59691266D01*
X63819457Y-59673133D01*
X63906421Y-59621737D01*
X64034927Y-59540479D01*
X64199822Y-59432759D01*
X64395954Y-59301977D01*
X64618169Y-59151533D01*
X64861315Y-58984826D01*
X65090364Y-58826079D01*
X65346173Y-58647829D01*
X65591263Y-58476889D01*
X65819626Y-58317461D01*
X66025254Y-58173745D01*
X66202142Y-58049942D01*
X66344282Y-57950252D01*
X66445666Y-57878877D01*
X66496854Y-57842499D01*
X66663605Y-57722374D01*
X66654116Y-57540874D01*
X66646264Y-57437885D01*
X66632086Y-57383364D01*
X66604902Y-57362284D01*
X66573456Y-57359375D01*
X66531146Y-57377297D01*
X66443394Y-57428280D01*
X66316194Y-57508149D01*
X66155541Y-57612729D01*
X65967429Y-57737846D01*
X65757854Y-57879324D01*
X65532808Y-58032989D01*
X65298288Y-58194666D01*
X65060287Y-58360179D01*
X64824801Y-58525354D01*
X64597822Y-58686016D01*
X64385347Y-58837991D01*
X64193370Y-58977103D01*
X64027885Y-59099177D01*
X63894886Y-59200039D01*
X63800369Y-59275513D01*
X63750327Y-59321425D01*
X63744491Y-59329601D01*
X63721222Y-59412849D01*
X63708537Y-59520822D01*
X63707750Y-59551618D01*
G36*
X63707750Y-60489441D02*
X63713782Y-60572215D01*
X63736903Y-60608071D01*
X63766847Y-60613750D01*
X63803703Y-60596084D01*
X63887422Y-60545359D01*
X64012880Y-60464984D01*
X64174957Y-60358367D01*
X64368529Y-60228916D01*
X64588474Y-60080041D01*
X64829671Y-59915150D01*
X65086996Y-59737651D01*
X65172245Y-59678513D01*
X65434723Y-59495857D01*
X65683028Y-59322449D01*
X65911944Y-59161973D01*
X66116256Y-59018115D01*
X66290746Y-58894560D01*
X66430200Y-58794994D01*
X66529400Y-58723102D01*
X66583132Y-58682569D01*
X66589524Y-58677151D01*
X66640176Y-58606821D01*
X66659541Y-58508226D01*
X66660500Y-58469388D01*
X66651839Y-58369364D01*
X66626185Y-58328648D01*
X66620121Y-58327750D01*
X66587076Y-58345357D01*
X66508012Y-58395462D01*
X66388821Y-58473987D01*
X66235393Y-58576854D01*
X66053619Y-58699987D01*
X65849390Y-58839307D01*
X65628596Y-58990737D01*
X65397128Y-59150200D01*
X65160876Y-59313618D01*
X64925733Y-59476914D01*
X64697587Y-59636011D01*
X64482331Y-59786831D01*
X64285854Y-59925297D01*
X64114047Y-60047331D01*
X63972802Y-60148856D01*
X63868009Y-60225794D01*
X63805558Y-60274069D01*
X63795063Y-60283185D01*
X63729827Y-60366792D01*
X63708146Y-60468028D01*
X63707750Y-60489441D01*
X63707750Y-60489441D01*
G37*
X63707750Y-60489441D02*
X63713782Y-60572215D01*
X63736903Y-60608071D01*
X63766847Y-60613750D01*
X63803703Y-60596084D01*
X63887422Y-60545359D01*
X64012880Y-60464984D01*
X64174957Y-60358367D01*
X64368529Y-60228916D01*
X64588474Y-60080041D01*
X64829671Y-59915150D01*
X65086996Y-59737651D01*
X65172245Y-59678513D01*
X65434723Y-59495857D01*
X65683028Y-59322449D01*
X65911944Y-59161973D01*
X66116256Y-59018115D01*
X66290746Y-58894560D01*
X66430200Y-58794994D01*
X66529400Y-58723102D01*
X66583132Y-58682569D01*
X66589524Y-58677151D01*
X66640176Y-58606821D01*
X66659541Y-58508226D01*
X66660500Y-58469388D01*
X66651839Y-58369364D01*
X66626185Y-58328648D01*
X66620121Y-58327750D01*
X66587076Y-58345357D01*
X66508012Y-58395462D01*
X66388821Y-58473987D01*
X66235393Y-58576854D01*
X66053619Y-58699987D01*
X65849390Y-58839307D01*
X65628596Y-58990737D01*
X65397128Y-59150200D01*
X65160876Y-59313618D01*
X64925733Y-59476914D01*
X64697587Y-59636011D01*
X64482331Y-59786831D01*
X64285854Y-59925297D01*
X64114047Y-60047331D01*
X63972802Y-60148856D01*
X63868009Y-60225794D01*
X63805558Y-60274069D01*
X63795063Y-60283185D01*
X63729827Y-60366792D01*
X63708146Y-60468028D01*
X63707750Y-60489441D01*
G36*
X63707750Y-61377520D02*
X63716713Y-61444669D01*
X63752932Y-61467469D01*
X63779188Y-61468108D01*
X63818523Y-61449778D01*
X63904496Y-61398255D01*
X64031894Y-61317006D01*
X64195506Y-61209499D01*
X64390121Y-61079202D01*
X64610527Y-60929583D01*
X64851513Y-60764107D01*
X65107867Y-60586244D01*
X65174932Y-60539421D01*
X65435426Y-60356916D01*
X65682095Y-60183332D01*
X65909636Y-60022454D01*
X66112748Y-59878063D01*
X66286132Y-59753945D01*
X66424485Y-59653882D01*
X66522508Y-59581657D01*
X66574899Y-59541055D01*
X66579869Y-59536653D01*
X66647785Y-59434568D01*
X66660500Y-59354090D01*
X66650785Y-59276354D01*
X66615130Y-59251669D01*
X66543773Y-59275112D01*
X66524077Y-59285293D01*
X66471600Y-59317623D01*
X66374931Y-59381425D01*
X66240179Y-59472424D01*
X66073458Y-59586343D01*
X65880879Y-59718907D01*
X65668555Y-59865840D01*
X65442599Y-60022865D01*
X65209121Y-60185707D01*
X64974235Y-60350089D01*
X64744052Y-60511736D01*
X64524685Y-60666372D01*
X64322246Y-60809720D01*
X64142847Y-60937506D01*
X63992600Y-61045451D01*
X63877617Y-61129282D01*
X63804012Y-61184721D01*
X63779188Y-61205577D01*
X63726691Y-61292618D01*
X63707750Y-61377520D01*
X63707750Y-61377520D01*
G37*
X63707750Y-61377520D02*
X63716713Y-61444669D01*
X63752932Y-61467469D01*
X63779188Y-61468108D01*
X63818523Y-61449778D01*
X63904496Y-61398255D01*
X64031894Y-61317006D01*
X64195506Y-61209499D01*
X64390121Y-61079202D01*
X64610527Y-60929583D01*
X64851513Y-60764107D01*
X65107867Y-60586244D01*
X65174932Y-60539421D01*
X65435426Y-60356916D01*
X65682095Y-60183332D01*
X65909636Y-60022454D01*
X66112748Y-59878063D01*
X66286132Y-59753945D01*
X66424485Y-59653882D01*
X66522508Y-59581657D01*
X66574899Y-59541055D01*
X66579869Y-59536653D01*
X66647785Y-59434568D01*
X66660500Y-59354090D01*
X66650785Y-59276354D01*
X66615130Y-59251669D01*
X66543773Y-59275112D01*
X66524077Y-59285293D01*
X66471600Y-59317623D01*
X66374931Y-59381425D01*
X66240179Y-59472424D01*
X66073458Y-59586343D01*
X65880879Y-59718907D01*
X65668555Y-59865840D01*
X65442599Y-60022865D01*
X65209121Y-60185707D01*
X64974235Y-60350089D01*
X64744052Y-60511736D01*
X64524685Y-60666372D01*
X64322246Y-60809720D01*
X64142847Y-60937506D01*
X63992600Y-61045451D01*
X63877617Y-61129282D01*
X63804012Y-61184721D01*
X63779188Y-61205577D01*
X63726691Y-61292618D01*
X63707750Y-61377520D01*
G36*
X39707750Y-61377520D02*
X39716713Y-61444669D01*
X39752932Y-61467469D01*
X39779188Y-61468108D01*
X39818523Y-61449778D01*
X39904496Y-61398255D01*
X40031894Y-61317006D01*
X40195506Y-61209499D01*
X40390121Y-61079202D01*
X40610527Y-60929583D01*
X40851513Y-60764107D01*
X41107867Y-60586244D01*
X41174932Y-60539421D01*
X41435426Y-60356916D01*
X41682095Y-60183332D01*
X41909636Y-60022454D01*
X42112748Y-59878063D01*
X42286132Y-59753945D01*
X42424485Y-59653882D01*
X42522508Y-59581657D01*
X42574899Y-59541055D01*
X42579869Y-59536653D01*
X42647785Y-59434568D01*
X42660500Y-59354090D01*
X42650785Y-59276354D01*
X42615130Y-59251669D01*
X42543773Y-59275112D01*
X42524077Y-59285293D01*
X42471600Y-59317623D01*
X42374931Y-59381425D01*
X42240179Y-59472424D01*
X42073458Y-59586343D01*
X41880879Y-59718907D01*
X41668555Y-59865840D01*
X41442599Y-60022865D01*
X41209121Y-60185707D01*
X40974235Y-60350089D01*
X40744052Y-60511736D01*
X40524685Y-60666372D01*
X40322246Y-60809720D01*
X40142847Y-60937506D01*
X39992600Y-61045451D01*
X39877617Y-61129282D01*
X39804012Y-61184721D01*
X39779188Y-61205577D01*
X39726691Y-61292618D01*
X39707750Y-61377520D01*
X39707750Y-61377520D01*
G37*
X39707750Y-61377520D02*
X39716713Y-61444669D01*
X39752932Y-61467469D01*
X39779188Y-61468108D01*
X39818523Y-61449778D01*
X39904496Y-61398255D01*
X40031894Y-61317006D01*
X40195506Y-61209499D01*
X40390121Y-61079202D01*
X40610527Y-60929583D01*
X40851513Y-60764107D01*
X41107867Y-60586244D01*
X41174932Y-60539421D01*
X41435426Y-60356916D01*
X41682095Y-60183332D01*
X41909636Y-60022454D01*
X42112748Y-59878063D01*
X42286132Y-59753945D01*
X42424485Y-59653882D01*
X42522508Y-59581657D01*
X42574899Y-59541055D01*
X42579869Y-59536653D01*
X42647785Y-59434568D01*
X42660500Y-59354090D01*
X42650785Y-59276354D01*
X42615130Y-59251669D01*
X42543773Y-59275112D01*
X42524077Y-59285293D01*
X42471600Y-59317623D01*
X42374931Y-59381425D01*
X42240179Y-59472424D01*
X42073458Y-59586343D01*
X41880879Y-59718907D01*
X41668555Y-59865840D01*
X41442599Y-60022865D01*
X41209121Y-60185707D01*
X40974235Y-60350089D01*
X40744052Y-60511736D01*
X40524685Y-60666372D01*
X40322246Y-60809720D01*
X40142847Y-60937506D01*
X39992600Y-61045451D01*
X39877617Y-61129282D01*
X39804012Y-61184721D01*
X39779188Y-61205577D01*
X39726691Y-61292618D01*
X39707750Y-61377520D01*
G36*
X39707750Y-60489441D02*
X39713782Y-60572215D01*
X39736903Y-60608071D01*
X39766847Y-60613750D01*
X39803703Y-60596084D01*
X39887422Y-60545359D01*
X40012880Y-60464984D01*
X40174957Y-60358367D01*
X40368529Y-60228916D01*
X40588474Y-60080041D01*
X40829671Y-59915150D01*
X41086996Y-59737651D01*
X41172245Y-59678513D01*
X41434723Y-59495857D01*
X41683028Y-59322449D01*
X41911944Y-59161973D01*
X42116256Y-59018115D01*
X42290746Y-58894560D01*
X42430200Y-58794994D01*
X42529400Y-58723102D01*
X42583132Y-58682569D01*
X42589524Y-58677151D01*
X42640176Y-58606821D01*
X42659541Y-58508226D01*
X42660500Y-58469388D01*
X42651839Y-58369364D01*
X42626185Y-58328648D01*
X42620121Y-58327750D01*
X42587076Y-58345357D01*
X42508012Y-58395462D01*
X42388821Y-58473987D01*
X42235393Y-58576854D01*
X42053619Y-58699987D01*
X41849390Y-58839307D01*
X41628596Y-58990737D01*
X41397128Y-59150200D01*
X41160876Y-59313618D01*
X40925733Y-59476914D01*
X40697587Y-59636011D01*
X40482331Y-59786831D01*
X40285854Y-59925297D01*
X40114047Y-60047331D01*
X39972802Y-60148856D01*
X39868009Y-60225794D01*
X39805558Y-60274069D01*
X39795063Y-60283185D01*
X39729827Y-60366792D01*
X39708146Y-60468028D01*
X39707750Y-60489441D01*
X39707750Y-60489441D01*
G37*
X39707750Y-60489441D02*
X39713782Y-60572215D01*
X39736903Y-60608071D01*
X39766847Y-60613750D01*
X39803703Y-60596084D01*
X39887422Y-60545359D01*
X40012880Y-60464984D01*
X40174957Y-60358367D01*
X40368529Y-60228916D01*
X40588474Y-60080041D01*
X40829671Y-59915150D01*
X41086996Y-59737651D01*
X41172245Y-59678513D01*
X41434723Y-59495857D01*
X41683028Y-59322449D01*
X41911944Y-59161973D01*
X42116256Y-59018115D01*
X42290746Y-58894560D01*
X42430200Y-58794994D01*
X42529400Y-58723102D01*
X42583132Y-58682569D01*
X42589524Y-58677151D01*
X42640176Y-58606821D01*
X42659541Y-58508226D01*
X42660500Y-58469388D01*
X42651839Y-58369364D01*
X42626185Y-58328648D01*
X42620121Y-58327750D01*
X42587076Y-58345357D01*
X42508012Y-58395462D01*
X42388821Y-58473987D01*
X42235393Y-58576854D01*
X42053619Y-58699987D01*
X41849390Y-58839307D01*
X41628596Y-58990737D01*
X41397128Y-59150200D01*
X41160876Y-59313618D01*
X40925733Y-59476914D01*
X40697587Y-59636011D01*
X40482331Y-59786831D01*
X40285854Y-59925297D01*
X40114047Y-60047331D01*
X39972802Y-60148856D01*
X39868009Y-60225794D01*
X39805558Y-60274069D01*
X39795063Y-60283185D01*
X39729827Y-60366792D01*
X39708146Y-60468028D01*
X39707750Y-60489441D01*
G36*
X39707750Y-59551618D02*
X39711393Y-59639393D01*
X39727982Y-59680421D01*
X39766006Y-59691297D01*
X39779188Y-59691266D01*
X39819457Y-59673133D01*
X39906421Y-59621737D01*
X40034927Y-59540479D01*
X40199822Y-59432759D01*
X40395954Y-59301977D01*
X40618169Y-59151533D01*
X40861315Y-58984826D01*
X41090364Y-58826079D01*
X41346173Y-58647829D01*
X41591263Y-58476889D01*
X41819626Y-58317461D01*
X42025254Y-58173745D01*
X42202142Y-58049942D01*
X42344282Y-57950252D01*
X42445666Y-57878877D01*
X42496854Y-57842499D01*
X42663605Y-57722374D01*
X42654116Y-57540874D01*
X42646264Y-57437885D01*
X42632086Y-57383364D01*
X42604902Y-57362284D01*
X42573456Y-57359375D01*
X42531146Y-57377297D01*
X42443394Y-57428280D01*
X42316194Y-57508149D01*
X42155541Y-57612729D01*
X41967429Y-57737846D01*
X41757854Y-57879324D01*
X41532808Y-58032989D01*
X41298288Y-58194666D01*
X41060287Y-58360179D01*
X40824801Y-58525354D01*
X40597822Y-58686016D01*
X40385347Y-58837991D01*
X40193370Y-58977103D01*
X40027885Y-59099177D01*
X39894886Y-59200039D01*
X39800369Y-59275513D01*
X39750327Y-59321425D01*
X39744491Y-59329601D01*
X39721222Y-59412849D01*
X39708537Y-59520822D01*
X39707750Y-59551618D01*
X39707750Y-59551618D01*
G37*
X39707750Y-59551618D02*
X39711393Y-59639393D01*
X39727982Y-59680421D01*
X39766006Y-59691297D01*
X39779188Y-59691266D01*
X39819457Y-59673133D01*
X39906421Y-59621737D01*
X40034927Y-59540479D01*
X40199822Y-59432759D01*
X40395954Y-59301977D01*
X40618169Y-59151533D01*
X40861315Y-58984826D01*
X41090364Y-58826079D01*
X41346173Y-58647829D01*
X41591263Y-58476889D01*
X41819626Y-58317461D01*
X42025254Y-58173745D01*
X42202142Y-58049942D01*
X42344282Y-57950252D01*
X42445666Y-57878877D01*
X42496854Y-57842499D01*
X42663605Y-57722374D01*
X42654116Y-57540874D01*
X42646264Y-57437885D01*
X42632086Y-57383364D01*
X42604902Y-57362284D01*
X42573456Y-57359375D01*
X42531146Y-57377297D01*
X42443394Y-57428280D01*
X42316194Y-57508149D01*
X42155541Y-57612729D01*
X41967429Y-57737846D01*
X41757854Y-57879324D01*
X41532808Y-58032989D01*
X41298288Y-58194666D01*
X41060287Y-58360179D01*
X40824801Y-58525354D01*
X40597822Y-58686016D01*
X40385347Y-58837991D01*
X40193370Y-58977103D01*
X40027885Y-59099177D01*
X39894886Y-59200039D01*
X39800369Y-59275513D01*
X39750327Y-59321425D01*
X39744491Y-59329601D01*
X39721222Y-59412849D01*
X39708537Y-59520822D01*
X39707750Y-59551618D01*
G36*
X39707750Y-58437431D02*
X39709358Y-58549021D01*
X39717435Y-58611275D01*
X39736866Y-58638336D01*
X39772535Y-58644348D01*
X39779188Y-58644314D01*
X39819536Y-58626293D01*
X39907218Y-58574618D01*
X40037704Y-58492277D01*
X40206468Y-58382257D01*
X40408980Y-58247546D01*
X40640713Y-58091133D01*
X40897137Y-57916003D01*
X41173725Y-57725146D01*
X41200000Y-57706919D01*
X41462368Y-57524298D01*
X41710085Y-57350837D01*
X41938002Y-57190213D01*
X42140970Y-57046104D01*
X42313840Y-56922187D01*
X42451462Y-56822140D01*
X42548688Y-56749641D01*
X42600367Y-56708367D01*
X42606318Y-56702508D01*
X42639570Y-56632205D01*
X42656566Y-56533439D01*
X42658014Y-56425448D01*
X42644619Y-56327466D01*
X42617087Y-56258731D01*
X42589277Y-56238219D01*
X42555002Y-56254014D01*
X42474689Y-56302228D01*
X42354277Y-56378799D01*
X42199705Y-56479667D01*
X42016913Y-56600774D01*
X41811840Y-56738058D01*
X41590423Y-56887459D01*
X41358604Y-57044918D01*
X41122320Y-57206374D01*
X40887511Y-57367767D01*
X40660115Y-57525037D01*
X40446073Y-57674124D01*
X40251322Y-57810968D01*
X40081802Y-57931508D01*
X39943453Y-58031685D01*
X39842212Y-58107438D01*
X39784020Y-58154708D01*
X39779188Y-58159271D01*
X39738764Y-58210068D01*
X39716919Y-58274515D01*
X39708517Y-58372611D01*
X39707750Y-58437431D01*
X39707750Y-58437431D01*
G37*
X39707750Y-58437431D02*
X39709358Y-58549021D01*
X39717435Y-58611275D01*
X39736866Y-58638336D01*
X39772535Y-58644348D01*
X39779188Y-58644314D01*
X39819536Y-58626293D01*
X39907218Y-58574618D01*
X40037704Y-58492277D01*
X40206468Y-58382257D01*
X40408980Y-58247546D01*
X40640713Y-58091133D01*
X40897137Y-57916003D01*
X41173725Y-57725146D01*
X41200000Y-57706919D01*
X41462368Y-57524298D01*
X41710085Y-57350837D01*
X41938002Y-57190213D01*
X42140970Y-57046104D01*
X42313840Y-56922187D01*
X42451462Y-56822140D01*
X42548688Y-56749641D01*
X42600367Y-56708367D01*
X42606318Y-56702508D01*
X42639570Y-56632205D01*
X42656566Y-56533439D01*
X42658014Y-56425448D01*
X42644619Y-56327466D01*
X42617087Y-56258731D01*
X42589277Y-56238219D01*
X42555002Y-56254014D01*
X42474689Y-56302228D01*
X42354277Y-56378799D01*
X42199705Y-56479667D01*
X42016913Y-56600774D01*
X41811840Y-56738058D01*
X41590423Y-56887459D01*
X41358604Y-57044918D01*
X41122320Y-57206374D01*
X40887511Y-57367767D01*
X40660115Y-57525037D01*
X40446073Y-57674124D01*
X40251322Y-57810968D01*
X40081802Y-57931508D01*
X39943453Y-58031685D01*
X39842212Y-58107438D01*
X39784020Y-58154708D01*
X39779188Y-58159271D01*
X39738764Y-58210068D01*
X39716919Y-58274515D01*
X39708517Y-58372611D01*
X39707750Y-58437431D01*
G36*
X39707750Y-57315267D02*
X39708817Y-57440265D01*
X39714488Y-57514664D01*
X39728470Y-57551355D01*
X39754469Y-57563233D01*
X39779188Y-57563765D01*
X39828890Y-57545441D01*
X39919278Y-57496179D01*
X40039683Y-57422391D01*
X40179440Y-57330490D01*
X40263375Y-57272668D01*
X40393762Y-57181501D01*
X40566005Y-57061315D01*
X40769790Y-56919292D01*
X40994803Y-56762617D01*
X41230731Y-56598471D01*
X41467261Y-56434038D01*
X41565125Y-56366046D01*
X41780518Y-56215675D01*
X41983238Y-56072715D01*
X42166311Y-55942193D01*
X42322767Y-55829135D01*
X42445632Y-55738567D01*
X42527933Y-55675517D01*
X42557313Y-55650790D01*
X42609356Y-55597922D01*
X42640107Y-55549144D01*
X42655152Y-55485749D01*
X42660078Y-55389031D01*
X42660500Y-55305271D01*
X42659397Y-55181064D01*
X42653574Y-55107341D01*
X42639266Y-55071093D01*
X42612705Y-55059312D01*
X42589063Y-55058579D01*
X42551209Y-55076401D01*
X42467459Y-55126741D01*
X42343793Y-55205491D01*
X42186190Y-55308548D01*
X42000630Y-55431806D01*
X41793091Y-55571158D01*
X41569554Y-55722500D01*
X41335997Y-55881725D01*
X41098401Y-56044729D01*
X40862744Y-56207405D01*
X40635006Y-56365648D01*
X40421166Y-56515354D01*
X40227204Y-56652415D01*
X40059099Y-56772726D01*
X39922831Y-56872183D01*
X39824379Y-56946679D01*
X39769722Y-56992108D01*
X39763313Y-56998783D01*
X39732682Y-57052660D01*
X39715203Y-57133900D01*
X39708212Y-57257668D01*
X39707750Y-57315267D01*
X39707750Y-57315267D01*
G37*
X39707750Y-57315267D02*
X39708817Y-57440265D01*
X39714488Y-57514664D01*
X39728470Y-57551355D01*
X39754469Y-57563233D01*
X39779188Y-57563765D01*
X39828890Y-57545441D01*
X39919278Y-57496179D01*
X40039683Y-57422391D01*
X40179440Y-57330490D01*
X40263375Y-57272668D01*
X40393762Y-57181501D01*
X40566005Y-57061315D01*
X40769790Y-56919292D01*
X40994803Y-56762617D01*
X41230731Y-56598471D01*
X41467261Y-56434038D01*
X41565125Y-56366046D01*
X41780518Y-56215675D01*
X41983238Y-56072715D01*
X42166311Y-55942193D01*
X42322767Y-55829135D01*
X42445632Y-55738567D01*
X42527933Y-55675517D01*
X42557313Y-55650790D01*
X42609356Y-55597922D01*
X42640107Y-55549144D01*
X42655152Y-55485749D01*
X42660078Y-55389031D01*
X42660500Y-55305271D01*
X42659397Y-55181064D01*
X42653574Y-55107341D01*
X42639266Y-55071093D01*
X42612705Y-55059312D01*
X42589063Y-55058579D01*
X42551209Y-55076401D01*
X42467459Y-55126741D01*
X42343793Y-55205491D01*
X42186190Y-55308548D01*
X42000630Y-55431806D01*
X41793091Y-55571158D01*
X41569554Y-55722500D01*
X41335997Y-55881725D01*
X41098401Y-56044729D01*
X40862744Y-56207405D01*
X40635006Y-56365648D01*
X40421166Y-56515354D01*
X40227204Y-56652415D01*
X40059099Y-56772726D01*
X39922831Y-56872183D01*
X39824379Y-56946679D01*
X39769722Y-56992108D01*
X39763313Y-56998783D01*
X39732682Y-57052660D01*
X39715203Y-57133900D01*
X39708212Y-57257668D01*
X39707750Y-57315267D01*
G36*
X39723625Y-50864241D02*
X39723663Y-51559253D01*
X39723793Y-52193510D01*
X39724039Y-52769757D01*
X39724428Y-53290740D01*
X39724983Y-53759203D01*
X39725731Y-54177892D01*
X39726696Y-54549551D01*
X39727904Y-54876927D01*
X39729379Y-55162763D01*
X39731146Y-55409806D01*
X39733231Y-55620800D01*
X39735659Y-55798490D01*
X39738454Y-55945621D01*
X39741643Y-56064940D01*
X39745249Y-56159190D01*
X39749298Y-56231116D01*
X39753816Y-56283465D01*
X39758826Y-56318981D01*
X39764355Y-56340409D01*
X39770427Y-56350495D01*
X39773760Y-56352159D01*
X39824448Y-56340192D01*
X39907360Y-56299442D01*
X39996010Y-56244333D01*
X40246784Y-56072680D01*
X40429181Y-55947222D01*
X40429181Y-46580250D01*
X40604087Y-46580250D01*
X40778992Y-46580250D01*
X40795407Y-46725886D01*
X40812951Y-46821745D01*
X40837923Y-46892640D01*
X40848713Y-46908448D01*
X40895944Y-46926529D01*
X40989923Y-46942489D01*
X41113898Y-46953776D01*
X41162276Y-46956190D01*
X41300848Y-46959850D01*
X41403223Y-46952980D01*
X41475137Y-46927401D01*
X41522326Y-46874938D01*
X41550525Y-46787412D01*
X41565471Y-46656647D01*
X41572900Y-46474464D01*
X41575463Y-46367137D01*
X41578893Y-46144011D01*
X41574609Y-45976382D01*
X41557817Y-45856315D01*
X41523721Y-45775873D01*
X41467528Y-45727122D01*
X41384443Y-45702125D01*
X41269672Y-45692947D01*
X41167378Y-45691683D01*
X41007081Y-45701515D01*
X40900313Y-45734603D01*
X40840030Y-45795149D01*
X40819188Y-45887352D01*
X40819000Y-45899425D01*
X40819000Y-46008750D01*
X40644375Y-46008750D01*
X40469750Y-46008750D01*
X40469750Y-45862735D01*
X40484059Y-45701846D01*
X40530763Y-45579152D01*
X40615531Y-45490746D01*
X40744034Y-45432720D01*
X40921939Y-45401166D01*
X41152375Y-45392167D01*
X41393899Y-45402090D01*
X41581167Y-45434067D01*
X41721317Y-45493922D01*
X41821484Y-45587476D01*
X41888804Y-45720553D01*
X41930412Y-45898975D01*
X41946917Y-46040500D01*
X41953117Y-46193161D01*
X41949195Y-46369736D01*
X41936724Y-46554149D01*
X41917279Y-46730325D01*
X41892434Y-46882190D01*
X41863763Y-46993668D01*
X41850444Y-47025585D01*
X41781140Y-47124213D01*
X41685142Y-47194898D01*
X41554323Y-47240186D01*
X41380556Y-47262620D01*
X41155715Y-47264746D01*
X41093726Y-47262537D01*
X40888136Y-47246964D01*
X40739360Y-47219625D01*
X40665101Y-47192577D01*
X40568132Y-47125563D01*
X40502543Y-47028731D01*
X40462187Y-46890146D01*
X40446157Y-46767460D01*
X40429181Y-46580250D01*
X40429181Y-55947222D01*
X40430715Y-55946166D01*
X40430715Y-47723250D01*
X40605538Y-47723250D01*
X40780360Y-47723250D01*
X40791847Y-48440514D01*
X40795721Y-48671682D01*
X40799588Y-48847732D01*
X40804376Y-48977038D01*
X40811016Y-49067976D01*
X40820437Y-49128921D01*
X40833568Y-49168247D01*
X40851339Y-49194329D01*
X40874680Y-49215542D01*
X40878184Y-49218389D01*
X40963034Y-49256875D01*
X41087249Y-49278610D01*
X41228944Y-49283597D01*
X41366234Y-49271837D01*
X41477235Y-49243331D01*
X41521921Y-49218345D01*
X41546087Y-49197174D01*
X41564542Y-49172306D01*
X41578208Y-49135366D01*
X41588005Y-49077979D01*
X41594854Y-48991771D01*
X41599676Y-48868367D01*
X41603391Y-48699391D01*
X41606922Y-48476468D01*
X41607454Y-48440470D01*
X41618032Y-47723250D01*
X41790016Y-47723250D01*
X41962000Y-47723250D01*
X41962000Y-48369791D01*
X41960068Y-48664346D01*
X41952845Y-48902315D01*
X41938195Y-49090532D01*
X41913980Y-49235833D01*
X41878064Y-49345052D01*
X41828308Y-49425025D01*
X41762577Y-49482586D01*
X41678732Y-49524571D01*
X41592031Y-49553003D01*
X41458256Y-49577014D01*
X41291481Y-49587071D01*
X41111478Y-49584080D01*
X40938018Y-49568946D01*
X40790871Y-49542575D01*
X40701725Y-49512233D01*
X40630475Y-49473568D01*
X40574337Y-49430595D01*
X40531363Y-49375532D01*
X40499606Y-49300598D01*
X40477118Y-49198012D01*
X40461952Y-49059992D01*
X40452161Y-48878756D01*
X40445798Y-48646523D01*
X40442784Y-48477500D01*
X40430715Y-47723250D01*
X40430715Y-55946166D01*
X40438000Y-55941156D01*
X40438000Y-52644500D01*
X40438000Y-52501625D01*
X40438000Y-52358750D01*
X40463058Y-52358750D01*
X40463058Y-51339276D01*
X40468289Y-51183491D01*
X40490650Y-51064420D01*
X40537837Y-50975951D01*
X40617544Y-50911968D01*
X40737467Y-50866357D01*
X40905300Y-50833004D01*
X41128740Y-50805795D01*
X41135311Y-50805119D01*
X41283663Y-50787442D01*
X41410453Y-50767731D01*
X41501252Y-50748526D01*
X41540124Y-50733899D01*
X41568776Y-50676480D01*
X41579609Y-50583808D01*
X41572918Y-50481490D01*
X41548998Y-50395134D01*
X41535950Y-50372505D01*
X41504997Y-50342000D01*
X41457206Y-50323423D01*
X41378176Y-50314002D01*
X41253507Y-50310962D01*
X41215953Y-50310875D01*
X41055486Y-50316619D01*
X40948285Y-50337254D01*
X40884873Y-50377879D01*
X40855776Y-50443595D01*
X40850750Y-50507443D01*
X40845307Y-50549512D01*
X40818688Y-50571423D01*
X40755458Y-50579655D01*
X40676125Y-50580750D01*
X40501500Y-50580750D01*
X40501500Y-50468605D01*
X40514642Y-50359209D01*
X40546419Y-50249017D01*
X40547983Y-50245212D01*
X40594123Y-50165516D01*
X40662189Y-50107258D01*
X40761199Y-50067536D01*
X40900171Y-50043448D01*
X41088121Y-50032090D01*
X41215875Y-50030217D01*
X41448794Y-50035497D01*
X41626243Y-50057158D01*
X41755330Y-50100801D01*
X41843163Y-50172028D01*
X41896850Y-50276440D01*
X41923500Y-50419639D01*
X41930250Y-50593169D01*
X41925312Y-50728955D01*
X41905722Y-50835219D01*
X41864316Y-50916554D01*
X41793931Y-50977554D01*
X41687403Y-51022813D01*
X41537567Y-51056924D01*
X41337262Y-51084481D01*
X41131624Y-51105289D01*
X41014219Y-51121359D01*
X40916756Y-51143899D01*
X40864587Y-51165689D01*
X40827380Y-51226281D01*
X40810577Y-51322196D01*
X40814217Y-51428611D01*
X40838345Y-51520701D01*
X40863919Y-51560025D01*
X40926066Y-51590238D01*
X41031942Y-51612244D01*
X41162129Y-51624525D01*
X41297209Y-51625561D01*
X41417763Y-51613836D01*
X41454000Y-51606165D01*
X41527540Y-51579324D01*
X41567990Y-51533557D01*
X41594455Y-51446944D01*
X41595036Y-51444363D01*
X41624946Y-51311000D01*
X41797078Y-51311000D01*
X41969211Y-51311000D01*
X41947030Y-51458911D01*
X41912671Y-51623091D01*
X41860367Y-51736697D01*
X41779163Y-51812266D01*
X41658099Y-51862340D01*
X41577182Y-51882162D01*
X41461069Y-51896734D01*
X41308771Y-51902066D01*
X41138858Y-51899048D01*
X40969900Y-51888566D01*
X40820467Y-51871509D01*
X40709130Y-51848764D01*
X40681983Y-51839368D01*
X40583213Y-51778471D01*
X40516603Y-51686646D01*
X40478049Y-51554513D01*
X40463443Y-51372695D01*
X40463058Y-51339276D01*
X40463058Y-52358750D01*
X41200000Y-52358750D01*
X41962000Y-52358750D01*
X41962000Y-53279500D01*
X41962000Y-54200250D01*
X41787375Y-54200250D01*
X41612750Y-54200250D01*
X41612750Y-53819250D01*
X41612750Y-53438250D01*
X41104750Y-53438250D01*
X40596750Y-53438250D01*
X40596750Y-53295375D01*
X40596750Y-53152500D01*
X41104750Y-53152500D01*
X41612750Y-53152500D01*
X41612750Y-52898500D01*
X41612750Y-52644500D01*
X41025375Y-52644500D01*
X40438000Y-52644500D01*
X40438000Y-55941156D01*
X40508618Y-55892583D01*
X40776220Y-55707752D01*
X41044298Y-55521897D01*
X41307558Y-55338728D01*
X41560710Y-55161954D01*
X41798461Y-54995285D01*
X42015518Y-54842431D01*
X42206589Y-54707103D01*
X42366382Y-54593009D01*
X42489604Y-54503860D01*
X42570963Y-54443365D01*
X42604938Y-54415504D01*
X42612718Y-54404012D01*
X42619738Y-54386137D01*
X42626038Y-54358744D01*
X42631655Y-54318697D01*
X42636630Y-54262861D01*
X42641000Y-54188099D01*
X42644805Y-54091276D01*
X42648084Y-53969257D01*
X42650875Y-53818907D01*
X42653217Y-53637088D01*
X42655148Y-53420667D01*
X42656709Y-53166506D01*
X42657937Y-52871471D01*
X42658872Y-52532427D01*
X42659551Y-52146236D01*
X42660015Y-51709765D01*
X42660302Y-51219877D01*
X42660450Y-50673436D01*
X42660499Y-50067308D01*
X42660500Y-49928424D01*
X42660291Y-49222948D01*
X42659660Y-48580167D01*
X42658599Y-47999276D01*
X42657105Y-47479470D01*
X42655170Y-47019946D01*
X42652789Y-46619898D01*
X42649955Y-46278523D01*
X42646663Y-45995017D01*
X42642907Y-45768574D01*
X42638680Y-45598391D01*
X42633977Y-45483663D01*
X42628792Y-45423586D01*
X42626932Y-45415504D01*
X42604630Y-45369428D01*
X42554584Y-45274207D01*
X42480181Y-45136038D01*
X42384812Y-44961120D01*
X42271863Y-44755651D01*
X42144725Y-44525830D01*
X42006785Y-44277855D01*
X41922066Y-44126188D01*
X41756984Y-43831811D01*
X41619554Y-43588594D01*
X41506959Y-43391982D01*
X41416383Y-43237422D01*
X41345010Y-43120360D01*
X41290023Y-43036243D01*
X41248606Y-42980517D01*
X41217943Y-42948628D01*
X41195218Y-42936022D01*
X41185698Y-42935563D01*
X41161086Y-42951980D01*
X41121836Y-42998453D01*
X41065729Y-43078554D01*
X40990548Y-43195855D01*
X40894074Y-43353929D01*
X40774089Y-43556348D01*
X40628376Y-43806684D01*
X40454717Y-44108511D01*
X40422125Y-44165427D01*
X39723625Y-45385979D01*
X39723625Y-50864241D01*
X39723625Y-50864241D01*
G37*
X39723625Y-50864241D02*
X39723663Y-51559253D01*
X39723793Y-52193510D01*
X39724039Y-52769757D01*
X39724428Y-53290740D01*
X39724983Y-53759203D01*
X39725731Y-54177892D01*
X39726696Y-54549551D01*
X39727904Y-54876927D01*
X39729379Y-55162763D01*
X39731146Y-55409806D01*
X39733231Y-55620800D01*
X39735659Y-55798490D01*
X39738454Y-55945621D01*
X39741643Y-56064940D01*
X39745249Y-56159190D01*
X39749298Y-56231116D01*
X39753816Y-56283465D01*
X39758826Y-56318981D01*
X39764355Y-56340409D01*
X39770427Y-56350495D01*
X39773760Y-56352159D01*
X39824448Y-56340192D01*
X39907360Y-56299442D01*
X39996010Y-56244333D01*
X40246784Y-56072680D01*
X40429181Y-55947222D01*
X40429181Y-46580250D01*
X40604087Y-46580250D01*
X40778992Y-46580250D01*
X40795407Y-46725886D01*
X40812951Y-46821745D01*
X40837923Y-46892640D01*
X40848713Y-46908448D01*
X40895944Y-46926529D01*
X40989923Y-46942489D01*
X41113898Y-46953776D01*
X41162276Y-46956190D01*
X41300848Y-46959850D01*
X41403223Y-46952980D01*
X41475137Y-46927401D01*
X41522326Y-46874938D01*
X41550525Y-46787412D01*
X41565471Y-46656647D01*
X41572900Y-46474464D01*
X41575463Y-46367137D01*
X41578893Y-46144011D01*
X41574609Y-45976382D01*
X41557817Y-45856315D01*
X41523721Y-45775873D01*
X41467528Y-45727122D01*
X41384443Y-45702125D01*
X41269672Y-45692947D01*
X41167378Y-45691683D01*
X41007081Y-45701515D01*
X40900313Y-45734603D01*
X40840030Y-45795149D01*
X40819188Y-45887352D01*
X40819000Y-45899425D01*
X40819000Y-46008750D01*
X40644375Y-46008750D01*
X40469750Y-46008750D01*
X40469750Y-45862735D01*
X40484059Y-45701846D01*
X40530763Y-45579152D01*
X40615531Y-45490746D01*
X40744034Y-45432720D01*
X40921939Y-45401166D01*
X41152375Y-45392167D01*
X41393899Y-45402090D01*
X41581167Y-45434067D01*
X41721317Y-45493922D01*
X41821484Y-45587476D01*
X41888804Y-45720553D01*
X41930412Y-45898975D01*
X41946917Y-46040500D01*
X41953117Y-46193161D01*
X41949195Y-46369736D01*
X41936724Y-46554149D01*
X41917279Y-46730325D01*
X41892434Y-46882190D01*
X41863763Y-46993668D01*
X41850444Y-47025585D01*
X41781140Y-47124213D01*
X41685142Y-47194898D01*
X41554323Y-47240186D01*
X41380556Y-47262620D01*
X41155715Y-47264746D01*
X41093726Y-47262537D01*
X40888136Y-47246964D01*
X40739360Y-47219625D01*
X40665101Y-47192577D01*
X40568132Y-47125563D01*
X40502543Y-47028731D01*
X40462187Y-46890146D01*
X40446157Y-46767460D01*
X40429181Y-46580250D01*
X40429181Y-55947222D01*
X40430715Y-55946166D01*
X40430715Y-47723250D01*
X40605538Y-47723250D01*
X40780360Y-47723250D01*
X40791847Y-48440514D01*
X40795721Y-48671682D01*
X40799588Y-48847732D01*
X40804376Y-48977038D01*
X40811016Y-49067976D01*
X40820437Y-49128921D01*
X40833568Y-49168247D01*
X40851339Y-49194329D01*
X40874680Y-49215542D01*
X40878184Y-49218389D01*
X40963034Y-49256875D01*
X41087249Y-49278610D01*
X41228944Y-49283597D01*
X41366234Y-49271837D01*
X41477235Y-49243331D01*
X41521921Y-49218345D01*
X41546087Y-49197174D01*
X41564542Y-49172306D01*
X41578208Y-49135366D01*
X41588005Y-49077979D01*
X41594854Y-48991771D01*
X41599676Y-48868367D01*
X41603391Y-48699391D01*
X41606922Y-48476468D01*
X41607454Y-48440470D01*
X41618032Y-47723250D01*
X41790016Y-47723250D01*
X41962000Y-47723250D01*
X41962000Y-48369791D01*
X41960068Y-48664346D01*
X41952845Y-48902315D01*
X41938195Y-49090532D01*
X41913980Y-49235833D01*
X41878064Y-49345052D01*
X41828308Y-49425025D01*
X41762577Y-49482586D01*
X41678732Y-49524571D01*
X41592031Y-49553003D01*
X41458256Y-49577014D01*
X41291481Y-49587071D01*
X41111478Y-49584080D01*
X40938018Y-49568946D01*
X40790871Y-49542575D01*
X40701725Y-49512233D01*
X40630475Y-49473568D01*
X40574337Y-49430595D01*
X40531363Y-49375532D01*
X40499606Y-49300598D01*
X40477118Y-49198012D01*
X40461952Y-49059992D01*
X40452161Y-48878756D01*
X40445798Y-48646523D01*
X40442784Y-48477500D01*
X40430715Y-47723250D01*
X40430715Y-55946166D01*
X40438000Y-55941156D01*
X40438000Y-52644500D01*
X40438000Y-52501625D01*
X40438000Y-52358750D01*
X40463058Y-52358750D01*
X40463058Y-51339276D01*
X40468289Y-51183491D01*
X40490650Y-51064420D01*
X40537837Y-50975951D01*
X40617544Y-50911968D01*
X40737467Y-50866357D01*
X40905300Y-50833004D01*
X41128740Y-50805795D01*
X41135311Y-50805119D01*
X41283663Y-50787442D01*
X41410453Y-50767731D01*
X41501252Y-50748526D01*
X41540124Y-50733899D01*
X41568776Y-50676480D01*
X41579609Y-50583808D01*
X41572918Y-50481490D01*
X41548998Y-50395134D01*
X41535950Y-50372505D01*
X41504997Y-50342000D01*
X41457206Y-50323423D01*
X41378176Y-50314002D01*
X41253507Y-50310962D01*
X41215953Y-50310875D01*
X41055486Y-50316619D01*
X40948285Y-50337254D01*
X40884873Y-50377879D01*
X40855776Y-50443595D01*
X40850750Y-50507443D01*
X40845307Y-50549512D01*
X40818688Y-50571423D01*
X40755458Y-50579655D01*
X40676125Y-50580750D01*
X40501500Y-50580750D01*
X40501500Y-50468605D01*
X40514642Y-50359209D01*
X40546419Y-50249017D01*
X40547983Y-50245212D01*
X40594123Y-50165516D01*
X40662189Y-50107258D01*
X40761199Y-50067536D01*
X40900171Y-50043448D01*
X41088121Y-50032090D01*
X41215875Y-50030217D01*
X41448794Y-50035497D01*
X41626243Y-50057158D01*
X41755330Y-50100801D01*
X41843163Y-50172028D01*
X41896850Y-50276440D01*
X41923500Y-50419639D01*
X41930250Y-50593169D01*
X41925312Y-50728955D01*
X41905722Y-50835219D01*
X41864316Y-50916554D01*
X41793931Y-50977554D01*
X41687403Y-51022813D01*
X41537567Y-51056924D01*
X41337262Y-51084481D01*
X41131624Y-51105289D01*
X41014219Y-51121359D01*
X40916756Y-51143899D01*
X40864587Y-51165689D01*
X40827380Y-51226281D01*
X40810577Y-51322196D01*
X40814217Y-51428611D01*
X40838345Y-51520701D01*
X40863919Y-51560025D01*
X40926066Y-51590238D01*
X41031942Y-51612244D01*
X41162129Y-51624525D01*
X41297209Y-51625561D01*
X41417763Y-51613836D01*
X41454000Y-51606165D01*
X41527540Y-51579324D01*
X41567990Y-51533557D01*
X41594455Y-51446944D01*
X41595036Y-51444363D01*
X41624946Y-51311000D01*
X41797078Y-51311000D01*
X41969211Y-51311000D01*
X41947030Y-51458911D01*
X41912671Y-51623091D01*
X41860367Y-51736697D01*
X41779163Y-51812266D01*
X41658099Y-51862340D01*
X41577182Y-51882162D01*
X41461069Y-51896734D01*
X41308771Y-51902066D01*
X41138858Y-51899048D01*
X40969900Y-51888566D01*
X40820467Y-51871509D01*
X40709130Y-51848764D01*
X40681983Y-51839368D01*
X40583213Y-51778471D01*
X40516603Y-51686646D01*
X40478049Y-51554513D01*
X40463443Y-51372695D01*
X40463058Y-51339276D01*
X40463058Y-52358750D01*
X41200000Y-52358750D01*
X41962000Y-52358750D01*
X41962000Y-53279500D01*
X41962000Y-54200250D01*
X41787375Y-54200250D01*
X41612750Y-54200250D01*
X41612750Y-53819250D01*
X41612750Y-53438250D01*
X41104750Y-53438250D01*
X40596750Y-53438250D01*
X40596750Y-53295375D01*
X40596750Y-53152500D01*
X41104750Y-53152500D01*
X41612750Y-53152500D01*
X41612750Y-52898500D01*
X41612750Y-52644500D01*
X41025375Y-52644500D01*
X40438000Y-52644500D01*
X40438000Y-55941156D01*
X40508618Y-55892583D01*
X40776220Y-55707752D01*
X41044298Y-55521897D01*
X41307558Y-55338728D01*
X41560710Y-55161954D01*
X41798461Y-54995285D01*
X42015518Y-54842431D01*
X42206589Y-54707103D01*
X42366382Y-54593009D01*
X42489604Y-54503860D01*
X42570963Y-54443365D01*
X42604938Y-54415504D01*
X42612718Y-54404012D01*
X42619738Y-54386137D01*
X42626038Y-54358744D01*
X42631655Y-54318697D01*
X42636630Y-54262861D01*
X42641000Y-54188099D01*
X42644805Y-54091276D01*
X42648084Y-53969257D01*
X42650875Y-53818907D01*
X42653217Y-53637088D01*
X42655148Y-53420667D01*
X42656709Y-53166506D01*
X42657937Y-52871471D01*
X42658872Y-52532427D01*
X42659551Y-52146236D01*
X42660015Y-51709765D01*
X42660302Y-51219877D01*
X42660450Y-50673436D01*
X42660499Y-50067308D01*
X42660500Y-49928424D01*
X42660291Y-49222948D01*
X42659660Y-48580167D01*
X42658599Y-47999276D01*
X42657105Y-47479470D01*
X42655170Y-47019946D01*
X42652789Y-46619898D01*
X42649955Y-46278523D01*
X42646663Y-45995017D01*
X42642907Y-45768574D01*
X42638680Y-45598391D01*
X42633977Y-45483663D01*
X42628792Y-45423586D01*
X42626932Y-45415504D01*
X42604630Y-45369428D01*
X42554584Y-45274207D01*
X42480181Y-45136038D01*
X42384812Y-44961120D01*
X42271863Y-44755651D01*
X42144725Y-44525830D01*
X42006785Y-44277855D01*
X41922066Y-44126188D01*
X41756984Y-43831811D01*
X41619554Y-43588594D01*
X41506959Y-43391982D01*
X41416383Y-43237422D01*
X41345010Y-43120360D01*
X41290023Y-43036243D01*
X41248606Y-42980517D01*
X41217943Y-42948628D01*
X41195218Y-42936022D01*
X41185698Y-42935563D01*
X41161086Y-42951980D01*
X41121836Y-42998453D01*
X41065729Y-43078554D01*
X40990548Y-43195855D01*
X40894074Y-43353929D01*
X40774089Y-43556348D01*
X40628376Y-43806684D01*
X40454717Y-44108511D01*
X40422125Y-44165427D01*
X39723625Y-45385979D01*
X39723625Y-50864241D01*
G04 #@! TD*
M02*
