G04 #@! TF.GenerationSoftware,KiCad,Pcbnew,5.0.0-rc2-unknown-68f6e3a~65~ubuntu16.04.1*
G04 #@! TF.CreationDate,2018-07-23T09:18:11+01:00*
G04 #@! TF.ProjectId,jerboa_panel,6A6572626F615F70616E656C2E6B6963,rev?*
G04 #@! TF.SameCoordinates,Original*
G04 #@! TF.FileFunction,Copper,L1,Top,Signal*
G04 #@! TF.FilePolarity,Positive*
%FSLAX46Y46*%
G04 Gerber Fmt 4.6, Leading zero omitted, Abs format (unit mm)*
G04 Created by KiCad (PCBNEW 5.0.0-rc2-unknown-68f6e3a~65~ubuntu16.04.1) date Mon Jul 23 09:18:11 2018*
%MOMM*%
%LPD*%
G01*
G04 APERTURE LIST*
G04 #@! TA.AperFunction,SMDPad,CuDef*
%ADD10R,0.620000X0.620000*%
G04 #@! TD*
G04 #@! TA.AperFunction,ComponentPad*
%ADD11C,1.900000*%
G04 #@! TD*
G04 #@! TA.AperFunction,ComponentPad*
%ADD12R,1.900000X1.900000*%
G04 #@! TD*
G04 #@! TA.AperFunction,SMDPad,CuDef*
%ADD13R,1.000000X0.950000*%
G04 #@! TD*
G04 #@! TA.AperFunction,SMDPad,CuDef*
%ADD14R,0.950000X0.400000*%
G04 #@! TD*
G04 #@! TA.AperFunction,SMDPad,CuDef*
%ADD15R,2.000000X1.000000*%
G04 #@! TD*
G04 #@! TA.AperFunction,SMDPad,CuDef*
%ADD16R,0.700000X1.800000*%
G04 #@! TD*
G04 #@! TA.AperFunction,SMDPad,CuDef*
%ADD17R,0.950000X1.000000*%
G04 #@! TD*
G04 #@! TA.AperFunction,BGAPad,CuDef*
%ADD18C,0.787000*%
G04 #@! TD*
G04 #@! TA.AperFunction,Conductor*
%ADD19R,3.450000X3.450000*%
G04 #@! TD*
G04 #@! TA.AperFunction,ViaPad*
%ADD20C,0.600000*%
G04 #@! TD*
G04 #@! TA.AperFunction,SMDPad,CuDef*
%ADD21R,0.600000X0.300000*%
G04 #@! TD*
G04 #@! TA.AperFunction,SMDPad,CuDef*
%ADD22R,0.300000X0.600000*%
G04 #@! TD*
G04 #@! TA.AperFunction,SMDPad,CuDef*
%ADD23R,3.000000X3.000000*%
G04 #@! TD*
G04 #@! TA.AperFunction,SMDPad,CuDef*
%ADD24R,0.690000X0.990000*%
G04 #@! TD*
G04 #@! TA.AperFunction,SMDPad,CuDef*
%ADD25R,0.800000X1.000000*%
G04 #@! TD*
G04 #@! TA.AperFunction,SMDPad,CuDef*
%ADD26R,0.300000X0.300000*%
G04 #@! TD*
G04 #@! TA.AperFunction,Conductor*
%ADD27R,1.100000X1.400000*%
G04 #@! TD*
G04 #@! TA.AperFunction,SMDPad,CuDef*
%ADD28R,2.600000X2.600000*%
G04 #@! TD*
G04 #@! TA.AperFunction,SMDPad,CuDef*
%ADD29R,0.750000X0.300000*%
G04 #@! TD*
G04 #@! TA.AperFunction,SMDPad,CuDef*
%ADD30R,0.300000X0.750000*%
G04 #@! TD*
G04 #@! TA.AperFunction,SMDPad,CuDef*
%ADD31R,0.400000X0.500000*%
G04 #@! TD*
G04 #@! TA.AperFunction,SMDPad,CuDef*
%ADD32R,1.600000X1.000000*%
G04 #@! TD*
G04 #@! TA.AperFunction,SMDPad,CuDef*
%ADD33R,1.600000X0.800000*%
G04 #@! TD*
G04 #@! TA.AperFunction,ComponentPad*
%ADD34C,2.000000*%
G04 #@! TD*
G04 #@! TA.AperFunction,ViaPad*
%ADD35C,0.800000*%
G04 #@! TD*
G04 #@! TA.AperFunction,Conductor*
%ADD36C,0.200000*%
G04 #@! TD*
G04 #@! TA.AperFunction,Conductor*
%ADD37C,0.320000*%
G04 #@! TD*
G04 #@! TA.AperFunction,Conductor*
%ADD38C,0.500000*%
G04 #@! TD*
G04 #@! TA.AperFunction,Conductor*
%ADD39C,0.254000*%
G04 #@! TD*
G04 APERTURE END LIST*
D10*
G04 #@! TO.P,C20,1*
G04 #@! TO.N,Net-(C20-Pad1)*
X69950000Y-66800000D03*
G04 #@! TO.P,C20,2*
G04 #@! TO.N,Net-(C20-Pad2)*
X69050000Y-66800000D03*
G04 #@! TD*
D11*
G04 #@! TO.P,J2,3*
G04 #@! TO.N,/I2C_SDA*
X58100000Y-60140000D03*
G04 #@! TO.P,J2,2*
G04 #@! TO.N,/I2C_SCL*
X58100000Y-57600000D03*
D12*
G04 #@! TO.P,J2,1*
G04 #@! TO.N,/WSPR_ENABLE*
X58100000Y-55060000D03*
G04 #@! TD*
D13*
G04 #@! TO.P,C35,1*
G04 #@! TO.N,Net-(C30-Pad1)*
X57400000Y-68600000D03*
G04 #@! TO.P,C35,2*
G04 #@! TO.N,GND*
X57400000Y-70200000D03*
G04 #@! TD*
D14*
G04 #@! TO.P,U3,1*
G04 #@! TO.N,3v3_switched*
X57900000Y-63150000D03*
G04 #@! TO.P,U3,2*
G04 #@! TO.N,Net-(U3-Pad2)*
X57900000Y-63800000D03*
G04 #@! TO.P,U3,3*
G04 #@! TO.N,GND*
X57900000Y-64450000D03*
G04 #@! TO.P,U3,4*
G04 #@! TO.N,1v8*
X60100000Y-64450000D03*
G04 #@! TO.P,U3,5*
G04 #@! TO.N,3v3_switched*
X60100000Y-63150000D03*
G04 #@! TD*
D15*
G04 #@! TO.P,AE1,1*
G04 #@! TO.N,Net-(AE1-Pad1)*
X70200000Y-27700000D03*
G04 #@! TO.P,AE1,2*
G04 #@! TO.N,Net-(AE1-Pad2)*
X70200000Y-34700000D03*
G04 #@! TD*
D10*
G04 #@! TO.P,C14,1*
G04 #@! TO.N,Net-(C14-Pad1)*
X65800000Y-61950000D03*
G04 #@! TO.P,C14,2*
G04 #@! TO.N,Net-(C14-Pad2)*
X65800000Y-61050000D03*
G04 #@! TD*
G04 #@! TO.P,C2,1*
G04 #@! TO.N,Net-(C2-Pad1)*
X67900000Y-50750000D03*
G04 #@! TO.P,C2,2*
G04 #@! TO.N,3v3_switched*
X67900000Y-49850000D03*
G04 #@! TD*
G04 #@! TO.P,C31,2*
G04 #@! TO.N,GND*
X73450000Y-65600000D03*
G04 #@! TO.P,C31,1*
G04 #@! TO.N,Net-(C29-Pad2)*
X72550000Y-65600000D03*
G04 #@! TD*
G04 #@! TO.P,C3,1*
G04 #@! TO.N,GND*
X56400000Y-64100000D03*
G04 #@! TO.P,C3,2*
G04 #@! TO.N,3v3_switched*
X56400000Y-63200000D03*
G04 #@! TD*
G04 #@! TO.P,C10,2*
G04 #@! TO.N,GND*
X61550000Y-59800000D03*
G04 #@! TO.P,C10,1*
G04 #@! TO.N,/NRST*
X62450000Y-59800000D03*
G04 #@! TD*
D16*
G04 #@! TO.P,IC2,1*
G04 #@! TO.N,GND*
X62500000Y-46650000D03*
G04 #@! TO.P,IC2,2*
G04 #@! TO.N,/RX_GPS_from_MCU*
X63600000Y-46650000D03*
G04 #@! TO.P,IC2,3*
G04 #@! TO.N,/TX_GPS_from_MCU*
X64700000Y-46650000D03*
G04 #@! TO.P,IC2,4*
G04 #@! TO.N,Net-(IC2-Pad4)*
X65800000Y-46650000D03*
G04 #@! TO.P,IC2,5*
G04 #@! TO.N,/GPS_EXTINT*
X66900000Y-46650000D03*
G04 #@! TO.P,IC2,6*
G04 #@! TO.N,3v3*
X68000000Y-46650000D03*
G04 #@! TO.P,IC2,7*
X69100000Y-46650000D03*
G04 #@! TO.P,IC2,8*
X70200000Y-46650000D03*
G04 #@! TO.P,IC2,9*
G04 #@! TO.N,/GPS_~RESET*
X71300000Y-46650000D03*
G04 #@! TO.P,IC2,10*
G04 #@! TO.N,GND*
X71300000Y-37150000D03*
G04 #@! TO.P,IC2,11*
G04 #@! TO.N,Net-(AE1-Pad2)*
X70200000Y-37150000D03*
G04 #@! TO.P,IC2,12*
G04 #@! TO.N,GND*
X69100000Y-37150000D03*
G04 #@! TO.P,IC2,13*
G04 #@! TO.N,Net-(IC2-Pad13)*
X68000000Y-37150000D03*
G04 #@! TO.P,IC2,14*
G04 #@! TO.N,Net-(IC2-Pad14)*
X66900000Y-37150000D03*
G04 #@! TO.P,IC2,15*
G04 #@! TO.N,Net-(IC2-Pad15)*
X65800000Y-37150000D03*
G04 #@! TO.P,IC2,16*
G04 #@! TO.N,Net-(IC2-Pad16)*
X64700000Y-37150000D03*
G04 #@! TO.P,IC2,17*
G04 #@! TO.N,Net-(IC2-Pad17)*
X63600000Y-37150000D03*
G04 #@! TO.P,IC2,18*
G04 #@! TO.N,Net-(IC2-Pad18)*
X62500000Y-37150000D03*
G04 #@! TD*
D10*
G04 #@! TO.P,D3,2*
G04 #@! TO.N,GND*
X70050000Y-70500000D03*
G04 #@! TO.P,D3,1*
G04 #@! TO.N,Net-(D3-Pad1)*
X70950000Y-70500000D03*
G04 #@! TD*
D13*
G04 #@! TO.P,C34,1*
G04 #@! TO.N,Net-(C33-Pad2)*
X73800000Y-68600000D03*
G04 #@! TO.P,C34,2*
G04 #@! TO.N,GND*
X73800000Y-67000000D03*
G04 #@! TD*
D10*
G04 #@! TO.P,C33,2*
G04 #@! TO.N,Net-(C33-Pad2)*
X72400000Y-68950000D03*
G04 #@! TO.P,C33,1*
G04 #@! TO.N,Net-(C32-Pad2)*
X72400000Y-68050000D03*
G04 #@! TD*
G04 #@! TO.P,C1,2*
G04 #@! TO.N,GND*
X60000000Y-46100000D03*
G04 #@! TO.P,C1,1*
G04 #@! TO.N,3v3*
X60900000Y-46100000D03*
G04 #@! TD*
D17*
G04 #@! TO.P,L14,2*
G04 #@! TO.N,Net-(D2-Pad1)*
X60500000Y-69400000D03*
G04 #@! TO.P,L14,1*
G04 #@! TO.N,Net-(C30-Pad1)*
X58900000Y-69400000D03*
G04 #@! TD*
D10*
G04 #@! TO.P,C32,1*
G04 #@! TO.N,Net-(C29-Pad2)*
X71450000Y-66800000D03*
G04 #@! TO.P,C32,2*
G04 #@! TO.N,Net-(C32-Pad2)*
X72350000Y-66800000D03*
G04 #@! TD*
D17*
G04 #@! TO.P,D1,2*
G04 #@! TO.N,Net-(D1-Pad2)*
X58900000Y-52700000D03*
G04 #@! TO.P,D1,1*
G04 #@! TO.N,GND*
X57300000Y-52700000D03*
G04 #@! TD*
D10*
G04 #@! TO.P,C4,2*
G04 #@! TO.N,GND*
X62350000Y-65600000D03*
G04 #@! TO.P,C4,1*
G04 #@! TO.N,1v8*
X61450000Y-65600000D03*
G04 #@! TD*
G04 #@! TO.P,C16,2*
G04 #@! TO.N,GND*
X69500000Y-48400000D03*
G04 #@! TO.P,C16,1*
G04 #@! TO.N,3v3*
X68600000Y-48400000D03*
G04 #@! TD*
D17*
G04 #@! TO.P,L13,2*
G04 #@! TO.N,Net-(D3-Pad1)*
X72300000Y-70300000D03*
G04 #@! TO.P,L13,1*
G04 #@! TO.N,Net-(C33-Pad2)*
X73900000Y-70300000D03*
G04 #@! TD*
D10*
G04 #@! TO.P,C13,2*
G04 #@! TO.N,1v8*
X61450000Y-64400000D03*
G04 #@! TO.P,C13,1*
G04 #@! TO.N,GND*
X62350000Y-64400000D03*
G04 #@! TD*
G04 #@! TO.P,C21,2*
G04 #@! TO.N,Net-(C21-Pad2)*
X64250000Y-67000000D03*
G04 #@! TO.P,C21,1*
G04 #@! TO.N,/radio/RADIO_TX_434*
X65150000Y-67000000D03*
G04 #@! TD*
D18*
G04 #@! TO.P,P1,6*
G04 #@! TO.N,Net-(P1-Pad6)*
X59030000Y-50527128D03*
G04 #@! TO.P,P1,5*
G04 #@! TO.N,GND*
X59030000Y-49257128D03*
G04 #@! TO.P,P1,4*
G04 #@! TO.N,/SWCLK*
X60300000Y-50527128D03*
G04 #@! TO.P,P1,3*
G04 #@! TO.N,/NRST*
X60300000Y-49257128D03*
G04 #@! TO.P,P1,2*
G04 #@! TO.N,/SWDIO*
X61570000Y-50527128D03*
G04 #@! TO.P,P1,1*
G04 #@! TO.N,3v3*
X61570000Y-49257128D03*
G04 #@! TD*
D10*
G04 #@! TO.P,C19,1*
G04 #@! TO.N,GND*
X73450000Y-64400000D03*
G04 #@! TO.P,C19,2*
G04 #@! TO.N,3v3_switched*
X72550000Y-64400000D03*
G04 #@! TD*
G04 #@! TO.P,C11,2*
G04 #@! TO.N,3v3*
X57350000Y-46100000D03*
G04 #@! TO.P,C11,1*
G04 #@! TO.N,GND*
X58250000Y-46100000D03*
G04 #@! TD*
G04 #@! TO.P,C27,1*
G04 #@! TO.N,Net-(C27-Pad1)*
X59650000Y-65800000D03*
G04 #@! TO.P,C27,2*
G04 #@! TO.N,GND*
X60550000Y-65800000D03*
G04 #@! TD*
G04 #@! TO.P,C18,1*
G04 #@! TO.N,GND*
X73450000Y-63200000D03*
G04 #@! TO.P,C18,2*
G04 #@! TO.N,3v3_switched*
X72550000Y-63200000D03*
G04 #@! TD*
G04 #@! TO.P,C23,1*
G04 #@! TO.N,/radio/RADIO_TX_144*
X65150000Y-68200000D03*
G04 #@! TO.P,C23,2*
G04 #@! TO.N,Net-(C23-Pad2)*
X64250000Y-68200000D03*
G04 #@! TD*
G04 #@! TO.P,C29,1*
G04 #@! TO.N,Net-(C28-Pad1)*
X68800000Y-69950000D03*
G04 #@! TO.P,C29,2*
G04 #@! TO.N,Net-(C29-Pad2)*
X68800000Y-69050000D03*
G04 #@! TD*
G04 #@! TO.P,C5,2*
G04 #@! TO.N,3v3*
X65750000Y-51500000D03*
G04 #@! TO.P,C5,1*
G04 #@! TO.N,GND*
X66650000Y-51500000D03*
G04 #@! TD*
D19*
G04 #@! TO.N,GND*
G04 #@! TO.C,U1*
X63905905Y-56297128D03*
D20*
X65155905Y-55047128D03*
X62655905Y-55047128D03*
X65155905Y-57547128D03*
X62655905Y-57547128D03*
D21*
G04 #@! TD*
G04 #@! TO.P,U1,32*
G04 #@! TO.N,Net-(U1-Pad32)*
X61555905Y-58047128D03*
G04 #@! TO.P,U1,31*
G04 #@! TO.N,GND*
X61555905Y-57547128D03*
G04 #@! TO.P,U1,30*
G04 #@! TO.N,/I2C_SDA*
X61555905Y-57047128D03*
G04 #@! TO.P,U1,29*
G04 #@! TO.N,/I2C_SCL*
X61555905Y-56547128D03*
G04 #@! TO.P,U1,28*
G04 #@! TO.N,/WSPR_ENABLE*
X61555905Y-56047128D03*
G04 #@! TO.P,U1,27*
G04 #@! TO.N,Net-(U1-Pad27)*
X61555905Y-55547128D03*
G04 #@! TO.P,U1,26*
G04 #@! TO.N,Net-(U1-Pad26)*
X61555905Y-55047128D03*
G04 #@! TO.P,U1,25*
G04 #@! TO.N,Net-(R6-Pad1)*
X61555905Y-54547128D03*
D22*
G04 #@! TO.P,U1,24*
G04 #@! TO.N,/SWCLK*
X62155905Y-53947128D03*
G04 #@! TO.P,U1,23*
G04 #@! TO.N,/SWDIO*
X62655905Y-53947128D03*
G04 #@! TO.P,U1,22*
G04 #@! TO.N,Net-(U1-Pad22)*
X63155905Y-53947128D03*
G04 #@! TO.P,U1,21*
G04 #@! TO.N,/GPS_~RESET*
X63655905Y-53947128D03*
G04 #@! TO.P,U1,20*
G04 #@! TO.N,/RX_GPS_from_MCU*
X64155905Y-53947128D03*
G04 #@! TO.P,U1,19*
G04 #@! TO.N,/TX_GPS_from_MCU*
X64655905Y-53947128D03*
G04 #@! TO.P,U1,18*
G04 #@! TO.N,/GPS_EXTINT*
X65155905Y-53947128D03*
G04 #@! TO.P,U1,17*
G04 #@! TO.N,3v3*
X65655905Y-53947128D03*
D21*
G04 #@! TO.P,U1,16*
G04 #@! TO.N,/RADIO_PWR_EN*
X66255905Y-54547128D03*
G04 #@! TO.P,U1,15*
G04 #@! TO.N,/SOLAR_CELL_VOLTAGE*
X66255905Y-55047128D03*
G04 #@! TO.P,U1,14*
G04 #@! TO.N,/BATT_V*
X66255905Y-55547128D03*
G04 #@! TO.P,U1,13*
G04 #@! TO.N,/MCU_MOSI*
X66255905Y-56047128D03*
G04 #@! TO.P,U1,12*
G04 #@! TO.N,/MCU_MISO*
X66255905Y-56547128D03*
G04 #@! TO.P,U1,11*
G04 #@! TO.N,/MCU_SCK*
X66255905Y-57047128D03*
G04 #@! TO.P,U1,10*
G04 #@! TO.N,/SI4460_NSS*
X66255905Y-57547128D03*
G04 #@! TO.P,U1,9*
G04 #@! TO.N,/MCU_nIRQ_TO_RADIO*
X66255905Y-58047128D03*
D22*
G04 #@! TO.P,U1,8*
G04 #@! TO.N,/MCU_SHUTDOWN_TO_RADIO*
X65655905Y-58647128D03*
G04 #@! TO.P,U1,7*
G04 #@! TO.N,/FREQ_CTRL*
X65155905Y-58647128D03*
G04 #@! TO.P,U1,6*
G04 #@! TO.N,Net-(U1-Pad6)*
X64655905Y-58647128D03*
G04 #@! TO.P,U1,5*
G04 #@! TO.N,3v3*
X64155905Y-58647128D03*
G04 #@! TO.P,U1,4*
G04 #@! TO.N,/NRST*
X63655905Y-58647128D03*
G04 #@! TO.P,U1,3*
G04 #@! TO.N,Net-(U1-Pad3)*
X63155905Y-58647128D03*
G04 #@! TO.P,U1,2*
G04 #@! TO.N,GND*
X62655905Y-58647128D03*
G04 #@! TO.P,U1,1*
G04 #@! TO.N,3v3*
X62155905Y-58647128D03*
G04 #@! TD*
D10*
G04 #@! TO.P,C12,2*
G04 #@! TO.N,GND*
X57400000Y-37450000D03*
G04 #@! TO.P,C12,1*
G04 #@! TO.N,Net-(C12-Pad1)*
X57400000Y-38350000D03*
G04 #@! TD*
G04 #@! TO.P,D2,2*
G04 #@! TO.N,GND*
X62750000Y-70100000D03*
G04 #@! TO.P,D2,1*
G04 #@! TO.N,Net-(D2-Pad1)*
X61850000Y-70100000D03*
G04 #@! TD*
G04 #@! TO.P,C25,2*
G04 #@! TO.N,GND*
X61500000Y-67050000D03*
G04 #@! TO.P,C25,1*
G04 #@! TO.N,Net-(C25-Pad1)*
X61500000Y-67950000D03*
G04 #@! TD*
G04 #@! TO.P,C9,1*
G04 #@! TO.N,GND*
X64000000Y-60750000D03*
G04 #@! TO.P,C9,2*
G04 #@! TO.N,3v3*
X64000000Y-59850000D03*
G04 #@! TD*
G04 #@! TO.P,C6,2*
G04 #@! TO.N,3v3*
X60300000Y-59350000D03*
G04 #@! TO.P,C6,1*
G04 #@! TO.N,GND*
X60300000Y-60250000D03*
G04 #@! TD*
G04 #@! TO.P,C8,1*
G04 #@! TO.N,GND*
X66650000Y-52700000D03*
G04 #@! TO.P,C8,2*
G04 #@! TO.N,3v3*
X65750000Y-52700000D03*
G04 #@! TD*
D12*
G04 #@! TO.P,J1,1*
G04 #@! TO.N,3v3*
X73800000Y-39470000D03*
D11*
G04 #@! TO.P,J1,2*
G04 #@! TO.N,GND*
X73800000Y-36930000D03*
G04 #@! TD*
D10*
G04 #@! TO.P,C17,1*
G04 #@! TO.N,GND*
X73450000Y-62000000D03*
G04 #@! TO.P,C17,2*
G04 #@! TO.N,3v3_switched*
X72550000Y-62000000D03*
G04 #@! TD*
G04 #@! TO.P,L6,1*
G04 #@! TO.N,Net-(C23-Pad2)*
X64250000Y-69400000D03*
G04 #@! TO.P,L6,2*
G04 #@! TO.N,Net-(C26-Pad1)*
X65150000Y-69400000D03*
G04 #@! TD*
G04 #@! TO.P,C26,2*
G04 #@! TO.N,GND*
X64700000Y-71550000D03*
G04 #@! TO.P,C26,1*
G04 #@! TO.N,Net-(C26-Pad1)*
X64700000Y-70650000D03*
G04 #@! TD*
G04 #@! TO.P,R9,1*
G04 #@! TO.N,/MCU_SHUTDOWN_TO_RADIO*
X67950000Y-65300000D03*
G04 #@! TO.P,R9,2*
G04 #@! TO.N,GND*
X67050000Y-65300000D03*
G04 #@! TD*
D13*
G04 #@! TO.P,L4,2*
G04 #@! TO.N,Net-(C25-Pad1)*
X62900000Y-68700000D03*
G04 #@! TO.P,L4,1*
G04 #@! TO.N,Net-(C21-Pad2)*
X62900000Y-67100000D03*
G04 #@! TD*
D10*
G04 #@! TO.P,C28,1*
G04 #@! TO.N,Net-(C28-Pad1)*
X67050000Y-71200000D03*
G04 #@! TO.P,C28,2*
G04 #@! TO.N,GND*
X66150000Y-71200000D03*
G04 #@! TD*
G04 #@! TO.P,R1,2*
G04 #@! TO.N,Net-(IC1-Pad3)*
X56300000Y-43950000D03*
G04 #@! TO.P,R1,1*
G04 #@! TO.N,3v3*
X56300000Y-44850000D03*
G04 #@! TD*
D23*
G04 #@! TO.P,P3,2*
G04 #@! TO.N,GND*
X73400000Y-72700000D03*
G04 #@! TO.P,P3,1*
G04 #@! TO.N,Net-(D3-Pad1)*
X69400000Y-72700000D03*
G04 #@! TD*
G04 #@! TO.P,P2,1*
G04 #@! TO.N,Net-(D2-Pad1)*
X62400000Y-72700000D03*
G04 #@! TO.P,P2,2*
G04 #@! TO.N,GND*
X58400000Y-72700000D03*
G04 #@! TD*
D24*
G04 #@! TO.P,U2,6*
G04 #@! TO.N,Net-(C2-Pad1)*
X70750000Y-52695000D03*
G04 #@! TO.P,U2,5*
G04 #@! TO.N,/RADIO_PWR_EN*
X69800000Y-52695000D03*
G04 #@! TO.P,U2,4*
G04 #@! TO.N,3v3*
X68850000Y-52695000D03*
G04 #@! TO.P,U2,3*
G04 #@! TO.N,3v3_switched*
X68850000Y-50105000D03*
G04 #@! TO.P,U2,2*
X69800000Y-50105000D03*
G04 #@! TO.P,U2,1*
G04 #@! TO.N,Net-(R4-Pad1)*
X70750000Y-50105000D03*
G04 #@! TD*
D10*
G04 #@! TO.P,R4,1*
G04 #@! TO.N,Net-(R4-Pad1)*
X71700000Y-49400000D03*
G04 #@! TO.P,R4,2*
G04 #@! TO.N,GND*
X71700000Y-50300000D03*
G04 #@! TD*
G04 #@! TO.P,R3,2*
G04 #@! TO.N,3v3*
X67900000Y-52850000D03*
G04 #@! TO.P,R3,1*
G04 #@! TO.N,Net-(C2-Pad1)*
X67900000Y-51950000D03*
G04 #@! TD*
D11*
G04 #@! TO.P,J3,2*
G04 #@! TO.N,GND*
X59600000Y-36930000D03*
D12*
G04 #@! TO.P,J3,1*
G04 #@! TO.N,Net-(C12-Pad1)*
X59600000Y-39470000D03*
G04 #@! TD*
D10*
G04 #@! TO.P,R6,2*
G04 #@! TO.N,Net-(D1-Pad2)*
X60300000Y-52850000D03*
G04 #@! TO.P,R6,1*
G04 #@! TO.N,Net-(R6-Pad1)*
X60300000Y-53750000D03*
G04 #@! TD*
D12*
G04 #@! TO.P,J4,1*
G04 #@! TO.N,/SOLAR_CELL_VOLTAGE*
X70900000Y-55060000D03*
D11*
G04 #@! TO.P,J4,2*
G04 #@! TO.N,/BATT_V*
X70900000Y-57600000D03*
G04 #@! TD*
D10*
G04 #@! TO.P,R8,1*
G04 #@! TO.N,/I2C_SDA*
X60400000Y-57200000D03*
G04 #@! TO.P,R8,2*
G04 #@! TO.N,3v3*
X60400000Y-58100000D03*
G04 #@! TD*
D25*
G04 #@! TO.P,Y1,1*
G04 #@! TO.N,Net-(Y1-Pad1)*
X63650000Y-64900000D03*
G04 #@! TO.P,Y1,4*
G04 #@! TO.N,1v8*
X63650000Y-63500000D03*
G04 #@! TO.P,Y1,2*
G04 #@! TO.N,GND*
X65750000Y-64900000D03*
G04 #@! TO.P,Y1,3*
G04 #@! TO.N,Net-(C14-Pad1)*
X65750000Y-63500000D03*
G04 #@! TD*
D26*
G04 #@! TO.P,IC4,1*
G04 #@! TO.N,/radio/RADIO_TX_434*
X66150000Y-66850000D03*
G04 #@! TO.P,IC4,2*
G04 #@! TO.N,GND*
X66150000Y-67400000D03*
G04 #@! TO.P,IC4,3*
G04 #@! TO.N,/radio/RADIO_TX_144*
X66150000Y-67950000D03*
G04 #@! TO.P,IC4,4*
G04 #@! TO.N,3v3_switched*
X68050000Y-67950000D03*
G04 #@! TO.P,IC4,5*
G04 #@! TO.N,Net-(C20-Pad2)*
X68050000Y-67400000D03*
G04 #@! TO.P,IC4,6*
G04 #@! TO.N,/FREQ_CTRL*
X68050000Y-66850000D03*
D27*
G04 #@! TD*
G04 #@! TO.N,GND*
G04 #@! TO.C,IC4*
X67100000Y-67400000D03*
D28*
G04 #@! TO.P,IC3,EP*
G04 #@! TO.N,GND*
X69050000Y-61950000D03*
D29*
G04 #@! TO.P,IC3,20*
G04 #@! TO.N,Net-(IC3-Pad20)*
X67050000Y-62950000D03*
G04 #@! TO.P,IC3,19*
G04 #@! TO.N,Net-(IC3-Pad19)*
X67050000Y-62450000D03*
G04 #@! TO.P,IC3,18*
G04 #@! TO.N,GND*
X67050000Y-61950000D03*
G04 #@! TO.P,IC3,17*
G04 #@! TO.N,Net-(C14-Pad2)*
X67050000Y-61450000D03*
G04 #@! TO.P,IC3,16*
G04 #@! TO.N,Net-(IC3-Pad16)*
X67050000Y-60950000D03*
D30*
G04 #@! TO.P,IC3,15*
G04 #@! TO.N,/SI4460_NSS*
X68050000Y-59950000D03*
G04 #@! TO.P,IC3,14*
G04 #@! TO.N,/MCU_MOSI*
X68550000Y-59950000D03*
G04 #@! TO.P,IC3,13*
G04 #@! TO.N,/MCU_MISO*
X69050000Y-59950000D03*
G04 #@! TO.P,IC3,12*
G04 #@! TO.N,/MCU_SCK*
X69550000Y-59950000D03*
G04 #@! TO.P,IC3,11*
G04 #@! TO.N,/MCU_nIRQ_TO_RADIO*
X70050000Y-59950000D03*
D29*
G04 #@! TO.P,IC3,10*
G04 #@! TO.N,Net-(IC3-Pad10)*
X71050000Y-60950000D03*
G04 #@! TO.P,IC3,9*
G04 #@! TO.N,Net-(IC3-Pad9)*
X71050000Y-61450000D03*
G04 #@! TO.P,IC3,8*
G04 #@! TO.N,3v3_switched*
X71050000Y-61950000D03*
G04 #@! TO.P,IC3,7*
G04 #@! TO.N,Net-(IC3-Pad7)*
X71050000Y-62450000D03*
G04 #@! TO.P,IC3,6*
G04 #@! TO.N,3v3_switched*
X71050000Y-62950000D03*
D30*
G04 #@! TO.P,IC3,5*
G04 #@! TO.N,Net-(IC3-Pad5)*
X70050000Y-63950000D03*
G04 #@! TO.P,IC3,4*
G04 #@! TO.N,Net-(C20-Pad1)*
X69550000Y-63950000D03*
G04 #@! TO.P,IC3,3*
G04 #@! TO.N,GND*
X69050000Y-63950000D03*
G04 #@! TO.P,IC3,2*
X68550000Y-63950000D03*
G04 #@! TO.P,IC3,1*
G04 #@! TO.N,/MCU_SHUTDOWN_TO_RADIO*
X68050000Y-63950000D03*
G04 #@! TD*
D10*
G04 #@! TO.P,C30,1*
G04 #@! TO.N,Net-(C30-Pad1)*
X57700000Y-67200000D03*
G04 #@! TO.P,C30,2*
G04 #@! TO.N,GND*
X57700000Y-66300000D03*
G04 #@! TD*
D31*
G04 #@! TO.P,IC1,6*
G04 #@! TO.N,3v3*
X60650000Y-44400000D03*
G04 #@! TO.P,IC1,5*
G04 #@! TO.N,Net-(IC1-Pad5)*
X60000000Y-44400000D03*
G04 #@! TO.P,IC1,4*
G04 #@! TO.N,GND*
X59350000Y-44400000D03*
G04 #@! TO.P,IC1,3*
G04 #@! TO.N,Net-(IC1-Pad3)*
X59350000Y-42600000D03*
G04 #@! TO.P,IC1,2*
G04 #@! TO.N,Net-(C12-Pad1)*
X60000000Y-42600000D03*
G04 #@! TO.P,IC1,1*
X60650000Y-42600000D03*
D32*
G04 #@! TO.P,IC1,7*
G04 #@! TO.N,GND*
X60000000Y-43500000D03*
G04 #@! TD*
D10*
G04 #@! TO.P,C7,1*
G04 #@! TO.N,GND*
X62800000Y-61950000D03*
G04 #@! TO.P,C7,2*
G04 #@! TO.N,3v3*
X62800000Y-61050000D03*
G04 #@! TD*
D33*
G04 #@! TO.P,L1,2*
G04 #@! TO.N,Net-(IC1-Pad5)*
X57900000Y-43500000D03*
G04 #@! TO.P,L1,1*
G04 #@! TO.N,Net-(C12-Pad1)*
X57900000Y-41700000D03*
G04 #@! TD*
D10*
G04 #@! TO.P,L11,2*
G04 #@! TO.N,Net-(C29-Pad2)*
X67600000Y-69050000D03*
G04 #@! TO.P,L11,1*
G04 #@! TO.N,Net-(C28-Pad1)*
X67600000Y-69950000D03*
G04 #@! TD*
D17*
G04 #@! TO.P,L2,1*
G04 #@! TO.N,3v3_switched*
X70900000Y-65400000D03*
G04 #@! TO.P,L2,2*
G04 #@! TO.N,Net-(C20-Pad1)*
X69300000Y-65400000D03*
G04 #@! TD*
D10*
G04 #@! TO.P,L12,1*
G04 #@! TO.N,Net-(C29-Pad2)*
X70150000Y-68600000D03*
G04 #@! TO.P,L12,2*
G04 #@! TO.N,Net-(C32-Pad2)*
X71050000Y-68600000D03*
G04 #@! TD*
D34*
G04 #@! TO.P,TP1,1*
G04 #@! TO.N,GND*
X65900000Y-73000000D03*
G04 #@! TD*
D10*
G04 #@! TO.P,L10,2*
G04 #@! TO.N,Net-(C30-Pad1)*
X58900000Y-67950000D03*
G04 #@! TO.P,L10,1*
G04 #@! TO.N,Net-(C27-Pad1)*
X58900000Y-67050000D03*
G04 #@! TD*
G04 #@! TO.P,L7,2*
G04 #@! TO.N,Net-(C27-Pad1)*
X60300000Y-67050000D03*
G04 #@! TO.P,L7,1*
G04 #@! TO.N,Net-(C25-Pad1)*
X60300000Y-67950000D03*
G04 #@! TD*
G04 #@! TO.P,R2,1*
G04 #@! TO.N,Net-(IC1-Pad3)*
X57400000Y-40450000D03*
G04 #@! TO.P,R2,2*
G04 #@! TO.N,GND*
X57400000Y-39550000D03*
G04 #@! TD*
G04 #@! TO.P,L3,2*
G04 #@! TO.N,Net-(C28-Pad1)*
X66400000Y-69950000D03*
G04 #@! TO.P,L3,1*
G04 #@! TO.N,Net-(C26-Pad1)*
X66400000Y-69050000D03*
G04 #@! TD*
G04 #@! TO.P,R7,2*
G04 #@! TO.N,3v3*
X60300000Y-55100000D03*
G04 #@! TO.P,R7,1*
G04 #@! TO.N,/I2C_SCL*
X60300000Y-56000000D03*
G04 #@! TD*
G04 #@! TO.P,C30,2*
G04 #@! TO.N,GND*
X33700000Y-66300000D03*
G04 #@! TO.P,C30,1*
G04 #@! TO.N,Net-(C30-Pad1)*
X33700000Y-67200000D03*
G04 #@! TD*
D11*
G04 #@! TO.P,J1,2*
G04 #@! TO.N,GND*
X49800000Y-36930000D03*
D12*
G04 #@! TO.P,J1,1*
G04 #@! TO.N,3v3*
X49800000Y-39470000D03*
G04 #@! TD*
D10*
G04 #@! TO.P,R8,2*
G04 #@! TO.N,3v3*
X36400000Y-58100000D03*
G04 #@! TO.P,R8,1*
G04 #@! TO.N,/I2C_SDA*
X36400000Y-57200000D03*
G04 #@! TD*
D22*
G04 #@! TO.P,U1,1*
G04 #@! TO.N,3v3*
X38155905Y-58647128D03*
G04 #@! TO.P,U1,2*
G04 #@! TO.N,GND*
X38655905Y-58647128D03*
G04 #@! TO.P,U1,3*
G04 #@! TO.N,Net-(U1-Pad3)*
X39155905Y-58647128D03*
G04 #@! TO.P,U1,4*
G04 #@! TO.N,/NRST*
X39655905Y-58647128D03*
G04 #@! TO.P,U1,5*
G04 #@! TO.N,3v3*
X40155905Y-58647128D03*
G04 #@! TO.P,U1,6*
G04 #@! TO.N,Net-(U1-Pad6)*
X40655905Y-58647128D03*
G04 #@! TO.P,U1,7*
G04 #@! TO.N,/FREQ_CTRL*
X41155905Y-58647128D03*
G04 #@! TO.P,U1,8*
G04 #@! TO.N,/MCU_SHUTDOWN_TO_RADIO*
X41655905Y-58647128D03*
D21*
G04 #@! TO.P,U1,9*
G04 #@! TO.N,/MCU_nIRQ_TO_RADIO*
X42255905Y-58047128D03*
G04 #@! TO.P,U1,10*
G04 #@! TO.N,/SI4460_NSS*
X42255905Y-57547128D03*
G04 #@! TO.P,U1,11*
G04 #@! TO.N,/MCU_SCK*
X42255905Y-57047128D03*
G04 #@! TO.P,U1,12*
G04 #@! TO.N,/MCU_MISO*
X42255905Y-56547128D03*
G04 #@! TO.P,U1,13*
G04 #@! TO.N,/MCU_MOSI*
X42255905Y-56047128D03*
G04 #@! TO.P,U1,14*
G04 #@! TO.N,/BATT_V*
X42255905Y-55547128D03*
G04 #@! TO.P,U1,15*
G04 #@! TO.N,/SOLAR_CELL_VOLTAGE*
X42255905Y-55047128D03*
G04 #@! TO.P,U1,16*
G04 #@! TO.N,/RADIO_PWR_EN*
X42255905Y-54547128D03*
D22*
G04 #@! TO.P,U1,17*
G04 #@! TO.N,3v3*
X41655905Y-53947128D03*
G04 #@! TO.P,U1,18*
G04 #@! TO.N,/GPS_EXTINT*
X41155905Y-53947128D03*
G04 #@! TO.P,U1,19*
G04 #@! TO.N,/TX_GPS_from_MCU*
X40655905Y-53947128D03*
G04 #@! TO.P,U1,20*
G04 #@! TO.N,/RX_GPS_from_MCU*
X40155905Y-53947128D03*
G04 #@! TO.P,U1,21*
G04 #@! TO.N,/GPS_~RESET*
X39655905Y-53947128D03*
G04 #@! TO.P,U1,22*
G04 #@! TO.N,Net-(U1-Pad22)*
X39155905Y-53947128D03*
G04 #@! TO.P,U1,23*
G04 #@! TO.N,/SWDIO*
X38655905Y-53947128D03*
G04 #@! TO.P,U1,24*
G04 #@! TO.N,/SWCLK*
X38155905Y-53947128D03*
D21*
G04 #@! TO.P,U1,25*
G04 #@! TO.N,Net-(R6-Pad1)*
X37555905Y-54547128D03*
G04 #@! TO.P,U1,26*
G04 #@! TO.N,Net-(U1-Pad26)*
X37555905Y-55047128D03*
G04 #@! TO.P,U1,27*
G04 #@! TO.N,Net-(U1-Pad27)*
X37555905Y-55547128D03*
G04 #@! TO.P,U1,28*
G04 #@! TO.N,/WSPR_ENABLE*
X37555905Y-56047128D03*
G04 #@! TO.P,U1,29*
G04 #@! TO.N,/I2C_SCL*
X37555905Y-56547128D03*
G04 #@! TO.P,U1,30*
G04 #@! TO.N,/I2C_SDA*
X37555905Y-57047128D03*
G04 #@! TO.P,U1,31*
G04 #@! TO.N,GND*
X37555905Y-57547128D03*
G04 #@! TO.P,U1,32*
G04 #@! TO.N,Net-(U1-Pad32)*
X37555905Y-58047128D03*
D20*
G04 #@! TD*
G04 #@! TO.N,GND*
G04 #@! TO.C,U1*
X38655905Y-57547128D03*
G04 #@! TO.N,GND*
G04 #@! TO.C,U1*
X41155905Y-57547128D03*
X38655905Y-55047128D03*
X41155905Y-55047128D03*
D19*
X39905905Y-56297128D03*
G04 #@! TD*
D15*
G04 #@! TO.P,AE1,2*
G04 #@! TO.N,Net-(AE1-Pad2)*
X46200000Y-34700000D03*
G04 #@! TO.P,AE1,1*
G04 #@! TO.N,Net-(AE1-Pad1)*
X46200000Y-27700000D03*
G04 #@! TD*
D10*
G04 #@! TO.P,C1,1*
G04 #@! TO.N,3v3*
X36900000Y-46100000D03*
G04 #@! TO.P,C1,2*
G04 #@! TO.N,GND*
X36000000Y-46100000D03*
G04 #@! TD*
G04 #@! TO.P,C2,2*
G04 #@! TO.N,3v3_switched*
X43900000Y-49850000D03*
G04 #@! TO.P,C2,1*
G04 #@! TO.N,Net-(C2-Pad1)*
X43900000Y-50750000D03*
G04 #@! TD*
G04 #@! TO.P,C3,2*
G04 #@! TO.N,3v3_switched*
X32400000Y-63200000D03*
G04 #@! TO.P,C3,1*
G04 #@! TO.N,GND*
X32400000Y-64100000D03*
G04 #@! TD*
G04 #@! TO.P,C4,1*
G04 #@! TO.N,1v8*
X37450000Y-65600000D03*
G04 #@! TO.P,C4,2*
G04 #@! TO.N,GND*
X38350000Y-65600000D03*
G04 #@! TD*
G04 #@! TO.P,C5,1*
G04 #@! TO.N,GND*
X42650000Y-51500000D03*
G04 #@! TO.P,C5,2*
G04 #@! TO.N,3v3*
X41750000Y-51500000D03*
G04 #@! TD*
G04 #@! TO.P,C6,1*
G04 #@! TO.N,GND*
X36300000Y-60250000D03*
G04 #@! TO.P,C6,2*
G04 #@! TO.N,3v3*
X36300000Y-59350000D03*
G04 #@! TD*
G04 #@! TO.P,C7,2*
G04 #@! TO.N,3v3*
X38800000Y-61050000D03*
G04 #@! TO.P,C7,1*
G04 #@! TO.N,GND*
X38800000Y-61950000D03*
G04 #@! TD*
G04 #@! TO.P,C8,2*
G04 #@! TO.N,3v3*
X41750000Y-52700000D03*
G04 #@! TO.P,C8,1*
G04 #@! TO.N,GND*
X42650000Y-52700000D03*
G04 #@! TD*
G04 #@! TO.P,C9,2*
G04 #@! TO.N,3v3*
X40000000Y-59850000D03*
G04 #@! TO.P,C9,1*
G04 #@! TO.N,GND*
X40000000Y-60750000D03*
G04 #@! TD*
G04 #@! TO.P,C10,1*
G04 #@! TO.N,/NRST*
X38450000Y-59800000D03*
G04 #@! TO.P,C10,2*
G04 #@! TO.N,GND*
X37550000Y-59800000D03*
G04 #@! TD*
G04 #@! TO.P,C11,1*
G04 #@! TO.N,GND*
X34250000Y-46100000D03*
G04 #@! TO.P,C11,2*
G04 #@! TO.N,3v3*
X33350000Y-46100000D03*
G04 #@! TD*
G04 #@! TO.P,C12,1*
G04 #@! TO.N,Net-(C12-Pad1)*
X33400000Y-38350000D03*
G04 #@! TO.P,C12,2*
G04 #@! TO.N,GND*
X33400000Y-37450000D03*
G04 #@! TD*
G04 #@! TO.P,C13,1*
G04 #@! TO.N,GND*
X38350000Y-64400000D03*
G04 #@! TO.P,C13,2*
G04 #@! TO.N,1v8*
X37450000Y-64400000D03*
G04 #@! TD*
G04 #@! TO.P,C14,2*
G04 #@! TO.N,Net-(C14-Pad2)*
X41800000Y-61050000D03*
G04 #@! TO.P,C14,1*
G04 #@! TO.N,Net-(C14-Pad1)*
X41800000Y-61950000D03*
G04 #@! TD*
G04 #@! TO.P,C16,1*
G04 #@! TO.N,3v3*
X44600000Y-48400000D03*
G04 #@! TO.P,C16,2*
G04 #@! TO.N,GND*
X45500000Y-48400000D03*
G04 #@! TD*
G04 #@! TO.P,C17,2*
G04 #@! TO.N,3v3_switched*
X48550000Y-62000000D03*
G04 #@! TO.P,C17,1*
G04 #@! TO.N,GND*
X49450000Y-62000000D03*
G04 #@! TD*
G04 #@! TO.P,C18,2*
G04 #@! TO.N,3v3_switched*
X48550000Y-63200000D03*
G04 #@! TO.P,C18,1*
G04 #@! TO.N,GND*
X49450000Y-63200000D03*
G04 #@! TD*
G04 #@! TO.P,C19,2*
G04 #@! TO.N,3v3_switched*
X48550000Y-64400000D03*
G04 #@! TO.P,C19,1*
G04 #@! TO.N,GND*
X49450000Y-64400000D03*
G04 #@! TD*
G04 #@! TO.P,C20,2*
G04 #@! TO.N,Net-(C20-Pad2)*
X45050000Y-66800000D03*
G04 #@! TO.P,C20,1*
G04 #@! TO.N,Net-(C20-Pad1)*
X45950000Y-66800000D03*
G04 #@! TD*
G04 #@! TO.P,C21,1*
G04 #@! TO.N,/radio/RADIO_TX_434*
X41150000Y-67000000D03*
G04 #@! TO.P,C21,2*
G04 #@! TO.N,Net-(C21-Pad2)*
X40250000Y-67000000D03*
G04 #@! TD*
G04 #@! TO.P,C23,2*
G04 #@! TO.N,Net-(C23-Pad2)*
X40250000Y-68200000D03*
G04 #@! TO.P,C23,1*
G04 #@! TO.N,/radio/RADIO_TX_144*
X41150000Y-68200000D03*
G04 #@! TD*
G04 #@! TO.P,C25,1*
G04 #@! TO.N,Net-(C25-Pad1)*
X37500000Y-67950000D03*
G04 #@! TO.P,C25,2*
G04 #@! TO.N,GND*
X37500000Y-67050000D03*
G04 #@! TD*
G04 #@! TO.P,C26,1*
G04 #@! TO.N,Net-(C26-Pad1)*
X40700000Y-70650000D03*
G04 #@! TO.P,C26,2*
G04 #@! TO.N,GND*
X40700000Y-71550000D03*
G04 #@! TD*
G04 #@! TO.P,C27,2*
G04 #@! TO.N,GND*
X36550000Y-65800000D03*
G04 #@! TO.P,C27,1*
G04 #@! TO.N,Net-(C27-Pad1)*
X35650000Y-65800000D03*
G04 #@! TD*
G04 #@! TO.P,C28,2*
G04 #@! TO.N,GND*
X42150000Y-71200000D03*
G04 #@! TO.P,C28,1*
G04 #@! TO.N,Net-(C28-Pad1)*
X43050000Y-71200000D03*
G04 #@! TD*
G04 #@! TO.P,C29,2*
G04 #@! TO.N,Net-(C29-Pad2)*
X44800000Y-69050000D03*
G04 #@! TO.P,C29,1*
G04 #@! TO.N,Net-(C28-Pad1)*
X44800000Y-69950000D03*
G04 #@! TD*
G04 #@! TO.P,C31,1*
G04 #@! TO.N,Net-(C29-Pad2)*
X48550000Y-65600000D03*
G04 #@! TO.P,C31,2*
G04 #@! TO.N,GND*
X49450000Y-65600000D03*
G04 #@! TD*
G04 #@! TO.P,C32,2*
G04 #@! TO.N,Net-(C32-Pad2)*
X48350000Y-66800000D03*
G04 #@! TO.P,C32,1*
G04 #@! TO.N,Net-(C29-Pad2)*
X47450000Y-66800000D03*
G04 #@! TD*
G04 #@! TO.P,C33,1*
G04 #@! TO.N,Net-(C32-Pad2)*
X48400000Y-68050000D03*
G04 #@! TO.P,C33,2*
G04 #@! TO.N,Net-(C33-Pad2)*
X48400000Y-68950000D03*
G04 #@! TD*
D13*
G04 #@! TO.P,C34,2*
G04 #@! TO.N,GND*
X49800000Y-67000000D03*
G04 #@! TO.P,C34,1*
G04 #@! TO.N,Net-(C33-Pad2)*
X49800000Y-68600000D03*
G04 #@! TD*
G04 #@! TO.P,C35,2*
G04 #@! TO.N,GND*
X33400000Y-70200000D03*
G04 #@! TO.P,C35,1*
G04 #@! TO.N,Net-(C30-Pad1)*
X33400000Y-68600000D03*
G04 #@! TD*
D17*
G04 #@! TO.P,D1,1*
G04 #@! TO.N,GND*
X33300000Y-52700000D03*
G04 #@! TO.P,D1,2*
G04 #@! TO.N,Net-(D1-Pad2)*
X34900000Y-52700000D03*
G04 #@! TD*
D10*
G04 #@! TO.P,D2,1*
G04 #@! TO.N,Net-(D2-Pad1)*
X37850000Y-70100000D03*
G04 #@! TO.P,D2,2*
G04 #@! TO.N,GND*
X38750000Y-70100000D03*
G04 #@! TD*
G04 #@! TO.P,D3,1*
G04 #@! TO.N,Net-(D3-Pad1)*
X46950000Y-70500000D03*
G04 #@! TO.P,D3,2*
G04 #@! TO.N,GND*
X46050000Y-70500000D03*
G04 #@! TD*
D16*
G04 #@! TO.P,IC2,18*
G04 #@! TO.N,Net-(IC2-Pad18)*
X38500000Y-37150000D03*
G04 #@! TO.P,IC2,17*
G04 #@! TO.N,Net-(IC2-Pad17)*
X39600000Y-37150000D03*
G04 #@! TO.P,IC2,16*
G04 #@! TO.N,Net-(IC2-Pad16)*
X40700000Y-37150000D03*
G04 #@! TO.P,IC2,15*
G04 #@! TO.N,Net-(IC2-Pad15)*
X41800000Y-37150000D03*
G04 #@! TO.P,IC2,14*
G04 #@! TO.N,Net-(IC2-Pad14)*
X42900000Y-37150000D03*
G04 #@! TO.P,IC2,13*
G04 #@! TO.N,Net-(IC2-Pad13)*
X44000000Y-37150000D03*
G04 #@! TO.P,IC2,12*
G04 #@! TO.N,GND*
X45100000Y-37150000D03*
G04 #@! TO.P,IC2,11*
G04 #@! TO.N,Net-(AE1-Pad2)*
X46200000Y-37150000D03*
G04 #@! TO.P,IC2,10*
G04 #@! TO.N,GND*
X47300000Y-37150000D03*
G04 #@! TO.P,IC2,9*
G04 #@! TO.N,/GPS_~RESET*
X47300000Y-46650000D03*
G04 #@! TO.P,IC2,8*
G04 #@! TO.N,3v3*
X46200000Y-46650000D03*
G04 #@! TO.P,IC2,7*
X45100000Y-46650000D03*
G04 #@! TO.P,IC2,6*
X44000000Y-46650000D03*
G04 #@! TO.P,IC2,5*
G04 #@! TO.N,/GPS_EXTINT*
X42900000Y-46650000D03*
G04 #@! TO.P,IC2,4*
G04 #@! TO.N,Net-(IC2-Pad4)*
X41800000Y-46650000D03*
G04 #@! TO.P,IC2,3*
G04 #@! TO.N,/TX_GPS_from_MCU*
X40700000Y-46650000D03*
G04 #@! TO.P,IC2,2*
G04 #@! TO.N,/RX_GPS_from_MCU*
X39600000Y-46650000D03*
G04 #@! TO.P,IC2,1*
G04 #@! TO.N,GND*
X38500000Y-46650000D03*
G04 #@! TD*
D30*
G04 #@! TO.P,IC3,1*
G04 #@! TO.N,/MCU_SHUTDOWN_TO_RADIO*
X44050000Y-63950000D03*
G04 #@! TO.P,IC3,2*
G04 #@! TO.N,GND*
X44550000Y-63950000D03*
G04 #@! TO.P,IC3,3*
X45050000Y-63950000D03*
G04 #@! TO.P,IC3,4*
G04 #@! TO.N,Net-(C20-Pad1)*
X45550000Y-63950000D03*
G04 #@! TO.P,IC3,5*
G04 #@! TO.N,Net-(IC3-Pad5)*
X46050000Y-63950000D03*
D29*
G04 #@! TO.P,IC3,6*
G04 #@! TO.N,3v3_switched*
X47050000Y-62950000D03*
G04 #@! TO.P,IC3,7*
G04 #@! TO.N,Net-(IC3-Pad7)*
X47050000Y-62450000D03*
G04 #@! TO.P,IC3,8*
G04 #@! TO.N,3v3_switched*
X47050000Y-61950000D03*
G04 #@! TO.P,IC3,9*
G04 #@! TO.N,Net-(IC3-Pad9)*
X47050000Y-61450000D03*
G04 #@! TO.P,IC3,10*
G04 #@! TO.N,Net-(IC3-Pad10)*
X47050000Y-60950000D03*
D30*
G04 #@! TO.P,IC3,11*
G04 #@! TO.N,/MCU_nIRQ_TO_RADIO*
X46050000Y-59950000D03*
G04 #@! TO.P,IC3,12*
G04 #@! TO.N,/MCU_SCK*
X45550000Y-59950000D03*
G04 #@! TO.P,IC3,13*
G04 #@! TO.N,/MCU_MISO*
X45050000Y-59950000D03*
G04 #@! TO.P,IC3,14*
G04 #@! TO.N,/MCU_MOSI*
X44550000Y-59950000D03*
G04 #@! TO.P,IC3,15*
G04 #@! TO.N,/SI4460_NSS*
X44050000Y-59950000D03*
D29*
G04 #@! TO.P,IC3,16*
G04 #@! TO.N,Net-(IC3-Pad16)*
X43050000Y-60950000D03*
G04 #@! TO.P,IC3,17*
G04 #@! TO.N,Net-(C14-Pad2)*
X43050000Y-61450000D03*
G04 #@! TO.P,IC3,18*
G04 #@! TO.N,GND*
X43050000Y-61950000D03*
G04 #@! TO.P,IC3,19*
G04 #@! TO.N,Net-(IC3-Pad19)*
X43050000Y-62450000D03*
G04 #@! TO.P,IC3,20*
G04 #@! TO.N,Net-(IC3-Pad20)*
X43050000Y-62950000D03*
D28*
G04 #@! TO.P,IC3,EP*
G04 #@! TO.N,GND*
X45050000Y-61950000D03*
G04 #@! TD*
D27*
G04 #@! TO.N,GND*
G04 #@! TO.C,IC4*
X43100000Y-67400000D03*
D26*
G04 #@! TD*
G04 #@! TO.P,IC4,6*
G04 #@! TO.N,/FREQ_CTRL*
X44050000Y-66850000D03*
G04 #@! TO.P,IC4,5*
G04 #@! TO.N,Net-(C20-Pad2)*
X44050000Y-67400000D03*
G04 #@! TO.P,IC4,4*
G04 #@! TO.N,3v3_switched*
X44050000Y-67950000D03*
G04 #@! TO.P,IC4,3*
G04 #@! TO.N,/radio/RADIO_TX_144*
X42150000Y-67950000D03*
G04 #@! TO.P,IC4,2*
G04 #@! TO.N,GND*
X42150000Y-67400000D03*
G04 #@! TO.P,IC4,1*
G04 #@! TO.N,/radio/RADIO_TX_434*
X42150000Y-66850000D03*
G04 #@! TD*
D12*
G04 #@! TO.P,J2,1*
G04 #@! TO.N,/WSPR_ENABLE*
X34100000Y-55060000D03*
D11*
G04 #@! TO.P,J2,2*
G04 #@! TO.N,/I2C_SCL*
X34100000Y-57600000D03*
G04 #@! TO.P,J2,3*
G04 #@! TO.N,/I2C_SDA*
X34100000Y-60140000D03*
G04 #@! TD*
D12*
G04 #@! TO.P,J3,1*
G04 #@! TO.N,Net-(C12-Pad1)*
X35600000Y-39470000D03*
D11*
G04 #@! TO.P,J3,2*
G04 #@! TO.N,GND*
X35600000Y-36930000D03*
G04 #@! TD*
G04 #@! TO.P,J4,2*
G04 #@! TO.N,/BATT_V*
X46900000Y-57600000D03*
D12*
G04 #@! TO.P,J4,1*
G04 #@! TO.N,/SOLAR_CELL_VOLTAGE*
X46900000Y-55060000D03*
G04 #@! TD*
D17*
G04 #@! TO.P,L2,2*
G04 #@! TO.N,Net-(C20-Pad1)*
X45300000Y-65400000D03*
G04 #@! TO.P,L2,1*
G04 #@! TO.N,3v3_switched*
X46900000Y-65400000D03*
G04 #@! TD*
D10*
G04 #@! TO.P,L3,1*
G04 #@! TO.N,Net-(C26-Pad1)*
X42400000Y-69050000D03*
G04 #@! TO.P,L3,2*
G04 #@! TO.N,Net-(C28-Pad1)*
X42400000Y-69950000D03*
G04 #@! TD*
D13*
G04 #@! TO.P,L4,1*
G04 #@! TO.N,Net-(C21-Pad2)*
X38900000Y-67100000D03*
G04 #@! TO.P,L4,2*
G04 #@! TO.N,Net-(C25-Pad1)*
X38900000Y-68700000D03*
G04 #@! TD*
D10*
G04 #@! TO.P,L6,2*
G04 #@! TO.N,Net-(C26-Pad1)*
X41150000Y-69400000D03*
G04 #@! TO.P,L6,1*
G04 #@! TO.N,Net-(C23-Pad2)*
X40250000Y-69400000D03*
G04 #@! TD*
G04 #@! TO.P,L7,1*
G04 #@! TO.N,Net-(C25-Pad1)*
X36300000Y-67950000D03*
G04 #@! TO.P,L7,2*
G04 #@! TO.N,Net-(C27-Pad1)*
X36300000Y-67050000D03*
G04 #@! TD*
G04 #@! TO.P,L10,1*
G04 #@! TO.N,Net-(C27-Pad1)*
X34900000Y-67050000D03*
G04 #@! TO.P,L10,2*
G04 #@! TO.N,Net-(C30-Pad1)*
X34900000Y-67950000D03*
G04 #@! TD*
G04 #@! TO.P,L11,1*
G04 #@! TO.N,Net-(C28-Pad1)*
X43600000Y-69950000D03*
G04 #@! TO.P,L11,2*
G04 #@! TO.N,Net-(C29-Pad2)*
X43600000Y-69050000D03*
G04 #@! TD*
G04 #@! TO.P,L12,2*
G04 #@! TO.N,Net-(C32-Pad2)*
X47050000Y-68600000D03*
G04 #@! TO.P,L12,1*
G04 #@! TO.N,Net-(C29-Pad2)*
X46150000Y-68600000D03*
G04 #@! TD*
D17*
G04 #@! TO.P,L13,1*
G04 #@! TO.N,Net-(C33-Pad2)*
X49900000Y-70300000D03*
G04 #@! TO.P,L13,2*
G04 #@! TO.N,Net-(D3-Pad1)*
X48300000Y-70300000D03*
G04 #@! TD*
G04 #@! TO.P,L14,1*
G04 #@! TO.N,Net-(C30-Pad1)*
X34900000Y-69400000D03*
G04 #@! TO.P,L14,2*
G04 #@! TO.N,Net-(D2-Pad1)*
X36500000Y-69400000D03*
G04 #@! TD*
D18*
G04 #@! TO.P,P1,1*
G04 #@! TO.N,3v3*
X37570000Y-49257128D03*
G04 #@! TO.P,P1,2*
G04 #@! TO.N,/SWDIO*
X37570000Y-50527128D03*
G04 #@! TO.P,P1,3*
G04 #@! TO.N,/NRST*
X36300000Y-49257128D03*
G04 #@! TO.P,P1,4*
G04 #@! TO.N,/SWCLK*
X36300000Y-50527128D03*
G04 #@! TO.P,P1,5*
G04 #@! TO.N,GND*
X35030000Y-49257128D03*
G04 #@! TO.P,P1,6*
G04 #@! TO.N,Net-(P1-Pad6)*
X35030000Y-50527128D03*
G04 #@! TD*
D23*
G04 #@! TO.P,P2,2*
G04 #@! TO.N,GND*
X34400000Y-72700000D03*
G04 #@! TO.P,P2,1*
G04 #@! TO.N,Net-(D2-Pad1)*
X38400000Y-72700000D03*
G04 #@! TD*
G04 #@! TO.P,P3,1*
G04 #@! TO.N,Net-(D3-Pad1)*
X45400000Y-72700000D03*
G04 #@! TO.P,P3,2*
G04 #@! TO.N,GND*
X49400000Y-72700000D03*
G04 #@! TD*
D10*
G04 #@! TO.P,R1,1*
G04 #@! TO.N,3v3*
X32300000Y-44850000D03*
G04 #@! TO.P,R1,2*
G04 #@! TO.N,Net-(IC1-Pad3)*
X32300000Y-43950000D03*
G04 #@! TD*
G04 #@! TO.P,R2,2*
G04 #@! TO.N,GND*
X33400000Y-39550000D03*
G04 #@! TO.P,R2,1*
G04 #@! TO.N,Net-(IC1-Pad3)*
X33400000Y-40450000D03*
G04 #@! TD*
G04 #@! TO.P,R7,1*
G04 #@! TO.N,/I2C_SCL*
X36300000Y-56000000D03*
G04 #@! TO.P,R7,2*
G04 #@! TO.N,3v3*
X36300000Y-55100000D03*
G04 #@! TD*
G04 #@! TO.P,R9,2*
G04 #@! TO.N,GND*
X43050000Y-65300000D03*
G04 #@! TO.P,R9,1*
G04 #@! TO.N,/MCU_SHUTDOWN_TO_RADIO*
X43950000Y-65300000D03*
G04 #@! TD*
D34*
G04 #@! TO.P,TP1,1*
G04 #@! TO.N,GND*
X41900000Y-73000000D03*
G04 #@! TD*
D10*
G04 #@! TO.P,R6,1*
G04 #@! TO.N,Net-(R6-Pad1)*
X36300000Y-53750000D03*
G04 #@! TO.P,R6,2*
G04 #@! TO.N,Net-(D1-Pad2)*
X36300000Y-52850000D03*
G04 #@! TD*
D32*
G04 #@! TO.P,IC1,7*
G04 #@! TO.N,GND*
X36000000Y-43500000D03*
D31*
G04 #@! TO.P,IC1,1*
G04 #@! TO.N,Net-(C12-Pad1)*
X36650000Y-42600000D03*
G04 #@! TO.P,IC1,2*
X36000000Y-42600000D03*
G04 #@! TO.P,IC1,3*
G04 #@! TO.N,Net-(IC1-Pad3)*
X35350000Y-42600000D03*
G04 #@! TO.P,IC1,4*
G04 #@! TO.N,GND*
X35350000Y-44400000D03*
G04 #@! TO.P,IC1,5*
G04 #@! TO.N,Net-(IC1-Pad5)*
X36000000Y-44400000D03*
G04 #@! TO.P,IC1,6*
G04 #@! TO.N,3v3*
X36650000Y-44400000D03*
G04 #@! TD*
D33*
G04 #@! TO.P,L1,1*
G04 #@! TO.N,Net-(C12-Pad1)*
X33900000Y-41700000D03*
G04 #@! TO.P,L1,2*
G04 #@! TO.N,Net-(IC1-Pad5)*
X33900000Y-43500000D03*
G04 #@! TD*
D10*
G04 #@! TO.P,R3,1*
G04 #@! TO.N,Net-(C2-Pad1)*
X43900000Y-51950000D03*
G04 #@! TO.P,R3,2*
G04 #@! TO.N,3v3*
X43900000Y-52850000D03*
G04 #@! TD*
G04 #@! TO.P,R4,2*
G04 #@! TO.N,GND*
X47700000Y-50300000D03*
G04 #@! TO.P,R4,1*
G04 #@! TO.N,Net-(R4-Pad1)*
X47700000Y-49400000D03*
G04 #@! TD*
D24*
G04 #@! TO.P,U2,1*
G04 #@! TO.N,Net-(R4-Pad1)*
X46750000Y-50105000D03*
G04 #@! TO.P,U2,2*
G04 #@! TO.N,3v3_switched*
X45800000Y-50105000D03*
G04 #@! TO.P,U2,3*
X44850000Y-50105000D03*
G04 #@! TO.P,U2,4*
G04 #@! TO.N,3v3*
X44850000Y-52695000D03*
G04 #@! TO.P,U2,5*
G04 #@! TO.N,/RADIO_PWR_EN*
X45800000Y-52695000D03*
G04 #@! TO.P,U2,6*
G04 #@! TO.N,Net-(C2-Pad1)*
X46750000Y-52695000D03*
G04 #@! TD*
D14*
G04 #@! TO.P,U3,5*
G04 #@! TO.N,3v3_switched*
X36100000Y-63150000D03*
G04 #@! TO.P,U3,4*
G04 #@! TO.N,1v8*
X36100000Y-64450000D03*
G04 #@! TO.P,U3,3*
G04 #@! TO.N,GND*
X33900000Y-64450000D03*
G04 #@! TO.P,U3,2*
G04 #@! TO.N,Net-(U3-Pad2)*
X33900000Y-63800000D03*
G04 #@! TO.P,U3,1*
G04 #@! TO.N,3v3_switched*
X33900000Y-63150000D03*
G04 #@! TD*
D25*
G04 #@! TO.P,Y1,3*
G04 #@! TO.N,Net-(C14-Pad1)*
X41750000Y-63500000D03*
G04 #@! TO.P,Y1,2*
G04 #@! TO.N,GND*
X41750000Y-64900000D03*
G04 #@! TO.P,Y1,4*
G04 #@! TO.N,1v8*
X39650000Y-63500000D03*
G04 #@! TO.P,Y1,1*
G04 #@! TO.N,Net-(Y1-Pad1)*
X39650000Y-64900000D03*
G04 #@! TD*
D35*
G04 #@! TO.N,3v3*
X41839999Y-50300000D03*
X35400000Y-61200000D03*
X38900000Y-48600000D03*
X35100000Y-62610010D03*
X59400000Y-61200000D03*
X62900000Y-48600000D03*
X59100000Y-62610010D03*
X65839999Y-50300000D03*
G04 #@! TO.N,GND*
X45050000Y-61950000D03*
X44300000Y-61200000D03*
X45800000Y-62700000D03*
X45800000Y-61200000D03*
X44300000Y-62700000D03*
X43000000Y-64000000D03*
X32900000Y-65000000D03*
X50400000Y-65600000D03*
X50400000Y-64400000D03*
X50400000Y-63200000D03*
X50400000Y-62000000D03*
X39700000Y-70400000D03*
X43100000Y-67400000D03*
X46000000Y-69600000D03*
X39949989Y-62000000D03*
X37135025Y-60635025D03*
X33029989Y-49800000D03*
X46410330Y-48315129D03*
X47708903Y-51091097D03*
X42700000Y-53700000D03*
X39200000Y-66024998D03*
X49400000Y-72700000D03*
X50300000Y-73600000D03*
X48500000Y-73600000D03*
X48500000Y-71800000D03*
X50300000Y-71800000D03*
X34400000Y-72700000D03*
X33500000Y-73600000D03*
X35300000Y-73600000D03*
X35300000Y-71800000D03*
X33500000Y-71800000D03*
X32708594Y-66560000D03*
X35200000Y-46100000D03*
X32300000Y-39600000D03*
X47300000Y-41900000D03*
X38500000Y-41900000D03*
X47300000Y-39600000D03*
X47300000Y-44200000D03*
X45100000Y-41900000D03*
X42900000Y-41900000D03*
X40700000Y-41900000D03*
X45100000Y-44200000D03*
X42900000Y-44200000D03*
X40700000Y-44200000D03*
X38500000Y-44200000D03*
X45100000Y-39600000D03*
X42900000Y-39600000D03*
X40700000Y-39600000D03*
X38500000Y-39600000D03*
X72500000Y-73600000D03*
X72500000Y-71800000D03*
X74300000Y-71800000D03*
X69800000Y-62700000D03*
X69800000Y-61200000D03*
X56900000Y-65000000D03*
X68300000Y-62700000D03*
X69050000Y-61950000D03*
X68300000Y-61200000D03*
X67000000Y-64000000D03*
X63700000Y-70400000D03*
X67100000Y-67400000D03*
X70000000Y-69600000D03*
X56708594Y-66560000D03*
X59200000Y-46100000D03*
X56300000Y-39600000D03*
X74400000Y-65600000D03*
X74400000Y-64400000D03*
X74400000Y-63200000D03*
X74400000Y-62000000D03*
X71300000Y-41900000D03*
X62500000Y-41900000D03*
X71300000Y-39600000D03*
X63200000Y-66024998D03*
X63949989Y-62000000D03*
X61135025Y-60635025D03*
X62500000Y-44200000D03*
X69100000Y-39600000D03*
X66900000Y-39600000D03*
X64700000Y-39600000D03*
X62500000Y-39600000D03*
X57029989Y-49800000D03*
X70410330Y-48315129D03*
X71708903Y-51091097D03*
X66700000Y-53700000D03*
X71300000Y-44200000D03*
X69100000Y-41900000D03*
X66900000Y-41900000D03*
X64700000Y-41900000D03*
X69100000Y-44200000D03*
X66900000Y-44200000D03*
X64700000Y-44200000D03*
X73400000Y-72700000D03*
X74300000Y-73600000D03*
X58400000Y-72700000D03*
X57500000Y-73600000D03*
X59300000Y-73600000D03*
X59300000Y-71800000D03*
X57500000Y-71800000D03*
G04 #@! TO.N,/MCU_nIRQ_TO_RADIO*
X42600000Y-58900000D03*
X47000000Y-60000000D03*
X66600000Y-58900000D03*
X71000000Y-60000000D03*
G04 #@! TO.N,/MCU_MISO*
X44835196Y-57800550D03*
X44849896Y-56347128D03*
X68835196Y-57800550D03*
X68849896Y-56347128D03*
G04 #@! TO.N,/MCU_MOSI*
X43722048Y-56199990D03*
X44100000Y-58599999D03*
X68100000Y-58599999D03*
X67722048Y-56199990D03*
G04 #@! TO.N,/GPS_~RESET*
X43469762Y-48952169D03*
X39455905Y-50803535D03*
X67469762Y-48952169D03*
X63455905Y-50803535D03*
G04 #@! TO.N,3v3_switched*
X42450000Y-49400000D03*
X36810000Y-47700000D03*
X60810000Y-47700000D03*
X66450000Y-49400000D03*
G04 #@! TD*
D36*
G04 #@! TO.N,3v3*
X35350001Y-55539999D02*
X35350001Y-56149999D01*
X36300000Y-55100000D02*
X35790000Y-55100000D01*
X35790000Y-55100000D02*
X35350001Y-55539999D01*
X35350001Y-56149999D02*
X35150001Y-56349999D01*
X33200000Y-56349999D02*
X33179998Y-56370001D01*
X35150001Y-56349999D02*
X33200000Y-56349999D01*
D37*
X35410001Y-60965197D02*
X35410001Y-59480551D01*
D36*
X35410001Y-59480551D02*
X35540552Y-59350000D01*
X35540552Y-59350000D02*
X35540552Y-58874595D01*
X35540552Y-58874595D02*
X35715147Y-58700000D01*
X36400000Y-58100000D02*
X36400000Y-58700000D01*
X35715147Y-58700000D02*
X36400000Y-58700000D01*
X38103033Y-58700000D02*
X38155905Y-58647128D01*
X37500000Y-58700000D02*
X38103033Y-58700000D01*
X36400000Y-58700000D02*
X37300000Y-58700000D01*
X37300000Y-58700000D02*
X37500000Y-58700000D01*
D37*
X35410001Y-60965197D02*
X35410001Y-61189999D01*
X35410001Y-61189999D02*
X35400000Y-61200000D01*
D36*
X40155905Y-59694095D02*
X40000000Y-59850000D01*
X40155905Y-58647128D02*
X40155905Y-59694095D01*
X38800000Y-60540000D02*
X38800000Y-61050000D01*
X39490000Y-59850000D02*
X38800000Y-60540000D01*
X40000000Y-59850000D02*
X39490000Y-59850000D01*
D37*
X38431998Y-61050000D02*
X38800000Y-61050000D01*
X36320000Y-58700000D02*
X36400000Y-58700000D01*
X36300000Y-58720000D02*
X36320000Y-58700000D01*
X36300000Y-59350000D02*
X36300000Y-58720000D01*
D36*
X41655905Y-53947128D02*
X41655905Y-53447128D01*
X41750000Y-51500000D02*
X41750000Y-52700000D01*
X41750000Y-53353033D02*
X41750000Y-52700000D01*
X41655905Y-53447128D02*
X41750000Y-53353033D01*
D37*
X44055000Y-52695000D02*
X43900000Y-52850000D01*
X44850000Y-52695000D02*
X44055000Y-52695000D01*
X41750000Y-51500000D02*
X41750000Y-50150000D01*
D36*
X44000000Y-46650000D02*
X44000000Y-47385929D01*
X42685929Y-48700000D02*
X41800000Y-48700000D01*
X41750000Y-48750000D02*
X41750000Y-50150000D01*
X41800000Y-48700000D02*
X41750000Y-48750000D01*
D37*
X41750000Y-50150000D02*
X41750000Y-50210001D01*
X41750000Y-50210001D02*
X41839999Y-50300000D01*
D36*
X44600000Y-47890000D02*
X44690000Y-47800000D01*
X44600000Y-48400000D02*
X44600000Y-47890000D01*
X45100000Y-47750000D02*
X45100000Y-46650000D01*
X45050000Y-47800000D02*
X45100000Y-47750000D01*
X44000000Y-47750000D02*
X44000000Y-46650000D01*
X44140000Y-47890000D02*
X44000000Y-47750000D01*
X44600000Y-47890000D02*
X44140000Y-47890000D01*
X43495929Y-47890000D02*
X44140000Y-47890000D01*
X42685929Y-48700000D02*
X43495929Y-47890000D01*
X43390000Y-52850000D02*
X43900000Y-52850000D01*
X43289999Y-52749999D02*
X43390000Y-52850000D01*
X43289999Y-50979997D02*
X43289999Y-52749999D01*
X42610002Y-50300000D02*
X43289999Y-50979997D01*
X41839999Y-50300000D02*
X42610002Y-50300000D01*
D37*
X38600000Y-48300000D02*
X38900000Y-48600000D01*
X37570000Y-48300000D02*
X38600000Y-48300000D01*
X37570000Y-49257128D02*
X37570000Y-48300000D01*
X36300000Y-46900000D02*
X36103893Y-47096107D01*
X37570000Y-46900000D02*
X36300000Y-46900000D01*
X37570000Y-48300000D02*
X37570000Y-46900000D01*
X32970062Y-47096107D02*
X32600000Y-47466170D01*
X31349971Y-48716200D02*
X31349971Y-61386479D01*
X32789999Y-56760000D02*
X33179998Y-56370001D01*
X32789999Y-60789999D02*
X32789999Y-56760000D01*
X33450001Y-61450001D02*
X32789999Y-60789999D01*
X35400000Y-61200000D02*
X35149999Y-61450001D01*
X35149999Y-61450001D02*
X33450001Y-61450001D01*
X35339990Y-62370020D02*
X35100000Y-62610010D01*
X37111978Y-62370020D02*
X35339990Y-62370020D01*
X37181998Y-62300000D02*
X37111978Y-62370020D01*
X37181998Y-62300000D02*
X38431998Y-61050000D01*
D36*
X35384999Y-63949999D02*
X35034998Y-64300000D01*
X36515003Y-63949999D02*
X35384999Y-63949999D01*
D37*
X35034998Y-64893002D02*
X34428000Y-65500000D01*
X35034998Y-64300000D02*
X35034998Y-64893002D01*
X34428000Y-65500000D02*
X33524802Y-65500000D01*
X31349971Y-64574773D02*
X32575198Y-65800000D01*
X31349971Y-61386479D02*
X31349971Y-64574773D01*
X32575198Y-65800000D02*
X33029999Y-65800000D01*
D36*
X33136002Y-65800000D02*
X33029999Y-65800000D01*
X33436002Y-65500000D02*
X33136002Y-65800000D01*
X33524802Y-65500000D02*
X33436002Y-65500000D01*
D37*
X37181998Y-63283004D02*
X37100000Y-63365002D01*
X37181998Y-62300000D02*
X37181998Y-63283004D01*
D36*
X37100000Y-63365002D02*
X36515003Y-63949999D01*
X33300000Y-47096107D02*
X33350000Y-47046107D01*
D37*
X33300000Y-47096107D02*
X32970062Y-47096107D01*
D36*
X37470000Y-46100000D02*
X37570000Y-46200000D01*
X36900000Y-46100000D02*
X37470000Y-46100000D01*
D37*
X37570000Y-46900000D02*
X37570000Y-46200000D01*
D36*
X33350000Y-47046107D02*
X33350000Y-46100000D01*
D37*
X36103893Y-47096107D02*
X33300000Y-47096107D01*
X32300000Y-45480000D02*
X32300000Y-47766170D01*
X32300000Y-44850000D02*
X32300000Y-45480000D01*
X32600000Y-47466170D02*
X32300000Y-47766170D01*
X32300000Y-47766170D02*
X31349971Y-48716200D01*
D36*
X36650000Y-44950000D02*
X36650000Y-44400000D01*
X37000000Y-45300000D02*
X36650000Y-44950000D01*
X36900000Y-46100000D02*
X37000000Y-46000000D01*
X37000000Y-46000000D02*
X37000000Y-45300000D01*
X45899458Y-47789999D02*
X45050000Y-47789999D01*
X44690000Y-47800000D02*
X45050000Y-47789999D01*
X45050000Y-47789999D02*
X45050000Y-47800000D01*
X46074329Y-47425671D02*
X46200000Y-47300000D01*
X46074329Y-47615128D02*
X46074329Y-47425671D01*
X45899458Y-47789999D02*
X46074329Y-47615128D01*
D37*
X44000000Y-46650000D02*
X44000000Y-45430000D01*
X44000000Y-45430000D02*
X44040001Y-45389999D01*
X44040001Y-45389999D02*
X48300000Y-45389999D01*
D38*
X49800000Y-39470000D02*
X49800000Y-40950000D01*
X48760001Y-45389999D02*
X49244990Y-44905010D01*
X48300000Y-45389999D02*
X48760001Y-45389999D01*
X49800000Y-42206519D02*
X49800000Y-40950000D01*
X49244990Y-42761529D02*
X49800000Y-42206519D01*
X49244990Y-44905010D02*
X49244990Y-42761529D01*
D37*
X62431998Y-61050000D02*
X62800000Y-61050000D01*
X60320000Y-58700000D02*
X60400000Y-58700000D01*
X60300000Y-58720000D02*
X60320000Y-58700000D01*
X60300000Y-59350000D02*
X60300000Y-58720000D01*
D36*
X65655905Y-53947128D02*
X65655905Y-53447128D01*
X65750000Y-51500000D02*
X65750000Y-52700000D01*
X65750000Y-53353033D02*
X65750000Y-52700000D01*
X65655905Y-53447128D02*
X65750000Y-53353033D01*
D37*
X68055000Y-52695000D02*
X67900000Y-52850000D01*
X68850000Y-52695000D02*
X68055000Y-52695000D01*
X65750000Y-51500000D02*
X65750000Y-50150000D01*
D36*
X68000000Y-46650000D02*
X68000000Y-47385929D01*
X69899458Y-47789999D02*
X70074329Y-47615128D01*
D37*
X68000000Y-46650000D02*
X68000000Y-45430000D01*
X68000000Y-45430000D02*
X68040001Y-45389999D01*
X68040001Y-45389999D02*
X72300000Y-45389999D01*
D38*
X73800000Y-39470000D02*
X73800000Y-40950000D01*
X72760001Y-45389999D02*
X73244990Y-44905010D01*
X72300000Y-45389999D02*
X72760001Y-45389999D01*
X73800000Y-42206519D02*
X73800000Y-40950000D01*
X73244990Y-42761529D02*
X73800000Y-42206519D01*
X73244990Y-44905010D02*
X73244990Y-42761529D01*
D37*
X60103893Y-47096107D02*
X57300000Y-47096107D01*
X56300000Y-45480000D02*
X56300000Y-47766170D01*
X56300000Y-44850000D02*
X56300000Y-45480000D01*
X56600000Y-47466170D02*
X56300000Y-47766170D01*
X56300000Y-47766170D02*
X55349971Y-48716200D01*
D36*
X60650000Y-44950000D02*
X60650000Y-44400000D01*
X61000000Y-45300000D02*
X60650000Y-44950000D01*
X60900000Y-46100000D02*
X61000000Y-46000000D01*
X61000000Y-46000000D02*
X61000000Y-45300000D01*
X69899458Y-47789999D02*
X69050000Y-47789999D01*
X68690000Y-47800000D02*
X69050000Y-47789999D01*
X69050000Y-47789999D02*
X69050000Y-47800000D01*
X70074329Y-47425671D02*
X70200000Y-47300000D01*
X70074329Y-47615128D02*
X70074329Y-47425671D01*
D37*
X56575198Y-65800000D02*
X57029999Y-65800000D01*
D36*
X57136002Y-65800000D02*
X57029999Y-65800000D01*
X57436002Y-65500000D02*
X57136002Y-65800000D01*
X57524802Y-65500000D02*
X57436002Y-65500000D01*
D37*
X61181998Y-63283004D02*
X61100000Y-63365002D01*
X61181998Y-62300000D02*
X61181998Y-63283004D01*
D36*
X61100000Y-63365002D02*
X60515003Y-63949999D01*
X57300000Y-47096107D02*
X57350000Y-47046107D01*
D37*
X57300000Y-47096107D02*
X56970062Y-47096107D01*
D36*
X61470000Y-46100000D02*
X61570000Y-46200000D01*
X60900000Y-46100000D02*
X61470000Y-46100000D01*
D37*
X61570000Y-46900000D02*
X61570000Y-46200000D01*
D36*
X57350000Y-47046107D02*
X57350000Y-46100000D01*
D37*
X59339990Y-62370020D02*
X59100000Y-62610010D01*
X61111978Y-62370020D02*
X59339990Y-62370020D01*
X61181998Y-62300000D02*
X61111978Y-62370020D01*
X61181998Y-62300000D02*
X62431998Y-61050000D01*
D36*
X59384999Y-63949999D02*
X59034998Y-64300000D01*
X60515003Y-63949999D02*
X59384999Y-63949999D01*
D37*
X59034998Y-64893002D02*
X58428000Y-65500000D01*
X59034998Y-64300000D02*
X59034998Y-64893002D01*
X58428000Y-65500000D02*
X57524802Y-65500000D01*
X55349971Y-64574773D02*
X56575198Y-65800000D01*
X55349971Y-61386479D02*
X55349971Y-64574773D01*
D36*
X59715147Y-58700000D02*
X60400000Y-58700000D01*
X62103033Y-58700000D02*
X62155905Y-58647128D01*
X61500000Y-58700000D02*
X62103033Y-58700000D01*
X60400000Y-58700000D02*
X61300000Y-58700000D01*
X61300000Y-58700000D02*
X61500000Y-58700000D01*
D37*
X59410001Y-60965197D02*
X59410001Y-61189999D01*
X59410001Y-61189999D02*
X59400000Y-61200000D01*
D36*
X64155905Y-59694095D02*
X64000000Y-59850000D01*
X64155905Y-58647128D02*
X64155905Y-59694095D01*
X62800000Y-60540000D02*
X62800000Y-61050000D01*
X63490000Y-59850000D02*
X62800000Y-60540000D01*
X64000000Y-59850000D02*
X63490000Y-59850000D01*
X60300000Y-55100000D02*
X59790000Y-55100000D01*
X59790000Y-55100000D02*
X59350001Y-55539999D01*
X59350001Y-56149999D02*
X59150001Y-56349999D01*
X57200000Y-56349999D02*
X57179998Y-56370001D01*
X59150001Y-56349999D02*
X57200000Y-56349999D01*
D37*
X59410001Y-60965197D02*
X59410001Y-59480551D01*
D36*
X59410001Y-59480551D02*
X59540552Y-59350000D01*
X59540552Y-59350000D02*
X59540552Y-58874595D01*
X59540552Y-58874595D02*
X59715147Y-58700000D01*
X60400000Y-58100000D02*
X60400000Y-58700000D01*
X59350001Y-55539999D02*
X59350001Y-56149999D01*
X67495929Y-47890000D02*
X68140000Y-47890000D01*
X66685929Y-48700000D02*
X67495929Y-47890000D01*
X67390000Y-52850000D02*
X67900000Y-52850000D01*
X67289999Y-52749999D02*
X67390000Y-52850000D01*
X67289999Y-50979997D02*
X67289999Y-52749999D01*
X66610002Y-50300000D02*
X67289999Y-50979997D01*
X65839999Y-50300000D02*
X66610002Y-50300000D01*
D37*
X62600000Y-48300000D02*
X62900000Y-48600000D01*
X61570000Y-48300000D02*
X62600000Y-48300000D01*
X61570000Y-49257128D02*
X61570000Y-48300000D01*
X60300000Y-46900000D02*
X60103893Y-47096107D01*
X61570000Y-46900000D02*
X60300000Y-46900000D01*
X61570000Y-48300000D02*
X61570000Y-46900000D01*
X56970062Y-47096107D02*
X56600000Y-47466170D01*
X55349971Y-48716200D02*
X55349971Y-61386479D01*
X56789999Y-56760000D02*
X57179998Y-56370001D01*
X56789999Y-60789999D02*
X56789999Y-56760000D01*
X57450001Y-61450001D02*
X56789999Y-60789999D01*
X59400000Y-61200000D02*
X59149999Y-61450001D01*
X59149999Y-61450001D02*
X57450001Y-61450001D01*
D36*
X66685929Y-48700000D02*
X65800000Y-48700000D01*
X65750000Y-48750000D02*
X65750000Y-50150000D01*
X65800000Y-48700000D02*
X65750000Y-48750000D01*
D37*
X65750000Y-50150000D02*
X65750000Y-50210001D01*
X65750000Y-50210001D02*
X65839999Y-50300000D01*
D36*
X68600000Y-47890000D02*
X68690000Y-47800000D01*
X68600000Y-48400000D02*
X68600000Y-47890000D01*
X69100000Y-47750000D02*
X69100000Y-46650000D01*
X69050000Y-47800000D02*
X69100000Y-47750000D01*
X68000000Y-47750000D02*
X68000000Y-46650000D01*
X68140000Y-47890000D02*
X68000000Y-47750000D01*
X68600000Y-47890000D02*
X68140000Y-47890000D01*
G04 #@! TO.N,/SWDIO*
X38655905Y-51613033D02*
X37570000Y-50527128D01*
X38655905Y-53947128D02*
X38655905Y-51613033D01*
X62655905Y-51613033D02*
X61570000Y-50527128D01*
X62655905Y-53947128D02*
X62655905Y-51613033D01*
G04 #@! TO.N,/NRST*
X32329989Y-60980541D02*
X32329989Y-49122137D01*
X33259458Y-61910010D02*
X32329989Y-60980541D01*
X39655905Y-59147128D02*
X39503033Y-59300000D01*
X39655905Y-58647128D02*
X39655905Y-59147128D01*
X39503033Y-59300000D02*
X38600000Y-59300000D01*
X38450000Y-59450000D02*
X38450000Y-59800000D01*
X38600000Y-59300000D02*
X38450000Y-59450000D01*
X36849990Y-61910010D02*
X33259458Y-61910010D01*
X38450000Y-60310000D02*
X36849990Y-61910010D01*
X38450000Y-59800000D02*
X38450000Y-60310000D01*
X33375999Y-48076127D02*
X32329989Y-49122137D01*
X35118999Y-48076127D02*
X33375999Y-48076127D01*
X36300000Y-49257128D02*
X35118999Y-48076127D01*
X57259458Y-61910010D02*
X56329989Y-60980541D01*
X63655905Y-59147128D02*
X63503033Y-59300000D01*
X63655905Y-58647128D02*
X63655905Y-59147128D01*
X63503033Y-59300000D02*
X62600000Y-59300000D01*
X62450000Y-59450000D02*
X62450000Y-59800000D01*
X62600000Y-59300000D02*
X62450000Y-59450000D01*
X60849990Y-61910010D02*
X57259458Y-61910010D01*
X62450000Y-60310000D02*
X60849990Y-61910010D01*
X62450000Y-59800000D02*
X62450000Y-60310000D01*
X57375999Y-48076127D02*
X56329989Y-49122137D01*
X59118999Y-48076127D02*
X57375999Y-48076127D01*
X60300000Y-49257128D02*
X59118999Y-48076127D01*
X56329989Y-60980541D02*
X56329989Y-49122137D01*
G04 #@! TO.N,/SWCLK*
X38155905Y-53947128D02*
X38155905Y-52383033D01*
X38155905Y-52383033D02*
X36300000Y-50527128D01*
X62155905Y-53947128D02*
X62155905Y-52383033D01*
X62155905Y-52383033D02*
X60300000Y-50527128D01*
G04 #@! TO.N,GND*
X39055905Y-57547128D02*
X40305905Y-56297128D01*
X37955905Y-57547128D02*
X39055905Y-57547128D01*
X45050000Y-61950000D02*
X44025002Y-60925002D01*
X45050000Y-61950000D02*
X46074998Y-62974998D01*
X45050000Y-61950000D02*
X44025002Y-62974998D01*
X43050000Y-61950000D02*
X45050000Y-61950000D01*
X44550000Y-62450000D02*
X45050000Y-61950000D01*
X44550000Y-63950000D02*
X44550000Y-62450000D01*
X45050000Y-63950000D02*
X45050000Y-61950000D01*
X37955905Y-57547128D02*
X37555905Y-57547128D01*
X43050000Y-64050000D02*
X43000000Y-64000000D01*
X43050000Y-64500000D02*
X43050000Y-64050000D01*
X43050000Y-65300000D02*
X43050000Y-64600000D01*
X43050000Y-64600000D02*
X43050000Y-64500000D01*
X33900000Y-64450000D02*
X33225000Y-64450000D01*
X32910000Y-64100000D02*
X32400000Y-64100000D01*
X33000000Y-64190000D02*
X32910000Y-64100000D01*
X33000000Y-64225000D02*
X33000000Y-64190000D01*
D37*
X33100000Y-64800000D02*
X32900000Y-65000000D01*
X33100000Y-64325000D02*
X33100000Y-64800000D01*
D36*
X33100000Y-64325000D02*
X33000000Y-64225000D01*
X33225000Y-64450000D02*
X33100000Y-64325000D01*
X38655905Y-58647128D02*
X38655905Y-57547128D01*
X43000000Y-64550000D02*
X43050000Y-64600000D01*
X42700000Y-64550000D02*
X43000000Y-64550000D01*
X42350000Y-64900000D02*
X41750000Y-64900000D01*
X42700000Y-64550000D02*
X42350000Y-64900000D01*
D37*
X49500000Y-65650000D02*
X49450000Y-65600000D01*
X49450000Y-65600000D02*
X50400000Y-65600000D01*
D36*
X49450000Y-64400000D02*
X50400000Y-64400000D01*
X49450000Y-63200000D02*
X50400000Y-63200000D01*
X49450000Y-62000000D02*
X50400000Y-62000000D01*
D37*
X49500000Y-66100000D02*
X49500000Y-65650000D01*
X49800000Y-67000000D02*
X49800000Y-66400000D01*
X49800000Y-66400000D02*
X49500000Y-66100000D01*
X40700000Y-72180000D02*
X41520000Y-73000000D01*
X40700000Y-71550000D02*
X40700000Y-72180000D01*
X41520000Y-73000000D02*
X41900000Y-73000000D01*
X42150000Y-71200000D02*
X42150000Y-72750000D01*
D36*
X42150000Y-67400000D02*
X43100000Y-67400000D01*
D37*
X42150000Y-72750000D02*
X41900000Y-73000000D01*
X46050000Y-69650000D02*
X46000000Y-69600000D01*
X39400000Y-70100000D02*
X39700000Y-70400000D01*
X33400000Y-71700000D02*
X34400000Y-72700000D01*
X46050000Y-70500000D02*
X46050000Y-69650000D01*
X33400000Y-70200000D02*
X33400000Y-71700000D01*
X38750000Y-70100000D02*
X39400000Y-70100000D01*
D36*
X38800000Y-61950000D02*
X39899989Y-61950000D01*
X39899989Y-61950000D02*
X39949989Y-62000000D01*
X40000000Y-61949989D02*
X39949989Y-62000000D01*
X40000000Y-60750000D02*
X40000000Y-61949989D01*
D37*
X36300000Y-60250000D02*
X36750000Y-60250000D01*
X36750000Y-60250000D02*
X37135025Y-60635025D01*
X37550000Y-60220050D02*
X37135025Y-60635025D01*
X37550000Y-59800000D02*
X37550000Y-60220050D01*
D36*
X33300000Y-52000000D02*
X33300000Y-52700000D01*
X32959999Y-51659999D02*
X33300000Y-52000000D01*
X32959999Y-50524127D02*
X32959999Y-51659999D01*
X34610999Y-49676129D02*
X33807997Y-49676129D01*
X35030000Y-49257128D02*
X34610999Y-49676129D01*
X33329989Y-50100000D02*
X33029989Y-49800000D01*
X33384126Y-50100000D02*
X33329989Y-50100000D01*
X33384126Y-50100000D02*
X32959999Y-50524127D01*
X33807997Y-49676129D02*
X33384126Y-50100000D01*
X45500000Y-48400000D02*
X46325459Y-48400000D01*
X46325459Y-48400000D02*
X46410330Y-48315129D01*
X47700000Y-50300000D02*
X47700000Y-51082194D01*
X47700000Y-51082194D02*
X47708903Y-51091097D01*
X42650000Y-52700000D02*
X42650000Y-53650000D01*
X42650000Y-53650000D02*
X42700000Y-53700000D01*
X42650000Y-52700000D02*
X42650000Y-51500000D01*
X38350000Y-64400000D02*
X38350000Y-65600000D01*
X37500000Y-66540000D02*
X37640000Y-66400000D01*
X37500000Y-67050000D02*
X37500000Y-66540000D01*
X38350000Y-66110000D02*
X38350000Y-65600000D01*
X37640000Y-66400000D02*
X38060000Y-66400000D01*
X36640000Y-66400000D02*
X37640000Y-66400000D01*
X36550000Y-66310000D02*
X36640000Y-66400000D01*
X36550000Y-65800000D02*
X36550000Y-66310000D01*
X39200000Y-66100000D02*
X38975001Y-66324999D01*
X39200000Y-66024998D02*
X39200000Y-66100000D01*
X38184999Y-66324999D02*
X38160000Y-66300000D01*
X38975001Y-66324999D02*
X38184999Y-66324999D01*
X38060000Y-66400000D02*
X38160000Y-66300000D01*
X38160000Y-66300000D02*
X38350000Y-66110000D01*
X49400000Y-72700000D02*
X50300000Y-73600000D01*
X49400000Y-72700000D02*
X48500000Y-73600000D01*
X49400000Y-72700000D02*
X48500000Y-71800000D01*
X49400000Y-72700000D02*
X50300000Y-71800000D01*
X34400000Y-72700000D02*
X33500000Y-73600000D01*
X34400000Y-72700000D02*
X35300000Y-73600000D01*
X34400000Y-72700000D02*
X35300000Y-71800000D01*
X34400000Y-72700000D02*
X33500000Y-71800000D01*
X33700000Y-66300000D02*
X32968594Y-66300000D01*
X32968594Y-66300000D02*
X32708594Y-66560000D01*
X36000000Y-46100000D02*
X35200000Y-46100000D01*
X35200000Y-46100000D02*
X34250000Y-46100000D01*
D37*
X35110000Y-37450000D02*
X35600000Y-36960000D01*
X33400000Y-37450000D02*
X35110000Y-37450000D01*
X33400000Y-39550000D02*
X32350000Y-39550000D01*
X32350000Y-39550000D02*
X32300000Y-39600000D01*
D36*
X35350000Y-43550000D02*
X35400000Y-43500000D01*
X35350000Y-44400000D02*
X35350000Y-43550000D01*
D37*
X47300000Y-41900000D02*
X47300000Y-39600000D01*
X47300000Y-37150000D02*
X47300000Y-39600000D01*
X47300000Y-41900000D02*
X47300000Y-44200000D01*
X47300000Y-41900000D02*
X45100000Y-41900000D01*
X42900000Y-41900000D02*
X40700000Y-41900000D01*
X45100000Y-41900000D02*
X45100000Y-44200000D01*
X42900000Y-44200000D02*
X40700000Y-44200000D01*
X38500000Y-46650000D02*
X38500000Y-44200000D01*
X38500000Y-44200000D02*
X38500000Y-41900000D01*
X42900000Y-39600000D02*
X40700000Y-39600000D01*
D38*
X36000000Y-43500000D02*
X38100000Y-43500000D01*
D36*
X73400000Y-72700000D02*
X74300000Y-73600000D01*
X73400000Y-72700000D02*
X72500000Y-73600000D01*
X73400000Y-72700000D02*
X72500000Y-71800000D01*
X73400000Y-72700000D02*
X74300000Y-71800000D01*
X69050000Y-61950000D02*
X70074998Y-62974998D01*
X57900000Y-64450000D02*
X57225000Y-64450000D01*
X56910000Y-64100000D02*
X56400000Y-64100000D01*
X57000000Y-64190000D02*
X56910000Y-64100000D01*
X57000000Y-64225000D02*
X57000000Y-64190000D01*
D37*
X57100000Y-64800000D02*
X56900000Y-65000000D01*
X57100000Y-64325000D02*
X57100000Y-64800000D01*
D36*
X57100000Y-64325000D02*
X57000000Y-64225000D01*
X57225000Y-64450000D02*
X57100000Y-64325000D01*
X62655905Y-58647128D02*
X62655905Y-57547128D01*
X67000000Y-64550000D02*
X67050000Y-64600000D01*
X66700000Y-64550000D02*
X67000000Y-64550000D01*
X66350000Y-64900000D02*
X65750000Y-64900000D01*
X69050000Y-61950000D02*
X68025002Y-62974998D01*
X67050000Y-61950000D02*
X69050000Y-61950000D01*
X68550000Y-62450000D02*
X69050000Y-61950000D01*
X63055905Y-57547128D02*
X64305905Y-56297128D01*
X61955905Y-57547128D02*
X63055905Y-57547128D01*
X69050000Y-61950000D02*
X68025002Y-60925002D01*
X68550000Y-63950000D02*
X68550000Y-62450000D01*
X69050000Y-63950000D02*
X69050000Y-61950000D01*
X61955905Y-57547128D02*
X61555905Y-57547128D01*
X67050000Y-64050000D02*
X67000000Y-64000000D01*
X67050000Y-64500000D02*
X67050000Y-64050000D01*
X67050000Y-65300000D02*
X67050000Y-64600000D01*
X67050000Y-64600000D02*
X67050000Y-64500000D01*
D37*
X64700000Y-71550000D02*
X64700000Y-72180000D01*
X65520000Y-73000000D02*
X65900000Y-73000000D01*
X66150000Y-71200000D02*
X66150000Y-72750000D01*
D36*
X66150000Y-67400000D02*
X67100000Y-67400000D01*
D37*
X66150000Y-72750000D02*
X65900000Y-73000000D01*
X70050000Y-69650000D02*
X70000000Y-69600000D01*
X63400000Y-70100000D02*
X63700000Y-70400000D01*
X57400000Y-71700000D02*
X58400000Y-72700000D01*
X70050000Y-70500000D02*
X70050000Y-69650000D01*
X57400000Y-70200000D02*
X57400000Y-71700000D01*
X62750000Y-70100000D02*
X63400000Y-70100000D01*
D36*
X58400000Y-72700000D02*
X57500000Y-71800000D01*
X57700000Y-66300000D02*
X56968594Y-66300000D01*
X56968594Y-66300000D02*
X56708594Y-66560000D01*
X60000000Y-46100000D02*
X59200000Y-46100000D01*
X59200000Y-46100000D02*
X58250000Y-46100000D01*
D37*
X59110000Y-37450000D02*
X59600000Y-36960000D01*
X57400000Y-37450000D02*
X59110000Y-37450000D01*
X57400000Y-39550000D02*
X56350000Y-39550000D01*
X56350000Y-39550000D02*
X56300000Y-39600000D01*
D36*
X66700000Y-64550000D02*
X66350000Y-64900000D01*
D37*
X73500000Y-65650000D02*
X73450000Y-65600000D01*
X73450000Y-65600000D02*
X74400000Y-65600000D01*
D36*
X73450000Y-64400000D02*
X74400000Y-64400000D01*
X73450000Y-63200000D02*
X74400000Y-63200000D01*
X73450000Y-62000000D02*
X74400000Y-62000000D01*
D37*
X73500000Y-66100000D02*
X73500000Y-65650000D01*
X73800000Y-67000000D02*
X73800000Y-66400000D01*
X73800000Y-66400000D02*
X73500000Y-66100000D01*
X64700000Y-72180000D02*
X65520000Y-73000000D01*
X71300000Y-41900000D02*
X71300000Y-39600000D01*
X71300000Y-37150000D02*
X71300000Y-39600000D01*
D36*
X59350000Y-43550000D02*
X59400000Y-43500000D01*
X59350000Y-44400000D02*
X59350000Y-43550000D01*
X66650000Y-53650000D02*
X66700000Y-53700000D01*
X66650000Y-52700000D02*
X66650000Y-51500000D01*
X62350000Y-64400000D02*
X62350000Y-65600000D01*
X61500000Y-66540000D02*
X61640000Y-66400000D01*
X61500000Y-67050000D02*
X61500000Y-66540000D01*
X62350000Y-66110000D02*
X62350000Y-65600000D01*
X61640000Y-66400000D02*
X62060000Y-66400000D01*
X60640000Y-66400000D02*
X61640000Y-66400000D01*
X60550000Y-66310000D02*
X60640000Y-66400000D01*
X60550000Y-65800000D02*
X60550000Y-66310000D01*
X63200000Y-66100000D02*
X62975001Y-66324999D01*
X63200000Y-66024998D02*
X63200000Y-66100000D01*
X62800000Y-61950000D02*
X63899989Y-61950000D01*
X63899989Y-61950000D02*
X63949989Y-62000000D01*
X64000000Y-61949989D02*
X63949989Y-62000000D01*
X64000000Y-60750000D02*
X64000000Y-61949989D01*
D37*
X60300000Y-60250000D02*
X60750000Y-60250000D01*
X60750000Y-60250000D02*
X61135025Y-60635025D01*
X61550000Y-60220050D02*
X61135025Y-60635025D01*
X61550000Y-59800000D02*
X61550000Y-60220050D01*
D36*
X57300000Y-52000000D02*
X57300000Y-52700000D01*
X56959999Y-51659999D02*
X57300000Y-52000000D01*
X56959999Y-50524127D02*
X56959999Y-51659999D01*
X58610999Y-49676129D02*
X57807997Y-49676129D01*
D37*
X62500000Y-46650000D02*
X62500000Y-44200000D01*
X62500000Y-44200000D02*
X62500000Y-41900000D01*
X66900000Y-39600000D02*
X64700000Y-39600000D01*
D38*
X60000000Y-43500000D02*
X62100000Y-43500000D01*
D36*
X59030000Y-49257128D02*
X58610999Y-49676129D01*
X57329989Y-50100000D02*
X57029989Y-49800000D01*
X57384126Y-50100000D02*
X57329989Y-50100000D01*
X57384126Y-50100000D02*
X56959999Y-50524127D01*
X57807997Y-49676129D02*
X57384126Y-50100000D01*
X69500000Y-48400000D02*
X70325459Y-48400000D01*
X70325459Y-48400000D02*
X70410330Y-48315129D01*
X71700000Y-50300000D02*
X71700000Y-51082194D01*
X71700000Y-51082194D02*
X71708903Y-51091097D01*
X66650000Y-52700000D02*
X66650000Y-53650000D01*
D37*
X71300000Y-41900000D02*
X71300000Y-44200000D01*
X71300000Y-41900000D02*
X69100000Y-41900000D01*
X66900000Y-41900000D02*
X64700000Y-41900000D01*
X69100000Y-41900000D02*
X69100000Y-44200000D01*
X66900000Y-44200000D02*
X64700000Y-44200000D01*
D36*
X62184999Y-66324999D02*
X62160000Y-66300000D01*
X62975001Y-66324999D02*
X62184999Y-66324999D01*
X62060000Y-66400000D02*
X62160000Y-66300000D01*
X62160000Y-66300000D02*
X62350000Y-66110000D01*
X58400000Y-72700000D02*
X57500000Y-73600000D01*
X58400000Y-72700000D02*
X59300000Y-73600000D01*
X58400000Y-72700000D02*
X59300000Y-71800000D01*
G04 #@! TO.N,/I2C_SCL*
X36400000Y-56510000D02*
X36400000Y-56547128D01*
X36400000Y-56000000D02*
X36400000Y-56510000D01*
X37555905Y-56547128D02*
X36400000Y-56547128D01*
X34465699Y-57600000D02*
X34100000Y-57600000D01*
X35518571Y-56547128D02*
X34465699Y-57600000D01*
X36400000Y-56547128D02*
X35518571Y-56547128D01*
X61555905Y-56547128D02*
X60400000Y-56547128D01*
X58465699Y-57600000D02*
X58100000Y-57600000D01*
X59518571Y-56547128D02*
X58465699Y-57600000D01*
X60400000Y-56547128D02*
X59518571Y-56547128D01*
X60400000Y-56510000D02*
X60400000Y-56547128D01*
X60400000Y-56000000D02*
X60400000Y-56510000D01*
G04 #@! TO.N,/I2C_SDA*
X35890000Y-57200000D02*
X35450001Y-57639999D01*
X36400000Y-57200000D02*
X35890000Y-57200000D01*
X36552872Y-57047128D02*
X36400000Y-57200000D01*
X37555905Y-57047128D02*
X36552872Y-57047128D01*
X35049999Y-59190001D02*
X34100000Y-60140000D01*
X35049999Y-58799449D02*
X35049999Y-59190001D01*
X35450001Y-58399447D02*
X35049999Y-58799449D01*
X35450001Y-57639999D02*
X35450001Y-58399447D01*
X59890000Y-57200000D02*
X59450001Y-57639999D01*
X60400000Y-57200000D02*
X59890000Y-57200000D01*
X60552872Y-57047128D02*
X60400000Y-57200000D01*
X61555905Y-57047128D02*
X60552872Y-57047128D01*
X59049999Y-59190001D02*
X58100000Y-60140000D01*
X59049999Y-58799449D02*
X59049999Y-59190001D01*
X59450001Y-58399447D02*
X59049999Y-58799449D01*
X59450001Y-57639999D02*
X59450001Y-58399447D01*
G04 #@! TO.N,/WSPR_ENABLE*
X35250000Y-55060000D02*
X34100000Y-55060000D01*
X37555905Y-56047128D02*
X37055905Y-56047128D01*
X37055905Y-56047128D02*
X36955904Y-55947127D01*
X36955904Y-55947127D02*
X36955904Y-54595902D01*
X36955904Y-54595902D02*
X36850001Y-54489999D01*
X36850001Y-54489999D02*
X35820001Y-54489999D01*
X35820001Y-54489999D02*
X35250000Y-55060000D01*
X59250000Y-55060000D02*
X58100000Y-55060000D01*
X61555905Y-56047128D02*
X61055905Y-56047128D01*
X61055905Y-56047128D02*
X60955904Y-55947127D01*
X60955904Y-55947127D02*
X60955904Y-54595902D01*
X60955904Y-54595902D02*
X60850001Y-54489999D01*
X60850001Y-54489999D02*
X59820001Y-54489999D01*
X59820001Y-54489999D02*
X59250000Y-55060000D01*
D37*
G04 #@! TO.N,Net-(C12-Pad1)*
X36130000Y-41800000D02*
X36300000Y-41800000D01*
X36030000Y-41700000D02*
X33900000Y-41700000D01*
X36130000Y-41800000D02*
X36030000Y-41700000D01*
D36*
X36650000Y-42150000D02*
X36300000Y-41800000D01*
X36650000Y-42600000D02*
X36650000Y-42150000D01*
X36300000Y-41850000D02*
X36300000Y-41800000D01*
X36000000Y-42150000D02*
X36300000Y-41850000D01*
X36000000Y-42600000D02*
X36000000Y-42150000D01*
D37*
X34450000Y-38350000D02*
X35600000Y-39500000D01*
X33400000Y-38350000D02*
X34450000Y-38350000D01*
X35600000Y-41270000D02*
X36030000Y-41700000D01*
X35600000Y-39500000D02*
X35600000Y-41270000D01*
X60130000Y-41800000D02*
X60300000Y-41800000D01*
X60030000Y-41700000D02*
X57900000Y-41700000D01*
X60130000Y-41800000D02*
X60030000Y-41700000D01*
D36*
X60650000Y-42150000D02*
X60300000Y-41800000D01*
X60650000Y-42600000D02*
X60650000Y-42150000D01*
X60300000Y-41850000D02*
X60300000Y-41800000D01*
X60000000Y-42150000D02*
X60300000Y-41850000D01*
X60000000Y-42600000D02*
X60000000Y-42150000D01*
D37*
X58450000Y-38350000D02*
X59600000Y-39500000D01*
X57400000Y-38350000D02*
X58450000Y-38350000D01*
X59600000Y-41270000D02*
X60030000Y-41700000D01*
X59600000Y-39500000D02*
X59600000Y-41270000D01*
D36*
G04 #@! TO.N,/SOLAR_CELL_VOLTAGE*
X46682872Y-55047128D02*
X46900000Y-54830000D01*
X46887128Y-55047128D02*
X46900000Y-55060000D01*
X42255905Y-55047128D02*
X46887128Y-55047128D01*
X70682872Y-55047128D02*
X70900000Y-54830000D01*
X70887128Y-55047128D02*
X70900000Y-55060000D01*
X66255905Y-55047128D02*
X70887128Y-55047128D01*
G04 #@! TO.N,/BATT_V*
X42755905Y-55547128D02*
X42803044Y-55499989D01*
X42255905Y-55547128D02*
X42755905Y-55547128D01*
X45038759Y-55499989D02*
X44300000Y-55499989D01*
X45549897Y-56011127D02*
X45038759Y-55499989D01*
X45549897Y-56249897D02*
X45549897Y-56011127D01*
X46900000Y-57600000D02*
X45549897Y-56249897D01*
X42803044Y-55499989D02*
X44300000Y-55499989D01*
X44300000Y-55499989D02*
X45029989Y-55499989D01*
X66755905Y-55547128D02*
X66803044Y-55499989D01*
X66255905Y-55547128D02*
X66755905Y-55547128D01*
X69038759Y-55499989D02*
X68300000Y-55499989D01*
X69549897Y-56011127D02*
X69038759Y-55499989D01*
X69549897Y-56249897D02*
X69549897Y-56011127D01*
X70900000Y-57600000D02*
X69549897Y-56249897D01*
X66803044Y-55499989D02*
X68300000Y-55499989D01*
X68300000Y-55499989D02*
X69029989Y-55499989D01*
G04 #@! TO.N,/FREQ_CTRL*
X41155905Y-59081430D02*
X40649989Y-59587345D01*
X40649989Y-59587345D02*
X40649989Y-65805690D01*
X41155905Y-58647128D02*
X41155905Y-59081430D01*
X44050000Y-66850000D02*
X44050000Y-66500000D01*
X44050000Y-66500000D02*
X43860011Y-66310011D01*
X41154310Y-66310011D02*
X40649989Y-65805690D01*
X43860011Y-66310011D02*
X41154310Y-66310011D01*
X65155905Y-59081430D02*
X64649989Y-59587345D01*
X64649989Y-59587345D02*
X64649989Y-65805690D01*
X65155905Y-58647128D02*
X65155905Y-59081430D01*
X68050000Y-66850000D02*
X68050000Y-66500000D01*
X68050000Y-66500000D02*
X67860011Y-66310011D01*
X65154310Y-66310011D02*
X64649989Y-65805690D01*
X67860011Y-66310011D02*
X65154310Y-66310011D01*
G04 #@! TO.N,/MCU_SHUTDOWN_TO_RADIO*
X44050000Y-65200000D02*
X43950000Y-65300000D01*
X44050000Y-63950000D02*
X44050000Y-65200000D01*
X43950000Y-65810000D02*
X43950000Y-65300000D01*
X41655905Y-59147128D02*
X41049999Y-59753034D01*
X41049999Y-59753034D02*
X41049999Y-65640001D01*
X41655905Y-58647128D02*
X41655905Y-59147128D01*
X41049999Y-65640001D02*
X41319999Y-65910001D01*
X43849999Y-65910001D02*
X43950000Y-65810000D01*
X41319999Y-65910001D02*
X43849999Y-65910001D01*
X68050000Y-65200000D02*
X67950000Y-65300000D01*
X68050000Y-63950000D02*
X68050000Y-65200000D01*
X67950000Y-65810000D02*
X67950000Y-65300000D01*
X65655905Y-59147128D02*
X65049999Y-59753034D01*
X65049999Y-59753034D02*
X65049999Y-65640001D01*
X65655905Y-58647128D02*
X65655905Y-59147128D01*
X65049999Y-65640001D02*
X65319999Y-65910001D01*
X67849999Y-65910001D02*
X67950000Y-65810000D01*
X65319999Y-65910001D02*
X67849999Y-65910001D01*
G04 #@! TO.N,/MCU_nIRQ_TO_RADIO*
X42255905Y-58047128D02*
X42255905Y-58555905D01*
X42255905Y-58555905D02*
X42600000Y-58900000D01*
X46050000Y-59950000D02*
X46950000Y-59950000D01*
X46950000Y-59950000D02*
X47000000Y-60000000D01*
X66255905Y-58047128D02*
X66255905Y-58555905D01*
X66255905Y-58555905D02*
X66600000Y-58900000D01*
X70050000Y-59950000D02*
X70950000Y-59950000D01*
X70950000Y-59950000D02*
X71000000Y-60000000D01*
G04 #@! TO.N,/SI4460_NSS*
X42755905Y-57547128D02*
X42255905Y-57547128D01*
X43700000Y-59950000D02*
X43300000Y-59550000D01*
X44050000Y-59950000D02*
X43700000Y-59950000D01*
X42855906Y-57647129D02*
X42755905Y-57547128D01*
X42855906Y-57939036D02*
X42855906Y-57647129D01*
X43300000Y-58383130D02*
X42855906Y-57939036D01*
X43300000Y-59550000D02*
X43300000Y-58383130D01*
X66855906Y-57939036D02*
X66855906Y-57647129D01*
X67300000Y-58383130D02*
X66855906Y-57939036D01*
X67300000Y-59550000D02*
X67300000Y-58383130D01*
X66755905Y-57547128D02*
X66255905Y-57547128D01*
X67700000Y-59950000D02*
X67300000Y-59550000D01*
X68050000Y-59950000D02*
X67700000Y-59950000D01*
X66855906Y-57647129D02*
X66755905Y-57547128D01*
G04 #@! TO.N,/MCU_SCK*
X45550000Y-57810001D02*
X45550000Y-59950000D01*
X45550000Y-57479352D02*
X45550000Y-57810001D01*
X45117776Y-57047128D02*
X45550000Y-57479352D01*
X42255905Y-57047128D02*
X42947128Y-57047128D01*
X44552616Y-57047128D02*
X45117776Y-57047128D01*
X44299744Y-57300000D02*
X44552616Y-57047128D01*
X43200000Y-57300000D02*
X44299744Y-57300000D01*
X42947128Y-57047128D02*
X43200000Y-57300000D01*
X69550000Y-57810001D02*
X69550000Y-59950000D01*
X69550000Y-57479352D02*
X69550000Y-57810001D01*
X69117776Y-57047128D02*
X69550000Y-57479352D01*
X66255905Y-57047128D02*
X66947128Y-57047128D01*
X68552616Y-57047128D02*
X69117776Y-57047128D01*
X68299744Y-57300000D02*
X68552616Y-57047128D01*
X67200000Y-57300000D02*
X68299744Y-57300000D01*
X66947128Y-57047128D02*
X67200000Y-57300000D01*
G04 #@! TO.N,/MCU_MISO*
X45050000Y-59950000D02*
X45050000Y-58015354D01*
X45050000Y-58015354D02*
X44835196Y-57800550D01*
X44849896Y-56347128D02*
X44952086Y-56647120D01*
X42900010Y-56547128D02*
X42255905Y-56547128D01*
X43047128Y-56547128D02*
X42900010Y-56547128D01*
X43399990Y-56899990D02*
X43047128Y-56547128D01*
X44134056Y-56899990D02*
X43399990Y-56899990D01*
X44849896Y-56347128D02*
X44686918Y-56347128D01*
X44686918Y-56347128D02*
X44134056Y-56899990D01*
X68849896Y-56347128D02*
X68952086Y-56647120D01*
X66900010Y-56547128D02*
X66255905Y-56547128D01*
X67047128Y-56547128D02*
X66900010Y-56547128D01*
X67399990Y-56899990D02*
X67047128Y-56547128D01*
X68134056Y-56899990D02*
X67399990Y-56899990D01*
X68849896Y-56347128D02*
X68686918Y-56347128D01*
X68686918Y-56347128D02*
X68134056Y-56899990D01*
X69050000Y-59950000D02*
X69050000Y-58015354D01*
X69050000Y-58015354D02*
X68835196Y-57800550D01*
G04 #@! TO.N,/MCU_MOSI*
X42255905Y-56047128D02*
X43569186Y-56047128D01*
X43569186Y-56047128D02*
X43722048Y-56199990D01*
X44550000Y-59049999D02*
X44100000Y-58599999D01*
X44550000Y-59950000D02*
X44550000Y-59049999D01*
X66255905Y-56047128D02*
X67569186Y-56047128D01*
X67569186Y-56047128D02*
X67722048Y-56199990D01*
X68550000Y-59049999D02*
X68100000Y-58599999D01*
X68550000Y-59950000D02*
X68550000Y-59049999D01*
G04 #@! TO.N,/GPS_~RESET*
X43527594Y-49010001D02*
X43469762Y-48952169D01*
X39455905Y-52403827D02*
X39455905Y-50803535D01*
X39655905Y-53947128D02*
X39655905Y-52603827D01*
X39655905Y-52603827D02*
X39455905Y-52403827D01*
X44035447Y-48952169D02*
X43469762Y-48952169D01*
X44098408Y-49015130D02*
X44035447Y-48952169D01*
X46746331Y-49015130D02*
X44098408Y-49015130D01*
X47300000Y-48461461D02*
X46746331Y-49015130D01*
X47300000Y-46650000D02*
X47300000Y-48461461D01*
X67527594Y-49010001D02*
X67469762Y-48952169D01*
X63455905Y-52403827D02*
X63455905Y-50803535D01*
X63655905Y-53947128D02*
X63655905Y-52603827D01*
X63655905Y-52603827D02*
X63455905Y-52403827D01*
X68035447Y-48952169D02*
X67469762Y-48952169D01*
X68098408Y-49015130D02*
X68035447Y-48952169D01*
X70746331Y-49015130D02*
X68098408Y-49015130D01*
X71300000Y-48461461D02*
X70746331Y-49015130D01*
X71300000Y-46650000D02*
X71300000Y-48461461D01*
G04 #@! TO.N,/TX_GPS_from_MCU*
X40655905Y-46694095D02*
X40700000Y-46650000D01*
X40655905Y-53947128D02*
X40655905Y-46694095D01*
X64655905Y-46694095D02*
X64700000Y-46650000D01*
X64655905Y-53947128D02*
X64655905Y-46694095D01*
G04 #@! TO.N,/RX_GPS_from_MCU*
X40155905Y-53447128D02*
X40155905Y-53947128D01*
X39600000Y-46650000D02*
X39600000Y-48100000D01*
X40155905Y-48655905D02*
X39600000Y-48100000D01*
X40155905Y-53947128D02*
X40155905Y-48655905D01*
X64155905Y-53447128D02*
X64155905Y-53947128D01*
X63600000Y-46650000D02*
X63600000Y-48100000D01*
X64155905Y-48655905D02*
X63600000Y-48100000D01*
X64155905Y-53947128D02*
X64155905Y-48655905D01*
G04 #@! TO.N,Net-(R6-Pad1)*
X36300000Y-53750000D02*
X37150000Y-53750000D01*
X37555905Y-54155905D02*
X37555905Y-54547128D01*
X37150000Y-53750000D02*
X37555905Y-54155905D01*
X60300000Y-53750000D02*
X61150000Y-53750000D01*
X61555905Y-54155905D02*
X61555905Y-54547128D01*
X61150000Y-53750000D02*
X61555905Y-54155905D01*
G04 #@! TO.N,Net-(C20-Pad1)*
X45550000Y-65200000D02*
X45350000Y-65400000D01*
X45550000Y-63950000D02*
X45550000Y-65200000D01*
X45350000Y-66100000D02*
X45350000Y-65400000D01*
X45450000Y-66200000D02*
X45350000Y-66100000D01*
X45950000Y-66800000D02*
X45950000Y-66290000D01*
X45860000Y-66200000D02*
X45450000Y-66200000D01*
X45950000Y-66290000D02*
X45860000Y-66200000D01*
X69550000Y-65200000D02*
X69350000Y-65400000D01*
X69550000Y-63950000D02*
X69550000Y-65200000D01*
X69350000Y-66100000D02*
X69350000Y-65400000D01*
X69450000Y-66200000D02*
X69350000Y-66100000D01*
X69950000Y-66800000D02*
X69950000Y-66290000D01*
X69860000Y-66200000D02*
X69450000Y-66200000D01*
X69950000Y-66290000D02*
X69860000Y-66200000D01*
D38*
G04 #@! TO.N,Net-(AE1-Pad2)*
X46200000Y-37150000D02*
X46200000Y-34700000D01*
X70200000Y-37150000D02*
X70200000Y-34700000D01*
D37*
G04 #@! TO.N,Net-(D1-Pad2)*
X35050000Y-52850000D02*
X34900000Y-52700000D01*
X36300000Y-52850000D02*
X35050000Y-52850000D01*
X59050000Y-52850000D02*
X58900000Y-52700000D01*
X60300000Y-52850000D02*
X59050000Y-52850000D01*
G04 #@! TO.N,Net-(C33-Pad2)*
X49900000Y-70300000D02*
X49900000Y-69700000D01*
X49100000Y-68880000D02*
X49520000Y-68880000D01*
X49030000Y-68950000D02*
X49100000Y-68880000D01*
X49030000Y-69330000D02*
X49030000Y-68950000D01*
X49900000Y-69700000D02*
X49700000Y-69500000D01*
X48400000Y-68950000D02*
X49030000Y-68950000D01*
X49200000Y-69500000D02*
X49030000Y-69330000D01*
X49700000Y-69500000D02*
X49200000Y-69500000D01*
X49520000Y-68880000D02*
X49800000Y-68600000D01*
X73900000Y-70300000D02*
X73900000Y-69700000D01*
X73100000Y-68880000D02*
X73520000Y-68880000D01*
X73030000Y-68950000D02*
X73100000Y-68880000D01*
X73030000Y-69330000D02*
X73030000Y-68950000D01*
X73900000Y-69700000D02*
X73700000Y-69500000D01*
X72400000Y-68950000D02*
X73030000Y-68950000D01*
X73200000Y-69500000D02*
X73030000Y-69330000D01*
X73700000Y-69500000D02*
X73200000Y-69500000D01*
X73520000Y-68880000D02*
X73800000Y-68600000D01*
G04 #@! TO.N,Net-(C32-Pad2)*
X48400000Y-68050000D02*
X47950000Y-68050000D01*
X47950000Y-68050000D02*
X47800000Y-68200000D01*
X48250000Y-67900000D02*
X48400000Y-68050000D01*
X48350000Y-68000000D02*
X48400000Y-68050000D01*
X48350000Y-66800000D02*
X48350000Y-68000000D01*
X47800000Y-68200000D02*
X47800000Y-68400000D01*
X47800000Y-68400000D02*
X47600000Y-68600000D01*
X47600000Y-68600000D02*
X47050000Y-68600000D01*
X72400000Y-68050000D02*
X71950000Y-68050000D01*
X71950000Y-68050000D02*
X71800000Y-68200000D01*
X72250000Y-67900000D02*
X72400000Y-68050000D01*
X72350000Y-68000000D02*
X72400000Y-68050000D01*
X72350000Y-66800000D02*
X72350000Y-68000000D01*
X71800000Y-68200000D02*
X71800000Y-68400000D01*
X71800000Y-68400000D02*
X71600000Y-68600000D01*
X71600000Y-68600000D02*
X71050000Y-68600000D01*
G04 #@! TO.N,Net-(C29-Pad2)*
X44800000Y-68500000D02*
X44800000Y-69050000D01*
X44800000Y-68500000D02*
X45400000Y-67900000D01*
X46220000Y-67900000D02*
X46150000Y-67970000D01*
X46150000Y-67970000D02*
X46150000Y-68600000D01*
X47920000Y-65600000D02*
X47735001Y-65784999D01*
X46220000Y-67900000D02*
X46880000Y-67900000D01*
X44800000Y-69050000D02*
X43600000Y-69050000D01*
X46880000Y-67900000D02*
X47450000Y-67330000D01*
X45400000Y-67900000D02*
X46220000Y-67900000D01*
X47735001Y-65784999D02*
X47735001Y-66064999D01*
X47450000Y-66350000D02*
X47450000Y-66800000D01*
X48550000Y-65600000D02*
X47920000Y-65600000D01*
X47735001Y-66064999D02*
X47450000Y-66350000D01*
X47450000Y-67330000D02*
X47450000Y-66800000D01*
X68800000Y-68500000D02*
X69400000Y-67900000D01*
X70220000Y-67900000D02*
X70150000Y-67970000D01*
X70150000Y-67970000D02*
X70150000Y-68600000D01*
X71920000Y-65600000D02*
X71735001Y-65784999D01*
X70220000Y-67900000D02*
X70880000Y-67900000D01*
X68800000Y-69050000D02*
X67600000Y-69050000D01*
X70880000Y-67900000D02*
X71450000Y-67330000D01*
X69400000Y-67900000D02*
X70220000Y-67900000D01*
X71735001Y-65784999D02*
X71735001Y-66064999D01*
X71450000Y-66350000D02*
X71450000Y-66800000D01*
X72550000Y-65600000D02*
X71920000Y-65600000D01*
X71735001Y-66064999D02*
X71450000Y-66350000D01*
X71450000Y-67330000D02*
X71450000Y-66800000D01*
X68800000Y-68500000D02*
X68800000Y-69050000D01*
G04 #@! TO.N,Net-(C30-Pad1)*
X33700000Y-67600000D02*
X33700000Y-67200000D01*
X34300000Y-68000000D02*
X34100000Y-67800000D01*
X34900000Y-68600000D02*
X34900000Y-69400000D01*
X33900000Y-67800000D02*
X33700000Y-67600000D01*
X34300000Y-68600000D02*
X34900000Y-68600000D01*
X34900000Y-67950000D02*
X34900000Y-68600000D01*
X34300000Y-68600000D02*
X34300000Y-68000000D01*
X33400000Y-68600000D02*
X34300000Y-68600000D01*
X34100000Y-67800000D02*
X33900000Y-67800000D01*
X58900000Y-68600000D02*
X58900000Y-69400000D01*
X57900000Y-67800000D02*
X57700000Y-67600000D01*
X58300000Y-68600000D02*
X58900000Y-68600000D01*
X58900000Y-67950000D02*
X58900000Y-68600000D01*
X58300000Y-68600000D02*
X58300000Y-68000000D01*
X57400000Y-68600000D02*
X58300000Y-68600000D01*
X58100000Y-67800000D02*
X57900000Y-67800000D01*
X57700000Y-67600000D02*
X57700000Y-67200000D01*
X58300000Y-68000000D02*
X58100000Y-67800000D01*
G04 #@! TO.N,Net-(C28-Pad1)*
X43000000Y-69950000D02*
X42400000Y-69950000D01*
X43050000Y-70570000D02*
X43000000Y-70520000D01*
X43000000Y-70520000D02*
X43000000Y-69950000D01*
X44800000Y-69950000D02*
X43600000Y-69950000D01*
X43600000Y-69950000D02*
X43000000Y-69950000D01*
X43050000Y-71200000D02*
X43050000Y-70570000D01*
X67000000Y-69950000D02*
X66400000Y-69950000D01*
X67050000Y-70570000D02*
X67000000Y-70520000D01*
X67000000Y-70520000D02*
X67000000Y-69950000D01*
X68800000Y-69950000D02*
X67600000Y-69950000D01*
X67600000Y-69950000D02*
X67000000Y-69950000D01*
X67050000Y-71200000D02*
X67050000Y-70570000D01*
G04 #@! TO.N,Net-(C27-Pad1)*
X35600000Y-67050000D02*
X34900000Y-67050000D01*
X36300000Y-67050000D02*
X35600000Y-67050000D01*
X35650000Y-65800000D02*
X35650000Y-67000000D01*
X35650000Y-67000000D02*
X35600000Y-67050000D01*
X59600000Y-67050000D02*
X58900000Y-67050000D01*
X60300000Y-67050000D02*
X59600000Y-67050000D01*
X59650000Y-65800000D02*
X59650000Y-67000000D01*
X59650000Y-67000000D02*
X59600000Y-67050000D01*
G04 #@! TO.N,Net-(C26-Pad1)*
X41600000Y-69400000D02*
X41150000Y-69400000D01*
X40700000Y-70200000D02*
X40700000Y-70650000D01*
X41150000Y-69750000D02*
X40700000Y-70200000D01*
X41150000Y-69400000D02*
X41150000Y-69750000D01*
X42400000Y-69050000D02*
X41950000Y-69050000D01*
X41950000Y-69050000D02*
X41600000Y-69400000D01*
X65600000Y-69400000D02*
X65150000Y-69400000D01*
X64700000Y-70200000D02*
X64700000Y-70650000D01*
X65150000Y-69750000D02*
X64700000Y-70200000D01*
X65150000Y-69400000D02*
X65150000Y-69750000D01*
X66400000Y-69050000D02*
X65950000Y-69050000D01*
X65950000Y-69050000D02*
X65600000Y-69400000D01*
G04 #@! TO.N,Net-(C25-Pad1)*
X37620000Y-68700000D02*
X37500000Y-68580000D01*
X37500000Y-68580000D02*
X37500000Y-67950000D01*
X38900000Y-68700000D02*
X37620000Y-68700000D01*
X36300000Y-67950000D02*
X37500000Y-67950000D01*
X61620000Y-68700000D02*
X61500000Y-68580000D01*
X61500000Y-68580000D02*
X61500000Y-67950000D01*
X62900000Y-68700000D02*
X61620000Y-68700000D01*
X60300000Y-67950000D02*
X61500000Y-67950000D01*
G04 #@! TO.N,Net-(C23-Pad2)*
X40250000Y-68200000D02*
X40250000Y-69400000D01*
X64250000Y-68200000D02*
X64250000Y-69400000D01*
D36*
G04 #@! TO.N,/radio/RADIO_TX_144*
X42150000Y-67950000D02*
X41800000Y-67950000D01*
X41800000Y-67950000D02*
X41550000Y-68200000D01*
X41550000Y-68200000D02*
X41150000Y-68200000D01*
X65800000Y-67950000D02*
X65550000Y-68200000D01*
X65550000Y-68200000D02*
X65150000Y-68200000D01*
X66150000Y-67950000D02*
X65800000Y-67950000D01*
D37*
G04 #@! TO.N,Net-(C21-Pad2)*
X40250000Y-67000000D02*
X39000000Y-67000000D01*
X39000000Y-67000000D02*
X38900000Y-67100000D01*
X64250000Y-67000000D02*
X63000000Y-67000000D01*
X63000000Y-67000000D02*
X62900000Y-67100000D01*
D36*
G04 #@! TO.N,/radio/RADIO_TX_434*
X42150000Y-66850000D02*
X41300000Y-66850000D01*
X41300000Y-66850000D02*
X41150000Y-67000000D01*
X66150000Y-66850000D02*
X65300000Y-66850000D01*
X65300000Y-66850000D02*
X65150000Y-67000000D01*
G04 #@! TO.N,Net-(C20-Pad2)*
X45050000Y-66800000D02*
X44600000Y-66800000D01*
X44600000Y-66800000D02*
X44500000Y-66900000D01*
X44500000Y-66900000D02*
X44500000Y-67284302D01*
X44500000Y-67284302D02*
X44384302Y-67400000D01*
X44384302Y-67400000D02*
X44050000Y-67400000D01*
X69050000Y-66800000D02*
X68600000Y-66800000D01*
X68600000Y-66800000D02*
X68500000Y-66900000D01*
X68500000Y-66900000D02*
X68500000Y-67284302D01*
X68500000Y-67284302D02*
X68384302Y-67400000D01*
X68384302Y-67400000D02*
X68050000Y-67400000D01*
G04 #@! TO.N,Net-(C2-Pad1)*
X43900000Y-51260000D02*
X43900000Y-50750000D01*
X46750000Y-52695000D02*
X46750000Y-52000000D01*
X46210010Y-51460010D02*
X44460010Y-51460010D01*
X46750000Y-52000000D02*
X46210010Y-51460010D01*
X44460010Y-51460010D02*
X44400000Y-51400000D01*
X44400000Y-51400000D02*
X44040000Y-51400000D01*
X44040000Y-51400000D02*
X43900000Y-51260000D01*
X43900000Y-51440000D02*
X43900000Y-51950000D01*
X43940000Y-51400000D02*
X43900000Y-51440000D01*
X44040000Y-51400000D02*
X43940000Y-51400000D01*
X68040000Y-51400000D02*
X67940000Y-51400000D01*
X67900000Y-51260000D02*
X67900000Y-50750000D01*
X70750000Y-52695000D02*
X70750000Y-52000000D01*
X70210010Y-51460010D02*
X68460010Y-51460010D01*
X70750000Y-52000000D02*
X70210010Y-51460010D01*
X68460010Y-51460010D02*
X68400000Y-51400000D01*
X68400000Y-51400000D02*
X68040000Y-51400000D01*
X68040000Y-51400000D02*
X67900000Y-51260000D01*
X67900000Y-51440000D02*
X67900000Y-51950000D01*
X67940000Y-51400000D02*
X67900000Y-51440000D01*
D37*
G04 #@! TO.N,Net-(D2-Pad1)*
X37850000Y-72150000D02*
X38400000Y-72700000D01*
X37850000Y-69650000D02*
X37600000Y-69400000D01*
X37850000Y-70100000D02*
X37850000Y-72150000D01*
X37600000Y-69400000D02*
X36500000Y-69400000D01*
X37850000Y-70100000D02*
X37850000Y-69650000D01*
X61850000Y-72150000D02*
X62400000Y-72700000D01*
X61850000Y-69650000D02*
X61600000Y-69400000D01*
X61850000Y-70100000D02*
X61850000Y-72150000D01*
X61600000Y-69400000D02*
X60500000Y-69400000D01*
X61850000Y-70100000D02*
X61850000Y-69650000D01*
G04 #@! TO.N,Net-(D3-Pad1)*
X47500000Y-70300000D02*
X47500000Y-70500000D01*
X47500000Y-71000000D02*
X47400000Y-71100000D01*
X45400000Y-72700000D02*
X47220000Y-72700000D01*
X47220000Y-72700000D02*
X47400000Y-72520000D01*
X47500000Y-70500000D02*
X47500000Y-71000000D01*
X46950000Y-70500000D02*
X47500000Y-70500000D01*
X47400000Y-72520000D02*
X47400000Y-71100000D01*
X48300000Y-70300000D02*
X47500000Y-70300000D01*
X46000000Y-72100000D02*
X45400000Y-72700000D01*
X71500000Y-70500000D02*
X71500000Y-71000000D01*
X70950000Y-70500000D02*
X71500000Y-70500000D01*
X71400000Y-72520000D02*
X71400000Y-71100000D01*
X72300000Y-70300000D02*
X71500000Y-70300000D01*
X70000000Y-72100000D02*
X69400000Y-72700000D01*
X71500000Y-70300000D02*
X71500000Y-70500000D01*
X71500000Y-71000000D02*
X71400000Y-71100000D01*
X69400000Y-72700000D02*
X71220000Y-72700000D01*
X71220000Y-72700000D02*
X71400000Y-72520000D01*
D36*
G04 #@! TO.N,3v3_switched*
X32450000Y-63150000D02*
X32400000Y-63200000D01*
X33900000Y-63150000D02*
X33100000Y-63150000D01*
X33100000Y-63150000D02*
X32450000Y-63150000D01*
X44939999Y-67410001D02*
X46500001Y-67410001D01*
X46500001Y-67410001D02*
X46600000Y-67310002D01*
D37*
X48550000Y-63200000D02*
X47800000Y-63200000D01*
D36*
X46700000Y-65650000D02*
X46950000Y-65400000D01*
X46600000Y-66450000D02*
X46950000Y-66100000D01*
D37*
X48550000Y-64400000D02*
X47800000Y-64400000D01*
X47130000Y-64400000D02*
X46950000Y-64580000D01*
D36*
X47750000Y-62950000D02*
X47800000Y-62900000D01*
X46600000Y-67310002D02*
X46600000Y-66450000D01*
X47750000Y-61950000D02*
X47800000Y-62000000D01*
X44050000Y-67950000D02*
X44400000Y-67950000D01*
X44400000Y-67950000D02*
X44939999Y-67410001D01*
D37*
X47800000Y-62900000D02*
X47800000Y-63200000D01*
D36*
X46950000Y-66100000D02*
X46950000Y-65400000D01*
D37*
X47800000Y-64400000D02*
X47130000Y-64400000D01*
X47800000Y-63200000D02*
X47800000Y-64400000D01*
X47800000Y-62000000D02*
X47800000Y-62900000D01*
D36*
X47050000Y-61950000D02*
X47750000Y-61950000D01*
D37*
X46950000Y-64580000D02*
X46950000Y-65400000D01*
D36*
X47050000Y-62950000D02*
X47750000Y-62950000D01*
D37*
X48550000Y-62000000D02*
X47800000Y-62000000D01*
X44595000Y-49850000D02*
X44850000Y-50105000D01*
X43900000Y-49850000D02*
X44595000Y-49850000D01*
X45800000Y-50920000D02*
X45800000Y-50105000D01*
X45720000Y-51000000D02*
X45800000Y-50920000D01*
X44930000Y-51000000D02*
X45720000Y-51000000D01*
X44850000Y-50920000D02*
X44930000Y-51000000D01*
X44850000Y-50105000D02*
X44850000Y-50920000D01*
X46543002Y-51000000D02*
X45720000Y-51000000D01*
X48210001Y-52666999D02*
X46543002Y-51000000D01*
X47800000Y-61300000D02*
X48210001Y-60889999D01*
X47800000Y-62000000D02*
X47800000Y-61300000D01*
X42900000Y-49850000D02*
X42450000Y-49400000D01*
X43900000Y-49850000D02*
X42900000Y-49850000D01*
X33068915Y-63118915D02*
X33100000Y-63150000D01*
X36810000Y-47700000D02*
X36726117Y-47616117D01*
X36726117Y-47616117D02*
X33185457Y-47616117D01*
X33185457Y-47616117D02*
X31869980Y-48931594D01*
X31869980Y-48931594D02*
X31869979Y-61171083D01*
X31869979Y-61171083D02*
X33068915Y-62370019D01*
X33068915Y-62370019D02*
X33068915Y-63118915D01*
D36*
X34503986Y-63150000D02*
X33900000Y-63150000D01*
X34903975Y-63549989D02*
X34503986Y-63150000D01*
X36050011Y-63549989D02*
X34903975Y-63549989D01*
X36100000Y-63150000D02*
X36100000Y-63500000D01*
X36100000Y-63500000D02*
X36050011Y-63549989D01*
D38*
X48300000Y-60800000D02*
X48210001Y-60889999D01*
X48300000Y-52756998D02*
X48300000Y-60800000D01*
X48210001Y-52666999D02*
X48300000Y-52756998D01*
D37*
X66900000Y-49850000D02*
X66450000Y-49400000D01*
X67900000Y-49850000D02*
X66900000Y-49850000D01*
X57068915Y-63118915D02*
X57100000Y-63150000D01*
X60810000Y-47700000D02*
X60726117Y-47616117D01*
X60726117Y-47616117D02*
X57185457Y-47616117D01*
X57185457Y-47616117D02*
X55869980Y-48931594D01*
X55869980Y-48931594D02*
X55869979Y-61171083D01*
X55869979Y-61171083D02*
X57068915Y-62370019D01*
X57068915Y-62370019D02*
X57068915Y-63118915D01*
D36*
X58503986Y-63150000D02*
X57900000Y-63150000D01*
D37*
X70950000Y-64580000D02*
X70950000Y-65400000D01*
D36*
X71050000Y-62950000D02*
X71750000Y-62950000D01*
D37*
X72550000Y-62000000D02*
X71800000Y-62000000D01*
X68595000Y-49850000D02*
X68850000Y-50105000D01*
X67900000Y-49850000D02*
X68595000Y-49850000D01*
X69800000Y-50920000D02*
X69800000Y-50105000D01*
X69720000Y-51000000D02*
X69800000Y-50920000D01*
X68930000Y-51000000D02*
X69720000Y-51000000D01*
X68850000Y-50920000D02*
X68930000Y-51000000D01*
X68850000Y-50105000D02*
X68850000Y-50920000D01*
X70543002Y-51000000D02*
X69720000Y-51000000D01*
X72210001Y-52666999D02*
X70543002Y-51000000D01*
X71800000Y-61300000D02*
X72210001Y-60889999D01*
X71800000Y-62000000D02*
X71800000Y-61300000D01*
D36*
X56450000Y-63150000D02*
X56400000Y-63200000D01*
X57900000Y-63150000D02*
X57100000Y-63150000D01*
X57100000Y-63150000D02*
X56450000Y-63150000D01*
X68939999Y-67410001D02*
X70500001Y-67410001D01*
X70500001Y-67410001D02*
X70600000Y-67310002D01*
D37*
X72550000Y-63200000D02*
X71800000Y-63200000D01*
D36*
X70700000Y-65650000D02*
X70950000Y-65400000D01*
X70600000Y-66450000D02*
X70950000Y-66100000D01*
D37*
X72550000Y-64400000D02*
X71800000Y-64400000D01*
X71130000Y-64400000D02*
X70950000Y-64580000D01*
D36*
X71750000Y-62950000D02*
X71800000Y-62900000D01*
X70600000Y-67310002D02*
X70600000Y-66450000D01*
X71750000Y-61950000D02*
X71800000Y-62000000D01*
X68050000Y-67950000D02*
X68400000Y-67950000D01*
X68400000Y-67950000D02*
X68939999Y-67410001D01*
D37*
X71800000Y-62900000D02*
X71800000Y-63200000D01*
D36*
X70950000Y-66100000D02*
X70950000Y-65400000D01*
D37*
X71800000Y-64400000D02*
X71130000Y-64400000D01*
X71800000Y-63200000D02*
X71800000Y-64400000D01*
X71800000Y-62000000D02*
X71800000Y-62900000D01*
D36*
X71050000Y-61950000D02*
X71750000Y-61950000D01*
X58903975Y-63549989D02*
X58503986Y-63150000D01*
X60050011Y-63549989D02*
X58903975Y-63549989D01*
X60100000Y-63150000D02*
X60100000Y-63500000D01*
X60100000Y-63500000D02*
X60050011Y-63549989D01*
D38*
X72300000Y-60800000D02*
X72210001Y-60889999D01*
X72300000Y-52756998D02*
X72300000Y-60800000D01*
X72210001Y-52666999D02*
X72300000Y-52756998D01*
D36*
G04 #@! TO.N,1v8*
X39500000Y-63650000D02*
X39650000Y-63500000D01*
X37400000Y-64450000D02*
X37450000Y-64400000D01*
X36100000Y-64450000D02*
X37400000Y-64450000D01*
X37450000Y-64400000D02*
X37450000Y-65600000D01*
X37450000Y-63890000D02*
X37450000Y-64400000D01*
X37840000Y-63500000D02*
X37450000Y-63890000D01*
X39650000Y-63500000D02*
X37840000Y-63500000D01*
X63500000Y-63650000D02*
X63650000Y-63500000D01*
X61400000Y-64450000D02*
X61450000Y-64400000D01*
X60100000Y-64450000D02*
X61400000Y-64450000D01*
X61450000Y-64400000D02*
X61450000Y-65600000D01*
X61450000Y-63890000D02*
X61450000Y-64400000D01*
X61840000Y-63500000D02*
X61450000Y-63890000D01*
X63650000Y-63500000D02*
X61840000Y-63500000D01*
G04 #@! TO.N,Net-(C14-Pad1)*
X41800000Y-63450000D02*
X41750000Y-63500000D01*
X41800000Y-61950000D02*
X41800000Y-63450000D01*
X65800000Y-61950000D02*
X65800000Y-63450000D01*
X65800000Y-63450000D02*
X65750000Y-63500000D01*
G04 #@! TO.N,Net-(C14-Pad2)*
X42374999Y-61274999D02*
X42374999Y-61349999D01*
X42374999Y-61349999D02*
X42475000Y-61450000D01*
X41800000Y-61050000D02*
X42150000Y-61050000D01*
X42150000Y-61050000D02*
X42374999Y-61274999D01*
X42475000Y-61450000D02*
X43050000Y-61450000D01*
X66374999Y-61274999D02*
X66374999Y-61349999D01*
X66374999Y-61349999D02*
X66475000Y-61450000D01*
X65800000Y-61050000D02*
X66150000Y-61050000D01*
X66150000Y-61050000D02*
X66374999Y-61274999D01*
X66475000Y-61450000D02*
X67050000Y-61450000D01*
G04 #@! TO.N,Net-(IC1-Pad3)*
X32300000Y-43359998D02*
X32300000Y-43950000D01*
X35350000Y-42600000D02*
X33059998Y-42600000D01*
X33059998Y-42600000D02*
X32300000Y-43359998D01*
X32799999Y-42340001D02*
X33059998Y-42600000D01*
X32890000Y-40450000D02*
X33400000Y-40450000D01*
X32799999Y-40540001D02*
X32890000Y-40450000D01*
X32799999Y-42340001D02*
X32799999Y-40540001D01*
X56300000Y-43359998D02*
X56300000Y-43950000D01*
X59350000Y-42600000D02*
X57059998Y-42600000D01*
X57059998Y-42600000D02*
X56300000Y-43359998D01*
X56799999Y-42340001D02*
X57059998Y-42600000D01*
X56890000Y-40450000D02*
X57400000Y-40450000D01*
X56799999Y-40540001D02*
X56890000Y-40450000D01*
X56799999Y-42340001D02*
X56799999Y-40540001D01*
G04 #@! TO.N,Net-(IC1-Pad5)*
X36000000Y-44400000D02*
X36000000Y-44850000D01*
X36000000Y-44850000D02*
X35900000Y-44950000D01*
D37*
X35839999Y-45010001D02*
X35900000Y-44950000D01*
X34690001Y-45010001D02*
X35000000Y-45010001D01*
X33900000Y-44220000D02*
X34690001Y-45010001D01*
X33900000Y-43500000D02*
X33900000Y-44220000D01*
X35000000Y-45010001D02*
X35839999Y-45010001D01*
D36*
X60000000Y-44400000D02*
X60000000Y-44850000D01*
X60000000Y-44850000D02*
X59900000Y-44950000D01*
D37*
X59839999Y-45010001D02*
X59900000Y-44950000D01*
X58690001Y-45010001D02*
X59000000Y-45010001D01*
X57900000Y-44220000D02*
X58690001Y-45010001D01*
X57900000Y-43500000D02*
X57900000Y-44220000D01*
X59000000Y-45010001D02*
X59839999Y-45010001D01*
D36*
G04 #@! TO.N,Net-(R4-Pad1)*
X47700000Y-49400000D02*
X46900000Y-49400000D01*
X46750000Y-49550000D02*
X46750000Y-50105000D01*
X46900000Y-49400000D02*
X46750000Y-49550000D01*
X71700000Y-49400000D02*
X70900000Y-49400000D01*
X70750000Y-49550000D02*
X70750000Y-50105000D01*
X70900000Y-49400000D02*
X70750000Y-49550000D01*
G04 #@! TO.N,/RADIO_PWR_EN*
X42755905Y-54547128D02*
X42255905Y-54547128D01*
X44642872Y-54547128D02*
X42755905Y-54547128D01*
X45800000Y-53390000D02*
X44642872Y-54547128D01*
X45800000Y-52695000D02*
X45800000Y-53390000D01*
X66755905Y-54547128D02*
X66255905Y-54547128D01*
X68642872Y-54547128D02*
X66755905Y-54547128D01*
X69800000Y-53390000D02*
X68642872Y-54547128D01*
X69800000Y-52695000D02*
X69800000Y-53390000D01*
G04 #@! TO.N,/GPS_EXTINT*
X41155905Y-53947128D02*
X41155905Y-53265907D01*
X41155905Y-53265907D02*
X41139999Y-53250001D01*
X41139999Y-53250001D02*
X41139999Y-48520002D01*
X41139999Y-48520002D02*
X41500000Y-48160001D01*
X41500000Y-48160001D02*
X42489999Y-48160001D01*
X42900000Y-47750000D02*
X42900000Y-46650000D01*
X42489999Y-48160001D02*
X42900000Y-47750000D01*
X65155905Y-53947128D02*
X65155905Y-53265907D01*
X65155905Y-53265907D02*
X65139999Y-53250001D01*
X65139999Y-53250001D02*
X65139999Y-48520002D01*
X65139999Y-48520002D02*
X65500000Y-48160001D01*
X65500000Y-48160001D02*
X66489999Y-48160001D01*
X66900000Y-47750000D02*
X66900000Y-46650000D01*
X66489999Y-48160001D02*
X66900000Y-47750000D01*
G04 #@! TD*
D39*
G04 #@! TO.N,GND*
G36*
X45202560Y-38050000D02*
X45227000Y-38172869D01*
X45227000Y-38526250D01*
X45385750Y-38685000D01*
X45576310Y-38685000D01*
X45644811Y-38656626D01*
X45850000Y-38697440D01*
X46550000Y-38697440D01*
X46755189Y-38656626D01*
X46823690Y-38685000D01*
X47014250Y-38685000D01*
X47173000Y-38526250D01*
X47173000Y-38172869D01*
X47197440Y-38050000D01*
X47197440Y-37003000D01*
X47427000Y-37003000D01*
X47427000Y-37023000D01*
X47447000Y-37023000D01*
X47447000Y-37277000D01*
X47427000Y-37277000D01*
X47427000Y-38526250D01*
X47585750Y-38685000D01*
X47776310Y-38685000D01*
X48009699Y-38588327D01*
X48073000Y-38525026D01*
X48073000Y-44532814D01*
X47954690Y-44556347D01*
X47896844Y-44594999D01*
X44118292Y-44594999D01*
X44040001Y-44579426D01*
X43961710Y-44594999D01*
X43961705Y-44594999D01*
X43729808Y-44641126D01*
X43466839Y-44816837D01*
X43450816Y-44840817D01*
X43426839Y-44856838D01*
X43382489Y-44923212D01*
X43382487Y-44923214D01*
X43261168Y-45104781D01*
X43250000Y-45102560D01*
X42550000Y-45102560D01*
X42350000Y-45142342D01*
X42150000Y-45102560D01*
X41450000Y-45102560D01*
X41250000Y-45142342D01*
X41050000Y-45102560D01*
X40350000Y-45102560D01*
X40150000Y-45142342D01*
X39950000Y-45102560D01*
X39250000Y-45102560D01*
X39044811Y-45143374D01*
X38976310Y-45115000D01*
X38785750Y-45115000D01*
X38627000Y-45273750D01*
X38627000Y-45627131D01*
X38602560Y-45750000D01*
X38602560Y-46797000D01*
X38373000Y-46797000D01*
X38373000Y-46777000D01*
X38365000Y-46777000D01*
X38365000Y-46523000D01*
X38373000Y-46523000D01*
X38373000Y-45273750D01*
X38214250Y-45115000D01*
X38023690Y-45115000D01*
X37790301Y-45211673D01*
X37741531Y-45260444D01*
X37727885Y-45191843D01*
X37727000Y-45187394D01*
X37727000Y-38531068D01*
X37902235Y-38648157D01*
X38150000Y-38697440D01*
X38850000Y-38697440D01*
X39050000Y-38657658D01*
X39250000Y-38697440D01*
X39950000Y-38697440D01*
X40150000Y-38657658D01*
X40350000Y-38697440D01*
X41050000Y-38697440D01*
X41250000Y-38657658D01*
X41450000Y-38697440D01*
X42150000Y-38697440D01*
X42350000Y-38657658D01*
X42550000Y-38697440D01*
X43250000Y-38697440D01*
X43450000Y-38657658D01*
X43650000Y-38697440D01*
X44350000Y-38697440D01*
X44555189Y-38656626D01*
X44623690Y-38685000D01*
X44814250Y-38685000D01*
X44973000Y-38526250D01*
X44973000Y-38172869D01*
X44997440Y-38050000D01*
X44997440Y-37003000D01*
X45202560Y-37003000D01*
X45202560Y-38050000D01*
X45202560Y-38050000D01*
G37*
X45202560Y-38050000D02*
X45227000Y-38172869D01*
X45227000Y-38526250D01*
X45385750Y-38685000D01*
X45576310Y-38685000D01*
X45644811Y-38656626D01*
X45850000Y-38697440D01*
X46550000Y-38697440D01*
X46755189Y-38656626D01*
X46823690Y-38685000D01*
X47014250Y-38685000D01*
X47173000Y-38526250D01*
X47173000Y-38172869D01*
X47197440Y-38050000D01*
X47197440Y-37003000D01*
X47427000Y-37003000D01*
X47427000Y-37023000D01*
X47447000Y-37023000D01*
X47447000Y-37277000D01*
X47427000Y-37277000D01*
X47427000Y-38526250D01*
X47585750Y-38685000D01*
X47776310Y-38685000D01*
X48009699Y-38588327D01*
X48073000Y-38525026D01*
X48073000Y-44532814D01*
X47954690Y-44556347D01*
X47896844Y-44594999D01*
X44118292Y-44594999D01*
X44040001Y-44579426D01*
X43961710Y-44594999D01*
X43961705Y-44594999D01*
X43729808Y-44641126D01*
X43466839Y-44816837D01*
X43450816Y-44840817D01*
X43426839Y-44856838D01*
X43382489Y-44923212D01*
X43382487Y-44923214D01*
X43261168Y-45104781D01*
X43250000Y-45102560D01*
X42550000Y-45102560D01*
X42350000Y-45142342D01*
X42150000Y-45102560D01*
X41450000Y-45102560D01*
X41250000Y-45142342D01*
X41050000Y-45102560D01*
X40350000Y-45102560D01*
X40150000Y-45142342D01*
X39950000Y-45102560D01*
X39250000Y-45102560D01*
X39044811Y-45143374D01*
X38976310Y-45115000D01*
X38785750Y-45115000D01*
X38627000Y-45273750D01*
X38627000Y-45627131D01*
X38602560Y-45750000D01*
X38602560Y-46797000D01*
X38373000Y-46797000D01*
X38373000Y-46777000D01*
X38365000Y-46777000D01*
X38365000Y-46523000D01*
X38373000Y-46523000D01*
X38373000Y-45273750D01*
X38214250Y-45115000D01*
X38023690Y-45115000D01*
X37790301Y-45211673D01*
X37741531Y-45260444D01*
X37727885Y-45191843D01*
X37727000Y-45187394D01*
X37727000Y-38531068D01*
X37902235Y-38648157D01*
X38150000Y-38697440D01*
X38850000Y-38697440D01*
X39050000Y-38657658D01*
X39250000Y-38697440D01*
X39950000Y-38697440D01*
X40150000Y-38657658D01*
X40350000Y-38697440D01*
X41050000Y-38697440D01*
X41250000Y-38657658D01*
X41450000Y-38697440D01*
X42150000Y-38697440D01*
X42350000Y-38657658D01*
X42550000Y-38697440D01*
X43250000Y-38697440D01*
X43450000Y-38657658D01*
X43650000Y-38697440D01*
X44350000Y-38697440D01*
X44555189Y-38656626D01*
X44623690Y-38685000D01*
X44814250Y-38685000D01*
X44973000Y-38526250D01*
X44973000Y-38172869D01*
X44997440Y-38050000D01*
X44997440Y-37003000D01*
X45202560Y-37003000D01*
X45202560Y-38050000D01*
G36*
X69202560Y-38050000D02*
X69227000Y-38172869D01*
X69227000Y-38526250D01*
X69385750Y-38685000D01*
X69576310Y-38685000D01*
X69644811Y-38656626D01*
X69850000Y-38697440D01*
X70550000Y-38697440D01*
X70755189Y-38656626D01*
X70823690Y-38685000D01*
X71014250Y-38685000D01*
X71173000Y-38526250D01*
X71173000Y-38172869D01*
X71197440Y-38050000D01*
X71197440Y-37003000D01*
X71427000Y-37003000D01*
X71427000Y-37023000D01*
X71447000Y-37023000D01*
X71447000Y-37277000D01*
X71427000Y-37277000D01*
X71427000Y-38526250D01*
X71585750Y-38685000D01*
X71776310Y-38685000D01*
X72009699Y-38588327D01*
X72073000Y-38525026D01*
X72073000Y-44532814D01*
X71954690Y-44556347D01*
X71896844Y-44594999D01*
X68118292Y-44594999D01*
X68040001Y-44579426D01*
X67961710Y-44594999D01*
X67961705Y-44594999D01*
X67729808Y-44641126D01*
X67466839Y-44816837D01*
X67450816Y-44840817D01*
X67426839Y-44856838D01*
X67382489Y-44923212D01*
X67382487Y-44923214D01*
X67261168Y-45104781D01*
X67250000Y-45102560D01*
X66550000Y-45102560D01*
X66350000Y-45142342D01*
X66150000Y-45102560D01*
X65450000Y-45102560D01*
X65250000Y-45142342D01*
X65050000Y-45102560D01*
X64350000Y-45102560D01*
X64150000Y-45142342D01*
X63950000Y-45102560D01*
X63250000Y-45102560D01*
X63044811Y-45143374D01*
X62976310Y-45115000D01*
X62785750Y-45115000D01*
X62627000Y-45273750D01*
X62627000Y-45627131D01*
X62602560Y-45750000D01*
X62602560Y-46797000D01*
X62373000Y-46797000D01*
X62373000Y-46777000D01*
X62365000Y-46777000D01*
X62365000Y-46523000D01*
X62373000Y-46523000D01*
X62373000Y-45273750D01*
X62214250Y-45115000D01*
X62023690Y-45115000D01*
X61790301Y-45211673D01*
X61741531Y-45260444D01*
X61727885Y-45191843D01*
X61727000Y-45187394D01*
X61727000Y-38531068D01*
X61902235Y-38648157D01*
X62150000Y-38697440D01*
X62850000Y-38697440D01*
X63050000Y-38657658D01*
X63250000Y-38697440D01*
X63950000Y-38697440D01*
X64150000Y-38657658D01*
X64350000Y-38697440D01*
X65050000Y-38697440D01*
X65250000Y-38657658D01*
X65450000Y-38697440D01*
X66150000Y-38697440D01*
X66350000Y-38657658D01*
X66550000Y-38697440D01*
X67250000Y-38697440D01*
X67450000Y-38657658D01*
X67650000Y-38697440D01*
X68350000Y-38697440D01*
X68555189Y-38656626D01*
X68623690Y-38685000D01*
X68814250Y-38685000D01*
X68973000Y-38526250D01*
X68973000Y-38172869D01*
X68997440Y-38050000D01*
X68997440Y-37003000D01*
X69202560Y-37003000D01*
X69202560Y-38050000D01*
X69202560Y-38050000D01*
G37*
X69202560Y-38050000D02*
X69227000Y-38172869D01*
X69227000Y-38526250D01*
X69385750Y-38685000D01*
X69576310Y-38685000D01*
X69644811Y-38656626D01*
X69850000Y-38697440D01*
X70550000Y-38697440D01*
X70755189Y-38656626D01*
X70823690Y-38685000D01*
X71014250Y-38685000D01*
X71173000Y-38526250D01*
X71173000Y-38172869D01*
X71197440Y-38050000D01*
X71197440Y-37003000D01*
X71427000Y-37003000D01*
X71427000Y-37023000D01*
X71447000Y-37023000D01*
X71447000Y-37277000D01*
X71427000Y-37277000D01*
X71427000Y-38526250D01*
X71585750Y-38685000D01*
X71776310Y-38685000D01*
X72009699Y-38588327D01*
X72073000Y-38525026D01*
X72073000Y-44532814D01*
X71954690Y-44556347D01*
X71896844Y-44594999D01*
X68118292Y-44594999D01*
X68040001Y-44579426D01*
X67961710Y-44594999D01*
X67961705Y-44594999D01*
X67729808Y-44641126D01*
X67466839Y-44816837D01*
X67450816Y-44840817D01*
X67426839Y-44856838D01*
X67382489Y-44923212D01*
X67382487Y-44923214D01*
X67261168Y-45104781D01*
X67250000Y-45102560D01*
X66550000Y-45102560D01*
X66350000Y-45142342D01*
X66150000Y-45102560D01*
X65450000Y-45102560D01*
X65250000Y-45142342D01*
X65050000Y-45102560D01*
X64350000Y-45102560D01*
X64150000Y-45142342D01*
X63950000Y-45102560D01*
X63250000Y-45102560D01*
X63044811Y-45143374D01*
X62976310Y-45115000D01*
X62785750Y-45115000D01*
X62627000Y-45273750D01*
X62627000Y-45627131D01*
X62602560Y-45750000D01*
X62602560Y-46797000D01*
X62373000Y-46797000D01*
X62373000Y-46777000D01*
X62365000Y-46777000D01*
X62365000Y-46523000D01*
X62373000Y-46523000D01*
X62373000Y-45273750D01*
X62214250Y-45115000D01*
X62023690Y-45115000D01*
X61790301Y-45211673D01*
X61741531Y-45260444D01*
X61727885Y-45191843D01*
X61727000Y-45187394D01*
X61727000Y-38531068D01*
X61902235Y-38648157D01*
X62150000Y-38697440D01*
X62850000Y-38697440D01*
X63050000Y-38657658D01*
X63250000Y-38697440D01*
X63950000Y-38697440D01*
X64150000Y-38657658D01*
X64350000Y-38697440D01*
X65050000Y-38697440D01*
X65250000Y-38657658D01*
X65450000Y-38697440D01*
X66150000Y-38697440D01*
X66350000Y-38657658D01*
X66550000Y-38697440D01*
X67250000Y-38697440D01*
X67450000Y-38657658D01*
X67650000Y-38697440D01*
X68350000Y-38697440D01*
X68555189Y-38656626D01*
X68623690Y-38685000D01*
X68814250Y-38685000D01*
X68973000Y-38526250D01*
X68973000Y-38172869D01*
X68997440Y-38050000D01*
X68997440Y-37003000D01*
X69202560Y-37003000D01*
X69202560Y-38050000D01*
G04 #@! TD*
M02*
