%TF.GenerationSoftware,KiCad,Pcbnew,(5.0.0-rc3-dev)*%
%TF.CreationDate,2019-02-19T23:08:01+00:00*%
%TF.ProjectId,solar_breakout,736F6C61725F627265616B6F75742E6B,rev?*%
%TF.SameCoordinates,Original*%
%TF.FileFunction,Legend,Bot*%
%TF.FilePolarity,Positive*%
%FSLAX46Y46*%
G04 Gerber Fmt 4.6, Leading zero omitted, Abs format (unit mm)*
G04 Created by KiCad (PCBNEW (5.0.0-rc3-dev)) date 02/19/19 23:08:01*
%MOMM*%
%LPD*%
G01*
G04 APERTURE LIST*
%ADD10C,0.150000*%
%ADD11C,0.250000*%
%ADD12C,0.010000*%
%ADD13C,0.100000*%
G04 APERTURE END LIST*
D10*
X151512540Y-111391274D02*
X151322064Y-112057940D01*
X151131588Y-111581750D01*
X150941112Y-112057940D01*
X150750636Y-111391274D01*
X150464921Y-111391274D02*
X150274445Y-112057940D01*
X150083969Y-111581750D01*
X149893493Y-112057940D01*
X149703017Y-111391274D01*
X149417302Y-111391274D02*
X149226826Y-112057940D01*
X149036350Y-111581750D01*
X148845874Y-112057940D01*
X148655398Y-111391274D01*
X148274445Y-111962702D02*
X148226826Y-112010321D01*
X148274445Y-112057940D01*
X148322064Y-112010321D01*
X148274445Y-111962702D01*
X148274445Y-112057940D01*
X147369683Y-112010321D02*
X147464921Y-112057940D01*
X147655398Y-112057940D01*
X147750636Y-112010321D01*
X147798255Y-111962702D01*
X147845874Y-111867464D01*
X147845874Y-111581750D01*
X147798255Y-111486512D01*
X147750636Y-111438893D01*
X147655398Y-111391274D01*
X147464921Y-111391274D01*
X147369683Y-111438893D01*
X146512540Y-111391274D02*
X146512540Y-112057940D01*
X146941112Y-111391274D02*
X146941112Y-111915083D01*
X146893493Y-112010321D01*
X146798255Y-112057940D01*
X146655398Y-112057940D01*
X146560160Y-112010321D01*
X146512540Y-111962702D01*
X146083969Y-112010321D02*
X145988731Y-112057940D01*
X145798255Y-112057940D01*
X145703017Y-112010321D01*
X145655398Y-111915083D01*
X145655398Y-111867464D01*
X145703017Y-111772226D01*
X145798255Y-111724607D01*
X145941112Y-111724607D01*
X146036350Y-111676988D01*
X146083969Y-111581750D01*
X146083969Y-111534131D01*
X146036350Y-111438893D01*
X145941112Y-111391274D01*
X145798255Y-111391274D01*
X145703017Y-111438893D01*
X145369683Y-111391274D02*
X144988731Y-111391274D01*
X145226826Y-112057940D02*
X145226826Y-111200798D01*
X145179207Y-111105560D01*
X145083969Y-111057940D01*
X144988731Y-111057940D01*
X144655398Y-111962702D02*
X144607779Y-112010321D01*
X144655398Y-112057940D01*
X144703017Y-112010321D01*
X144655398Y-111962702D01*
X144655398Y-112057940D01*
X143750636Y-112010321D02*
X143845874Y-112057940D01*
X144036350Y-112057940D01*
X144131588Y-112010321D01*
X144179207Y-111962702D01*
X144226826Y-111867464D01*
X144226826Y-111581750D01*
X144179207Y-111486512D01*
X144131588Y-111438893D01*
X144036350Y-111391274D01*
X143845874Y-111391274D01*
X143750636Y-111438893D01*
X143179207Y-112057940D02*
X143274445Y-112010321D01*
X143322064Y-111962702D01*
X143369683Y-111867464D01*
X143369683Y-111581750D01*
X143322064Y-111486512D01*
X143274445Y-111438893D01*
X143179207Y-111391274D01*
X143036350Y-111391274D01*
X142941112Y-111438893D01*
X142893493Y-111486512D01*
X142845874Y-111581750D01*
X142845874Y-111867464D01*
X142893493Y-111962702D01*
X142941112Y-112010321D01*
X143036350Y-112057940D01*
X143179207Y-112057940D01*
X142417302Y-111962702D02*
X142369683Y-112010321D01*
X142417302Y-112057940D01*
X142464921Y-112010321D01*
X142417302Y-111962702D01*
X142417302Y-112057940D01*
X141512540Y-111391274D02*
X141512540Y-112057940D01*
X141941112Y-111391274D02*
X141941112Y-111915083D01*
X141893493Y-112010321D01*
X141798255Y-112057940D01*
X141655398Y-112057940D01*
X141560160Y-112010321D01*
X141512540Y-111962702D01*
X141036350Y-112057940D02*
X141036350Y-111057940D01*
X140941112Y-111676988D02*
X140655398Y-112057940D01*
X140655398Y-111391274D02*
X141036350Y-111772226D01*
X152203017Y-113660321D02*
X152298255Y-113707940D01*
X152488731Y-113707940D01*
X152583969Y-113660321D01*
X152631588Y-113612702D01*
X152679207Y-113517464D01*
X152679207Y-113231750D01*
X152631588Y-113136512D01*
X152583969Y-113088893D01*
X152488731Y-113041274D01*
X152298255Y-113041274D01*
X152203017Y-113088893D01*
X151345874Y-113041274D02*
X151345874Y-113707940D01*
X151774445Y-113041274D02*
X151774445Y-113565083D01*
X151726826Y-113660321D01*
X151631588Y-113707940D01*
X151488731Y-113707940D01*
X151393493Y-113660321D01*
X151345874Y-113612702D01*
X150917302Y-113660321D02*
X150822064Y-113707940D01*
X150631588Y-113707940D01*
X150536350Y-113660321D01*
X150488731Y-113565083D01*
X150488731Y-113517464D01*
X150536350Y-113422226D01*
X150631588Y-113374607D01*
X150774445Y-113374607D01*
X150869683Y-113326988D01*
X150917302Y-113231750D01*
X150917302Y-113184131D01*
X150869683Y-113088893D01*
X150774445Y-113041274D01*
X150631588Y-113041274D01*
X150536350Y-113088893D01*
X150060160Y-113041274D02*
X150060160Y-114041274D01*
X150060160Y-113088893D02*
X149964921Y-113041274D01*
X149774445Y-113041274D01*
X149679207Y-113088893D01*
X149631588Y-113136512D01*
X149583969Y-113231750D01*
X149583969Y-113517464D01*
X149631588Y-113612702D01*
X149679207Y-113660321D01*
X149774445Y-113707940D01*
X149964921Y-113707940D01*
X150060160Y-113660321D01*
X148726826Y-113707940D02*
X148726826Y-113184131D01*
X148774445Y-113088893D01*
X148869683Y-113041274D01*
X149060160Y-113041274D01*
X149155398Y-113088893D01*
X148726826Y-113660321D02*
X148822064Y-113707940D01*
X149060160Y-113707940D01*
X149155398Y-113660321D01*
X149203017Y-113565083D01*
X149203017Y-113469845D01*
X149155398Y-113374607D01*
X149060160Y-113326988D01*
X148822064Y-113326988D01*
X148726826Y-113279369D01*
X147822064Y-113660321D02*
X147917302Y-113707940D01*
X148107779Y-113707940D01*
X148203017Y-113660321D01*
X148250636Y-113612702D01*
X148298255Y-113517464D01*
X148298255Y-113231750D01*
X148250636Y-113136512D01*
X148203017Y-113088893D01*
X148107779Y-113041274D01*
X147917302Y-113041274D01*
X147822064Y-113088893D01*
X147012540Y-113660321D02*
X147107779Y-113707940D01*
X147298255Y-113707940D01*
X147393493Y-113660321D01*
X147441112Y-113565083D01*
X147441112Y-113184131D01*
X147393493Y-113088893D01*
X147298255Y-113041274D01*
X147107779Y-113041274D01*
X147012540Y-113088893D01*
X146964921Y-113184131D01*
X146964921Y-113279369D01*
X147441112Y-113374607D01*
X146679207Y-113041274D02*
X146298255Y-113041274D01*
X146536350Y-113707940D02*
X146536350Y-112850798D01*
X146488731Y-112755560D01*
X146393493Y-112707940D01*
X146298255Y-112707940D01*
X145822064Y-113707940D02*
X145917302Y-113660321D01*
X145964921Y-113565083D01*
X145964921Y-112707940D01*
X145441112Y-113707940D02*
X145441112Y-113041274D01*
X145441112Y-112707940D02*
X145488731Y-112755560D01*
X145441112Y-112803179D01*
X145393493Y-112755560D01*
X145441112Y-112707940D01*
X145441112Y-112803179D01*
X144536350Y-113041274D02*
X144536350Y-113850798D01*
X144583969Y-113946036D01*
X144631588Y-113993655D01*
X144726826Y-114041274D01*
X144869683Y-114041274D01*
X144964921Y-113993655D01*
X144536350Y-113660321D02*
X144631588Y-113707940D01*
X144822064Y-113707940D01*
X144917302Y-113660321D01*
X144964921Y-113612702D01*
X145012540Y-113517464D01*
X145012540Y-113231750D01*
X144964921Y-113136512D01*
X144917302Y-113088893D01*
X144822064Y-113041274D01*
X144631588Y-113041274D01*
X144536350Y-113088893D01*
X144060160Y-113707940D02*
X144060160Y-112707940D01*
X143631588Y-113707940D02*
X143631588Y-113184131D01*
X143679207Y-113088893D01*
X143774445Y-113041274D01*
X143917302Y-113041274D01*
X144012540Y-113088893D01*
X144060160Y-113136512D01*
X143298255Y-113041274D02*
X142917302Y-113041274D01*
X143155398Y-112707940D02*
X143155398Y-113565083D01*
X143107779Y-113660321D01*
X143012540Y-113707940D01*
X142917302Y-113707940D01*
X142583969Y-113612702D02*
X142536350Y-113660321D01*
X142583969Y-113707940D01*
X142631588Y-113660321D01*
X142583969Y-113612702D01*
X142583969Y-113707940D01*
X141679207Y-113660321D02*
X141774445Y-113707940D01*
X141964921Y-113707940D01*
X142060160Y-113660321D01*
X142107779Y-113612702D01*
X142155398Y-113517464D01*
X142155398Y-113231750D01*
X142107779Y-113136512D01*
X142060160Y-113088893D01*
X141964921Y-113041274D01*
X141774445Y-113041274D01*
X141679207Y-113088893D01*
X141107779Y-113707940D02*
X141203017Y-113660321D01*
X141250636Y-113612702D01*
X141298255Y-113517464D01*
X141298255Y-113231750D01*
X141250636Y-113136512D01*
X141203017Y-113088893D01*
X141107779Y-113041274D01*
X140964921Y-113041274D01*
X140869683Y-113088893D01*
X140822064Y-113136512D01*
X140774445Y-113231750D01*
X140774445Y-113517464D01*
X140822064Y-113612702D01*
X140869683Y-113660321D01*
X140964921Y-113707940D01*
X141107779Y-113707940D01*
X140345874Y-113707940D02*
X140345874Y-113041274D01*
X140345874Y-113136512D02*
X140298255Y-113088893D01*
X140203017Y-113041274D01*
X140060160Y-113041274D01*
X139964921Y-113088893D01*
X139917302Y-113184131D01*
X139917302Y-113707940D01*
X139917302Y-113184131D02*
X139869683Y-113088893D01*
X139774445Y-113041274D01*
X139631588Y-113041274D01*
X139536350Y-113088893D01*
X139488731Y-113184131D01*
X139488731Y-113707940D01*
X152223809Y-103814571D02*
X152557142Y-103814571D01*
X152557142Y-104338380D02*
X152557142Y-103338380D01*
X152080952Y-103338380D01*
X151319047Y-104290761D02*
X151414285Y-104338380D01*
X151604761Y-104338380D01*
X151700000Y-104290761D01*
X151747619Y-104195523D01*
X151747619Y-103814571D01*
X151700000Y-103719333D01*
X151604761Y-103671714D01*
X151414285Y-103671714D01*
X151319047Y-103719333D01*
X151271428Y-103814571D01*
X151271428Y-103909809D01*
X151747619Y-104005047D01*
X150842857Y-104338380D02*
X150842857Y-103338380D01*
X150842857Y-103719333D02*
X150747619Y-103671714D01*
X150557142Y-103671714D01*
X150461904Y-103719333D01*
X150414285Y-103766952D01*
X150366666Y-103862190D01*
X150366666Y-104147904D01*
X150414285Y-104243142D01*
X150461904Y-104290761D01*
X150557142Y-104338380D01*
X150747619Y-104338380D01*
X150842857Y-104290761D01*
X149223809Y-103433619D02*
X149176190Y-103386000D01*
X149080952Y-103338380D01*
X148842857Y-103338380D01*
X148747619Y-103386000D01*
X148700000Y-103433619D01*
X148652380Y-103528857D01*
X148652380Y-103624095D01*
X148700000Y-103766952D01*
X149271428Y-104338380D01*
X148652380Y-104338380D01*
X148033333Y-103338380D02*
X147938095Y-103338380D01*
X147842857Y-103386000D01*
X147795238Y-103433619D01*
X147747619Y-103528857D01*
X147700000Y-103719333D01*
X147700000Y-103957428D01*
X147747619Y-104147904D01*
X147795238Y-104243142D01*
X147842857Y-104290761D01*
X147938095Y-104338380D01*
X148033333Y-104338380D01*
X148128571Y-104290761D01*
X148176190Y-104243142D01*
X148223809Y-104147904D01*
X148271428Y-103957428D01*
X148271428Y-103719333D01*
X148223809Y-103528857D01*
X148176190Y-103433619D01*
X148128571Y-103386000D01*
X148033333Y-103338380D01*
X146747619Y-104338380D02*
X147319047Y-104338380D01*
X147033333Y-104338380D02*
X147033333Y-103338380D01*
X147128571Y-103481238D01*
X147223809Y-103576476D01*
X147319047Y-103624095D01*
X146271428Y-104338380D02*
X146080952Y-104338380D01*
X145985714Y-104290761D01*
X145938095Y-104243142D01*
X145842857Y-104100285D01*
X145795238Y-103909809D01*
X145795238Y-103528857D01*
X145842857Y-103433619D01*
X145890476Y-103386000D01*
X145985714Y-103338380D01*
X146176190Y-103338380D01*
X146271428Y-103386000D01*
X146319047Y-103433619D01*
X146366666Y-103528857D01*
X146366666Y-103766952D01*
X146319047Y-103862190D01*
X146271428Y-103909809D01*
X146176190Y-103957428D01*
X145985714Y-103957428D01*
X145890476Y-103909809D01*
X145842857Y-103862190D01*
X145795238Y-103766952D01*
X152621809Y-101433380D02*
X152621809Y-102147666D01*
X152669428Y-102290523D01*
X152764666Y-102385761D01*
X152907523Y-102433380D01*
X153002761Y-102433380D01*
X152002761Y-102433380D02*
X152098000Y-102385761D01*
X152145619Y-102338142D01*
X152193238Y-102242904D01*
X152193238Y-101957190D01*
X152145619Y-101861952D01*
X152098000Y-101814333D01*
X152002761Y-101766714D01*
X151859904Y-101766714D01*
X151764666Y-101814333D01*
X151717047Y-101861952D01*
X151669428Y-101957190D01*
X151669428Y-102242904D01*
X151717047Y-102338142D01*
X151764666Y-102385761D01*
X151859904Y-102433380D01*
X152002761Y-102433380D01*
X150859904Y-102385761D02*
X150955142Y-102433380D01*
X151145619Y-102433380D01*
X151240857Y-102385761D01*
X151288476Y-102290523D01*
X151288476Y-101909571D01*
X151240857Y-101814333D01*
X151145619Y-101766714D01*
X150955142Y-101766714D01*
X150859904Y-101814333D01*
X150812285Y-101909571D01*
X150812285Y-102004809D01*
X151288476Y-102100047D01*
X150240857Y-102433380D02*
X150336095Y-102385761D01*
X150383714Y-102290523D01*
X150383714Y-101433380D01*
X149098000Y-102433380D02*
X149098000Y-101433380D01*
X148764666Y-102147666D01*
X148431333Y-101433380D01*
X148431333Y-102433380D01*
X147526571Y-102433380D02*
X147526571Y-101909571D01*
X147574190Y-101814333D01*
X147669428Y-101766714D01*
X147859904Y-101766714D01*
X147955142Y-101814333D01*
X147526571Y-102385761D02*
X147621809Y-102433380D01*
X147859904Y-102433380D01*
X147955142Y-102385761D01*
X148002761Y-102290523D01*
X148002761Y-102195285D01*
X147955142Y-102100047D01*
X147859904Y-102052428D01*
X147621809Y-102052428D01*
X147526571Y-102004809D01*
X147145619Y-101766714D02*
X146907523Y-102433380D01*
X146669428Y-101766714D02*
X146907523Y-102433380D01*
X147002761Y-102671476D01*
X147050380Y-102719095D01*
X147145619Y-102766714D01*
X145907523Y-102385761D02*
X146002761Y-102433380D01*
X146193238Y-102433380D01*
X146288476Y-102385761D01*
X146336095Y-102290523D01*
X146336095Y-101909571D01*
X146288476Y-101814333D01*
X146193238Y-101766714D01*
X146002761Y-101766714D01*
X145907523Y-101814333D01*
X145859904Y-101909571D01*
X145859904Y-102004809D01*
X146336095Y-102100047D01*
X145431333Y-102433380D02*
X145431333Y-101766714D01*
X145431333Y-101957190D02*
X145383714Y-101861952D01*
X145336095Y-101814333D01*
X145240857Y-101766714D01*
X145145619Y-101766714D01*
X142413028Y-104190847D02*
X142413028Y-104952752D01*
X153846052Y-111785352D02*
X153846052Y-111023447D01*
D11*
X152128571Y-90678571D02*
X152128571Y-91750000D01*
X152200000Y-91964285D01*
X152342857Y-92107142D01*
X152557142Y-92178571D01*
X152700000Y-92178571D01*
X150842857Y-92107142D02*
X150985714Y-92178571D01*
X151271428Y-92178571D01*
X151414285Y-92107142D01*
X151485714Y-91964285D01*
X151485714Y-91392857D01*
X151414285Y-91250000D01*
X151271428Y-91178571D01*
X150985714Y-91178571D01*
X150842857Y-91250000D01*
X150771428Y-91392857D01*
X150771428Y-91535714D01*
X151485714Y-91678571D01*
X150128571Y-92178571D02*
X150128571Y-91178571D01*
X150128571Y-91464285D02*
X150057142Y-91321428D01*
X149985714Y-91250000D01*
X149842857Y-91178571D01*
X149700000Y-91178571D01*
X149200000Y-92178571D02*
X149200000Y-90678571D01*
X149200000Y-91250000D02*
X149057142Y-91178571D01*
X148771428Y-91178571D01*
X148628571Y-91250000D01*
X148557142Y-91321428D01*
X148485714Y-91464285D01*
X148485714Y-91892857D01*
X148557142Y-92035714D01*
X148628571Y-92107142D01*
X148771428Y-92178571D01*
X149057142Y-92178571D01*
X149200000Y-92107142D01*
X147628571Y-92178571D02*
X147771428Y-92107142D01*
X147842857Y-92035714D01*
X147914285Y-91892857D01*
X147914285Y-91464285D01*
X147842857Y-91321428D01*
X147771428Y-91250000D01*
X147628571Y-91178571D01*
X147414285Y-91178571D01*
X147271428Y-91250000D01*
X147200000Y-91321428D01*
X147128571Y-91464285D01*
X147128571Y-91892857D01*
X147200000Y-92035714D01*
X147271428Y-92107142D01*
X147414285Y-92178571D01*
X147628571Y-92178571D01*
X145842857Y-92178571D02*
X145842857Y-91392857D01*
X145914285Y-91250000D01*
X146057142Y-91178571D01*
X146342857Y-91178571D01*
X146485714Y-91250000D01*
X145842857Y-92107142D02*
X145985714Y-92178571D01*
X146342857Y-92178571D01*
X146485714Y-92107142D01*
X146557142Y-91964285D01*
X146557142Y-91821428D01*
X146485714Y-91678571D01*
X146342857Y-91607142D01*
X145985714Y-91607142D01*
X145842857Y-91535714D01*
X151842857Y-97107142D02*
X151628571Y-97178571D01*
X151271428Y-97178571D01*
X151128571Y-97107142D01*
X151057142Y-97035714D01*
X150985714Y-96892857D01*
X150985714Y-96750000D01*
X151057142Y-96607142D01*
X151128571Y-96535714D01*
X151271428Y-96464285D01*
X151557142Y-96392857D01*
X151700000Y-96321428D01*
X151771428Y-96250000D01*
X151842857Y-96107142D01*
X151842857Y-95964285D01*
X151771428Y-95821428D01*
X151700000Y-95750000D01*
X151557142Y-95678571D01*
X151200000Y-95678571D01*
X150985714Y-95750000D01*
X150128571Y-97178571D02*
X150271428Y-97107142D01*
X150342857Y-97035714D01*
X150414285Y-96892857D01*
X150414285Y-96464285D01*
X150342857Y-96321428D01*
X150271428Y-96250000D01*
X150128571Y-96178571D01*
X149914285Y-96178571D01*
X149771428Y-96250000D01*
X149700000Y-96321428D01*
X149628571Y-96464285D01*
X149628571Y-96892857D01*
X149700000Y-97035714D01*
X149771428Y-97107142D01*
X149914285Y-97178571D01*
X150128571Y-97178571D01*
X148771428Y-97178571D02*
X148914285Y-97107142D01*
X148985714Y-96964285D01*
X148985714Y-95678571D01*
X147557142Y-97178571D02*
X147557142Y-96392857D01*
X147628571Y-96250000D01*
X147771428Y-96178571D01*
X148057142Y-96178571D01*
X148200000Y-96250000D01*
X147557142Y-97107142D02*
X147700000Y-97178571D01*
X148057142Y-97178571D01*
X148200000Y-97107142D01*
X148271428Y-96964285D01*
X148271428Y-96821428D01*
X148200000Y-96678571D01*
X148057142Y-96607142D01*
X147700000Y-96607142D01*
X147557142Y-96535714D01*
X146842857Y-97178571D02*
X146842857Y-96178571D01*
X146842857Y-96464285D02*
X146771428Y-96321428D01*
X146700000Y-96250000D01*
X146557142Y-96178571D01*
X146414285Y-96178571D01*
D12*
X157700000Y-124300000D02*
X138700000Y-124300000D01*
X157700000Y-104950000D02*
X157700000Y-124300000D01*
X159450000Y-97200000D02*
X159450000Y-103200000D01*
X157700000Y-104950000D02*
X159450000Y-103200000D01*
X138700000Y-97450000D02*
X138700000Y-124300000D01*
X155700000Y-93450000D02*
X155700000Y-88700000D01*
X159450000Y-97200000D02*
X155700000Y-93450000D01*
X142700000Y-93450000D02*
X142700000Y-88700000D01*
X138700000Y-97450000D02*
X142700000Y-93450000D01*
X155700000Y-88700000D02*
X142700000Y-88700000D01*
D10*
X147986428Y-106084666D02*
X147510238Y-106084666D01*
X148081666Y-106370380D02*
X147748333Y-105370380D01*
X147415000Y-106370380D01*
X146510238Y-106370380D02*
X146843571Y-105894190D01*
X147081666Y-106370380D02*
X147081666Y-105370380D01*
X146700714Y-105370380D01*
X146605476Y-105418000D01*
X146557857Y-105465619D01*
X146510238Y-105560857D01*
X146510238Y-105703714D01*
X146557857Y-105798952D01*
X146605476Y-105846571D01*
X146700714Y-105894190D01*
X147081666Y-105894190D01*
X145510238Y-106370380D02*
X145843571Y-105894190D01*
X146081666Y-106370380D02*
X146081666Y-105370380D01*
X145700714Y-105370380D01*
X145605476Y-105418000D01*
X145557857Y-105465619D01*
X145510238Y-105560857D01*
X145510238Y-105703714D01*
X145557857Y-105798952D01*
X145605476Y-105846571D01*
X145700714Y-105894190D01*
X146081666Y-105894190D01*
X145129285Y-106084666D02*
X144653095Y-106084666D01*
X145224523Y-106370380D02*
X144891190Y-105370380D01*
X144557857Y-106370380D01*
X144034047Y-105894190D02*
X144034047Y-106370380D01*
X144367380Y-105370380D02*
X144034047Y-105894190D01*
X143700714Y-105370380D01*
X143415000Y-105465619D02*
X143367380Y-105418000D01*
X143272142Y-105370380D01*
X143034047Y-105370380D01*
X142938809Y-105418000D01*
X142891190Y-105465619D01*
X142843571Y-105560857D01*
X142843571Y-105656095D01*
X142891190Y-105798952D01*
X143462619Y-106370380D01*
X142843571Y-106370380D01*
X146629428Y-115697047D02*
X146629428Y-116458952D01*
X153409528Y-108792971D02*
X154171433Y-108792971D01*
X153790481Y-108412019D02*
X153790481Y-109173923D01*
X142722552Y-107183228D02*
X141960647Y-107183228D01*
X142341600Y-107564180D02*
X142341600Y-106802276D01*
X145922952Y-122626428D02*
X145161047Y-122626428D01*
X145542000Y-123007380D02*
X145542000Y-122245476D01*
X149717047Y-99226642D02*
X149764666Y-99274261D01*
X149907523Y-99321880D01*
X150002761Y-99321880D01*
X150145619Y-99274261D01*
X150240857Y-99179023D01*
X150288476Y-99083785D01*
X150336095Y-98893309D01*
X150336095Y-98750452D01*
X150288476Y-98559976D01*
X150240857Y-98464738D01*
X150145619Y-98369500D01*
X150002761Y-98321880D01*
X149907523Y-98321880D01*
X149764666Y-98369500D01*
X149717047Y-98417119D01*
X149336095Y-99036166D02*
X148859904Y-99036166D01*
X149431333Y-99321880D02*
X149098000Y-98321880D01*
X148764666Y-99321880D01*
X148431333Y-99321880D02*
X148431333Y-98321880D01*
X148050380Y-98321880D01*
X147955142Y-98369500D01*
X147907523Y-98417119D01*
X147859904Y-98512357D01*
X147859904Y-98655214D01*
X147907523Y-98750452D01*
X147955142Y-98798071D01*
X148050380Y-98845690D01*
X148431333Y-98845690D01*
X152709476Y-110561380D02*
X153042809Y-110085190D01*
X153280904Y-110561380D02*
X153280904Y-109561380D01*
X152899952Y-109561380D01*
X152804714Y-109609000D01*
X152757095Y-109656619D01*
X152709476Y-109751857D01*
X152709476Y-109894714D01*
X152757095Y-109989952D01*
X152804714Y-110037571D01*
X152899952Y-110085190D01*
X153280904Y-110085190D01*
X152280904Y-110561380D02*
X152280904Y-109561380D01*
X151899952Y-109561380D01*
X151804714Y-109609000D01*
X151757095Y-109656619D01*
X151709476Y-109751857D01*
X151709476Y-109894714D01*
X151757095Y-109989952D01*
X151804714Y-110037571D01*
X151899952Y-110085190D01*
X152280904Y-110085190D01*
X150709476Y-110561380D02*
X151042809Y-110085190D01*
X151280904Y-110561380D02*
X151280904Y-109561380D01*
X150899952Y-109561380D01*
X150804714Y-109609000D01*
X150757095Y-109656619D01*
X150709476Y-109751857D01*
X150709476Y-109894714D01*
X150757095Y-109989952D01*
X150804714Y-110037571D01*
X150899952Y-110085190D01*
X151280904Y-110085190D01*
X147534333Y-122014928D02*
X147534333Y-121538738D01*
X147248619Y-122110166D02*
X148248619Y-121776833D01*
X147248619Y-121443500D01*
X147248619Y-120538738D02*
X147724809Y-120872071D01*
X147248619Y-121110166D02*
X148248619Y-121110166D01*
X148248619Y-120729214D01*
X148201000Y-120633976D01*
X148153380Y-120586357D01*
X148058142Y-120538738D01*
X147915285Y-120538738D01*
X147820047Y-120586357D01*
X147772428Y-120633976D01*
X147724809Y-120729214D01*
X147724809Y-121110166D01*
X147248619Y-119538738D02*
X147724809Y-119872071D01*
X147248619Y-120110166D02*
X148248619Y-120110166D01*
X148248619Y-119729214D01*
X148201000Y-119633976D01*
X148153380Y-119586357D01*
X148058142Y-119538738D01*
X147915285Y-119538738D01*
X147820047Y-119586357D01*
X147772428Y-119633976D01*
X147724809Y-119729214D01*
X147724809Y-120110166D01*
X147534333Y-119157785D02*
X147534333Y-118681595D01*
X147248619Y-119253023D02*
X148248619Y-118919690D01*
X147248619Y-118586357D01*
X147724809Y-118062547D02*
X147248619Y-118062547D01*
X148248619Y-118395880D02*
X147724809Y-118062547D01*
X148248619Y-117729214D01*
X147248619Y-116872071D02*
X147248619Y-117443500D01*
X147248619Y-117157785D02*
X148248619Y-117157785D01*
X148105761Y-117253023D01*
X148010523Y-117348261D01*
X147962904Y-117443500D01*
X153461904Y-119052380D02*
X153128571Y-120052380D01*
X152795238Y-119052380D01*
X151890476Y-119957142D02*
X151938095Y-120004761D01*
X152080952Y-120052380D01*
X152176190Y-120052380D01*
X152319047Y-120004761D01*
X152414285Y-119909523D01*
X152461904Y-119814285D01*
X152509523Y-119623809D01*
X152509523Y-119480952D01*
X152461904Y-119290476D01*
X152414285Y-119195238D01*
X152319047Y-119100000D01*
X152176190Y-119052380D01*
X152080952Y-119052380D01*
X151938095Y-119100000D01*
X151890476Y-119147619D01*
X151509523Y-119766666D02*
X151033333Y-119766666D01*
X151604761Y-120052380D02*
X151271428Y-119052380D01*
X150938095Y-120052380D01*
X150604761Y-120052380D02*
X150604761Y-119052380D01*
X150223809Y-119052380D01*
X150128571Y-119100000D01*
X150080952Y-119147619D01*
X150033333Y-119242857D01*
X150033333Y-119385714D01*
X150080952Y-119480952D01*
X150128571Y-119528571D01*
X150223809Y-119576190D01*
X150604761Y-119576190D01*
X153438095Y-116512380D02*
X153104761Y-117512380D01*
X152771428Y-116512380D01*
X152485714Y-117464761D02*
X152342857Y-117512380D01*
X152104761Y-117512380D01*
X152009523Y-117464761D01*
X151961904Y-117417142D01*
X151914285Y-117321904D01*
X151914285Y-117226666D01*
X151961904Y-117131428D01*
X152009523Y-117083809D01*
X152104761Y-117036190D01*
X152295238Y-116988571D01*
X152390476Y-116940952D01*
X152438095Y-116893333D01*
X152485714Y-116798095D01*
X152485714Y-116702857D01*
X152438095Y-116607619D01*
X152390476Y-116560000D01*
X152295238Y-116512380D01*
X152057142Y-116512380D01*
X151914285Y-116560000D01*
X151295238Y-116512380D02*
X151104761Y-116512380D01*
X151009523Y-116560000D01*
X150914285Y-116655238D01*
X150866666Y-116845714D01*
X150866666Y-117179047D01*
X150914285Y-117369523D01*
X151009523Y-117464761D01*
X151104761Y-117512380D01*
X151295238Y-117512380D01*
X151390476Y-117464761D01*
X151485714Y-117369523D01*
X151533333Y-117179047D01*
X151533333Y-116845714D01*
X151485714Y-116655238D01*
X151390476Y-116560000D01*
X151295238Y-116512380D01*
X149961904Y-117512380D02*
X150438095Y-117512380D01*
X150438095Y-116512380D01*
X144147619Y-97456404D02*
X143147619Y-97123071D01*
X144147619Y-96789738D01*
X144147619Y-96265928D02*
X144147619Y-96075452D01*
X144100000Y-95980214D01*
X144004761Y-95884976D01*
X143814285Y-95837357D01*
X143480952Y-95837357D01*
X143290476Y-95884976D01*
X143195238Y-95980214D01*
X143147619Y-96075452D01*
X143147619Y-96265928D01*
X143195238Y-96361166D01*
X143290476Y-96456404D01*
X143480952Y-96504023D01*
X143814285Y-96504023D01*
X144004761Y-96456404D01*
X144100000Y-96361166D01*
X144147619Y-96265928D01*
X144147619Y-95408785D02*
X143338095Y-95408785D01*
X143242857Y-95361166D01*
X143195238Y-95313547D01*
X143147619Y-95218309D01*
X143147619Y-95027833D01*
X143195238Y-94932595D01*
X143242857Y-94884976D01*
X143338095Y-94837357D01*
X144147619Y-94837357D01*
X144147619Y-94504023D02*
X144147619Y-93932595D01*
X143147619Y-94218309D02*
X144147619Y-94218309D01*
D13*
G36*
X153818046Y-96325874D02*
X153823398Y-99973645D01*
X153824078Y-100434080D01*
X153824723Y-100854045D01*
X153825357Y-101235406D01*
X153826005Y-101580026D01*
X153826689Y-101889770D01*
X153827436Y-102166502D01*
X153828270Y-102412087D01*
X153829214Y-102628388D01*
X153830293Y-102817271D01*
X153831531Y-102980598D01*
X153832953Y-103120235D01*
X153834583Y-103238047D01*
X153836445Y-103335896D01*
X153838564Y-103415648D01*
X153840964Y-103479166D01*
X153843670Y-103528315D01*
X153846705Y-103564960D01*
X153850094Y-103590965D01*
X153853862Y-103608193D01*
X153858032Y-103618509D01*
X153862629Y-103623778D01*
X153867678Y-103625864D01*
X153871083Y-103626380D01*
X153898457Y-103615381D01*
X153958353Y-103580682D01*
X154049026Y-103523439D01*
X154168729Y-103444807D01*
X154193027Y-103428463D01*
X154193027Y-97133833D01*
X154333680Y-97133833D01*
X154474333Y-97133833D01*
X154474333Y-97206539D01*
X154486339Y-97303783D01*
X154520165Y-97375782D01*
X154556933Y-97407894D01*
X154616433Y-97426846D01*
X154702921Y-97439361D01*
X154801453Y-97444794D01*
X154897081Y-97442495D01*
X154974859Y-97431820D01*
X154992847Y-97426763D01*
X155038411Y-97406484D01*
X155073016Y-97376681D01*
X155098128Y-97331854D01*
X155115211Y-97266501D01*
X155125730Y-97175120D01*
X155131149Y-97052210D01*
X155132910Y-96900690D01*
X155131068Y-96737848D01*
X155123808Y-96612828D01*
X155110258Y-96521364D01*
X155089542Y-96459188D01*
X155060786Y-96422034D01*
X155031890Y-96407590D01*
X154939724Y-96386050D01*
X154858144Y-96377607D01*
X154765324Y-96380626D01*
X154722786Y-96384416D01*
X154618810Y-96400503D01*
X154550549Y-96427568D01*
X154511832Y-96470440D01*
X154496490Y-96533950D01*
X154495500Y-96562333D01*
X154495500Y-96647000D01*
X154355019Y-96647000D01*
X154214537Y-96647000D01*
X154225233Y-96513752D01*
X154242419Y-96395841D01*
X154275690Y-96305074D01*
X154329524Y-96238415D01*
X154408395Y-96192829D01*
X154516781Y-96165282D01*
X154659158Y-96152739D01*
X154760083Y-96151145D01*
X154937376Y-96156981D01*
X155078316Y-96174939D01*
X155187670Y-96207090D01*
X155270207Y-96255503D01*
X155330697Y-96322249D01*
X155373908Y-96409399D01*
X155377409Y-96419163D01*
X155398027Y-96508234D01*
X155411139Y-96628487D01*
X155417111Y-96770268D01*
X155416308Y-96923918D01*
X155409096Y-97079780D01*
X155395841Y-97228198D01*
X155376909Y-97359514D01*
X155352663Y-97464071D01*
X155336155Y-97508990D01*
X155290635Y-97565881D01*
X155214517Y-97616321D01*
X155119533Y-97653206D01*
X155084267Y-97661547D01*
X154979129Y-97674948D01*
X154849832Y-97680825D01*
X154713871Y-97679193D01*
X154588741Y-97670068D01*
X154526273Y-97661028D01*
X154447720Y-97643396D01*
X154378164Y-97622531D01*
X154345323Y-97609044D01*
X154284085Y-97553934D01*
X154239019Y-97461307D01*
X154210951Y-97333103D01*
X154205397Y-97281390D01*
X154193027Y-97133833D01*
X154193027Y-103428463D01*
X154194880Y-103427217D01*
X154194880Y-97705333D01*
X154334607Y-97705333D01*
X154474333Y-97705333D01*
X154475255Y-98218625D01*
X154476350Y-98412004D01*
X154479161Y-98567581D01*
X154484128Y-98689868D01*
X154491692Y-98783378D01*
X154502291Y-98852623D01*
X154516368Y-98902114D01*
X154534360Y-98936364D01*
X154546688Y-98950947D01*
X154586297Y-98968743D01*
X154656479Y-98981029D01*
X154745857Y-98987787D01*
X154843053Y-98988996D01*
X154936692Y-98984638D01*
X155015396Y-98974692D01*
X155067790Y-98959141D01*
X155078339Y-98951853D01*
X155099428Y-98924242D01*
X155116157Y-98885101D01*
X155128992Y-98829788D01*
X155138403Y-98753658D01*
X155144857Y-98652069D01*
X155148821Y-98520376D01*
X155150764Y-98353936D01*
X155151162Y-98229208D01*
X155151666Y-97705333D01*
X155290927Y-97705333D01*
X155430187Y-97705333D01*
X155422824Y-98324458D01*
X155420258Y-98510457D01*
X155417279Y-98658933D01*
X155413602Y-98774695D01*
X155408941Y-98862553D01*
X155403011Y-98927317D01*
X155395527Y-98973797D01*
X155386205Y-99006802D01*
X155381735Y-99017667D01*
X155328076Y-99104172D01*
X155254206Y-99162558D01*
X155156971Y-99199423D01*
X155073895Y-99214079D01*
X154962429Y-99223338D01*
X154836186Y-99227073D01*
X154708781Y-99225155D01*
X154593829Y-99217456D01*
X154512417Y-99205508D01*
X154400934Y-99171412D01*
X154321738Y-99120303D01*
X154266131Y-99045779D01*
X154250493Y-99012648D01*
X154239085Y-98981022D01*
X154229941Y-98942537D01*
X154222713Y-98891987D01*
X154217050Y-98824169D01*
X154212604Y-98733879D01*
X154209026Y-98615913D01*
X154205966Y-98465067D01*
X154203609Y-98313875D01*
X154194880Y-97705333D01*
X154194880Y-103427217D01*
X154199166Y-103424334D01*
X154199166Y-101049667D01*
X154199166Y-100933250D01*
X154199166Y-100816833D01*
X154210115Y-100816833D01*
X154210115Y-100325994D01*
X154216656Y-100210183D01*
X154236964Y-100110717D01*
X154269465Y-100038686D01*
X154278481Y-100027188D01*
X154327367Y-99986123D01*
X154395767Y-99954583D01*
X154490508Y-99930456D01*
X154618413Y-99911629D01*
X154669498Y-99906175D01*
X154819977Y-99890912D01*
X154933529Y-99877419D01*
X155015353Y-99863284D01*
X155070646Y-99846091D01*
X155104609Y-99823428D01*
X155122440Y-99792878D01*
X155129337Y-99752029D01*
X155130499Y-99698466D01*
X155130500Y-99692096D01*
X155125103Y-99602702D01*
X155104271Y-99545112D01*
X155061039Y-99509652D01*
X154988444Y-99486651D01*
X154981510Y-99485134D01*
X154833478Y-99463757D01*
X154710583Y-99467486D01*
X154615491Y-99495354D01*
X154550871Y-99546394D01*
X154519387Y-99619640D01*
X154516666Y-99653662D01*
X154512201Y-99675876D01*
X154492656Y-99688361D01*
X154448809Y-99693831D01*
X154376122Y-99695000D01*
X154235577Y-99695000D01*
X154248010Y-99574537D01*
X154270878Y-99463687D01*
X154317022Y-99382030D01*
X154392576Y-99320049D01*
X154422782Y-99303417D01*
X154461697Y-99286326D01*
X154505281Y-99274474D01*
X154561938Y-99266949D01*
X154640072Y-99262839D01*
X154748086Y-99261233D01*
X154813000Y-99261083D01*
X154972770Y-99263444D01*
X155096352Y-99271750D01*
X155189693Y-99287840D01*
X155258739Y-99313549D01*
X155309435Y-99350715D01*
X155347729Y-99401176D01*
X155363727Y-99431231D01*
X155392266Y-99520892D01*
X155407622Y-99634213D01*
X155409345Y-99754480D01*
X155396984Y-99864980D01*
X155377255Y-99933691D01*
X155346540Y-99985839D01*
X155299499Y-100027685D01*
X155231299Y-100060813D01*
X155137106Y-100086809D01*
X155012089Y-100107258D01*
X154851415Y-100123746D01*
X154781250Y-100129212D01*
X154690177Y-100138713D01*
X154610867Y-100152132D01*
X154556090Y-100167116D01*
X154544114Y-100172890D01*
X154503093Y-100221547D01*
X154482739Y-100292864D01*
X154481947Y-100373973D01*
X154499616Y-100452006D01*
X154534643Y-100514094D01*
X154575941Y-100544237D01*
X154621032Y-100552865D01*
X154696261Y-100558419D01*
X154789501Y-100560242D01*
X154851948Y-100559182D01*
X154951850Y-100555238D01*
X155018550Y-100549643D01*
X155061175Y-100540394D01*
X155088856Y-100525487D01*
X155110722Y-100502919D01*
X155111240Y-100502280D01*
X155140043Y-100445153D01*
X155151666Y-100380572D01*
X155151666Y-100308833D01*
X155291689Y-100308833D01*
X155431711Y-100308833D01*
X155416806Y-100430542D01*
X155389386Y-100564813D01*
X155344520Y-100661017D01*
X155281901Y-100719796D01*
X155276802Y-100722547D01*
X155190218Y-100753496D01*
X155072589Y-100775966D01*
X154934502Y-100789165D01*
X154786543Y-100792299D01*
X154639296Y-100784573D01*
X154565631Y-100775871D01*
X154438979Y-100749923D01*
X154347494Y-100710326D01*
X154284677Y-100650917D01*
X154244029Y-100565532D01*
X154219049Y-100448007D01*
X154218914Y-100447059D01*
X154210115Y-100325994D01*
X154210115Y-100816833D01*
X154813000Y-100816833D01*
X155426833Y-100816833D01*
X155426833Y-101568250D01*
X155426833Y-102319667D01*
X155289250Y-102319667D01*
X155151666Y-102319667D01*
X155151666Y-102012750D01*
X155151666Y-101705833D01*
X154738916Y-101705833D01*
X154326166Y-101705833D01*
X154326166Y-101589417D01*
X154326166Y-101473000D01*
X154738916Y-101473000D01*
X155151666Y-101473000D01*
X155151666Y-101261333D01*
X155151666Y-101049667D01*
X154675416Y-101049667D01*
X154199166Y-101049667D01*
X154199166Y-103424334D01*
X154315715Y-103345942D01*
X154488239Y-103227998D01*
X154684553Y-103092132D01*
X154791833Y-103017316D01*
X154965243Y-102895837D01*
X155129585Y-102780206D01*
X155281291Y-102672969D01*
X155416793Y-102576670D01*
X155532525Y-102493855D01*
X155624920Y-102427068D01*
X155690409Y-102378855D01*
X155725426Y-102351760D01*
X155728458Y-102349100D01*
X155786666Y-102294911D01*
X155786666Y-99322085D01*
X155786666Y-96349259D01*
X155731779Y-96238838D01*
X155709427Y-96196055D01*
X155669026Y-96121001D01*
X155613150Y-96018374D01*
X155544376Y-95892871D01*
X155465280Y-95749192D01*
X155378439Y-95592032D01*
X155286428Y-95426091D01*
X155261599Y-95381411D01*
X155156033Y-95192043D01*
X155068703Y-95036753D01*
X154997669Y-94912405D01*
X154940988Y-94815862D01*
X154896721Y-94743986D01*
X154862927Y-94693641D01*
X154837663Y-94661689D01*
X154818990Y-94644994D01*
X154804966Y-94640420D01*
X154803196Y-94640577D01*
X154785236Y-94652387D01*
X154757103Y-94685671D01*
X154717191Y-94742973D01*
X154663892Y-94826838D01*
X154595602Y-94939809D01*
X154510712Y-95084430D01*
X154407617Y-95263245D01*
X154384912Y-95302917D01*
X154293084Y-95463974D01*
X154203758Y-95621485D01*
X154120182Y-95769663D01*
X154045602Y-95902721D01*
X153983265Y-96014872D01*
X153936418Y-96100329D01*
X153913893Y-96142479D01*
X153818046Y-96325874D01*
X153818046Y-96325874D01*
G37*
X153818046Y-96325874D02*
X153823398Y-99973645D01*
X153824078Y-100434080D01*
X153824723Y-100854045D01*
X153825357Y-101235406D01*
X153826005Y-101580026D01*
X153826689Y-101889770D01*
X153827436Y-102166502D01*
X153828270Y-102412087D01*
X153829214Y-102628388D01*
X153830293Y-102817271D01*
X153831531Y-102980598D01*
X153832953Y-103120235D01*
X153834583Y-103238047D01*
X153836445Y-103335896D01*
X153838564Y-103415648D01*
X153840964Y-103479166D01*
X153843670Y-103528315D01*
X153846705Y-103564960D01*
X153850094Y-103590965D01*
X153853862Y-103608193D01*
X153858032Y-103618509D01*
X153862629Y-103623778D01*
X153867678Y-103625864D01*
X153871083Y-103626380D01*
X153898457Y-103615381D01*
X153958353Y-103580682D01*
X154049026Y-103523439D01*
X154168729Y-103444807D01*
X154193027Y-103428463D01*
X154193027Y-97133833D01*
X154333680Y-97133833D01*
X154474333Y-97133833D01*
X154474333Y-97206539D01*
X154486339Y-97303783D01*
X154520165Y-97375782D01*
X154556933Y-97407894D01*
X154616433Y-97426846D01*
X154702921Y-97439361D01*
X154801453Y-97444794D01*
X154897081Y-97442495D01*
X154974859Y-97431820D01*
X154992847Y-97426763D01*
X155038411Y-97406484D01*
X155073016Y-97376681D01*
X155098128Y-97331854D01*
X155115211Y-97266501D01*
X155125730Y-97175120D01*
X155131149Y-97052210D01*
X155132910Y-96900690D01*
X155131068Y-96737848D01*
X155123808Y-96612828D01*
X155110258Y-96521364D01*
X155089542Y-96459188D01*
X155060786Y-96422034D01*
X155031890Y-96407590D01*
X154939724Y-96386050D01*
X154858144Y-96377607D01*
X154765324Y-96380626D01*
X154722786Y-96384416D01*
X154618810Y-96400503D01*
X154550549Y-96427568D01*
X154511832Y-96470440D01*
X154496490Y-96533950D01*
X154495500Y-96562333D01*
X154495500Y-96647000D01*
X154355019Y-96647000D01*
X154214537Y-96647000D01*
X154225233Y-96513752D01*
X154242419Y-96395841D01*
X154275690Y-96305074D01*
X154329524Y-96238415D01*
X154408395Y-96192829D01*
X154516781Y-96165282D01*
X154659158Y-96152739D01*
X154760083Y-96151145D01*
X154937376Y-96156981D01*
X155078316Y-96174939D01*
X155187670Y-96207090D01*
X155270207Y-96255503D01*
X155330697Y-96322249D01*
X155373908Y-96409399D01*
X155377409Y-96419163D01*
X155398027Y-96508234D01*
X155411139Y-96628487D01*
X155417111Y-96770268D01*
X155416308Y-96923918D01*
X155409096Y-97079780D01*
X155395841Y-97228198D01*
X155376909Y-97359514D01*
X155352663Y-97464071D01*
X155336155Y-97508990D01*
X155290635Y-97565881D01*
X155214517Y-97616321D01*
X155119533Y-97653206D01*
X155084267Y-97661547D01*
X154979129Y-97674948D01*
X154849832Y-97680825D01*
X154713871Y-97679193D01*
X154588741Y-97670068D01*
X154526273Y-97661028D01*
X154447720Y-97643396D01*
X154378164Y-97622531D01*
X154345323Y-97609044D01*
X154284085Y-97553934D01*
X154239019Y-97461307D01*
X154210951Y-97333103D01*
X154205397Y-97281390D01*
X154193027Y-97133833D01*
X154193027Y-103428463D01*
X154194880Y-103427217D01*
X154194880Y-97705333D01*
X154334607Y-97705333D01*
X154474333Y-97705333D01*
X154475255Y-98218625D01*
X154476350Y-98412004D01*
X154479161Y-98567581D01*
X154484128Y-98689868D01*
X154491692Y-98783378D01*
X154502291Y-98852623D01*
X154516368Y-98902114D01*
X154534360Y-98936364D01*
X154546688Y-98950947D01*
X154586297Y-98968743D01*
X154656479Y-98981029D01*
X154745857Y-98987787D01*
X154843053Y-98988996D01*
X154936692Y-98984638D01*
X155015396Y-98974692D01*
X155067790Y-98959141D01*
X155078339Y-98951853D01*
X155099428Y-98924242D01*
X155116157Y-98885101D01*
X155128992Y-98829788D01*
X155138403Y-98753658D01*
X155144857Y-98652069D01*
X155148821Y-98520376D01*
X155150764Y-98353936D01*
X155151162Y-98229208D01*
X155151666Y-97705333D01*
X155290927Y-97705333D01*
X155430187Y-97705333D01*
X155422824Y-98324458D01*
X155420258Y-98510457D01*
X155417279Y-98658933D01*
X155413602Y-98774695D01*
X155408941Y-98862553D01*
X155403011Y-98927317D01*
X155395527Y-98973797D01*
X155386205Y-99006802D01*
X155381735Y-99017667D01*
X155328076Y-99104172D01*
X155254206Y-99162558D01*
X155156971Y-99199423D01*
X155073895Y-99214079D01*
X154962429Y-99223338D01*
X154836186Y-99227073D01*
X154708781Y-99225155D01*
X154593829Y-99217456D01*
X154512417Y-99205508D01*
X154400934Y-99171412D01*
X154321738Y-99120303D01*
X154266131Y-99045779D01*
X154250493Y-99012648D01*
X154239085Y-98981022D01*
X154229941Y-98942537D01*
X154222713Y-98891987D01*
X154217050Y-98824169D01*
X154212604Y-98733879D01*
X154209026Y-98615913D01*
X154205966Y-98465067D01*
X154203609Y-98313875D01*
X154194880Y-97705333D01*
X154194880Y-103427217D01*
X154199166Y-103424334D01*
X154199166Y-101049667D01*
X154199166Y-100933250D01*
X154199166Y-100816833D01*
X154210115Y-100816833D01*
X154210115Y-100325994D01*
X154216656Y-100210183D01*
X154236964Y-100110717D01*
X154269465Y-100038686D01*
X154278481Y-100027188D01*
X154327367Y-99986123D01*
X154395767Y-99954583D01*
X154490508Y-99930456D01*
X154618413Y-99911629D01*
X154669498Y-99906175D01*
X154819977Y-99890912D01*
X154933529Y-99877419D01*
X155015353Y-99863284D01*
X155070646Y-99846091D01*
X155104609Y-99823428D01*
X155122440Y-99792878D01*
X155129337Y-99752029D01*
X155130499Y-99698466D01*
X155130500Y-99692096D01*
X155125103Y-99602702D01*
X155104271Y-99545112D01*
X155061039Y-99509652D01*
X154988444Y-99486651D01*
X154981510Y-99485134D01*
X154833478Y-99463757D01*
X154710583Y-99467486D01*
X154615491Y-99495354D01*
X154550871Y-99546394D01*
X154519387Y-99619640D01*
X154516666Y-99653662D01*
X154512201Y-99675876D01*
X154492656Y-99688361D01*
X154448809Y-99693831D01*
X154376122Y-99695000D01*
X154235577Y-99695000D01*
X154248010Y-99574537D01*
X154270878Y-99463687D01*
X154317022Y-99382030D01*
X154392576Y-99320049D01*
X154422782Y-99303417D01*
X154461697Y-99286326D01*
X154505281Y-99274474D01*
X154561938Y-99266949D01*
X154640072Y-99262839D01*
X154748086Y-99261233D01*
X154813000Y-99261083D01*
X154972770Y-99263444D01*
X155096352Y-99271750D01*
X155189693Y-99287840D01*
X155258739Y-99313549D01*
X155309435Y-99350715D01*
X155347729Y-99401176D01*
X155363727Y-99431231D01*
X155392266Y-99520892D01*
X155407622Y-99634213D01*
X155409345Y-99754480D01*
X155396984Y-99864980D01*
X155377255Y-99933691D01*
X155346540Y-99985839D01*
X155299499Y-100027685D01*
X155231299Y-100060813D01*
X155137106Y-100086809D01*
X155012089Y-100107258D01*
X154851415Y-100123746D01*
X154781250Y-100129212D01*
X154690177Y-100138713D01*
X154610867Y-100152132D01*
X154556090Y-100167116D01*
X154544114Y-100172890D01*
X154503093Y-100221547D01*
X154482739Y-100292864D01*
X154481947Y-100373973D01*
X154499616Y-100452006D01*
X154534643Y-100514094D01*
X154575941Y-100544237D01*
X154621032Y-100552865D01*
X154696261Y-100558419D01*
X154789501Y-100560242D01*
X154851948Y-100559182D01*
X154951850Y-100555238D01*
X155018550Y-100549643D01*
X155061175Y-100540394D01*
X155088856Y-100525487D01*
X155110722Y-100502919D01*
X155111240Y-100502280D01*
X155140043Y-100445153D01*
X155151666Y-100380572D01*
X155151666Y-100308833D01*
X155291689Y-100308833D01*
X155431711Y-100308833D01*
X155416806Y-100430542D01*
X155389386Y-100564813D01*
X155344520Y-100661017D01*
X155281901Y-100719796D01*
X155276802Y-100722547D01*
X155190218Y-100753496D01*
X155072589Y-100775966D01*
X154934502Y-100789165D01*
X154786543Y-100792299D01*
X154639296Y-100784573D01*
X154565631Y-100775871D01*
X154438979Y-100749923D01*
X154347494Y-100710326D01*
X154284677Y-100650917D01*
X154244029Y-100565532D01*
X154219049Y-100448007D01*
X154218914Y-100447059D01*
X154210115Y-100325994D01*
X154210115Y-100816833D01*
X154813000Y-100816833D01*
X155426833Y-100816833D01*
X155426833Y-101568250D01*
X155426833Y-102319667D01*
X155289250Y-102319667D01*
X155151666Y-102319667D01*
X155151666Y-102012750D01*
X155151666Y-101705833D01*
X154738916Y-101705833D01*
X154326166Y-101705833D01*
X154326166Y-101589417D01*
X154326166Y-101473000D01*
X154738916Y-101473000D01*
X155151666Y-101473000D01*
X155151666Y-101261333D01*
X155151666Y-101049667D01*
X154675416Y-101049667D01*
X154199166Y-101049667D01*
X154199166Y-103424334D01*
X154315715Y-103345942D01*
X154488239Y-103227998D01*
X154684553Y-103092132D01*
X154791833Y-103017316D01*
X154965243Y-102895837D01*
X155129585Y-102780206D01*
X155281291Y-102672969D01*
X155416793Y-102576670D01*
X155532525Y-102493855D01*
X155624920Y-102427068D01*
X155690409Y-102378855D01*
X155725426Y-102351760D01*
X155728458Y-102349100D01*
X155786666Y-102294911D01*
X155786666Y-99322085D01*
X155786666Y-96349259D01*
X155731779Y-96238838D01*
X155709427Y-96196055D01*
X155669026Y-96121001D01*
X155613150Y-96018374D01*
X155544376Y-95892871D01*
X155465280Y-95749192D01*
X155378439Y-95592032D01*
X155286428Y-95426091D01*
X155261599Y-95381411D01*
X155156033Y-95192043D01*
X155068703Y-95036753D01*
X154997669Y-94912405D01*
X154940988Y-94815862D01*
X154896721Y-94743986D01*
X154862927Y-94693641D01*
X154837663Y-94661689D01*
X154818990Y-94644994D01*
X154804966Y-94640420D01*
X154803196Y-94640577D01*
X154785236Y-94652387D01*
X154757103Y-94685671D01*
X154717191Y-94742973D01*
X154663892Y-94826838D01*
X154595602Y-94939809D01*
X154510712Y-95084430D01*
X154407617Y-95263245D01*
X154384912Y-95302917D01*
X154293084Y-95463974D01*
X154203758Y-95621485D01*
X154120182Y-95769663D01*
X154045602Y-95902721D01*
X153983265Y-96014872D01*
X153936418Y-96100329D01*
X153913893Y-96142479D01*
X153818046Y-96325874D01*
G36*
X153820545Y-104201004D02*
X153822584Y-104269445D01*
X153828569Y-104359917D01*
X153838530Y-104422698D01*
X153851315Y-104450798D01*
X153852576Y-104451391D01*
X153879946Y-104443780D01*
X153931923Y-104416623D01*
X153998805Y-104375173D01*
X154021909Y-104359655D01*
X154229356Y-104217206D01*
X154435688Y-104074717D01*
X154637657Y-103934486D01*
X154832017Y-103798811D01*
X155015519Y-103669988D01*
X155184917Y-103550316D01*
X155336963Y-103442091D01*
X155468410Y-103347612D01*
X155576010Y-103269175D01*
X155656516Y-103209078D01*
X155706680Y-103169619D01*
X155717875Y-103159796D01*
X155752572Y-103124494D01*
X155773073Y-103091934D01*
X155783102Y-103049636D01*
X155786385Y-102985124D01*
X155786666Y-102929348D01*
X155785930Y-102846540D01*
X155782045Y-102797385D01*
X155772501Y-102773205D01*
X155754787Y-102765325D01*
X155739041Y-102764812D01*
X155714830Y-102776643D01*
X155659984Y-102810108D01*
X155578490Y-102862471D01*
X155474329Y-102931000D01*
X155351486Y-103012959D01*
X155213945Y-103105614D01*
X155065688Y-103206231D01*
X154910699Y-103312075D01*
X154752963Y-103420413D01*
X154596462Y-103528509D01*
X154445180Y-103633630D01*
X154303101Y-103733042D01*
X154174209Y-103824008D01*
X154062486Y-103903797D01*
X153971917Y-103969672D01*
X153906485Y-104018900D01*
X153875500Y-104043949D01*
X153846451Y-104071609D01*
X153829359Y-104099543D01*
X153821600Y-104138943D01*
X153820545Y-104201004D01*
X153820545Y-104201004D01*
G37*
X153820545Y-104201004D02*
X153822584Y-104269445D01*
X153828569Y-104359917D01*
X153838530Y-104422698D01*
X153851315Y-104450798D01*
X153852576Y-104451391D01*
X153879946Y-104443780D01*
X153931923Y-104416623D01*
X153998805Y-104375173D01*
X154021909Y-104359655D01*
X154229356Y-104217206D01*
X154435688Y-104074717D01*
X154637657Y-103934486D01*
X154832017Y-103798811D01*
X155015519Y-103669988D01*
X155184917Y-103550316D01*
X155336963Y-103442091D01*
X155468410Y-103347612D01*
X155576010Y-103269175D01*
X155656516Y-103209078D01*
X155706680Y-103169619D01*
X155717875Y-103159796D01*
X155752572Y-103124494D01*
X155773073Y-103091934D01*
X155783102Y-103049636D01*
X155786385Y-102985124D01*
X155786666Y-102929348D01*
X155785930Y-102846540D01*
X155782045Y-102797385D01*
X155772501Y-102773205D01*
X155754787Y-102765325D01*
X155739041Y-102764812D01*
X155714830Y-102776643D01*
X155659984Y-102810108D01*
X155578490Y-102862471D01*
X155474329Y-102931000D01*
X155351486Y-103012959D01*
X155213945Y-103105614D01*
X155065688Y-103206231D01*
X154910699Y-103312075D01*
X154752963Y-103420413D01*
X154596462Y-103528509D01*
X154445180Y-103633630D01*
X154303101Y-103733042D01*
X154174209Y-103824008D01*
X154062486Y-103903797D01*
X153971917Y-103969672D01*
X153906485Y-104018900D01*
X153875500Y-104043949D01*
X153846451Y-104071609D01*
X153829359Y-104099543D01*
X153821600Y-104138943D01*
X153820545Y-104201004D01*
G36*
X153820801Y-104951405D02*
X153822588Y-105027997D01*
X153822600Y-105028272D01*
X153828907Y-105108389D01*
X153840238Y-105153715D01*
X153858589Y-105171683D01*
X153861281Y-105172339D01*
X153884465Y-105161757D01*
X153938895Y-105129054D01*
X154021198Y-105076476D01*
X154128000Y-105006269D01*
X154255930Y-104920678D01*
X154401613Y-104821947D01*
X154561677Y-104712322D01*
X154732750Y-104594048D01*
X154792614Y-104552408D01*
X154967744Y-104430031D01*
X155133435Y-104313523D01*
X155286210Y-104205378D01*
X155422592Y-104108093D01*
X155539105Y-104024161D01*
X155632272Y-103956078D01*
X155698617Y-103906339D01*
X155734662Y-103877438D01*
X155739041Y-103873211D01*
X155767890Y-103831263D01*
X155782427Y-103778578D01*
X155786653Y-103700070D01*
X155786666Y-103693655D01*
X155781312Y-103609067D01*
X155763441Y-103562355D01*
X155730346Y-103550216D01*
X155683094Y-103567290D01*
X155651586Y-103587033D01*
X155589971Y-103628191D01*
X155502398Y-103687854D01*
X155393015Y-103763113D01*
X155265972Y-103851058D01*
X155125416Y-103948780D01*
X154975496Y-104053370D01*
X154820362Y-104161918D01*
X154664161Y-104271514D01*
X154511042Y-104379250D01*
X154365155Y-104482215D01*
X154230647Y-104577501D01*
X154111666Y-104662198D01*
X154012363Y-104733396D01*
X153936885Y-104788187D01*
X153889381Y-104823661D01*
X153875517Y-104834937D01*
X153843447Y-104868826D01*
X153826481Y-104902998D01*
X153820801Y-104951405D01*
X153820801Y-104951405D01*
G37*
X153820801Y-104951405D02*
X153822588Y-105027997D01*
X153822600Y-105028272D01*
X153828907Y-105108389D01*
X153840238Y-105153715D01*
X153858589Y-105171683D01*
X153861281Y-105172339D01*
X153884465Y-105161757D01*
X153938895Y-105129054D01*
X154021198Y-105076476D01*
X154128000Y-105006269D01*
X154255930Y-104920678D01*
X154401613Y-104821947D01*
X154561677Y-104712322D01*
X154732750Y-104594048D01*
X154792614Y-104552408D01*
X154967744Y-104430031D01*
X155133435Y-104313523D01*
X155286210Y-104205378D01*
X155422592Y-104108093D01*
X155539105Y-104024161D01*
X155632272Y-103956078D01*
X155698617Y-103906339D01*
X155734662Y-103877438D01*
X155739041Y-103873211D01*
X155767890Y-103831263D01*
X155782427Y-103778578D01*
X155786653Y-103700070D01*
X155786666Y-103693655D01*
X155781312Y-103609067D01*
X155763441Y-103562355D01*
X155730346Y-103550216D01*
X155683094Y-103567290D01*
X155651586Y-103587033D01*
X155589971Y-103628191D01*
X155502398Y-103687854D01*
X155393015Y-103763113D01*
X155265972Y-103851058D01*
X155125416Y-103948780D01*
X154975496Y-104053370D01*
X154820362Y-104161918D01*
X154664161Y-104271514D01*
X154511042Y-104379250D01*
X154365155Y-104482215D01*
X154230647Y-104577501D01*
X154111666Y-104662198D01*
X154012363Y-104733396D01*
X153936885Y-104788187D01*
X153889381Y-104823661D01*
X153875517Y-104834937D01*
X153843447Y-104868826D01*
X153826481Y-104902998D01*
X153820801Y-104951405D01*
G36*
X153818166Y-105763960D02*
X153820396Y-105830050D01*
X153829383Y-105863823D01*
X153848577Y-105875161D01*
X153857144Y-105875667D01*
X153881606Y-105863859D01*
X153937274Y-105829954D01*
X154020742Y-105776228D01*
X154128605Y-105704958D01*
X154257457Y-105618421D01*
X154403891Y-105518891D01*
X154564501Y-105408647D01*
X154735882Y-105289965D01*
X154793769Y-105249651D01*
X154968708Y-105127432D01*
X155134253Y-105011358D01*
X155286926Y-104903897D01*
X155423252Y-104807514D01*
X155539754Y-104724676D01*
X155632954Y-104657850D01*
X155699377Y-104609503D01*
X155735544Y-104582102D01*
X155739962Y-104578346D01*
X155768611Y-104544540D01*
X155781768Y-104503392D01*
X155783376Y-104439774D01*
X155782295Y-104415904D01*
X155776838Y-104348443D01*
X155766820Y-104313413D01*
X155747935Y-104300911D01*
X155731919Y-104300059D01*
X155706421Y-104312166D01*
X155650446Y-104346120D01*
X155567968Y-104399161D01*
X155462960Y-104468532D01*
X155339394Y-104551472D01*
X155201244Y-104645225D01*
X155052481Y-104747030D01*
X154897080Y-104854130D01*
X154739011Y-104963765D01*
X154582249Y-105073178D01*
X154430767Y-105179609D01*
X154288536Y-105280300D01*
X154159529Y-105372492D01*
X154047720Y-105453426D01*
X153957081Y-105520344D01*
X153891585Y-105570487D01*
X153855205Y-105601097D01*
X153849946Y-105606881D01*
X153829884Y-105658395D01*
X153819086Y-105733912D01*
X153818166Y-105763960D01*
X153818166Y-105763960D01*
G37*
X153818166Y-105763960D02*
X153820396Y-105830050D01*
X153829383Y-105863823D01*
X153848577Y-105875161D01*
X153857144Y-105875667D01*
X153881606Y-105863859D01*
X153937274Y-105829954D01*
X154020742Y-105776228D01*
X154128605Y-105704958D01*
X154257457Y-105618421D01*
X154403891Y-105518891D01*
X154564501Y-105408647D01*
X154735882Y-105289965D01*
X154793769Y-105249651D01*
X154968708Y-105127432D01*
X155134253Y-105011358D01*
X155286926Y-104903897D01*
X155423252Y-104807514D01*
X155539754Y-104724676D01*
X155632954Y-104657850D01*
X155699377Y-104609503D01*
X155735544Y-104582102D01*
X155739962Y-104578346D01*
X155768611Y-104544540D01*
X155781768Y-104503392D01*
X155783376Y-104439774D01*
X155782295Y-104415904D01*
X155776838Y-104348443D01*
X155766820Y-104313413D01*
X155747935Y-104300911D01*
X155731919Y-104300059D01*
X155706421Y-104312166D01*
X155650446Y-104346120D01*
X155567968Y-104399161D01*
X155462960Y-104468532D01*
X155339394Y-104551472D01*
X155201244Y-104645225D01*
X155052481Y-104747030D01*
X154897080Y-104854130D01*
X154739011Y-104963765D01*
X154582249Y-105073178D01*
X154430767Y-105179609D01*
X154288536Y-105280300D01*
X154159529Y-105372492D01*
X154047720Y-105453426D01*
X153957081Y-105520344D01*
X153891585Y-105570487D01*
X153855205Y-105601097D01*
X153849946Y-105606881D01*
X153829884Y-105658395D01*
X153819086Y-105733912D01*
X153818166Y-105763960D01*
G36*
X153816252Y-106432801D02*
X153829566Y-106474726D01*
X153855747Y-106489500D01*
X153879928Y-106477695D01*
X153935329Y-106443795D01*
X154018553Y-106390075D01*
X154126203Y-106318809D01*
X154254882Y-106232270D01*
X154401194Y-106132732D01*
X154561741Y-106022469D01*
X154733127Y-105903756D01*
X154792372Y-105862494D01*
X154967397Y-105740236D01*
X155132999Y-105624186D01*
X155285711Y-105516802D01*
X155422064Y-105420539D01*
X155538590Y-105337853D01*
X155631820Y-105271202D01*
X155698286Y-105223041D01*
X155734520Y-105195826D01*
X155739041Y-105192055D01*
X155768331Y-105148728D01*
X155785459Y-105091450D01*
X155789654Y-105033206D01*
X155780148Y-104986978D01*
X155756166Y-104965751D01*
X155752492Y-104965500D01*
X155729685Y-104977257D01*
X155676234Y-105010714D01*
X155596073Y-105063147D01*
X155493136Y-105131835D01*
X155371359Y-105214054D01*
X155234674Y-105307082D01*
X155087018Y-105408196D01*
X154932323Y-105514674D01*
X154774524Y-105623792D01*
X154617556Y-105732828D01*
X154465353Y-105839060D01*
X154321849Y-105939765D01*
X154190979Y-106032219D01*
X154076676Y-106113701D01*
X153982876Y-106181488D01*
X153913512Y-106232856D01*
X153872520Y-106265085D01*
X153865791Y-106271151D01*
X153834953Y-106318230D01*
X153818244Y-106376374D01*
X153816252Y-106432801D01*
X153816252Y-106432801D01*
G37*
X153816252Y-106432801D02*
X153829566Y-106474726D01*
X153855747Y-106489500D01*
X153879928Y-106477695D01*
X153935329Y-106443795D01*
X154018553Y-106390075D01*
X154126203Y-106318809D01*
X154254882Y-106232270D01*
X154401194Y-106132732D01*
X154561741Y-106022469D01*
X154733127Y-105903756D01*
X154792372Y-105862494D01*
X154967397Y-105740236D01*
X155132999Y-105624186D01*
X155285711Y-105516802D01*
X155422064Y-105420539D01*
X155538590Y-105337853D01*
X155631820Y-105271202D01*
X155698286Y-105223041D01*
X155734520Y-105195826D01*
X155739041Y-105192055D01*
X155768331Y-105148728D01*
X155785459Y-105091450D01*
X155789654Y-105033206D01*
X155780148Y-104986978D01*
X155756166Y-104965751D01*
X155752492Y-104965500D01*
X155729685Y-104977257D01*
X155676234Y-105010714D01*
X155596073Y-105063147D01*
X155493136Y-105131835D01*
X155371359Y-105214054D01*
X155234674Y-105307082D01*
X155087018Y-105408196D01*
X154932323Y-105514674D01*
X154774524Y-105623792D01*
X154617556Y-105732828D01*
X154465353Y-105839060D01*
X154321849Y-105939765D01*
X154190979Y-106032219D01*
X154076676Y-106113701D01*
X153982876Y-106181488D01*
X153913512Y-106232856D01*
X153872520Y-106265085D01*
X153865791Y-106271151D01*
X153834953Y-106318230D01*
X153818244Y-106376374D01*
X153816252Y-106432801D01*
G36*
X153817264Y-106976875D02*
X153819634Y-107025746D01*
X153840477Y-107056489D01*
X153858158Y-107061000D01*
X153882879Y-107049207D01*
X153938792Y-107015355D01*
X154022457Y-106961733D01*
X154130437Y-106890633D01*
X154259293Y-106804343D01*
X154405586Y-106705155D01*
X154565879Y-106595357D01*
X154736733Y-106477240D01*
X154784200Y-106444240D01*
X154958473Y-106322672D01*
X155123662Y-106206944D01*
X155276210Y-106099580D01*
X155412560Y-106003108D01*
X155529156Y-105920054D01*
X155622441Y-105852943D01*
X155688858Y-105804302D01*
X155724851Y-105776657D01*
X155728458Y-105773530D01*
X155774704Y-105711875D01*
X155786666Y-105646989D01*
X155783200Y-105598576D01*
X155767380Y-105581531D01*
X155738712Y-105583565D01*
X155714117Y-105596810D01*
X155658893Y-105631668D01*
X155577029Y-105685387D01*
X155472512Y-105755211D01*
X155349331Y-105838388D01*
X155211474Y-105932163D01*
X155062930Y-106033783D01*
X154907686Y-106140495D01*
X154749730Y-106249543D01*
X154593052Y-106358175D01*
X154441639Y-106463637D01*
X154299479Y-106563175D01*
X154170560Y-106654035D01*
X154058872Y-106733464D01*
X153968402Y-106798707D01*
X153903138Y-106847012D01*
X153867068Y-106875623D01*
X153865791Y-106876770D01*
X153832830Y-106922882D01*
X153817264Y-106976875D01*
X153817264Y-106976875D01*
G37*
X153817264Y-106976875D02*
X153819634Y-107025746D01*
X153840477Y-107056489D01*
X153858158Y-107061000D01*
X153882879Y-107049207D01*
X153938792Y-107015355D01*
X154022457Y-106961733D01*
X154130437Y-106890633D01*
X154259293Y-106804343D01*
X154405586Y-106705155D01*
X154565879Y-106595357D01*
X154736733Y-106477240D01*
X154784200Y-106444240D01*
X154958473Y-106322672D01*
X155123662Y-106206944D01*
X155276210Y-106099580D01*
X155412560Y-106003108D01*
X155529156Y-105920054D01*
X155622441Y-105852943D01*
X155688858Y-105804302D01*
X155724851Y-105776657D01*
X155728458Y-105773530D01*
X155774704Y-105711875D01*
X155786666Y-105646989D01*
X155783200Y-105598576D01*
X155767380Y-105581531D01*
X155738712Y-105583565D01*
X155714117Y-105596810D01*
X155658893Y-105631668D01*
X155577029Y-105685387D01*
X155472512Y-105755211D01*
X155349331Y-105838388D01*
X155211474Y-105932163D01*
X155062930Y-106033783D01*
X154907686Y-106140495D01*
X154749730Y-106249543D01*
X154593052Y-106358175D01*
X154441639Y-106463637D01*
X154299479Y-106563175D01*
X154170560Y-106654035D01*
X154058872Y-106733464D01*
X153968402Y-106798707D01*
X153903138Y-106847012D01*
X153867068Y-106875623D01*
X153865791Y-106876770D01*
X153832830Y-106922882D01*
X153817264Y-106976875D01*
D10*
X147976952Y-99893428D02*
X147215047Y-99893428D01*
X147596000Y-100274380D02*
X147596000Y-99512476D01*
X151183952Y-99893428D02*
X150422047Y-99893428D01*
M02*
