M48
;DRILL file {KiCad (5.0.0-rc3-dev)} date 02/19/19 23:08:13
;FORMAT={-:-/ absolute / inch / decimal}
FMAT,2
INCH,TZ
T1C0.0157
T2C0.0315
T3C0.0394
%
G90
G05
M72
T1
X5.7771Y-4.4818
X5.79Y-4.175
X5.85Y-4.525
X5.875Y-4.425
X5.9116Y-4.0249
X5.935Y-4.6283
X5.9867Y-4.1326
X5.9985Y-4.5339
X6.065Y-4.49
T2
X5.7559Y-3.93
X5.9921Y-3.93
T3
X5.73Y-4.65
X5.73Y-4.75
X6.13Y-4.285
X6.13Y-4.385
X5.5945Y-4.6087
X5.5945Y-4.7087
X5.5945Y-4.8087
X6.2126Y-3.8949
X6.2126Y-3.9949
X6.0984Y-4.6087
X6.0984Y-4.7087
X5.5276Y-4.117
X5.5276Y-4.217
X5.6535Y-3.8949
X5.6535Y-3.9949
X5.5276Y-3.8949
X5.5276Y-3.9949
T0
M30
