%TF.GenerationSoftware,KiCad,Pcbnew,(5.0.0-rc3-dev)*%
%TF.CreationDate,2019-02-19T23:08:01+00:00*%
%TF.ProjectId,solar_breakout,736F6C61725F627265616B6F75742E6B,rev?*%
%TF.SameCoordinates,Original*%
%TF.FileFunction,Soldermask,Top*%
%TF.FilePolarity,Negative*%
%FSLAX46Y46*%
G04 Gerber Fmt 4.6, Leading zero omitted, Abs format (unit mm)*
G04 Created by KiCad (PCBNEW (5.0.0-rc3-dev)) date 02/19/19 23:08:01*
%MOMM*%
%LPD*%
G01*
G04 APERTURE LIST*
%ADD10C,0.010000*%
%ADD11C,0.150000*%
G04 APERTURE END LIST*
D10*
X157700000Y-124300000D02*
X138700000Y-124300000D01*
X157700000Y-104950000D02*
X157700000Y-124300000D01*
X159450000Y-97200000D02*
X159450000Y-103200000D01*
X157700000Y-104950000D02*
X159450000Y-103200000D01*
X138700000Y-97450000D02*
X138700000Y-124300000D01*
X155700000Y-93450000D02*
X155700000Y-88700000D01*
X159450000Y-97200000D02*
X155700000Y-93450000D01*
X142700000Y-93450000D02*
X142700000Y-88700000D01*
X138700000Y-97450000D02*
X142700000Y-93450000D01*
X155700000Y-88700000D02*
X142700000Y-88700000D01*
D11*
G36*
X153999000Y-123151000D02*
X151499000Y-123151000D01*
X151499000Y-121451000D01*
X153999000Y-121451000D01*
X153999000Y-123151000D01*
X153999000Y-123151000D01*
G37*
G36*
X149999000Y-123151000D02*
X147499000Y-123151000D01*
X147499000Y-121451000D01*
X149999000Y-121451000D01*
X149999000Y-123151000D01*
X149999000Y-123151000D01*
G37*
G36*
X142239451Y-121199127D02*
X142377105Y-121226508D01*
X142549994Y-121298121D01*
X142705590Y-121402087D01*
X142837913Y-121534410D01*
X142941879Y-121690006D01*
X143013492Y-121862895D01*
X143050000Y-122046433D01*
X143050000Y-122233567D01*
X143013492Y-122417105D01*
X142941879Y-122589994D01*
X142837913Y-122745590D01*
X142705590Y-122877913D01*
X142549994Y-122981879D01*
X142377105Y-123053492D01*
X142239452Y-123080873D01*
X142193568Y-123090000D01*
X142006432Y-123090000D01*
X141960548Y-123080873D01*
X141822895Y-123053492D01*
X141650006Y-122981879D01*
X141494410Y-122877913D01*
X141362087Y-122745590D01*
X141258121Y-122589994D01*
X141186508Y-122417105D01*
X141150000Y-122233567D01*
X141150000Y-122046433D01*
X141186508Y-121862895D01*
X141258121Y-121690006D01*
X141362087Y-121534410D01*
X141494410Y-121402087D01*
X141650006Y-121298121D01*
X141822895Y-121226508D01*
X141960549Y-121199127D01*
X142006432Y-121190000D01*
X142193568Y-121190000D01*
X142239451Y-121199127D01*
X142239451Y-121199127D01*
G37*
G36*
X146492000Y-121600000D02*
X144592000Y-121600000D01*
X144592000Y-119700000D01*
X146492000Y-119700000D01*
X146492000Y-121600000D01*
X146492000Y-121600000D01*
G37*
G36*
X152973000Y-120572000D02*
X151573000Y-120572000D01*
X151573000Y-117172000D01*
X152973000Y-117172000D01*
X152973000Y-120572000D01*
X152973000Y-120572000D01*
G37*
G36*
X148873000Y-120572000D02*
X147473000Y-120572000D01*
X147473000Y-117172000D01*
X148873000Y-117172000D01*
X148873000Y-120572000D01*
X148873000Y-120572000D01*
G37*
G36*
X155039452Y-118659127D02*
X155177105Y-118686508D01*
X155349994Y-118758121D01*
X155505590Y-118862087D01*
X155637913Y-118994410D01*
X155741879Y-119150006D01*
X155813492Y-119322895D01*
X155840873Y-119460548D01*
X155850000Y-119506432D01*
X155850000Y-119693568D01*
X155840873Y-119739452D01*
X155813492Y-119877105D01*
X155741879Y-120049994D01*
X155637913Y-120205590D01*
X155505590Y-120337913D01*
X155349994Y-120441879D01*
X155177105Y-120513492D01*
X155039452Y-120540873D01*
X154993568Y-120550000D01*
X154806432Y-120550000D01*
X154760548Y-120540873D01*
X154622895Y-120513492D01*
X154450006Y-120441879D01*
X154294410Y-120337913D01*
X154162087Y-120205590D01*
X154058121Y-120049994D01*
X153986508Y-119877105D01*
X153959127Y-119739452D01*
X153950000Y-119693568D01*
X153950000Y-119506432D01*
X153959127Y-119460548D01*
X153986508Y-119322895D01*
X154058121Y-119150006D01*
X154162087Y-118994410D01*
X154294410Y-118862087D01*
X154450006Y-118758121D01*
X154622895Y-118686508D01*
X154760548Y-118659127D01*
X154806432Y-118650000D01*
X154993568Y-118650000D01*
X155039452Y-118659127D01*
X155039452Y-118659127D01*
G37*
G36*
X142239452Y-118659127D02*
X142377105Y-118686508D01*
X142549994Y-118758121D01*
X142705590Y-118862087D01*
X142837913Y-118994410D01*
X142941879Y-119150006D01*
X143013492Y-119322895D01*
X143040873Y-119460548D01*
X143050000Y-119506432D01*
X143050000Y-119693568D01*
X143040873Y-119739452D01*
X143013492Y-119877105D01*
X142941879Y-120049994D01*
X142837913Y-120205590D01*
X142705590Y-120337913D01*
X142549994Y-120441879D01*
X142377105Y-120513492D01*
X142239452Y-120540873D01*
X142193568Y-120550000D01*
X142006432Y-120550000D01*
X141960548Y-120540873D01*
X141822895Y-120513492D01*
X141650006Y-120441879D01*
X141494410Y-120337913D01*
X141362087Y-120205590D01*
X141258121Y-120049994D01*
X141186508Y-119877105D01*
X141159127Y-119739452D01*
X141150000Y-119693568D01*
X141150000Y-119506432D01*
X141159127Y-119460548D01*
X141186508Y-119322895D01*
X141258121Y-119150006D01*
X141362087Y-118994410D01*
X141494410Y-118862087D01*
X141650006Y-118758121D01*
X141822895Y-118686508D01*
X141960548Y-118659127D01*
X142006432Y-118650000D01*
X142193568Y-118650000D01*
X142239452Y-118659127D01*
X142239452Y-118659127D01*
G37*
G36*
X145681452Y-117169127D02*
X145819105Y-117196508D01*
X145991994Y-117268121D01*
X146147590Y-117372087D01*
X146279913Y-117504410D01*
X146383879Y-117660006D01*
X146455492Y-117832895D01*
X146482873Y-117970549D01*
X146490721Y-118010000D01*
X146492000Y-118016433D01*
X146492000Y-118203567D01*
X146455492Y-118387105D01*
X146383879Y-118559994D01*
X146279913Y-118715590D01*
X146147590Y-118847913D01*
X145991994Y-118951879D01*
X145819105Y-119023492D01*
X145681451Y-119050873D01*
X145635568Y-119060000D01*
X145448432Y-119060000D01*
X145402549Y-119050873D01*
X145264895Y-119023492D01*
X145092006Y-118951879D01*
X144936410Y-118847913D01*
X144804087Y-118715590D01*
X144700121Y-118559994D01*
X144628508Y-118387105D01*
X144592000Y-118203567D01*
X144592000Y-118016433D01*
X144593280Y-118010000D01*
X144601127Y-117970549D01*
X144628508Y-117832895D01*
X144700121Y-117660006D01*
X144804087Y-117504410D01*
X144936410Y-117372087D01*
X145092006Y-117268121D01*
X145264895Y-117196508D01*
X145402548Y-117169127D01*
X145448432Y-117160000D01*
X145635568Y-117160000D01*
X145681452Y-117169127D01*
X145681452Y-117169127D01*
G37*
G36*
X143050000Y-118010000D02*
X141150000Y-118010000D01*
X141150000Y-116110000D01*
X143050000Y-116110000D01*
X143050000Y-118010000D01*
X143050000Y-118010000D01*
G37*
G36*
X155850000Y-118010000D02*
X153950000Y-118010000D01*
X153950000Y-116110000D01*
X155850000Y-116110000D01*
X155850000Y-118010000D01*
X155850000Y-118010000D01*
G37*
G36*
X147452000Y-115562000D02*
X146502000Y-115562000D01*
X146502000Y-114562000D01*
X147452000Y-114562000D01*
X147452000Y-115562000D01*
X147452000Y-115562000D01*
G37*
G36*
X145852000Y-115562000D02*
X144902000Y-115562000D01*
X144902000Y-114562000D01*
X145852000Y-114562000D01*
X145852000Y-115562000D01*
X145852000Y-115562000D01*
G37*
G36*
X150032000Y-115118000D02*
X149412000Y-115118000D01*
X149412000Y-114498000D01*
X150032000Y-114498000D01*
X150032000Y-115118000D01*
X150032000Y-115118000D01*
G37*
G36*
X150932000Y-115118000D02*
X150312000Y-115118000D01*
X150312000Y-114498000D01*
X150932000Y-114498000D01*
X150932000Y-115118000D01*
X150932000Y-115118000D01*
G37*
G36*
X153252000Y-114251000D02*
X151802000Y-114251000D01*
X151802000Y-113101000D01*
X153252000Y-113101000D01*
X153252000Y-114251000D01*
X153252000Y-114251000D01*
G37*
G36*
X150072066Y-111214446D02*
X150087612Y-111233388D01*
X150106554Y-111248934D01*
X150128165Y-111260485D01*
X150151614Y-111267598D01*
X150176000Y-111270000D01*
X151000000Y-111270000D01*
X151000000Y-113520000D01*
X150176000Y-113520000D01*
X150151614Y-113522402D01*
X150128165Y-113529515D01*
X150106554Y-113541066D01*
X150087612Y-113556612D01*
X150072066Y-113575554D01*
X150066483Y-113586000D01*
X148383517Y-113586000D01*
X148377934Y-113575554D01*
X148362388Y-113556612D01*
X148343446Y-113541066D01*
X148321835Y-113529515D01*
X148298386Y-113522402D01*
X148274000Y-113520000D01*
X147450000Y-113520000D01*
X147450000Y-111270000D01*
X148274000Y-111270000D01*
X148298386Y-111267598D01*
X148321835Y-111260485D01*
X148343446Y-111248934D01*
X148362388Y-111233388D01*
X148377934Y-111214446D01*
X148383517Y-111204000D01*
X150066483Y-111204000D01*
X150072066Y-111214446D01*
X150072066Y-111214446D01*
G37*
G36*
X146868000Y-113155000D02*
X146248000Y-113155000D01*
X146248000Y-112535000D01*
X146868000Y-112535000D01*
X146868000Y-113155000D01*
X146868000Y-113155000D01*
G37*
G36*
X153252000Y-112451000D02*
X151802000Y-112451000D01*
X151802000Y-111301000D01*
X153252000Y-111301000D01*
X153252000Y-112451000D01*
X153252000Y-112451000D01*
G37*
G36*
X155841452Y-110438127D02*
X155979105Y-110465508D01*
X156151994Y-110537121D01*
X156307590Y-110641087D01*
X156439913Y-110773410D01*
X156543879Y-110929006D01*
X156615492Y-111101895D01*
X156635802Y-111204000D01*
X156648453Y-111267598D01*
X156652000Y-111285433D01*
X156652000Y-111472567D01*
X156615492Y-111656105D01*
X156543879Y-111828994D01*
X156439913Y-111984590D01*
X156307590Y-112116913D01*
X156151994Y-112220879D01*
X155979105Y-112292492D01*
X155841452Y-112319873D01*
X155795568Y-112329000D01*
X155608432Y-112329000D01*
X155562548Y-112319873D01*
X155424895Y-112292492D01*
X155252006Y-112220879D01*
X155096410Y-112116913D01*
X154964087Y-111984590D01*
X154860121Y-111828994D01*
X154788508Y-111656105D01*
X154752000Y-111472567D01*
X154752000Y-111285433D01*
X154755548Y-111267598D01*
X154768198Y-111204000D01*
X154788508Y-111101895D01*
X154860121Y-110929006D01*
X154964087Y-110773410D01*
X155096410Y-110641087D01*
X155252006Y-110537121D01*
X155424895Y-110465508D01*
X155562548Y-110438127D01*
X155608432Y-110429000D01*
X155795568Y-110429000D01*
X155841452Y-110438127D01*
X155841452Y-110438127D01*
G37*
G36*
X146868000Y-112255000D02*
X146248000Y-112255000D01*
X146248000Y-111635000D01*
X146868000Y-111635000D01*
X146868000Y-112255000D01*
X146868000Y-112255000D01*
G37*
G36*
X149426200Y-110266600D02*
X148806200Y-110266600D01*
X148806200Y-109646600D01*
X149426200Y-109646600D01*
X149426200Y-110266600D01*
X149426200Y-110266600D01*
G37*
G36*
X148526200Y-110266600D02*
X147906200Y-110266600D01*
X147906200Y-109646600D01*
X148526200Y-109646600D01*
X148526200Y-110266600D01*
X148526200Y-110266600D01*
G37*
G36*
X151186000Y-110199000D02*
X150036000Y-110199000D01*
X150036000Y-108749000D01*
X151186000Y-108749000D01*
X151186000Y-110199000D01*
X151186000Y-110199000D01*
G37*
G36*
X152986000Y-110199000D02*
X151836000Y-110199000D01*
X151836000Y-108749000D01*
X152986000Y-108749000D01*
X152986000Y-110199000D01*
X152986000Y-110199000D01*
G37*
G36*
X144029800Y-109803000D02*
X142329800Y-109803000D01*
X142329800Y-107303000D01*
X144029800Y-107303000D01*
X144029800Y-109803000D01*
X144029800Y-109803000D01*
G37*
G36*
X156652000Y-109789000D02*
X154752000Y-109789000D01*
X154752000Y-107889000D01*
X156652000Y-107889000D01*
X156652000Y-109789000D01*
X156652000Y-109789000D01*
G37*
G36*
X141350000Y-108061800D02*
X139450000Y-108061800D01*
X139450000Y-106161800D01*
X141350000Y-106161800D01*
X141350000Y-108061800D01*
X141350000Y-108061800D01*
G37*
G36*
X151245000Y-106729000D02*
X149995000Y-106729000D01*
X149995000Y-103329000D01*
X151245000Y-103329000D01*
X151245000Y-106729000D01*
X151245000Y-106729000D01*
G37*
G36*
X157345000Y-106729000D02*
X156095000Y-106729000D01*
X156095000Y-103329000D01*
X157345000Y-103329000D01*
X157345000Y-106729000D01*
X157345000Y-106729000D01*
G37*
G36*
X144029800Y-105803000D02*
X142329800Y-105803000D01*
X142329800Y-103303000D01*
X144029800Y-103303000D01*
X144029800Y-105803000D01*
X144029800Y-105803000D01*
G37*
G36*
X140539452Y-103630927D02*
X140677105Y-103658308D01*
X140849994Y-103729921D01*
X141005590Y-103833887D01*
X141137913Y-103966210D01*
X141241879Y-104121806D01*
X141313492Y-104294695D01*
X141350000Y-104478233D01*
X141350000Y-104665367D01*
X141313492Y-104848905D01*
X141241879Y-105021794D01*
X141137913Y-105177390D01*
X141005590Y-105309713D01*
X140849994Y-105413679D01*
X140677105Y-105485292D01*
X140539452Y-105512673D01*
X140493568Y-105521800D01*
X140306432Y-105521800D01*
X140260548Y-105512673D01*
X140122895Y-105485292D01*
X139950006Y-105413679D01*
X139794410Y-105309713D01*
X139662087Y-105177390D01*
X139558121Y-105021794D01*
X139486508Y-104848905D01*
X139450000Y-104665367D01*
X139450000Y-104478233D01*
X139486508Y-104294695D01*
X139558121Y-104121806D01*
X139662087Y-103966210D01*
X139794410Y-103833887D01*
X139950006Y-103729921D01*
X140122895Y-103658308D01*
X140260548Y-103630927D01*
X140306432Y-103621800D01*
X140493568Y-103621800D01*
X140539452Y-103630927D01*
X140539452Y-103630927D01*
G37*
G36*
X147376000Y-105223000D02*
X146756000Y-105223000D01*
X146756000Y-104603000D01*
X147376000Y-104603000D01*
X147376000Y-105223000D01*
X147376000Y-105223000D01*
G37*
G36*
X149217000Y-104780000D02*
X148217000Y-104780000D01*
X148217000Y-103830000D01*
X149217000Y-103830000D01*
X149217000Y-104780000D01*
X149217000Y-104780000D01*
G37*
G36*
X147376000Y-104323000D02*
X146756000Y-104323000D01*
X146756000Y-103703000D01*
X147376000Y-103703000D01*
X147376000Y-104323000D01*
X147376000Y-104323000D01*
G37*
G36*
X149217000Y-103180000D02*
X148217000Y-103180000D01*
X148217000Y-102230000D01*
X149217000Y-102230000D01*
X149217000Y-103180000D01*
X149217000Y-103180000D01*
G37*
G36*
X158750000Y-102420000D02*
X156850000Y-102420000D01*
X156850000Y-100520000D01*
X158750000Y-100520000D01*
X158750000Y-102420000D01*
X158750000Y-102420000D01*
G37*
G36*
X140539451Y-100529127D02*
X140677105Y-100556508D01*
X140849994Y-100628121D01*
X141005590Y-100732087D01*
X141137913Y-100864410D01*
X141241879Y-101020006D01*
X141313492Y-101192895D01*
X141350000Y-101376433D01*
X141350000Y-101563567D01*
X141313492Y-101747105D01*
X141241879Y-101919994D01*
X141137913Y-102075590D01*
X141005590Y-102207913D01*
X140849994Y-102311879D01*
X140677105Y-102383492D01*
X140539452Y-102410873D01*
X140493568Y-102420000D01*
X140306432Y-102420000D01*
X140260548Y-102410873D01*
X140122895Y-102383492D01*
X139950006Y-102311879D01*
X139794410Y-102207913D01*
X139662087Y-102075590D01*
X139558121Y-101919994D01*
X139486508Y-101747105D01*
X139450000Y-101563567D01*
X139450000Y-101376433D01*
X139486508Y-101192895D01*
X139558121Y-101020006D01*
X139662087Y-100864410D01*
X139794410Y-100732087D01*
X139950006Y-100628121D01*
X140122895Y-100556508D01*
X140260548Y-100529127D01*
X140306432Y-100520000D01*
X140493568Y-100520000D01*
X140539451Y-100529127D01*
X140539451Y-100529127D01*
G37*
G36*
X144550000Y-102420000D02*
X142650000Y-102420000D01*
X142650000Y-100520000D01*
X144550000Y-100520000D01*
X144550000Y-102420000D01*
X144550000Y-102420000D01*
G37*
G36*
X146373195Y-99079522D02*
X146422267Y-99089283D01*
X146560942Y-99146724D01*
X146685750Y-99230118D01*
X146791882Y-99336250D01*
X146875276Y-99461058D01*
X146932717Y-99599734D01*
X146962000Y-99746948D01*
X146962000Y-99897052D01*
X146932717Y-100044266D01*
X146875276Y-100182942D01*
X146791882Y-100307750D01*
X146685750Y-100413882D01*
X146685747Y-100413884D01*
X146560942Y-100497276D01*
X146422267Y-100554717D01*
X146373195Y-100564478D01*
X146275052Y-100584000D01*
X146124948Y-100584000D01*
X146026805Y-100564478D01*
X145977733Y-100554717D01*
X145839058Y-100497276D01*
X145714253Y-100413884D01*
X145714250Y-100413882D01*
X145608118Y-100307750D01*
X145524724Y-100182942D01*
X145467283Y-100044266D01*
X145438000Y-99897052D01*
X145438000Y-99746948D01*
X145467283Y-99599734D01*
X145524724Y-99461058D01*
X145608118Y-99336250D01*
X145714250Y-99230118D01*
X145839058Y-99146724D01*
X145977733Y-99089283D01*
X146026805Y-99079522D01*
X146124948Y-99060000D01*
X146275052Y-99060000D01*
X146373195Y-99079522D01*
X146373195Y-99079522D01*
G37*
G36*
X152373195Y-99079522D02*
X152422267Y-99089283D01*
X152560942Y-99146724D01*
X152685750Y-99230118D01*
X152791882Y-99336250D01*
X152875276Y-99461058D01*
X152932717Y-99599734D01*
X152962000Y-99746948D01*
X152962000Y-99897052D01*
X152932717Y-100044266D01*
X152875276Y-100182942D01*
X152791882Y-100307750D01*
X152685750Y-100413882D01*
X152685747Y-100413884D01*
X152560942Y-100497276D01*
X152422267Y-100554717D01*
X152373195Y-100564478D01*
X152275052Y-100584000D01*
X152124948Y-100584000D01*
X152026805Y-100564478D01*
X151977733Y-100554717D01*
X151839058Y-100497276D01*
X151714253Y-100413884D01*
X151714250Y-100413882D01*
X151608118Y-100307750D01*
X151524724Y-100182942D01*
X151467283Y-100044266D01*
X151438000Y-99897052D01*
X151438000Y-99746948D01*
X151467283Y-99599734D01*
X151524724Y-99461058D01*
X151608118Y-99336250D01*
X151714250Y-99230118D01*
X151839058Y-99146724D01*
X151977733Y-99089283D01*
X152026805Y-99079522D01*
X152124948Y-99060000D01*
X152275052Y-99060000D01*
X152373195Y-99079522D01*
X152373195Y-99079522D01*
G37*
G36*
X148798500Y-100322000D02*
X147848500Y-100322000D01*
X147848500Y-99322000D01*
X148798500Y-99322000D01*
X148798500Y-100322000D01*
X148798500Y-100322000D01*
G37*
G36*
X150398500Y-100322000D02*
X149448500Y-100322000D01*
X149448500Y-99322000D01*
X150398500Y-99322000D01*
X150398500Y-100322000D01*
X150398500Y-100322000D01*
G37*
G36*
X141350000Y-99880000D02*
X139450000Y-99880000D01*
X139450000Y-97980000D01*
X141350000Y-97980000D01*
X141350000Y-99880000D01*
X141350000Y-99880000D01*
G37*
G36*
X143739452Y-97989127D02*
X143877105Y-98016508D01*
X144049994Y-98088121D01*
X144205590Y-98192087D01*
X144337913Y-98324410D01*
X144441879Y-98480006D01*
X144513492Y-98652895D01*
X144550000Y-98836433D01*
X144550000Y-99023567D01*
X144513492Y-99207105D01*
X144441879Y-99379994D01*
X144337913Y-99535590D01*
X144205590Y-99667913D01*
X144049994Y-99771879D01*
X143877105Y-99843492D01*
X143739452Y-99870873D01*
X143693568Y-99880000D01*
X143506432Y-99880000D01*
X143460548Y-99870873D01*
X143322895Y-99843492D01*
X143150006Y-99771879D01*
X142994410Y-99667913D01*
X142862087Y-99535590D01*
X142758121Y-99379994D01*
X142686508Y-99207105D01*
X142650000Y-99023567D01*
X142650000Y-98836433D01*
X142686508Y-98652895D01*
X142758121Y-98480006D01*
X142862087Y-98324410D01*
X142994410Y-98192087D01*
X143150006Y-98088121D01*
X143322895Y-98016508D01*
X143460549Y-97989127D01*
X143506432Y-97980000D01*
X143693568Y-97980000D01*
X143739452Y-97989127D01*
X143739452Y-97989127D01*
G37*
G36*
X157939452Y-97989127D02*
X158077105Y-98016508D01*
X158249994Y-98088121D01*
X158405590Y-98192087D01*
X158537913Y-98324410D01*
X158641879Y-98480006D01*
X158713492Y-98652895D01*
X158750000Y-98836433D01*
X158750000Y-99023567D01*
X158713492Y-99207105D01*
X158641879Y-99379994D01*
X158537913Y-99535590D01*
X158405590Y-99667913D01*
X158249994Y-99771879D01*
X158077105Y-99843492D01*
X157939452Y-99870873D01*
X157893568Y-99880000D01*
X157706432Y-99880000D01*
X157660548Y-99870873D01*
X157522895Y-99843492D01*
X157350006Y-99771879D01*
X157194410Y-99667913D01*
X157062087Y-99535590D01*
X156958121Y-99379994D01*
X156886508Y-99207105D01*
X156850000Y-99023567D01*
X156850000Y-98836433D01*
X156886508Y-98652895D01*
X156958121Y-98480006D01*
X157062087Y-98324410D01*
X157194410Y-98192087D01*
X157350006Y-98088121D01*
X157522895Y-98016508D01*
X157660549Y-97989127D01*
X157706432Y-97980000D01*
X157893568Y-97980000D01*
X157939452Y-97989127D01*
X157939452Y-97989127D01*
G37*
G36*
X149601072Y-92677840D02*
X149851304Y-92781489D01*
X150076515Y-92931971D01*
X150268029Y-93123485D01*
X150418511Y-93348696D01*
X150522160Y-93598928D01*
X150575000Y-93864573D01*
X150575000Y-94135427D01*
X150522160Y-94401072D01*
X150418511Y-94651304D01*
X150268029Y-94876515D01*
X150076515Y-95068029D01*
X149851304Y-95218511D01*
X149601072Y-95322160D01*
X149335427Y-95375000D01*
X149064573Y-95375000D01*
X148798928Y-95322160D01*
X148548696Y-95218511D01*
X148323485Y-95068029D01*
X148131971Y-94876515D01*
X147981489Y-94651304D01*
X147877840Y-94401072D01*
X147825000Y-94135427D01*
X147825000Y-93864573D01*
X147877840Y-93598928D01*
X147981489Y-93348696D01*
X148131971Y-93123485D01*
X148323485Y-92931971D01*
X148548696Y-92781489D01*
X148798928Y-92677840D01*
X149064573Y-92625000D01*
X149335427Y-92625000D01*
X149601072Y-92677840D01*
X149601072Y-92677840D01*
G37*
M02*
