%TF.GenerationSoftware,KiCad,Pcbnew,(5.0.0-rc3-dev)*%
%TF.CreationDate,2019-02-19T23:08:01+00:00*%
%TF.ProjectId,solar_breakout,736F6C61725F627265616B6F75742E6B,rev?*%
%TF.SameCoordinates,Original*%
%TF.FileFunction,Copper,L1,Top,Signal*%
%TF.FilePolarity,Positive*%
%FSLAX46Y46*%
G04 Gerber Fmt 4.6, Leading zero omitted, Abs format (unit mm)*
G04 Created by KiCad (PCBNEW (5.0.0-rc3-dev)) date 02/19/19 23:08:01*
%MOMM*%
%LPD*%
G01*
G04 APERTURE LIST*
%ADD10C,0.010000*%
%ADD11C,1.524000*%
%ADD12R,0.620000X0.620000*%
%ADD13C,1.900000*%
%ADD14R,1.900000X1.900000*%
%ADD15R,1.000000X0.950000*%
%ADD16R,1.150000X1.450000*%
%ADD17R,1.450000X1.150000*%
%ADD18R,2.500000X1.700000*%
%ADD19R,1.700000X2.500000*%
%ADD20R,0.700000X0.250000*%
%ADD21R,1.650000X2.380000*%
%ADD22R,1.400000X3.400000*%
%ADD23R,0.950000X1.000000*%
%ADD24R,1.250000X3.400000*%
%ADD25C,0.800000*%
%ADD26C,0.500000*%
%ADD27C,0.250000*%
%ADD28C,0.300000*%
G04 APERTURE END LIST*
D10*
X157700000Y-124300000D02*
X138700000Y-124300000D01*
X157700000Y-104950000D02*
X157700000Y-124300000D01*
X159450000Y-97200000D02*
X159450000Y-103200000D01*
X157700000Y-104950000D02*
X159450000Y-103200000D01*
X138700000Y-97450000D02*
X138700000Y-124300000D01*
X155700000Y-93450000D02*
X155700000Y-88700000D01*
X159450000Y-97200000D02*
X155700000Y-93450000D01*
X142700000Y-93450000D02*
X142700000Y-88700000D01*
X138700000Y-97450000D02*
X142700000Y-93450000D01*
X155700000Y-88700000D02*
X142700000Y-88700000D01*
D11*
X146200000Y-99822000D03*
X152200000Y-99822000D03*
D12*
X146558000Y-111945000D03*
X146558000Y-112845000D03*
D13*
X142100000Y-122140000D03*
X142100000Y-119600000D03*
D14*
X142100000Y-117060000D03*
D13*
X157800000Y-98930000D03*
D14*
X157800000Y-101470000D03*
D15*
X148717000Y-104305000D03*
X148717000Y-102705000D03*
D12*
X149722000Y-114808000D03*
X150622000Y-114808000D03*
D16*
X150611000Y-109474000D03*
X152411000Y-109474000D03*
D12*
X148216200Y-109956600D03*
X149116200Y-109956600D03*
D17*
X152527000Y-113676000D03*
X152527000Y-111876000D03*
D18*
X148749000Y-122301000D03*
X152749000Y-122301000D03*
D19*
X143179800Y-108553000D03*
X143179800Y-104553000D03*
D20*
X147800000Y-111395000D03*
X147800000Y-111895000D03*
X147800000Y-112395000D03*
X147800000Y-112895000D03*
X147800000Y-113395000D03*
X150650000Y-113395000D03*
X150650000Y-112895000D03*
X150650000Y-112395000D03*
X150650000Y-111895000D03*
X150650000Y-111395000D03*
D21*
X149225000Y-112395000D03*
D14*
X145542000Y-120650000D03*
D13*
X145542000Y-118110000D03*
X140400000Y-104571800D03*
D14*
X140400000Y-107111800D03*
D13*
X155702000Y-111379000D03*
D14*
X155702000Y-108839000D03*
D13*
X143600000Y-98930000D03*
D14*
X143600000Y-101470000D03*
X154900000Y-117060000D03*
D13*
X154900000Y-119600000D03*
D14*
X140400000Y-98930000D03*
D13*
X140400000Y-101470000D03*
D22*
X148173000Y-118872000D03*
X152273000Y-118872000D03*
D23*
X145377000Y-115062000D03*
X146977000Y-115062000D03*
X148323500Y-99822000D03*
X149923500Y-99822000D03*
D12*
X147066000Y-104013000D03*
X147066000Y-104913000D03*
D24*
X156720000Y-105029000D03*
X150620000Y-105029000D03*
D25*
X146737437Y-113837129D03*
X148590000Y-114935000D03*
X154051000Y-114046000D03*
X147066000Y-106045000D03*
X149225000Y-112395000D03*
X150154640Y-102232460D03*
X152062180Y-104968040D03*
X150749000Y-117559999D03*
X152361000Y-115159989D03*
D26*
X155702000Y-108839000D02*
X154252000Y-108839000D01*
X145288000Y-114973000D02*
X145288000Y-111196812D01*
X145377000Y-115062000D02*
X145288000Y-114973000D01*
X152592001Y-107179001D02*
X149784187Y-107179001D01*
X154252000Y-108839000D02*
X152592001Y-107179001D01*
D27*
X148717000Y-107767812D02*
X148694140Y-107790672D01*
X148717000Y-104305000D02*
X148717000Y-107767812D01*
D26*
X145288000Y-111196812D02*
X148694140Y-107790672D01*
X149305811Y-107179001D02*
X148717000Y-107767812D01*
X149784187Y-107179001D02*
X149305811Y-107179001D01*
D27*
X146558000Y-112845000D02*
X147124000Y-112845000D01*
X147200000Y-112395000D02*
X147800000Y-112395000D01*
X147124000Y-112471000D02*
X147200000Y-112395000D01*
X147124000Y-112845000D02*
X147124000Y-112471000D01*
X147124000Y-112845000D02*
X147124000Y-113353000D01*
X147124000Y-113353000D02*
X147124000Y-113450566D01*
X147124000Y-113450566D02*
X146737437Y-113837129D01*
D28*
X148717000Y-114808000D02*
X148590000Y-114935000D01*
D26*
X149722000Y-114808000D02*
X149098000Y-114808000D01*
X149098000Y-114808000D02*
X148717000Y-114808000D01*
D27*
X151772999Y-100020499D02*
X151574500Y-99822000D01*
D26*
X152348009Y-100389509D02*
X152348009Y-99782323D01*
X153797000Y-109474000D02*
X152411000Y-109474000D01*
X155702000Y-111379000D02*
X153797000Y-109474000D01*
X152527000Y-113676000D02*
X153681000Y-113676000D01*
X153681000Y-113676000D02*
X154051000Y-114046000D01*
X147066000Y-104913000D02*
X147066000Y-106045000D01*
X149682100Y-102705000D02*
X150154640Y-102232460D01*
X148717000Y-102705000D02*
X149682100Y-102705000D01*
X152001220Y-105029000D02*
X152062180Y-104968040D01*
X150620000Y-105029000D02*
X152001220Y-105029000D01*
D28*
X150650000Y-113395000D02*
X150650000Y-113820000D01*
D26*
X156350000Y-117060000D02*
X154900000Y-117060000D01*
X156464000Y-117174000D02*
X156350000Y-117060000D01*
X156464000Y-120336000D02*
X156464000Y-117174000D01*
X152749000Y-122301000D02*
X150749000Y-122301000D01*
X149373000Y-118872000D02*
X148173000Y-118872000D01*
X150749000Y-120248000D02*
X149373000Y-118872000D01*
X150749000Y-122301000D02*
X150749000Y-120248000D01*
D28*
X150650000Y-113820000D02*
X151638000Y-114808000D01*
D26*
X151511000Y-114808000D02*
X150622000Y-114808000D01*
X153849989Y-116009989D02*
X154900000Y-117060000D01*
X151511000Y-115567991D02*
X151511000Y-114808000D01*
X151952999Y-116009990D02*
X151511000Y-115567991D01*
X153849989Y-116009989D02*
X151952999Y-116009990D01*
X150749000Y-123211002D02*
X150749000Y-122301000D01*
X143179800Y-108553000D02*
X143179800Y-110303000D01*
X143179800Y-110303000D02*
X140462000Y-113020800D01*
X140462000Y-113020800D02*
X140462000Y-122574002D01*
X141732988Y-123844990D02*
X150115012Y-123844990D01*
X140462000Y-122574002D02*
X141732988Y-123844990D01*
X150115012Y-123844990D02*
X150749000Y-123211002D01*
X150115012Y-123844990D02*
X154119910Y-123844990D01*
X156464000Y-121500900D02*
X156464000Y-120336000D01*
X154119910Y-123844990D02*
X156464000Y-121500900D01*
D27*
X150650000Y-109513000D02*
X150611000Y-109474000D01*
X150650000Y-111395000D02*
X150650000Y-109513000D01*
X147800000Y-111395000D02*
X147800000Y-110962500D01*
X148216200Y-110546300D02*
X148216200Y-109956600D01*
X147800000Y-110962500D02*
X148216200Y-110546300D01*
X149535501Y-100959999D02*
X149410499Y-100959999D01*
X149923500Y-100572000D02*
X149535501Y-100959999D01*
X149923500Y-99822000D02*
X149923500Y-100572000D01*
X149410499Y-100959999D02*
X148901999Y-100959999D01*
X146870249Y-103007249D02*
X146870249Y-102991749D01*
X148901999Y-100959999D02*
X146870249Y-102991749D01*
X147066000Y-104013000D02*
X146535998Y-104013000D01*
X146535998Y-104013000D02*
X146117002Y-104431996D01*
X146117002Y-104682998D02*
X146117002Y-103744996D01*
X145054811Y-105745189D02*
X146117002Y-104682998D01*
X144641999Y-115887001D02*
X144392009Y-115637011D01*
X146112001Y-115887001D02*
X144641999Y-115887001D01*
X146175002Y-115824000D02*
X146112001Y-115887001D01*
X146177000Y-115824000D02*
X146175002Y-115824000D01*
X146117002Y-103744996D02*
X146870249Y-102991749D01*
X145922999Y-111374999D02*
X145922999Y-114047997D01*
X145922999Y-114047997D02*
X146177000Y-114301998D01*
X146177000Y-114301998D02*
X146177000Y-115824000D01*
X146335498Y-110962500D02*
X145922999Y-111374999D01*
X147800000Y-110962500D02*
X146335498Y-110962500D01*
X144712990Y-114166008D02*
X144712990Y-110938010D01*
X144392009Y-115637011D02*
X144392009Y-114486989D01*
X144392009Y-114486989D02*
X144712990Y-114166008D01*
X145054811Y-110596189D02*
X145054811Y-105745189D01*
X144712990Y-110938010D02*
X145054811Y-110596189D01*
D28*
X151426304Y-110955696D02*
X151350001Y-111031999D01*
X151300000Y-111895000D02*
X150650000Y-111895000D01*
X151350001Y-111844999D02*
X151300000Y-111895000D01*
X151350001Y-111031999D02*
X151350001Y-111844999D01*
X151381002Y-111876000D02*
X151350001Y-111844999D01*
X152527000Y-111876000D02*
X151381002Y-111876000D01*
D27*
X151511000Y-110871000D02*
X151426304Y-110955696D01*
X151511000Y-108488998D02*
X151511000Y-110871000D01*
X149775999Y-108423999D02*
X151446001Y-108423999D01*
X149116200Y-109083798D02*
X149775999Y-108423999D01*
X149116200Y-109956600D02*
X149116200Y-109083798D01*
D26*
X146050000Y-100965000D02*
X145542000Y-101473000D01*
X145053000Y-101473000D02*
X145050000Y-101470000D01*
X146050000Y-99822000D02*
X146050000Y-100965000D01*
X145050000Y-101470000D02*
X143600000Y-101470000D01*
X145542000Y-101473000D02*
X145053000Y-101473000D01*
X148323500Y-99822000D02*
X146200000Y-99822000D01*
X146200000Y-99822000D02*
X147791991Y-98230009D01*
X140400000Y-101470000D02*
X143600000Y-101470000D01*
X150987999Y-99101497D02*
X150987999Y-101398397D01*
X150116511Y-98230009D02*
X150987999Y-99101497D01*
X147791991Y-98230009D02*
X150116511Y-98230009D01*
X151510001Y-102878999D02*
X151510001Y-101920399D01*
X155810003Y-107179001D02*
X151510001Y-102878999D01*
X156836001Y-107179001D02*
X155810003Y-107179001D01*
X157102001Y-107445001D02*
X156836001Y-107179001D01*
X157102001Y-112051001D02*
X157102001Y-107445001D01*
X156374001Y-112779001D02*
X157102001Y-112051001D01*
X151510001Y-101920399D02*
X150987999Y-101398397D01*
X153670000Y-111419002D02*
X153670000Y-110955696D01*
X155029999Y-112779001D02*
X153670000Y-111419002D01*
X156374001Y-112779001D02*
X155029999Y-112779001D01*
X144279802Y-102149802D02*
X143600000Y-101470000D01*
X143816999Y-110825803D02*
X144479801Y-110163001D01*
X153499999Y-118199999D02*
X153499999Y-116888997D01*
X154900000Y-119600000D02*
X153499999Y-118199999D01*
X153499999Y-116888997D02*
X153321001Y-116709999D01*
X153321001Y-116709999D02*
X144395999Y-116709999D01*
X144395999Y-116709999D02*
X143816999Y-116130999D01*
X143816999Y-116130999D02*
X143816999Y-110825803D01*
X151595696Y-110955696D02*
X151511000Y-110871000D01*
X153670000Y-110955696D02*
X151595696Y-110955696D01*
X145542000Y-102615521D02*
X144479801Y-103677720D01*
X145542000Y-101473000D02*
X145542000Y-102615521D01*
X144479801Y-110163001D02*
X144479801Y-103677720D01*
D27*
X146608000Y-111895000D02*
X146558000Y-111945000D01*
X147800000Y-111895000D02*
X146608000Y-111895000D01*
D26*
X145542000Y-122100000D02*
X145542000Y-120650000D01*
X145743000Y-122301000D02*
X145542000Y-122100000D01*
X148749000Y-122301000D02*
X145743000Y-122301000D01*
X140813000Y-107524800D02*
X140400000Y-107111800D01*
X143179800Y-106303000D02*
X142675800Y-106807000D01*
X143179800Y-104553000D02*
X143179800Y-106303000D01*
X142154800Y-106807000D02*
X140690600Y-106807000D01*
X142675800Y-106807000D02*
X142154800Y-106807000D01*
D27*
X146977000Y-115062000D02*
X147702000Y-115062000D01*
X147800000Y-114964000D02*
X147800000Y-113395000D01*
X147702000Y-115062000D02*
X147800000Y-114964000D01*
D28*
X151300000Y-112895000D02*
X150650000Y-112895000D01*
X151369000Y-112826000D02*
X151300000Y-112895000D01*
X151369000Y-112776000D02*
X151369000Y-112826000D01*
D26*
X151073000Y-118872000D02*
X150749000Y-118548000D01*
X152273000Y-118872000D02*
X151073000Y-118872000D01*
X150749000Y-118548000D02*
X150749000Y-117559999D01*
D27*
X153543000Y-112776000D02*
X151369000Y-112776000D01*
D28*
X153543000Y-112776000D02*
X153545805Y-112776000D01*
X153543000Y-112776000D02*
X153905807Y-112776000D01*
D26*
X153445011Y-115159989D02*
X152361000Y-115159989D01*
X154195013Y-115159989D02*
X153445011Y-115159989D01*
X154940000Y-114415002D02*
X154195013Y-115159989D01*
X154940000Y-113678964D02*
X154940000Y-114415002D01*
X154037036Y-112776000D02*
X154940000Y-113678964D01*
X153905807Y-112776000D02*
X154037036Y-112776000D01*
X141850000Y-98930000D02*
X140400000Y-98930000D01*
X156720000Y-105029000D02*
X155595000Y-105029000D01*
X154279600Y-103713600D02*
X154279600Y-99117876D01*
X154279600Y-99117876D02*
X152691723Y-97529999D01*
X155595000Y-105029000D02*
X154279600Y-103713600D01*
X152691723Y-97529999D02*
X142927999Y-97529999D01*
X142199999Y-98580001D02*
X141850000Y-98930000D01*
X142199999Y-98257999D02*
X142199999Y-98580001D01*
X142927999Y-97529999D02*
X142199999Y-98257999D01*
M02*
