%TF.GenerationSoftware,KiCad,Pcbnew,(5.0.0-rc3-dev)*%
%TF.CreationDate,2019-02-19T23:04:41+00:00*%
%TF.ProjectId,battery_breakout,626174746572795F627265616B6F7574,rev?*%
%TF.SameCoordinates,Original*%
%TF.FileFunction,Copper,L1,Top,Signal*%
%TF.FilePolarity,Positive*%
%FSLAX46Y46*%
G04 Gerber Fmt 4.6, Leading zero omitted, Abs format (unit mm)*
G04 Created by KiCad (PCBNEW (5.0.0-rc3-dev)) date 02/19/19 23:04:41*
%MOMM*%
%LPD*%
G01*
G04 APERTURE LIST*
%ADD10C,0.010000*%
%ADD11C,1.900000*%
%ADD12R,1.900000X1.900000*%
%ADD13C,2.000000*%
%ADD14C,0.254000*%
G04 APERTURE END LIST*
D10*
X156600000Y-130100000D02*
X160500000Y-134000000D01*
X160500000Y-134000000D02*
X160500000Y-136000000D01*
X139700000Y-96450000D02*
X139700000Y-102000000D01*
X143550000Y-110750000D02*
X143550000Y-105850000D01*
X139700000Y-114600000D02*
X143550000Y-110750000D01*
X139700000Y-102000000D02*
X143550000Y-105850000D01*
X151900000Y-154400000D02*
X151900000Y-144600000D01*
X160500000Y-136000000D02*
X151900000Y-144600000D01*
X146500000Y-130800000D02*
X139700000Y-124000000D01*
X146500000Y-154400000D02*
X146500000Y-130800000D01*
X151900000Y-154400000D02*
X146500000Y-154400000D01*
X156600000Y-130100000D02*
X156600000Y-106050000D01*
X156600000Y-106050000D02*
X159450000Y-103200000D01*
X159450000Y-103200000D02*
X159450000Y-97200000D01*
X139700000Y-114600000D02*
X139700000Y-124000000D01*
X155700000Y-88700000D02*
X155700000Y-93450000D01*
X159450000Y-97200000D02*
X155700000Y-93450000D01*
X142700000Y-93450000D02*
X142700000Y-88700000D01*
X139700000Y-96450000D02*
X142700000Y-93450000D01*
X155700000Y-88700000D02*
X142700000Y-88700000D01*
D11*
X149200000Y-100000000D03*
X149200000Y-152000000D03*
X149200000Y-148000000D03*
X149200000Y-103300000D03*
D12*
X154900000Y-117060000D03*
D11*
X154900000Y-119600000D03*
X142100000Y-122140000D03*
X142100000Y-119600000D03*
D12*
X142100000Y-117060000D03*
D11*
X157800000Y-98930000D03*
D12*
X157800000Y-101470000D03*
X143600000Y-101470000D03*
D11*
X143600000Y-98930000D03*
D13*
X158800000Y-135000000D03*
D14*
G36*
X156789621Y-97698850D02*
X156568850Y-97919621D01*
X156395391Y-98179221D01*
X156275911Y-98467673D01*
X156215000Y-98773891D01*
X156215000Y-99086109D01*
X156275911Y-99392327D01*
X156395391Y-99680779D01*
X156568850Y-99940379D01*
X156575289Y-99946818D01*
X156495506Y-99989463D01*
X156398815Y-100068815D01*
X156319463Y-100165506D01*
X156260498Y-100275820D01*
X156224188Y-100395518D01*
X156211928Y-100520000D01*
X156211928Y-102420000D01*
X156224188Y-102544482D01*
X156260498Y-102664180D01*
X156319463Y-102774494D01*
X156398815Y-102871185D01*
X156495506Y-102950537D01*
X156605820Y-103009502D01*
X156725518Y-103045812D01*
X156850000Y-103058072D01*
X158686832Y-103058072D01*
X156169682Y-105575222D01*
X156145263Y-105595262D01*
X156065286Y-105692715D01*
X156005858Y-105803898D01*
X155969261Y-105924539D01*
X155956904Y-106050000D01*
X155960001Y-106081444D01*
X155960001Y-115482762D01*
X155850000Y-115471928D01*
X153950000Y-115471928D01*
X153825518Y-115484188D01*
X153705820Y-115520498D01*
X153595506Y-115579463D01*
X153498815Y-115658815D01*
X153419463Y-115755506D01*
X153360498Y-115865820D01*
X153324188Y-115985518D01*
X153311928Y-116110000D01*
X153311928Y-118010000D01*
X153324188Y-118134482D01*
X153360498Y-118254180D01*
X153419463Y-118364494D01*
X153498815Y-118461185D01*
X153595506Y-118540537D01*
X153705820Y-118599502D01*
X153726022Y-118605630D01*
X153800246Y-118679854D01*
X153540958Y-118769579D01*
X153405065Y-119050671D01*
X153326621Y-119352873D01*
X153308641Y-119664573D01*
X153351816Y-119973791D01*
X153454487Y-120268644D01*
X153540958Y-120430421D01*
X153800248Y-120520147D01*
X154720395Y-119600000D01*
X154706253Y-119585858D01*
X154885858Y-119406253D01*
X154900000Y-119420395D01*
X154914143Y-119406253D01*
X155093748Y-119585858D01*
X155079605Y-119600000D01*
X155093748Y-119614143D01*
X154914143Y-119793748D01*
X154900000Y-119779605D01*
X153979853Y-120699752D01*
X154069579Y-120959042D01*
X154350671Y-121094935D01*
X154652873Y-121173379D01*
X154964573Y-121191359D01*
X155273791Y-121148184D01*
X155568644Y-121045513D01*
X155730421Y-120959042D01*
X155820146Y-120699754D01*
X155935949Y-120815557D01*
X155960000Y-120791506D01*
X155960000Y-130068566D01*
X155956904Y-130100000D01*
X155960000Y-130131433D01*
X155969261Y-130225461D01*
X156005857Y-130346101D01*
X156065285Y-130457284D01*
X156145262Y-130554738D01*
X156169687Y-130574783D01*
X158959903Y-133365000D01*
X158638967Y-133365000D01*
X158323088Y-133427832D01*
X158025537Y-133551082D01*
X157757748Y-133730013D01*
X157530013Y-133957748D01*
X157351082Y-134225537D01*
X157227832Y-134523088D01*
X157165000Y-134838967D01*
X157165000Y-135161033D01*
X157227832Y-135476912D01*
X157351082Y-135774463D01*
X157530013Y-136042252D01*
X157757748Y-136269987D01*
X158025537Y-136448918D01*
X158323088Y-136572168D01*
X158638967Y-136635000D01*
X158959904Y-136635000D01*
X151469682Y-144125222D01*
X151445263Y-144145262D01*
X151365286Y-144242715D01*
X151305858Y-144353898D01*
X151269261Y-144474539D01*
X151256904Y-144600000D01*
X151260001Y-144631444D01*
X151260000Y-153760000D01*
X147140000Y-153760000D01*
X147140000Y-151843891D01*
X147615000Y-151843891D01*
X147615000Y-152156109D01*
X147675911Y-152462327D01*
X147795391Y-152750779D01*
X147968850Y-153010379D01*
X148189621Y-153231150D01*
X148449221Y-153404609D01*
X148737673Y-153524089D01*
X149043891Y-153585000D01*
X149356109Y-153585000D01*
X149662327Y-153524089D01*
X149950779Y-153404609D01*
X150210379Y-153231150D01*
X150431150Y-153010379D01*
X150604609Y-152750779D01*
X150724089Y-152462327D01*
X150785000Y-152156109D01*
X150785000Y-151843891D01*
X150724089Y-151537673D01*
X150604609Y-151249221D01*
X150431150Y-150989621D01*
X150210379Y-150768850D01*
X149950779Y-150595391D01*
X149662327Y-150475911D01*
X149356109Y-150415000D01*
X149043891Y-150415000D01*
X148737673Y-150475911D01*
X148449221Y-150595391D01*
X148189621Y-150768850D01*
X147968850Y-150989621D01*
X147795391Y-151249221D01*
X147675911Y-151537673D01*
X147615000Y-151843891D01*
X147140000Y-151843891D01*
X147140000Y-147843891D01*
X147615000Y-147843891D01*
X147615000Y-148156109D01*
X147675911Y-148462327D01*
X147795391Y-148750779D01*
X147968850Y-149010379D01*
X148189621Y-149231150D01*
X148449221Y-149404609D01*
X148737673Y-149524089D01*
X149043891Y-149585000D01*
X149356109Y-149585000D01*
X149662327Y-149524089D01*
X149950779Y-149404609D01*
X150210379Y-149231150D01*
X150431150Y-149010379D01*
X150604609Y-148750779D01*
X150724089Y-148462327D01*
X150785000Y-148156109D01*
X150785000Y-147843891D01*
X150724089Y-147537673D01*
X150604609Y-147249221D01*
X150431150Y-146989621D01*
X150210379Y-146768850D01*
X149950779Y-146595391D01*
X149662327Y-146475911D01*
X149356109Y-146415000D01*
X149043891Y-146415000D01*
X148737673Y-146475911D01*
X148449221Y-146595391D01*
X148189621Y-146768850D01*
X147968850Y-146989621D01*
X147795391Y-147249221D01*
X147675911Y-147537673D01*
X147615000Y-147843891D01*
X147140000Y-147843891D01*
X147140000Y-130831433D01*
X147143096Y-130799999D01*
X147130739Y-130674537D01*
X147118659Y-130634715D01*
X147094143Y-130553898D01*
X147034715Y-130442715D01*
X146954738Y-130345262D01*
X146930319Y-130325222D01*
X140340000Y-123734904D01*
X140340000Y-116110000D01*
X140511928Y-116110000D01*
X140511928Y-118010000D01*
X140524188Y-118134482D01*
X140560498Y-118254180D01*
X140619463Y-118364494D01*
X140698815Y-118461185D01*
X140795506Y-118540537D01*
X140875289Y-118583182D01*
X140868850Y-118589621D01*
X140695391Y-118849221D01*
X140575911Y-119137673D01*
X140515000Y-119443891D01*
X140515000Y-119756109D01*
X140575911Y-120062327D01*
X140695391Y-120350779D01*
X140868850Y-120610379D01*
X141089621Y-120831150D01*
X141147764Y-120870000D01*
X141089621Y-120908850D01*
X140868850Y-121129621D01*
X140695391Y-121389221D01*
X140575911Y-121677673D01*
X140515000Y-121983891D01*
X140515000Y-122296109D01*
X140575911Y-122602327D01*
X140695391Y-122890779D01*
X140868850Y-123150379D01*
X141089621Y-123371150D01*
X141349221Y-123544609D01*
X141637673Y-123664089D01*
X141943891Y-123725000D01*
X142256109Y-123725000D01*
X142562327Y-123664089D01*
X142850779Y-123544609D01*
X143110379Y-123371150D01*
X143331150Y-123150379D01*
X143504609Y-122890779D01*
X143624089Y-122602327D01*
X143685000Y-122296109D01*
X143685000Y-121983891D01*
X143624089Y-121677673D01*
X143504609Y-121389221D01*
X143331150Y-121129621D01*
X143110379Y-120908850D01*
X143052236Y-120870000D01*
X143110379Y-120831150D01*
X143331150Y-120610379D01*
X143504609Y-120350779D01*
X143624089Y-120062327D01*
X143685000Y-119756109D01*
X143685000Y-119443891D01*
X143624089Y-119137673D01*
X143504609Y-118849221D01*
X143331150Y-118589621D01*
X143324711Y-118583182D01*
X143404494Y-118540537D01*
X143501185Y-118461185D01*
X143580537Y-118364494D01*
X143639502Y-118254180D01*
X143675812Y-118134482D01*
X143688072Y-118010000D01*
X143688072Y-116110000D01*
X143675812Y-115985518D01*
X143639502Y-115865820D01*
X143580537Y-115755506D01*
X143501185Y-115658815D01*
X143404494Y-115579463D01*
X143294180Y-115520498D01*
X143174482Y-115484188D01*
X143050000Y-115471928D01*
X141150000Y-115471928D01*
X141025518Y-115484188D01*
X140905820Y-115520498D01*
X140795506Y-115579463D01*
X140698815Y-115658815D01*
X140619463Y-115755506D01*
X140560498Y-115865820D01*
X140524188Y-115985518D01*
X140511928Y-116110000D01*
X140340000Y-116110000D01*
X140340000Y-114865096D01*
X143980320Y-111224777D01*
X144004738Y-111204738D01*
X144084715Y-111107285D01*
X144144143Y-110996102D01*
X144180739Y-110875462D01*
X144190000Y-110781434D01*
X144190000Y-110781433D01*
X144193096Y-110750001D01*
X144190000Y-110718567D01*
X144190000Y-105881433D01*
X144193096Y-105849999D01*
X144180739Y-105724537D01*
X144148930Y-105619679D01*
X144144143Y-105603898D01*
X144084715Y-105492715D01*
X144004738Y-105395262D01*
X143980319Y-105375222D01*
X143004849Y-104399752D01*
X148279853Y-104399752D01*
X148369579Y-104659042D01*
X148650671Y-104794935D01*
X148952873Y-104873379D01*
X149264573Y-104891359D01*
X149573791Y-104848184D01*
X149868644Y-104745513D01*
X150030421Y-104659042D01*
X150120147Y-104399752D01*
X149200000Y-103479605D01*
X148279853Y-104399752D01*
X143004849Y-104399752D01*
X141969670Y-103364573D01*
X147608641Y-103364573D01*
X147651816Y-103673791D01*
X147754487Y-103968644D01*
X147840958Y-104130421D01*
X148100248Y-104220147D01*
X149020395Y-103300000D01*
X149379605Y-103300000D01*
X150299752Y-104220147D01*
X150559042Y-104130421D01*
X150694935Y-103849329D01*
X150773379Y-103547127D01*
X150791359Y-103235427D01*
X150748184Y-102926209D01*
X150645513Y-102631356D01*
X150559042Y-102469579D01*
X150299752Y-102379853D01*
X149379605Y-103300000D01*
X149020395Y-103300000D01*
X148100248Y-102379853D01*
X147840958Y-102469579D01*
X147705065Y-102750671D01*
X147626621Y-103052873D01*
X147608641Y-103364573D01*
X141969670Y-103364573D01*
X140360847Y-101755750D01*
X142015000Y-101755750D01*
X142015000Y-102482542D01*
X142039403Y-102605223D01*
X142087270Y-102720785D01*
X142156763Y-102824789D01*
X142245211Y-102913237D01*
X142349215Y-102982730D01*
X142464777Y-103030597D01*
X142587458Y-103055000D01*
X143314250Y-103055000D01*
X143473000Y-102896250D01*
X143473000Y-101597000D01*
X143727000Y-101597000D01*
X143727000Y-102896250D01*
X143885750Y-103055000D01*
X144612542Y-103055000D01*
X144735223Y-103030597D01*
X144850785Y-102982730D01*
X144954789Y-102913237D01*
X145043237Y-102824789D01*
X145112730Y-102720785D01*
X145160597Y-102605223D01*
X145185000Y-102482542D01*
X145185000Y-102200248D01*
X148279853Y-102200248D01*
X149200000Y-103120395D01*
X150120147Y-102200248D01*
X150030421Y-101940958D01*
X149749329Y-101805065D01*
X149447127Y-101726621D01*
X149135427Y-101708641D01*
X148826209Y-101751816D01*
X148531356Y-101854487D01*
X148369579Y-101940958D01*
X148279853Y-102200248D01*
X145185000Y-102200248D01*
X145185000Y-101755750D01*
X145026250Y-101597000D01*
X143727000Y-101597000D01*
X143473000Y-101597000D01*
X142173750Y-101597000D01*
X142015000Y-101755750D01*
X140360847Y-101755750D01*
X140340000Y-101734904D01*
X140340000Y-97723100D01*
X142581575Y-97706896D01*
X142368850Y-97919621D01*
X142195391Y-98179221D01*
X142075911Y-98467673D01*
X142015000Y-98773891D01*
X142015000Y-99086109D01*
X142075911Y-99392327D01*
X142195391Y-99680779D01*
X142368850Y-99940379D01*
X142375043Y-99946572D01*
X142349215Y-99957270D01*
X142245211Y-100026763D01*
X142156763Y-100115211D01*
X142087270Y-100219215D01*
X142039403Y-100334777D01*
X142015000Y-100457458D01*
X142015000Y-101184250D01*
X142173750Y-101343000D01*
X143473000Y-101343000D01*
X143473000Y-101323000D01*
X143727000Y-101323000D01*
X143727000Y-101343000D01*
X145026250Y-101343000D01*
X145185000Y-101184250D01*
X145185000Y-101099752D01*
X148279853Y-101099752D01*
X148369579Y-101359042D01*
X148650671Y-101494935D01*
X148952873Y-101573379D01*
X149264573Y-101591359D01*
X149573791Y-101548184D01*
X149868644Y-101445513D01*
X150030421Y-101359042D01*
X150120147Y-101099752D01*
X149200000Y-100179605D01*
X148279853Y-101099752D01*
X145185000Y-101099752D01*
X145185000Y-100457458D01*
X145160597Y-100334777D01*
X145112730Y-100219215D01*
X145043237Y-100115211D01*
X144992599Y-100064573D01*
X147608641Y-100064573D01*
X147651816Y-100373791D01*
X147754487Y-100668644D01*
X147840958Y-100830421D01*
X148100248Y-100920147D01*
X149020395Y-100000000D01*
X149379605Y-100000000D01*
X150299752Y-100920147D01*
X150559042Y-100830421D01*
X150694935Y-100549329D01*
X150773379Y-100247127D01*
X150791359Y-99935427D01*
X150748184Y-99626209D01*
X150645513Y-99331356D01*
X150559042Y-99169579D01*
X150299752Y-99079853D01*
X149379605Y-100000000D01*
X149020395Y-100000000D01*
X148100248Y-99079853D01*
X147840958Y-99169579D01*
X147705065Y-99450671D01*
X147626621Y-99752873D01*
X147608641Y-100064573D01*
X144992599Y-100064573D01*
X144954789Y-100026763D01*
X144850785Y-99957270D01*
X144824957Y-99946572D01*
X144831150Y-99940379D01*
X145004609Y-99680779D01*
X145124089Y-99392327D01*
X145185000Y-99086109D01*
X145185000Y-98900248D01*
X148279853Y-98900248D01*
X149200000Y-99820395D01*
X150120147Y-98900248D01*
X150030421Y-98640958D01*
X149749329Y-98505065D01*
X149447127Y-98426621D01*
X149135427Y-98408641D01*
X148826209Y-98451816D01*
X148531356Y-98554487D01*
X148369579Y-98640958D01*
X148279853Y-98900248D01*
X145185000Y-98900248D01*
X145185000Y-98773891D01*
X145124089Y-98467673D01*
X145004609Y-98179221D01*
X144831150Y-97919621D01*
X144610379Y-97698850D01*
X144600578Y-97692301D01*
X156932843Y-97603152D01*
X156789621Y-97698850D01*
X156789621Y-97698850D01*
G37*
X156789621Y-97698850D02*
X156568850Y-97919621D01*
X156395391Y-98179221D01*
X156275911Y-98467673D01*
X156215000Y-98773891D01*
X156215000Y-99086109D01*
X156275911Y-99392327D01*
X156395391Y-99680779D01*
X156568850Y-99940379D01*
X156575289Y-99946818D01*
X156495506Y-99989463D01*
X156398815Y-100068815D01*
X156319463Y-100165506D01*
X156260498Y-100275820D01*
X156224188Y-100395518D01*
X156211928Y-100520000D01*
X156211928Y-102420000D01*
X156224188Y-102544482D01*
X156260498Y-102664180D01*
X156319463Y-102774494D01*
X156398815Y-102871185D01*
X156495506Y-102950537D01*
X156605820Y-103009502D01*
X156725518Y-103045812D01*
X156850000Y-103058072D01*
X158686832Y-103058072D01*
X156169682Y-105575222D01*
X156145263Y-105595262D01*
X156065286Y-105692715D01*
X156005858Y-105803898D01*
X155969261Y-105924539D01*
X155956904Y-106050000D01*
X155960001Y-106081444D01*
X155960001Y-115482762D01*
X155850000Y-115471928D01*
X153950000Y-115471928D01*
X153825518Y-115484188D01*
X153705820Y-115520498D01*
X153595506Y-115579463D01*
X153498815Y-115658815D01*
X153419463Y-115755506D01*
X153360498Y-115865820D01*
X153324188Y-115985518D01*
X153311928Y-116110000D01*
X153311928Y-118010000D01*
X153324188Y-118134482D01*
X153360498Y-118254180D01*
X153419463Y-118364494D01*
X153498815Y-118461185D01*
X153595506Y-118540537D01*
X153705820Y-118599502D01*
X153726022Y-118605630D01*
X153800246Y-118679854D01*
X153540958Y-118769579D01*
X153405065Y-119050671D01*
X153326621Y-119352873D01*
X153308641Y-119664573D01*
X153351816Y-119973791D01*
X153454487Y-120268644D01*
X153540958Y-120430421D01*
X153800248Y-120520147D01*
X154720395Y-119600000D01*
X154706253Y-119585858D01*
X154885858Y-119406253D01*
X154900000Y-119420395D01*
X154914143Y-119406253D01*
X155093748Y-119585858D01*
X155079605Y-119600000D01*
X155093748Y-119614143D01*
X154914143Y-119793748D01*
X154900000Y-119779605D01*
X153979853Y-120699752D01*
X154069579Y-120959042D01*
X154350671Y-121094935D01*
X154652873Y-121173379D01*
X154964573Y-121191359D01*
X155273791Y-121148184D01*
X155568644Y-121045513D01*
X155730421Y-120959042D01*
X155820146Y-120699754D01*
X155935949Y-120815557D01*
X155960000Y-120791506D01*
X155960000Y-130068566D01*
X155956904Y-130100000D01*
X155960000Y-130131433D01*
X155969261Y-130225461D01*
X156005857Y-130346101D01*
X156065285Y-130457284D01*
X156145262Y-130554738D01*
X156169687Y-130574783D01*
X158959903Y-133365000D01*
X158638967Y-133365000D01*
X158323088Y-133427832D01*
X158025537Y-133551082D01*
X157757748Y-133730013D01*
X157530013Y-133957748D01*
X157351082Y-134225537D01*
X157227832Y-134523088D01*
X157165000Y-134838967D01*
X157165000Y-135161033D01*
X157227832Y-135476912D01*
X157351082Y-135774463D01*
X157530013Y-136042252D01*
X157757748Y-136269987D01*
X158025537Y-136448918D01*
X158323088Y-136572168D01*
X158638967Y-136635000D01*
X158959904Y-136635000D01*
X151469682Y-144125222D01*
X151445263Y-144145262D01*
X151365286Y-144242715D01*
X151305858Y-144353898D01*
X151269261Y-144474539D01*
X151256904Y-144600000D01*
X151260001Y-144631444D01*
X151260000Y-153760000D01*
X147140000Y-153760000D01*
X147140000Y-151843891D01*
X147615000Y-151843891D01*
X147615000Y-152156109D01*
X147675911Y-152462327D01*
X147795391Y-152750779D01*
X147968850Y-153010379D01*
X148189621Y-153231150D01*
X148449221Y-153404609D01*
X148737673Y-153524089D01*
X149043891Y-153585000D01*
X149356109Y-153585000D01*
X149662327Y-153524089D01*
X149950779Y-153404609D01*
X150210379Y-153231150D01*
X150431150Y-153010379D01*
X150604609Y-152750779D01*
X150724089Y-152462327D01*
X150785000Y-152156109D01*
X150785000Y-151843891D01*
X150724089Y-151537673D01*
X150604609Y-151249221D01*
X150431150Y-150989621D01*
X150210379Y-150768850D01*
X149950779Y-150595391D01*
X149662327Y-150475911D01*
X149356109Y-150415000D01*
X149043891Y-150415000D01*
X148737673Y-150475911D01*
X148449221Y-150595391D01*
X148189621Y-150768850D01*
X147968850Y-150989621D01*
X147795391Y-151249221D01*
X147675911Y-151537673D01*
X147615000Y-151843891D01*
X147140000Y-151843891D01*
X147140000Y-147843891D01*
X147615000Y-147843891D01*
X147615000Y-148156109D01*
X147675911Y-148462327D01*
X147795391Y-148750779D01*
X147968850Y-149010379D01*
X148189621Y-149231150D01*
X148449221Y-149404609D01*
X148737673Y-149524089D01*
X149043891Y-149585000D01*
X149356109Y-149585000D01*
X149662327Y-149524089D01*
X149950779Y-149404609D01*
X150210379Y-149231150D01*
X150431150Y-149010379D01*
X150604609Y-148750779D01*
X150724089Y-148462327D01*
X150785000Y-148156109D01*
X150785000Y-147843891D01*
X150724089Y-147537673D01*
X150604609Y-147249221D01*
X150431150Y-146989621D01*
X150210379Y-146768850D01*
X149950779Y-146595391D01*
X149662327Y-146475911D01*
X149356109Y-146415000D01*
X149043891Y-146415000D01*
X148737673Y-146475911D01*
X148449221Y-146595391D01*
X148189621Y-146768850D01*
X147968850Y-146989621D01*
X147795391Y-147249221D01*
X147675911Y-147537673D01*
X147615000Y-147843891D01*
X147140000Y-147843891D01*
X147140000Y-130831433D01*
X147143096Y-130799999D01*
X147130739Y-130674537D01*
X147118659Y-130634715D01*
X147094143Y-130553898D01*
X147034715Y-130442715D01*
X146954738Y-130345262D01*
X146930319Y-130325222D01*
X140340000Y-123734904D01*
X140340000Y-116110000D01*
X140511928Y-116110000D01*
X140511928Y-118010000D01*
X140524188Y-118134482D01*
X140560498Y-118254180D01*
X140619463Y-118364494D01*
X140698815Y-118461185D01*
X140795506Y-118540537D01*
X140875289Y-118583182D01*
X140868850Y-118589621D01*
X140695391Y-118849221D01*
X140575911Y-119137673D01*
X140515000Y-119443891D01*
X140515000Y-119756109D01*
X140575911Y-120062327D01*
X140695391Y-120350779D01*
X140868850Y-120610379D01*
X141089621Y-120831150D01*
X141147764Y-120870000D01*
X141089621Y-120908850D01*
X140868850Y-121129621D01*
X140695391Y-121389221D01*
X140575911Y-121677673D01*
X140515000Y-121983891D01*
X140515000Y-122296109D01*
X140575911Y-122602327D01*
X140695391Y-122890779D01*
X140868850Y-123150379D01*
X141089621Y-123371150D01*
X141349221Y-123544609D01*
X141637673Y-123664089D01*
X141943891Y-123725000D01*
X142256109Y-123725000D01*
X142562327Y-123664089D01*
X142850779Y-123544609D01*
X143110379Y-123371150D01*
X143331150Y-123150379D01*
X143504609Y-122890779D01*
X143624089Y-122602327D01*
X143685000Y-122296109D01*
X143685000Y-121983891D01*
X143624089Y-121677673D01*
X143504609Y-121389221D01*
X143331150Y-121129621D01*
X143110379Y-120908850D01*
X143052236Y-120870000D01*
X143110379Y-120831150D01*
X143331150Y-120610379D01*
X143504609Y-120350779D01*
X143624089Y-120062327D01*
X143685000Y-119756109D01*
X143685000Y-119443891D01*
X143624089Y-119137673D01*
X143504609Y-118849221D01*
X143331150Y-118589621D01*
X143324711Y-118583182D01*
X143404494Y-118540537D01*
X143501185Y-118461185D01*
X143580537Y-118364494D01*
X143639502Y-118254180D01*
X143675812Y-118134482D01*
X143688072Y-118010000D01*
X143688072Y-116110000D01*
X143675812Y-115985518D01*
X143639502Y-115865820D01*
X143580537Y-115755506D01*
X143501185Y-115658815D01*
X143404494Y-115579463D01*
X143294180Y-115520498D01*
X143174482Y-115484188D01*
X143050000Y-115471928D01*
X141150000Y-115471928D01*
X141025518Y-115484188D01*
X140905820Y-115520498D01*
X140795506Y-115579463D01*
X140698815Y-115658815D01*
X140619463Y-115755506D01*
X140560498Y-115865820D01*
X140524188Y-115985518D01*
X140511928Y-116110000D01*
X140340000Y-116110000D01*
X140340000Y-114865096D01*
X143980320Y-111224777D01*
X144004738Y-111204738D01*
X144084715Y-111107285D01*
X144144143Y-110996102D01*
X144180739Y-110875462D01*
X144190000Y-110781434D01*
X144190000Y-110781433D01*
X144193096Y-110750001D01*
X144190000Y-110718567D01*
X144190000Y-105881433D01*
X144193096Y-105849999D01*
X144180739Y-105724537D01*
X144148930Y-105619679D01*
X144144143Y-105603898D01*
X144084715Y-105492715D01*
X144004738Y-105395262D01*
X143980319Y-105375222D01*
X143004849Y-104399752D01*
X148279853Y-104399752D01*
X148369579Y-104659042D01*
X148650671Y-104794935D01*
X148952873Y-104873379D01*
X149264573Y-104891359D01*
X149573791Y-104848184D01*
X149868644Y-104745513D01*
X150030421Y-104659042D01*
X150120147Y-104399752D01*
X149200000Y-103479605D01*
X148279853Y-104399752D01*
X143004849Y-104399752D01*
X141969670Y-103364573D01*
X147608641Y-103364573D01*
X147651816Y-103673791D01*
X147754487Y-103968644D01*
X147840958Y-104130421D01*
X148100248Y-104220147D01*
X149020395Y-103300000D01*
X149379605Y-103300000D01*
X150299752Y-104220147D01*
X150559042Y-104130421D01*
X150694935Y-103849329D01*
X150773379Y-103547127D01*
X150791359Y-103235427D01*
X150748184Y-102926209D01*
X150645513Y-102631356D01*
X150559042Y-102469579D01*
X150299752Y-102379853D01*
X149379605Y-103300000D01*
X149020395Y-103300000D01*
X148100248Y-102379853D01*
X147840958Y-102469579D01*
X147705065Y-102750671D01*
X147626621Y-103052873D01*
X147608641Y-103364573D01*
X141969670Y-103364573D01*
X140360847Y-101755750D01*
X142015000Y-101755750D01*
X142015000Y-102482542D01*
X142039403Y-102605223D01*
X142087270Y-102720785D01*
X142156763Y-102824789D01*
X142245211Y-102913237D01*
X142349215Y-102982730D01*
X142464777Y-103030597D01*
X142587458Y-103055000D01*
X143314250Y-103055000D01*
X143473000Y-102896250D01*
X143473000Y-101597000D01*
X143727000Y-101597000D01*
X143727000Y-102896250D01*
X143885750Y-103055000D01*
X144612542Y-103055000D01*
X144735223Y-103030597D01*
X144850785Y-102982730D01*
X144954789Y-102913237D01*
X145043237Y-102824789D01*
X145112730Y-102720785D01*
X145160597Y-102605223D01*
X145185000Y-102482542D01*
X145185000Y-102200248D01*
X148279853Y-102200248D01*
X149200000Y-103120395D01*
X150120147Y-102200248D01*
X150030421Y-101940958D01*
X149749329Y-101805065D01*
X149447127Y-101726621D01*
X149135427Y-101708641D01*
X148826209Y-101751816D01*
X148531356Y-101854487D01*
X148369579Y-101940958D01*
X148279853Y-102200248D01*
X145185000Y-102200248D01*
X145185000Y-101755750D01*
X145026250Y-101597000D01*
X143727000Y-101597000D01*
X143473000Y-101597000D01*
X142173750Y-101597000D01*
X142015000Y-101755750D01*
X140360847Y-101755750D01*
X140340000Y-101734904D01*
X140340000Y-97723100D01*
X142581575Y-97706896D01*
X142368850Y-97919621D01*
X142195391Y-98179221D01*
X142075911Y-98467673D01*
X142015000Y-98773891D01*
X142015000Y-99086109D01*
X142075911Y-99392327D01*
X142195391Y-99680779D01*
X142368850Y-99940379D01*
X142375043Y-99946572D01*
X142349215Y-99957270D01*
X142245211Y-100026763D01*
X142156763Y-100115211D01*
X142087270Y-100219215D01*
X142039403Y-100334777D01*
X142015000Y-100457458D01*
X142015000Y-101184250D01*
X142173750Y-101343000D01*
X143473000Y-101343000D01*
X143473000Y-101323000D01*
X143727000Y-101323000D01*
X143727000Y-101343000D01*
X145026250Y-101343000D01*
X145185000Y-101184250D01*
X145185000Y-101099752D01*
X148279853Y-101099752D01*
X148369579Y-101359042D01*
X148650671Y-101494935D01*
X148952873Y-101573379D01*
X149264573Y-101591359D01*
X149573791Y-101548184D01*
X149868644Y-101445513D01*
X150030421Y-101359042D01*
X150120147Y-101099752D01*
X149200000Y-100179605D01*
X148279853Y-101099752D01*
X145185000Y-101099752D01*
X145185000Y-100457458D01*
X145160597Y-100334777D01*
X145112730Y-100219215D01*
X145043237Y-100115211D01*
X144992599Y-100064573D01*
X147608641Y-100064573D01*
X147651816Y-100373791D01*
X147754487Y-100668644D01*
X147840958Y-100830421D01*
X148100248Y-100920147D01*
X149020395Y-100000000D01*
X149379605Y-100000000D01*
X150299752Y-100920147D01*
X150559042Y-100830421D01*
X150694935Y-100549329D01*
X150773379Y-100247127D01*
X150791359Y-99935427D01*
X150748184Y-99626209D01*
X150645513Y-99331356D01*
X150559042Y-99169579D01*
X150299752Y-99079853D01*
X149379605Y-100000000D01*
X149020395Y-100000000D01*
X148100248Y-99079853D01*
X147840958Y-99169579D01*
X147705065Y-99450671D01*
X147626621Y-99752873D01*
X147608641Y-100064573D01*
X144992599Y-100064573D01*
X144954789Y-100026763D01*
X144850785Y-99957270D01*
X144824957Y-99946572D01*
X144831150Y-99940379D01*
X145004609Y-99680779D01*
X145124089Y-99392327D01*
X145185000Y-99086109D01*
X145185000Y-98900248D01*
X148279853Y-98900248D01*
X149200000Y-99820395D01*
X150120147Y-98900248D01*
X150030421Y-98640958D01*
X149749329Y-98505065D01*
X149447127Y-98426621D01*
X149135427Y-98408641D01*
X148826209Y-98451816D01*
X148531356Y-98554487D01*
X148369579Y-98640958D01*
X148279853Y-98900248D01*
X145185000Y-98900248D01*
X145185000Y-98773891D01*
X145124089Y-98467673D01*
X145004609Y-98179221D01*
X144831150Y-97919621D01*
X144610379Y-97698850D01*
X144600578Y-97692301D01*
X156932843Y-97603152D01*
X156789621Y-97698850D01*
M02*
