%TF.GenerationSoftware,KiCad,Pcbnew,(5.0.0-rc3-dev)*%
%TF.CreationDate,2019-02-19T23:04:41+00:00*%
%TF.ProjectId,battery_breakout,626174746572795F627265616B6F7574,rev?*%
%TF.SameCoordinates,Original*%
%TF.FileFunction,Copper,L2,Bot,Signal*%
%TF.FilePolarity,Positive*%
%FSLAX46Y46*%
G04 Gerber Fmt 4.6, Leading zero omitted, Abs format (unit mm)*
G04 Created by KiCad (PCBNEW (5.0.0-rc3-dev)) date 02/19/19 23:04:41*
%MOMM*%
%LPD*%
G01*
G04 APERTURE LIST*
%ADD10C,0.010000*%
%ADD11C,1.900000*%
%ADD12R,1.900000X1.900000*%
%ADD13C,2.000000*%
%ADD14C,0.254000*%
G04 APERTURE END LIST*
D10*
X156600000Y-130100000D02*
X160500000Y-134000000D01*
X160500000Y-134000000D02*
X160500000Y-136000000D01*
X139700000Y-96450000D02*
X139700000Y-102000000D01*
X143550000Y-110750000D02*
X143550000Y-105850000D01*
X139700000Y-114600000D02*
X143550000Y-110750000D01*
X139700000Y-102000000D02*
X143550000Y-105850000D01*
X151900000Y-154400000D02*
X151900000Y-144600000D01*
X160500000Y-136000000D02*
X151900000Y-144600000D01*
X146500000Y-130800000D02*
X139700000Y-124000000D01*
X146500000Y-154400000D02*
X146500000Y-130800000D01*
X151900000Y-154400000D02*
X146500000Y-154400000D01*
X156600000Y-130100000D02*
X156600000Y-106050000D01*
X156600000Y-106050000D02*
X159450000Y-103200000D01*
X159450000Y-103200000D02*
X159450000Y-97200000D01*
X139700000Y-114600000D02*
X139700000Y-124000000D01*
X155700000Y-88700000D02*
X155700000Y-93450000D01*
X159450000Y-97200000D02*
X155700000Y-93450000D01*
X142700000Y-93450000D02*
X142700000Y-88700000D01*
X139700000Y-96450000D02*
X142700000Y-93450000D01*
X155700000Y-88700000D02*
X142700000Y-88700000D01*
D11*
X149200000Y-100000000D03*
X149200000Y-152000000D03*
X149200000Y-148000000D03*
X149200000Y-103300000D03*
D12*
X154900000Y-117060000D03*
D11*
X154900000Y-119600000D03*
X142100000Y-122140000D03*
X142100000Y-119600000D03*
D12*
X142100000Y-117060000D03*
D11*
X157800000Y-98930000D03*
D12*
X157800000Y-101470000D03*
X143600000Y-101470000D03*
D11*
X143600000Y-98930000D03*
D13*
X158800000Y-135000000D03*
D14*
G36*
X156879853Y-97830248D02*
X157800000Y-98750395D01*
X157814143Y-98736253D01*
X157993748Y-98915858D01*
X157979605Y-98930000D01*
X157993748Y-98944143D01*
X157814143Y-99123748D01*
X157800000Y-99109605D01*
X157785858Y-99123748D01*
X157606253Y-98944143D01*
X157620395Y-98930000D01*
X156700248Y-98009853D01*
X156440958Y-98099579D01*
X156305065Y-98380671D01*
X156226621Y-98682873D01*
X156208641Y-98994573D01*
X156251816Y-99303791D01*
X156354487Y-99598644D01*
X156440958Y-99760421D01*
X156700246Y-99850146D01*
X156626022Y-99924370D01*
X156605820Y-99930498D01*
X156495506Y-99989463D01*
X156398815Y-100068815D01*
X156319463Y-100165506D01*
X156260498Y-100275820D01*
X156224188Y-100395518D01*
X156211928Y-100520000D01*
X156211928Y-102420000D01*
X156224188Y-102544482D01*
X156260498Y-102664180D01*
X156319463Y-102774494D01*
X156398815Y-102871185D01*
X156495506Y-102950537D01*
X156605820Y-103009502D01*
X156725518Y-103045812D01*
X156850000Y-103058072D01*
X158686832Y-103058072D01*
X156169682Y-105575222D01*
X156145263Y-105595262D01*
X156065286Y-105692715D01*
X156005858Y-105803898D01*
X155969261Y-105924539D01*
X155956904Y-106050000D01*
X155960001Y-106081444D01*
X155960001Y-115482762D01*
X155850000Y-115471928D01*
X153950000Y-115471928D01*
X153825518Y-115484188D01*
X153705820Y-115520498D01*
X153595506Y-115579463D01*
X153498815Y-115658815D01*
X153419463Y-115755506D01*
X153360498Y-115865820D01*
X153324188Y-115985518D01*
X153311928Y-116110000D01*
X153311928Y-118010000D01*
X153324188Y-118134482D01*
X153360498Y-118254180D01*
X153419463Y-118364494D01*
X153498815Y-118461185D01*
X153595506Y-118540537D01*
X153675289Y-118583182D01*
X153668850Y-118589621D01*
X153495391Y-118849221D01*
X153375911Y-119137673D01*
X153315000Y-119443891D01*
X153315000Y-119756109D01*
X153375911Y-120062327D01*
X153495391Y-120350779D01*
X153668850Y-120610379D01*
X153889621Y-120831150D01*
X154149221Y-121004609D01*
X154437673Y-121124089D01*
X154743891Y-121185000D01*
X155056109Y-121185000D01*
X155362327Y-121124089D01*
X155650779Y-121004609D01*
X155910379Y-120831150D01*
X155960000Y-120781529D01*
X155960000Y-130068566D01*
X155956904Y-130100000D01*
X155960000Y-130131433D01*
X155969261Y-130225461D01*
X156005857Y-130346101D01*
X156065285Y-130457284D01*
X156145262Y-130554738D01*
X156169687Y-130574783D01*
X158966993Y-133372089D01*
X158737405Y-133358282D01*
X158418325Y-133402039D01*
X158113912Y-133507205D01*
X157939956Y-133600186D01*
X157844192Y-133864587D01*
X158800000Y-134820395D01*
X158814143Y-134806253D01*
X158993748Y-134985858D01*
X158979605Y-135000000D01*
X158993748Y-135014143D01*
X158814143Y-135193748D01*
X158800000Y-135179605D01*
X157844192Y-136135413D01*
X157939956Y-136399814D01*
X158229571Y-136540704D01*
X158541108Y-136622384D01*
X158862595Y-136641718D01*
X158967584Y-136627320D01*
X151469682Y-144125222D01*
X151445263Y-144145262D01*
X151365286Y-144242715D01*
X151305858Y-144353898D01*
X151269261Y-144474539D01*
X151256904Y-144600000D01*
X151260001Y-144631444D01*
X151260000Y-153760000D01*
X147140000Y-153760000D01*
X147140000Y-153099752D01*
X148279853Y-153099752D01*
X148369579Y-153359042D01*
X148650671Y-153494935D01*
X148952873Y-153573379D01*
X149264573Y-153591359D01*
X149573791Y-153548184D01*
X149868644Y-153445513D01*
X150030421Y-153359042D01*
X150120147Y-153099752D01*
X149200000Y-152179605D01*
X148279853Y-153099752D01*
X147140000Y-153099752D01*
X147140000Y-152064573D01*
X147608641Y-152064573D01*
X147651816Y-152373791D01*
X147754487Y-152668644D01*
X147840958Y-152830421D01*
X148100248Y-152920147D01*
X149020395Y-152000000D01*
X149379605Y-152000000D01*
X150299752Y-152920147D01*
X150559042Y-152830421D01*
X150694935Y-152549329D01*
X150773379Y-152247127D01*
X150791359Y-151935427D01*
X150748184Y-151626209D01*
X150645513Y-151331356D01*
X150559042Y-151169579D01*
X150299752Y-151079853D01*
X149379605Y-152000000D01*
X149020395Y-152000000D01*
X148100248Y-151079853D01*
X147840958Y-151169579D01*
X147705065Y-151450671D01*
X147626621Y-151752873D01*
X147608641Y-152064573D01*
X147140000Y-152064573D01*
X147140000Y-150900248D01*
X148279853Y-150900248D01*
X149200000Y-151820395D01*
X150120147Y-150900248D01*
X150030421Y-150640958D01*
X149749329Y-150505065D01*
X149447127Y-150426621D01*
X149135427Y-150408641D01*
X148826209Y-150451816D01*
X148531356Y-150554487D01*
X148369579Y-150640958D01*
X148279853Y-150900248D01*
X147140000Y-150900248D01*
X147140000Y-149099752D01*
X148279853Y-149099752D01*
X148369579Y-149359042D01*
X148650671Y-149494935D01*
X148952873Y-149573379D01*
X149264573Y-149591359D01*
X149573791Y-149548184D01*
X149868644Y-149445513D01*
X150030421Y-149359042D01*
X150120147Y-149099752D01*
X149200000Y-148179605D01*
X148279853Y-149099752D01*
X147140000Y-149099752D01*
X147140000Y-148064573D01*
X147608641Y-148064573D01*
X147651816Y-148373791D01*
X147754487Y-148668644D01*
X147840958Y-148830421D01*
X148100248Y-148920147D01*
X149020395Y-148000000D01*
X149379605Y-148000000D01*
X150299752Y-148920147D01*
X150559042Y-148830421D01*
X150694935Y-148549329D01*
X150773379Y-148247127D01*
X150791359Y-147935427D01*
X150748184Y-147626209D01*
X150645513Y-147331356D01*
X150559042Y-147169579D01*
X150299752Y-147079853D01*
X149379605Y-148000000D01*
X149020395Y-148000000D01*
X148100248Y-147079853D01*
X147840958Y-147169579D01*
X147705065Y-147450671D01*
X147626621Y-147752873D01*
X147608641Y-148064573D01*
X147140000Y-148064573D01*
X147140000Y-146900248D01*
X148279853Y-146900248D01*
X149200000Y-147820395D01*
X150120147Y-146900248D01*
X150030421Y-146640958D01*
X149749329Y-146505065D01*
X149447127Y-146426621D01*
X149135427Y-146408641D01*
X148826209Y-146451816D01*
X148531356Y-146554487D01*
X148369579Y-146640958D01*
X148279853Y-146900248D01*
X147140000Y-146900248D01*
X147140000Y-135062595D01*
X157158282Y-135062595D01*
X157202039Y-135381675D01*
X157307205Y-135686088D01*
X157400186Y-135860044D01*
X157664587Y-135955808D01*
X158620395Y-135000000D01*
X157664587Y-134044192D01*
X157400186Y-134139956D01*
X157259296Y-134429571D01*
X157177616Y-134741108D01*
X157158282Y-135062595D01*
X147140000Y-135062595D01*
X147140000Y-130831433D01*
X147143096Y-130799999D01*
X147130739Y-130674537D01*
X147118659Y-130634715D01*
X147094143Y-130553898D01*
X147034715Y-130442715D01*
X146954738Y-130345262D01*
X146930319Y-130325222D01*
X140340000Y-123734904D01*
X140340000Y-116110000D01*
X140511928Y-116110000D01*
X140511928Y-118010000D01*
X140524188Y-118134482D01*
X140560498Y-118254180D01*
X140619463Y-118364494D01*
X140698815Y-118461185D01*
X140795506Y-118540537D01*
X140875289Y-118583182D01*
X140868850Y-118589621D01*
X140695391Y-118849221D01*
X140575911Y-119137673D01*
X140515000Y-119443891D01*
X140515000Y-119756109D01*
X140575911Y-120062327D01*
X140695391Y-120350779D01*
X140868850Y-120610379D01*
X141089621Y-120831150D01*
X141147764Y-120870000D01*
X141089621Y-120908850D01*
X140868850Y-121129621D01*
X140695391Y-121389221D01*
X140575911Y-121677673D01*
X140515000Y-121983891D01*
X140515000Y-122296109D01*
X140575911Y-122602327D01*
X140695391Y-122890779D01*
X140868850Y-123150379D01*
X141089621Y-123371150D01*
X141349221Y-123544609D01*
X141637673Y-123664089D01*
X141943891Y-123725000D01*
X142256109Y-123725000D01*
X142562327Y-123664089D01*
X142850779Y-123544609D01*
X143110379Y-123371150D01*
X143331150Y-123150379D01*
X143504609Y-122890779D01*
X143624089Y-122602327D01*
X143685000Y-122296109D01*
X143685000Y-121983891D01*
X143624089Y-121677673D01*
X143504609Y-121389221D01*
X143331150Y-121129621D01*
X143110379Y-120908850D01*
X143052236Y-120870000D01*
X143110379Y-120831150D01*
X143331150Y-120610379D01*
X143504609Y-120350779D01*
X143624089Y-120062327D01*
X143685000Y-119756109D01*
X143685000Y-119443891D01*
X143624089Y-119137673D01*
X143504609Y-118849221D01*
X143331150Y-118589621D01*
X143324711Y-118583182D01*
X143404494Y-118540537D01*
X143501185Y-118461185D01*
X143580537Y-118364494D01*
X143639502Y-118254180D01*
X143675812Y-118134482D01*
X143688072Y-118010000D01*
X143688072Y-116110000D01*
X143675812Y-115985518D01*
X143639502Y-115865820D01*
X143580537Y-115755506D01*
X143501185Y-115658815D01*
X143404494Y-115579463D01*
X143294180Y-115520498D01*
X143174482Y-115484188D01*
X143050000Y-115471928D01*
X141150000Y-115471928D01*
X141025518Y-115484188D01*
X140905820Y-115520498D01*
X140795506Y-115579463D01*
X140698815Y-115658815D01*
X140619463Y-115755506D01*
X140560498Y-115865820D01*
X140524188Y-115985518D01*
X140511928Y-116110000D01*
X140340000Y-116110000D01*
X140340000Y-114865096D01*
X143980320Y-111224777D01*
X144004738Y-111204738D01*
X144084715Y-111107285D01*
X144144143Y-110996102D01*
X144180739Y-110875462D01*
X144190000Y-110781434D01*
X144190000Y-110781433D01*
X144193096Y-110750001D01*
X144190000Y-110718567D01*
X144190000Y-105881433D01*
X144193096Y-105849999D01*
X144180739Y-105724537D01*
X144148930Y-105619679D01*
X144144143Y-105603898D01*
X144084715Y-105492715D01*
X144004738Y-105395262D01*
X143980319Y-105375222D01*
X141748988Y-103143891D01*
X147615000Y-103143891D01*
X147615000Y-103456109D01*
X147675911Y-103762327D01*
X147795391Y-104050779D01*
X147968850Y-104310379D01*
X148189621Y-104531150D01*
X148449221Y-104704609D01*
X148737673Y-104824089D01*
X149043891Y-104885000D01*
X149356109Y-104885000D01*
X149662327Y-104824089D01*
X149950779Y-104704609D01*
X150210379Y-104531150D01*
X150431150Y-104310379D01*
X150604609Y-104050779D01*
X150724089Y-103762327D01*
X150785000Y-103456109D01*
X150785000Y-103143891D01*
X150724089Y-102837673D01*
X150604609Y-102549221D01*
X150431150Y-102289621D01*
X150210379Y-102068850D01*
X149950779Y-101895391D01*
X149662327Y-101775911D01*
X149356109Y-101715000D01*
X149043891Y-101715000D01*
X148737673Y-101775911D01*
X148449221Y-101895391D01*
X148189621Y-102068850D01*
X147968850Y-102289621D01*
X147795391Y-102549221D01*
X147675911Y-102837673D01*
X147615000Y-103143891D01*
X141748988Y-103143891D01*
X140340000Y-101734904D01*
X140340000Y-98994573D01*
X142008641Y-98994573D01*
X142051816Y-99303791D01*
X142154487Y-99598644D01*
X142240958Y-99760421D01*
X142500246Y-99850146D01*
X142426022Y-99924370D01*
X142405820Y-99930498D01*
X142295506Y-99989463D01*
X142198815Y-100068815D01*
X142119463Y-100165506D01*
X142060498Y-100275820D01*
X142024188Y-100395518D01*
X142011928Y-100520000D01*
X142011928Y-102420000D01*
X142024188Y-102544482D01*
X142060498Y-102664180D01*
X142119463Y-102774494D01*
X142198815Y-102871185D01*
X142295506Y-102950537D01*
X142405820Y-103009502D01*
X142525518Y-103045812D01*
X142650000Y-103058072D01*
X144550000Y-103058072D01*
X144674482Y-103045812D01*
X144794180Y-103009502D01*
X144904494Y-102950537D01*
X145001185Y-102871185D01*
X145080537Y-102774494D01*
X145139502Y-102664180D01*
X145175812Y-102544482D01*
X145188072Y-102420000D01*
X145188072Y-100520000D01*
X145175812Y-100395518D01*
X145139502Y-100275820D01*
X145080537Y-100165506D01*
X145001185Y-100068815D01*
X144904494Y-99989463D01*
X144794180Y-99930498D01*
X144773978Y-99924370D01*
X144699754Y-99850146D01*
X144717829Y-99843891D01*
X147615000Y-99843891D01*
X147615000Y-100156109D01*
X147675911Y-100462327D01*
X147795391Y-100750779D01*
X147968850Y-101010379D01*
X148189621Y-101231150D01*
X148449221Y-101404609D01*
X148737673Y-101524089D01*
X149043891Y-101585000D01*
X149356109Y-101585000D01*
X149662327Y-101524089D01*
X149950779Y-101404609D01*
X150210379Y-101231150D01*
X150431150Y-101010379D01*
X150604609Y-100750779D01*
X150724089Y-100462327D01*
X150785000Y-100156109D01*
X150785000Y-99843891D01*
X150724089Y-99537673D01*
X150604609Y-99249221D01*
X150431150Y-98989621D01*
X150210379Y-98768850D01*
X149950779Y-98595391D01*
X149662327Y-98475911D01*
X149356109Y-98415000D01*
X149043891Y-98415000D01*
X148737673Y-98475911D01*
X148449221Y-98595391D01*
X148189621Y-98768850D01*
X147968850Y-98989621D01*
X147795391Y-99249221D01*
X147675911Y-99537673D01*
X147615000Y-99843891D01*
X144717829Y-99843891D01*
X144959042Y-99760421D01*
X145094935Y-99479329D01*
X145173379Y-99177127D01*
X145191359Y-98865427D01*
X145148184Y-98556209D01*
X145045513Y-98261356D01*
X144959042Y-98099579D01*
X144699752Y-98009853D01*
X143779605Y-98930000D01*
X143793748Y-98944143D01*
X143614143Y-99123748D01*
X143600000Y-99109605D01*
X143585858Y-99123748D01*
X143406253Y-98944143D01*
X143420395Y-98930000D01*
X142500248Y-98009853D01*
X142240958Y-98099579D01*
X142105065Y-98380671D01*
X142026621Y-98682873D01*
X142008641Y-98994573D01*
X140340000Y-98994573D01*
X140340000Y-97723110D01*
X142722874Y-97705925D01*
X142679853Y-97830248D01*
X143600000Y-98750395D01*
X144520147Y-97830248D01*
X144472759Y-97693306D01*
X156958399Y-97603265D01*
X156879853Y-97830248D01*
X156879853Y-97830248D01*
G37*
X156879853Y-97830248D02*
X157800000Y-98750395D01*
X157814143Y-98736253D01*
X157993748Y-98915858D01*
X157979605Y-98930000D01*
X157993748Y-98944143D01*
X157814143Y-99123748D01*
X157800000Y-99109605D01*
X157785858Y-99123748D01*
X157606253Y-98944143D01*
X157620395Y-98930000D01*
X156700248Y-98009853D01*
X156440958Y-98099579D01*
X156305065Y-98380671D01*
X156226621Y-98682873D01*
X156208641Y-98994573D01*
X156251816Y-99303791D01*
X156354487Y-99598644D01*
X156440958Y-99760421D01*
X156700246Y-99850146D01*
X156626022Y-99924370D01*
X156605820Y-99930498D01*
X156495506Y-99989463D01*
X156398815Y-100068815D01*
X156319463Y-100165506D01*
X156260498Y-100275820D01*
X156224188Y-100395518D01*
X156211928Y-100520000D01*
X156211928Y-102420000D01*
X156224188Y-102544482D01*
X156260498Y-102664180D01*
X156319463Y-102774494D01*
X156398815Y-102871185D01*
X156495506Y-102950537D01*
X156605820Y-103009502D01*
X156725518Y-103045812D01*
X156850000Y-103058072D01*
X158686832Y-103058072D01*
X156169682Y-105575222D01*
X156145263Y-105595262D01*
X156065286Y-105692715D01*
X156005858Y-105803898D01*
X155969261Y-105924539D01*
X155956904Y-106050000D01*
X155960001Y-106081444D01*
X155960001Y-115482762D01*
X155850000Y-115471928D01*
X153950000Y-115471928D01*
X153825518Y-115484188D01*
X153705820Y-115520498D01*
X153595506Y-115579463D01*
X153498815Y-115658815D01*
X153419463Y-115755506D01*
X153360498Y-115865820D01*
X153324188Y-115985518D01*
X153311928Y-116110000D01*
X153311928Y-118010000D01*
X153324188Y-118134482D01*
X153360498Y-118254180D01*
X153419463Y-118364494D01*
X153498815Y-118461185D01*
X153595506Y-118540537D01*
X153675289Y-118583182D01*
X153668850Y-118589621D01*
X153495391Y-118849221D01*
X153375911Y-119137673D01*
X153315000Y-119443891D01*
X153315000Y-119756109D01*
X153375911Y-120062327D01*
X153495391Y-120350779D01*
X153668850Y-120610379D01*
X153889621Y-120831150D01*
X154149221Y-121004609D01*
X154437673Y-121124089D01*
X154743891Y-121185000D01*
X155056109Y-121185000D01*
X155362327Y-121124089D01*
X155650779Y-121004609D01*
X155910379Y-120831150D01*
X155960000Y-120781529D01*
X155960000Y-130068566D01*
X155956904Y-130100000D01*
X155960000Y-130131433D01*
X155969261Y-130225461D01*
X156005857Y-130346101D01*
X156065285Y-130457284D01*
X156145262Y-130554738D01*
X156169687Y-130574783D01*
X158966993Y-133372089D01*
X158737405Y-133358282D01*
X158418325Y-133402039D01*
X158113912Y-133507205D01*
X157939956Y-133600186D01*
X157844192Y-133864587D01*
X158800000Y-134820395D01*
X158814143Y-134806253D01*
X158993748Y-134985858D01*
X158979605Y-135000000D01*
X158993748Y-135014143D01*
X158814143Y-135193748D01*
X158800000Y-135179605D01*
X157844192Y-136135413D01*
X157939956Y-136399814D01*
X158229571Y-136540704D01*
X158541108Y-136622384D01*
X158862595Y-136641718D01*
X158967584Y-136627320D01*
X151469682Y-144125222D01*
X151445263Y-144145262D01*
X151365286Y-144242715D01*
X151305858Y-144353898D01*
X151269261Y-144474539D01*
X151256904Y-144600000D01*
X151260001Y-144631444D01*
X151260000Y-153760000D01*
X147140000Y-153760000D01*
X147140000Y-153099752D01*
X148279853Y-153099752D01*
X148369579Y-153359042D01*
X148650671Y-153494935D01*
X148952873Y-153573379D01*
X149264573Y-153591359D01*
X149573791Y-153548184D01*
X149868644Y-153445513D01*
X150030421Y-153359042D01*
X150120147Y-153099752D01*
X149200000Y-152179605D01*
X148279853Y-153099752D01*
X147140000Y-153099752D01*
X147140000Y-152064573D01*
X147608641Y-152064573D01*
X147651816Y-152373791D01*
X147754487Y-152668644D01*
X147840958Y-152830421D01*
X148100248Y-152920147D01*
X149020395Y-152000000D01*
X149379605Y-152000000D01*
X150299752Y-152920147D01*
X150559042Y-152830421D01*
X150694935Y-152549329D01*
X150773379Y-152247127D01*
X150791359Y-151935427D01*
X150748184Y-151626209D01*
X150645513Y-151331356D01*
X150559042Y-151169579D01*
X150299752Y-151079853D01*
X149379605Y-152000000D01*
X149020395Y-152000000D01*
X148100248Y-151079853D01*
X147840958Y-151169579D01*
X147705065Y-151450671D01*
X147626621Y-151752873D01*
X147608641Y-152064573D01*
X147140000Y-152064573D01*
X147140000Y-150900248D01*
X148279853Y-150900248D01*
X149200000Y-151820395D01*
X150120147Y-150900248D01*
X150030421Y-150640958D01*
X149749329Y-150505065D01*
X149447127Y-150426621D01*
X149135427Y-150408641D01*
X148826209Y-150451816D01*
X148531356Y-150554487D01*
X148369579Y-150640958D01*
X148279853Y-150900248D01*
X147140000Y-150900248D01*
X147140000Y-149099752D01*
X148279853Y-149099752D01*
X148369579Y-149359042D01*
X148650671Y-149494935D01*
X148952873Y-149573379D01*
X149264573Y-149591359D01*
X149573791Y-149548184D01*
X149868644Y-149445513D01*
X150030421Y-149359042D01*
X150120147Y-149099752D01*
X149200000Y-148179605D01*
X148279853Y-149099752D01*
X147140000Y-149099752D01*
X147140000Y-148064573D01*
X147608641Y-148064573D01*
X147651816Y-148373791D01*
X147754487Y-148668644D01*
X147840958Y-148830421D01*
X148100248Y-148920147D01*
X149020395Y-148000000D01*
X149379605Y-148000000D01*
X150299752Y-148920147D01*
X150559042Y-148830421D01*
X150694935Y-148549329D01*
X150773379Y-148247127D01*
X150791359Y-147935427D01*
X150748184Y-147626209D01*
X150645513Y-147331356D01*
X150559042Y-147169579D01*
X150299752Y-147079853D01*
X149379605Y-148000000D01*
X149020395Y-148000000D01*
X148100248Y-147079853D01*
X147840958Y-147169579D01*
X147705065Y-147450671D01*
X147626621Y-147752873D01*
X147608641Y-148064573D01*
X147140000Y-148064573D01*
X147140000Y-146900248D01*
X148279853Y-146900248D01*
X149200000Y-147820395D01*
X150120147Y-146900248D01*
X150030421Y-146640958D01*
X149749329Y-146505065D01*
X149447127Y-146426621D01*
X149135427Y-146408641D01*
X148826209Y-146451816D01*
X148531356Y-146554487D01*
X148369579Y-146640958D01*
X148279853Y-146900248D01*
X147140000Y-146900248D01*
X147140000Y-135062595D01*
X157158282Y-135062595D01*
X157202039Y-135381675D01*
X157307205Y-135686088D01*
X157400186Y-135860044D01*
X157664587Y-135955808D01*
X158620395Y-135000000D01*
X157664587Y-134044192D01*
X157400186Y-134139956D01*
X157259296Y-134429571D01*
X157177616Y-134741108D01*
X157158282Y-135062595D01*
X147140000Y-135062595D01*
X147140000Y-130831433D01*
X147143096Y-130799999D01*
X147130739Y-130674537D01*
X147118659Y-130634715D01*
X147094143Y-130553898D01*
X147034715Y-130442715D01*
X146954738Y-130345262D01*
X146930319Y-130325222D01*
X140340000Y-123734904D01*
X140340000Y-116110000D01*
X140511928Y-116110000D01*
X140511928Y-118010000D01*
X140524188Y-118134482D01*
X140560498Y-118254180D01*
X140619463Y-118364494D01*
X140698815Y-118461185D01*
X140795506Y-118540537D01*
X140875289Y-118583182D01*
X140868850Y-118589621D01*
X140695391Y-118849221D01*
X140575911Y-119137673D01*
X140515000Y-119443891D01*
X140515000Y-119756109D01*
X140575911Y-120062327D01*
X140695391Y-120350779D01*
X140868850Y-120610379D01*
X141089621Y-120831150D01*
X141147764Y-120870000D01*
X141089621Y-120908850D01*
X140868850Y-121129621D01*
X140695391Y-121389221D01*
X140575911Y-121677673D01*
X140515000Y-121983891D01*
X140515000Y-122296109D01*
X140575911Y-122602327D01*
X140695391Y-122890779D01*
X140868850Y-123150379D01*
X141089621Y-123371150D01*
X141349221Y-123544609D01*
X141637673Y-123664089D01*
X141943891Y-123725000D01*
X142256109Y-123725000D01*
X142562327Y-123664089D01*
X142850779Y-123544609D01*
X143110379Y-123371150D01*
X143331150Y-123150379D01*
X143504609Y-122890779D01*
X143624089Y-122602327D01*
X143685000Y-122296109D01*
X143685000Y-121983891D01*
X143624089Y-121677673D01*
X143504609Y-121389221D01*
X143331150Y-121129621D01*
X143110379Y-120908850D01*
X143052236Y-120870000D01*
X143110379Y-120831150D01*
X143331150Y-120610379D01*
X143504609Y-120350779D01*
X143624089Y-120062327D01*
X143685000Y-119756109D01*
X143685000Y-119443891D01*
X143624089Y-119137673D01*
X143504609Y-118849221D01*
X143331150Y-118589621D01*
X143324711Y-118583182D01*
X143404494Y-118540537D01*
X143501185Y-118461185D01*
X143580537Y-118364494D01*
X143639502Y-118254180D01*
X143675812Y-118134482D01*
X143688072Y-118010000D01*
X143688072Y-116110000D01*
X143675812Y-115985518D01*
X143639502Y-115865820D01*
X143580537Y-115755506D01*
X143501185Y-115658815D01*
X143404494Y-115579463D01*
X143294180Y-115520498D01*
X143174482Y-115484188D01*
X143050000Y-115471928D01*
X141150000Y-115471928D01*
X141025518Y-115484188D01*
X140905820Y-115520498D01*
X140795506Y-115579463D01*
X140698815Y-115658815D01*
X140619463Y-115755506D01*
X140560498Y-115865820D01*
X140524188Y-115985518D01*
X140511928Y-116110000D01*
X140340000Y-116110000D01*
X140340000Y-114865096D01*
X143980320Y-111224777D01*
X144004738Y-111204738D01*
X144084715Y-111107285D01*
X144144143Y-110996102D01*
X144180739Y-110875462D01*
X144190000Y-110781434D01*
X144190000Y-110781433D01*
X144193096Y-110750001D01*
X144190000Y-110718567D01*
X144190000Y-105881433D01*
X144193096Y-105849999D01*
X144180739Y-105724537D01*
X144148930Y-105619679D01*
X144144143Y-105603898D01*
X144084715Y-105492715D01*
X144004738Y-105395262D01*
X143980319Y-105375222D01*
X141748988Y-103143891D01*
X147615000Y-103143891D01*
X147615000Y-103456109D01*
X147675911Y-103762327D01*
X147795391Y-104050779D01*
X147968850Y-104310379D01*
X148189621Y-104531150D01*
X148449221Y-104704609D01*
X148737673Y-104824089D01*
X149043891Y-104885000D01*
X149356109Y-104885000D01*
X149662327Y-104824089D01*
X149950779Y-104704609D01*
X150210379Y-104531150D01*
X150431150Y-104310379D01*
X150604609Y-104050779D01*
X150724089Y-103762327D01*
X150785000Y-103456109D01*
X150785000Y-103143891D01*
X150724089Y-102837673D01*
X150604609Y-102549221D01*
X150431150Y-102289621D01*
X150210379Y-102068850D01*
X149950779Y-101895391D01*
X149662327Y-101775911D01*
X149356109Y-101715000D01*
X149043891Y-101715000D01*
X148737673Y-101775911D01*
X148449221Y-101895391D01*
X148189621Y-102068850D01*
X147968850Y-102289621D01*
X147795391Y-102549221D01*
X147675911Y-102837673D01*
X147615000Y-103143891D01*
X141748988Y-103143891D01*
X140340000Y-101734904D01*
X140340000Y-98994573D01*
X142008641Y-98994573D01*
X142051816Y-99303791D01*
X142154487Y-99598644D01*
X142240958Y-99760421D01*
X142500246Y-99850146D01*
X142426022Y-99924370D01*
X142405820Y-99930498D01*
X142295506Y-99989463D01*
X142198815Y-100068815D01*
X142119463Y-100165506D01*
X142060498Y-100275820D01*
X142024188Y-100395518D01*
X142011928Y-100520000D01*
X142011928Y-102420000D01*
X142024188Y-102544482D01*
X142060498Y-102664180D01*
X142119463Y-102774494D01*
X142198815Y-102871185D01*
X142295506Y-102950537D01*
X142405820Y-103009502D01*
X142525518Y-103045812D01*
X142650000Y-103058072D01*
X144550000Y-103058072D01*
X144674482Y-103045812D01*
X144794180Y-103009502D01*
X144904494Y-102950537D01*
X145001185Y-102871185D01*
X145080537Y-102774494D01*
X145139502Y-102664180D01*
X145175812Y-102544482D01*
X145188072Y-102420000D01*
X145188072Y-100520000D01*
X145175812Y-100395518D01*
X145139502Y-100275820D01*
X145080537Y-100165506D01*
X145001185Y-100068815D01*
X144904494Y-99989463D01*
X144794180Y-99930498D01*
X144773978Y-99924370D01*
X144699754Y-99850146D01*
X144717829Y-99843891D01*
X147615000Y-99843891D01*
X147615000Y-100156109D01*
X147675911Y-100462327D01*
X147795391Y-100750779D01*
X147968850Y-101010379D01*
X148189621Y-101231150D01*
X148449221Y-101404609D01*
X148737673Y-101524089D01*
X149043891Y-101585000D01*
X149356109Y-101585000D01*
X149662327Y-101524089D01*
X149950779Y-101404609D01*
X150210379Y-101231150D01*
X150431150Y-101010379D01*
X150604609Y-100750779D01*
X150724089Y-100462327D01*
X150785000Y-100156109D01*
X150785000Y-99843891D01*
X150724089Y-99537673D01*
X150604609Y-99249221D01*
X150431150Y-98989621D01*
X150210379Y-98768850D01*
X149950779Y-98595391D01*
X149662327Y-98475911D01*
X149356109Y-98415000D01*
X149043891Y-98415000D01*
X148737673Y-98475911D01*
X148449221Y-98595391D01*
X148189621Y-98768850D01*
X147968850Y-98989621D01*
X147795391Y-99249221D01*
X147675911Y-99537673D01*
X147615000Y-99843891D01*
X144717829Y-99843891D01*
X144959042Y-99760421D01*
X145094935Y-99479329D01*
X145173379Y-99177127D01*
X145191359Y-98865427D01*
X145148184Y-98556209D01*
X145045513Y-98261356D01*
X144959042Y-98099579D01*
X144699752Y-98009853D01*
X143779605Y-98930000D01*
X143793748Y-98944143D01*
X143614143Y-99123748D01*
X143600000Y-99109605D01*
X143585858Y-99123748D01*
X143406253Y-98944143D01*
X143420395Y-98930000D01*
X142500248Y-98009853D01*
X142240958Y-98099579D01*
X142105065Y-98380671D01*
X142026621Y-98682873D01*
X142008641Y-98994573D01*
X140340000Y-98994573D01*
X140340000Y-97723110D01*
X142722874Y-97705925D01*
X142679853Y-97830248D01*
X143600000Y-98750395D01*
X144520147Y-97830248D01*
X144472759Y-97693306D01*
X156958399Y-97603265D01*
X156879853Y-97830248D01*
M02*
